<?xml version="1.0" encoding="utf-8" standalone="no"?>
<!DOCTYPE svg PUBLIC "-//W3C//DTD SVG 1.1//EN"
  "http://www.w3.org/Graphics/SVG/1.1/DTD/svg11.dtd">
<svg xmlns:xlink="http://www.w3.org/1999/xlink" width="1080pt" height="331.2pt" viewBox="0 0 1080 331.2" xmlns="http://www.w3.org/2000/svg" version="1.1">
 <metadata>
  <rdf:RDF xmlns:dc="http://purl.org/dc/elements/1.1/" xmlns:cc="http://creativecommons.org/ns#" xmlns:rdf="http://www.w3.org/1999/02/22-rdf-syntax-ns#">
   <cc:Work>
    <dc:type rdf:resource="http://purl.org/dc/dcmitype/StillImage"/>
    <dc:date>2026-06-08T18:29:38.021642</dc:date>
    <dc:format>image/svg+xml</dc:format>
    <dc:creator>
     <cc:Agent>
      <dc:title>Matplotlib v3.9.3, https://matplotlib.org/</dc:title>
     </cc:Agent>
    </dc:creator>
   </cc:Work>
  </rdf:RDF>
 </metadata>
 <defs>
  <style type="text/css">*{stroke-linejoin: round; stroke-linecap: butt}</style>
 </defs>
 <g id="figure_1">
  <g id="patch_1">
   <path d="M 0 331.2 
L 1080 331.2 
L 1080 0 
L 0 0 
z
" style="fill: #ffffff"/>
  </g>
  <g id="axes_1">
   <g id="patch_2">
    <path d="M 801.242045 72.451232 
Q 845.331995 72.451232 886.067843 72.451232 
" clip-path="url(#p80873d3ad2)" style="fill: none; stroke: #c0392b; stroke-width: 3; stroke-linecap: round"/>
    <path d="M 881.667843 70.251232 
L 886.067843 72.451232 
L 881.667843 74.651232 
z
" clip-path="url(#p80873d3ad2)" style="fill: #c0392b; stroke: #c0392b; stroke-width: 3; stroke-linecap: round"/>
   </g>
   <g id="patch_3">
    <path d="M 801.242045 86.916463 
Q 845.331995 86.916463 886.067843 86.916463 
" clip-path="url(#p80873d3ad2)" style="fill: none; stroke: #7a1f12; stroke-width: 3; stroke-linecap: round"/>
    <path d="M 881.667843 84.716463 
L 886.067843 86.916463 
L 881.667843 89.116463 
z
" clip-path="url(#p80873d3ad2)" style="fill: #7a1f12; stroke: #7a1f12; stroke-width: 3; stroke-linecap: round"/>
   </g>
   <g id="patch_4">
    <path d="M 801.242045 101.381694 
Q 845.331995 101.381694 886.067843 101.381694 
" clip-path="url(#p80873d3ad2)" style="fill: none; stroke: #c0392b; stroke-width: 3; stroke-linecap: round"/>
    <path d="M 881.667843 99.181694 
L 886.067843 101.381694 
L 881.667843 103.581694 
z
" clip-path="url(#p80873d3ad2)" style="fill: #c0392b; stroke: #c0392b; stroke-width: 3; stroke-linecap: round"/>
   </g>
   <g id="patch_5">
    <path d="M 801.242045 115.846926 
Q 845.331995 115.846926 886.067843 115.846926 
" clip-path="url(#p80873d3ad2)" style="fill: none; stroke: #7a1f12; stroke-width: 3; stroke-linecap: round"/>
    <path d="M 881.667843 113.646926 
L 886.067843 115.846926 
L 881.667843 118.046926 
z
" clip-path="url(#p80873d3ad2)" style="fill: #7a1f12; stroke: #7a1f12; stroke-width: 3; stroke-linecap: round"/>
   </g>
   <g id="patch_6">
    <path d="M 801.242045 130.312157 
Q 845.331995 130.312157 886.067843 130.312157 
" clip-path="url(#p80873d3ad2)" style="fill: none; stroke: #c0392b; stroke-width: 3; stroke-linecap: round"/>
    <path d="M 881.667843 128.112157 
L 886.067843 130.312157 
L 881.667843 132.512157 
z
" clip-path="url(#p80873d3ad2)" style="fill: #c0392b; stroke: #c0392b; stroke-width: 3; stroke-linecap: round"/>
   </g>
   <g id="patch_7">
    <path d="M 801.242045 144.777388 
Q 845.331995 144.777388 886.067843 144.777388 
" clip-path="url(#p80873d3ad2)" style="fill: none; stroke: #7a1f12; stroke-width: 3; stroke-linecap: round"/>
    <path d="M 881.667843 142.577388 
L 886.067843 144.777388 
L 881.667843 146.977388 
z
" clip-path="url(#p80873d3ad2)" style="fill: #7a1f12; stroke: #7a1f12; stroke-width: 3; stroke-linecap: round"/>
   </g>
   <g id="patch_8">
    <path d="M 195.48242 112.230618 
Q 223.110635 112.230618 247.943764 112.230618 
" clip-path="url(#p80873d3ad2)" style="fill: none; stroke: #b6c0cc; stroke-width: 2.5; stroke-linecap: round"/>
    <path d="M 239.943764 108.230618 
L 247.943764 112.230618 
L 239.943764 116.230618 
z
" clip-path="url(#p80873d3ad2)" style="fill: #b6c0cc; stroke: #b6c0cc; stroke-width: 2.5; stroke-linecap: round"/>
   </g>
   <g id="patch_9">
    <path d="M 452.271827 112.230618 
Q 479.900041 112.230618 504.733171 112.230618 
" clip-path="url(#p80873d3ad2)" style="fill: none; stroke: #b6c0cc; stroke-width: 2.5; stroke-linecap: round"/>
    <path d="M 496.733171 108.230618 
L 504.733171 112.230618 
L 496.733171 116.230618 
z
" clip-path="url(#p80873d3ad2)" style="fill: #b6c0cc; stroke: #b6c0cc; stroke-width: 2.5; stroke-linecap: round"/>
   </g>
   <g id="patch_10">
    <path d="M 695.892545 112.230618 
Q 723.52076 112.230618 748.353889 112.230618 
" clip-path="url(#p80873d3ad2)" style="fill: none; stroke: #b6c0cc; stroke-width: 2.5; stroke-linecap: round"/>
    <path d="M 740.353889 108.230618 
L 748.353889 112.230618 
L 740.353889 116.230618 
z
" clip-path="url(#p80873d3ad2)" style="fill: #b6c0cc; stroke: #b6c0cc; stroke-width: 2.5; stroke-linecap: round"/>
   </g>
   <g id="patch_11">
    <path d="M 96.033994 142.607603 
C 103.367985 142.607603 110.402582 139.406892 115.588497 133.71039 
C 120.774412 128.013888 123.688238 120.286688 123.688238 112.230618 
C 123.688238 104.174547 120.774412 96.447348 115.588497 90.750845 
C 110.402582 85.054343 103.367985 81.853632 96.033994 81.853632 
C 88.700003 81.853632 81.665405 85.054343 76.47949 90.750845 
C 71.293576 96.447348 68.37975 104.174547 68.37975 112.230618 
C 68.37975 120.286688 71.293576 128.013888 76.47949 133.71039 
C 81.665405 139.406892 88.700003 142.607603 96.033994 142.607603 
L 96.033994 142.607603 
z
" clip-path="url(#p80873d3ad2)" style="fill: none; stroke-dasharray: 1,1.65; stroke-dashoffset: 0; stroke: #9aa7b8; stroke-linejoin: miter"/>
   </g>
   <g id="patch_12">
    <path d="M 789.365391 159.96588 
L 904.591406 159.96588 
Q 907.225144 159.96588 907.225144 157.072834 
L 907.225144 55.816216 
Q 907.225144 52.92317 904.591406 52.92317 
L 789.365391 52.92317 
Q 786.731653 52.92317 786.731653 55.816216 
L 786.731653 157.072834 
Q 786.731653 159.96588 789.365391 159.96588 
L 789.365391 159.96588 
z
" clip-path="url(#p80873d3ad2)" style="fill: none; stroke: #0ea5a4; stroke-width: 1.4; stroke-linejoin: miter"/>
   </g>
   <g id="line2d_1"/>
   <g id="line2d_2"/>
   <g id="line2d_3"/>
   <g id="line2d_4">
    <path d="M 42.042375 112.230618 
L 43.447402 103.946852 
L 44.384087 100.096449 
L 44.85243 98.924107 
L 45.320772 98.293686 
L 45.789115 98.192217 
L 46.257457 98.57404 
L 46.725799 99.365001 
L 47.662484 101.774329 
L 49.067512 105.763493 
L 50.004197 107.547352 
L 50.472539 108.014798 
L 50.940881 108.195639 
L 51.409224 108.12511 
L 52.345909 107.499477 
L 53.282594 106.845862 
L 53.750936 106.761463 
L 54.219279 106.96043 
L 54.687621 107.51151 
L 55.155963 108.457444 
L 55.624306 109.810553 
L 56.560991 113.625318 
L 59.371045 127.26359 
L 59.839388 128.592523 
L 60.30773 129.380293 
L 60.776073 129.580523 
L 61.244415 129.181384 
L 61.712758 128.20644 
L 62.1811 126.712963 
L 63.117785 122.541284 
L 64.991155 112.90106 
L 65.92784 109.314846 
L 66.396182 108.09684 
L 66.864524 107.285462 
L 67.332867 106.857897 
L 67.801209 106.762141 
L 68.269552 106.922112 
L 70.142922 108.173219 
L 70.611264 108.165623 
L 71.079606 107.891719 
L 71.547949 107.32607 
L 72.016291 106.473999 
L 72.952976 104.083952 
L 74.358004 100.072693 
L 74.826346 99.06146 
L 75.294688 98.397118 
L 75.763031 98.16945 
L 76.231373 98.443712 
L 76.699716 99.255024 
L 77.168058 100.604926 
L 78.104743 104.755331 
L 79.50977 113.218485 
L 80.914798 121.280548 
L 81.851483 124.815164 
L 82.319825 125.807545 
L 82.788167 126.258532 
L 83.25651 126.192315 
L 83.724852 125.66463 
L 84.193195 124.757825 
L 85.12988 122.226974 
L 86.534907 118.329508 
L 87.003249 117.388529 
L 87.471592 116.725269 
L 87.939934 116.355453 
L 88.408277 116.263733 
L 88.876619 116.405448 
L 90.749989 117.669859 
L 91.218331 117.668803 
L 91.686674 117.358933 
L 92.155016 116.679552 
L 92.623359 115.597675 
L 93.091701 114.111713 
L 94.028386 110.083352 
L 96.370098 98.347056 
L 96.838441 96.698739 
L 97.306783 95.543019 
L 97.775126 94.947603 
L 98.243468 94.947603 
L 98.711811 95.543019 
L 99.180153 96.698739 
L 100.116838 100.392521 
L 102.926893 114.111713 
L 103.395235 115.597675 
L 103.863577 116.679552 
L 104.33192 117.358933 
L 104.800262 117.668803 
L 105.268605 117.669859 
L 105.736947 117.444743 
L 107.141975 116.405448 
L 107.610317 116.263733 
L 108.078659 116.355453 
L 108.547002 116.725269 
L 109.015344 117.388529 
L 109.952029 119.502109 
L 111.825399 124.757825 
L 112.293741 125.66463 
L 112.762084 126.192315 
L 113.230426 126.258532 
L 113.698769 125.807545 
L 114.167111 124.815164 
L 114.635454 123.291384 
L 115.572138 118.858976 
L 118.382193 102.460387 
L 118.850536 100.604926 
L 119.318878 99.255024 
L 119.78722 98.443712 
L 120.255563 98.16945 
L 120.723905 98.397118 
L 121.192248 99.06146 
L 122.128933 101.323861 
L 123.53396 105.371713 
L 124.470645 107.32607 
L 124.938987 107.891719 
L 125.40733 108.165623 
L 125.875672 108.173219 
L 126.344015 107.968133 
L 127.749042 106.922112 
L 128.217384 106.762141 
L 128.685727 106.857897 
L 129.154069 107.285462 
L 129.622412 108.09684 
L 130.090754 109.314846 
L 131.027439 112.90106 
L 132.432466 120.099138 
L 133.369151 124.787825 
L 134.305836 128.20644 
L 134.774179 129.181384 
L 135.242521 129.580523 
L 135.710863 129.380293 
L 136.179206 128.592523 
L 136.647548 127.26359 
L 137.584233 123.318302 
L 139.925945 111.550629 
L 140.86263 108.457444 
L 141.330973 107.51151 
L 141.799315 106.96043 
L 142.267658 106.761463 
L 142.736 106.845862 
L 143.672685 107.499477 
L 144.60937 108.12511 
L 145.077712 108.195639 
L 145.546055 108.014798 
L 146.014397 107.547352 
L 146.48274 106.788233 
L 147.419425 104.528769 
L 149.292794 99.365001 
L 149.761137 98.57404 
L 150.229479 98.192217 
L 150.697822 98.293686 
L 151.166164 98.924107 
L 151.634507 100.096449 
L 152.102849 101.789159 
L 153.039534 106.483487 
L 153.976219 112.230618 
L 153.976219 112.230618 
" clip-path="url(#p80873d3ad2)" style="fill: none; stroke: #9aa7b8; stroke-width: 4; stroke-linecap: round"/>
   </g>
   <g id="text_1">
    <!-- 1. Soluble, floppy tau -->
    <g style="fill: #16202c" transform="translate(28.103531 218.229209) scale(0.11 -0.11)">
     <defs>
      <path id="DejaVuSans-Bold-31" d="M 750 831 
L 1813 831 
L 1813 3847 
L 722 3622 
L 722 4441 
L 1806 4666 
L 2950 4666 
L 2950 831 
L 4013 831 
L 4013 0 
L 750 0 
L 750 831 
z
" transform="scale(0.015625)"/>
      <path id="DejaVuSans-Bold-2e" d="M 653 1209 
L 1778 1209 
L 1778 0 
L 653 0 
L 653 1209 
z
" transform="scale(0.015625)"/>
      <path id="DejaVuSans-Bold-20" transform="scale(0.015625)"/>
      <path id="DejaVuSans-Bold-53" d="M 3834 4519 
L 3834 3531 
Q 3450 3703 3084 3790 
Q 2719 3878 2394 3878 
Q 1963 3878 1756 3759 
Q 1550 3641 1550 3391 
Q 1550 3203 1689 3098 
Q 1828 2994 2194 2919 
L 2706 2816 
Q 3484 2659 3812 2340 
Q 4141 2022 4141 1434 
Q 4141 663 3683 286 
Q 3225 -91 2284 -91 
Q 1841 -91 1394 -6 
Q 947 78 500 244 
L 500 1259 
Q 947 1022 1364 901 
Q 1781 781 2169 781 
Q 2563 781 2772 912 
Q 2981 1044 2981 1288 
Q 2981 1506 2839 1625 
Q 2697 1744 2272 1838 
L 1806 1941 
Q 1106 2091 782 2419 
Q 459 2747 459 3303 
Q 459 4000 909 4375 
Q 1359 4750 2203 4750 
Q 2588 4750 2994 4692 
Q 3400 4634 3834 4519 
z
" transform="scale(0.015625)"/>
      <path id="DejaVuSans-Bold-6f" d="M 2203 2784 
Q 1831 2784 1636 2517 
Q 1441 2250 1441 1747 
Q 1441 1244 1636 976 
Q 1831 709 2203 709 
Q 2569 709 2762 976 
Q 2956 1244 2956 1747 
Q 2956 2250 2762 2517 
Q 2569 2784 2203 2784 
z
M 2203 3584 
Q 3106 3584 3614 3096 
Q 4122 2609 4122 1747 
Q 4122 884 3614 396 
Q 3106 -91 2203 -91 
Q 1297 -91 786 396 
Q 275 884 275 1747 
Q 275 2609 786 3096 
Q 1297 3584 2203 3584 
z
" transform="scale(0.015625)"/>
      <path id="DejaVuSans-Bold-6c" d="M 538 4863 
L 1656 4863 
L 1656 0 
L 538 0 
L 538 4863 
z
" transform="scale(0.015625)"/>
      <path id="DejaVuSans-Bold-75" d="M 500 1363 
L 500 3500 
L 1625 3500 
L 1625 3150 
Q 1625 2866 1622 2436 
Q 1619 2006 1619 1863 
Q 1619 1441 1641 1255 
Q 1663 1069 1716 984 
Q 1784 875 1895 815 
Q 2006 756 2150 756 
Q 2500 756 2700 1025 
Q 2900 1294 2900 1772 
L 2900 3500 
L 4019 3500 
L 4019 0 
L 2900 0 
L 2900 506 
Q 2647 200 2364 54 
Q 2081 -91 1741 -91 
Q 1134 -91 817 281 
Q 500 653 500 1363 
z
" transform="scale(0.015625)"/>
      <path id="DejaVuSans-Bold-62" d="M 2400 722 
Q 2759 722 2948 984 
Q 3138 1247 3138 1747 
Q 3138 2247 2948 2509 
Q 2759 2772 2400 2772 
Q 2041 2772 1848 2508 
Q 1656 2244 1656 1747 
Q 1656 1250 1848 986 
Q 2041 722 2400 722 
z
M 1656 2988 
Q 1888 3294 2169 3439 
Q 2450 3584 2816 3584 
Q 3463 3584 3878 3070 
Q 4294 2556 4294 1747 
Q 4294 938 3878 423 
Q 3463 -91 2816 -91 
Q 2450 -91 2169 54 
Q 1888 200 1656 506 
L 1656 0 
L 538 0 
L 538 4863 
L 1656 4863 
L 1656 2988 
z
" transform="scale(0.015625)"/>
      <path id="DejaVuSans-Bold-65" d="M 4031 1759 
L 4031 1441 
L 1416 1441 
Q 1456 1047 1700 850 
Q 1944 653 2381 653 
Q 2734 653 3104 758 
Q 3475 863 3866 1075 
L 3866 213 
Q 3469 63 3072 -14 
Q 2675 -91 2278 -91 
Q 1328 -91 801 392 
Q 275 875 275 1747 
Q 275 2603 792 3093 
Q 1309 3584 2216 3584 
Q 3041 3584 3536 3087 
Q 4031 2591 4031 1759 
z
M 2881 2131 
Q 2881 2450 2695 2645 
Q 2509 2841 2209 2841 
Q 1884 2841 1681 2658 
Q 1478 2475 1428 2131 
L 2881 2131 
z
" transform="scale(0.015625)"/>
      <path id="DejaVuSans-Bold-2c" d="M 653 1209 
L 1778 1209 
L 1778 256 
L 1006 -909 
L 341 -909 
L 653 256 
L 653 1209 
z
" transform="scale(0.015625)"/>
      <path id="DejaVuSans-Bold-66" d="M 2841 4863 
L 2841 4128 
L 2222 4128 
Q 1984 4128 1890 4042 
Q 1797 3956 1797 3744 
L 1797 3500 
L 2753 3500 
L 2753 2700 
L 1797 2700 
L 1797 0 
L 678 0 
L 678 2700 
L 122 2700 
L 122 3500 
L 678 3500 
L 678 3744 
Q 678 4316 997 4589 
Q 1316 4863 1984 4863 
L 2841 4863 
z
" transform="scale(0.015625)"/>
      <path id="DejaVuSans-Bold-70" d="M 1656 506 
L 1656 -1331 
L 538 -1331 
L 538 3500 
L 1656 3500 
L 1656 2988 
Q 1888 3294 2169 3439 
Q 2450 3584 2816 3584 
Q 3463 3584 3878 3070 
Q 4294 2556 4294 1747 
Q 4294 938 3878 423 
Q 3463 -91 2816 -91 
Q 2450 -91 2169 54 
Q 1888 200 1656 506 
z
M 2400 2772 
Q 2041 2772 1848 2508 
Q 1656 2244 1656 1747 
Q 1656 1250 1848 986 
Q 2041 722 2400 722 
Q 2759 722 2948 984 
Q 3138 1247 3138 1747 
Q 3138 2247 2948 2509 
Q 2759 2772 2400 2772 
z
" transform="scale(0.015625)"/>
      <path id="DejaVuSans-Bold-79" d="M 78 3500 
L 1197 3500 
L 2138 1125 
L 2938 3500 
L 4056 3500 
L 2584 -331 
Q 2363 -916 2067 -1148 
Q 1772 -1381 1288 -1381 
L 641 -1381 
L 641 -647 
L 991 -647 
Q 1275 -647 1404 -556 
Q 1534 -466 1606 -231 
L 1638 -134 
L 78 3500 
z
" transform="scale(0.015625)"/>
      <path id="DejaVuSans-Bold-74" d="M 1759 4494 
L 1759 3500 
L 2913 3500 
L 2913 2700 
L 1759 2700 
L 1759 1216 
Q 1759 972 1856 886 
Q 1953 800 2241 800 
L 2816 800 
L 2816 0 
L 1856 0 
Q 1194 0 917 276 
Q 641 553 641 1216 
L 641 2700 
L 84 2700 
L 84 3500 
L 641 3500 
L 641 4494 
L 1759 4494 
z
" transform="scale(0.015625)"/>
      <path id="DejaVuSans-Bold-61" d="M 2106 1575 
Q 1756 1575 1579 1456 
Q 1403 1338 1403 1106 
Q 1403 894 1545 773 
Q 1688 653 1941 653 
Q 2256 653 2472 879 
Q 2688 1106 2688 1447 
L 2688 1575 
L 2106 1575 
z
M 3816 1997 
L 3816 0 
L 2688 0 
L 2688 519 
Q 2463 200 2181 54 
Q 1900 -91 1497 -91 
Q 953 -91 614 226 
Q 275 544 275 1050 
Q 275 1666 698 1953 
Q 1122 2241 2028 2241 
L 2688 2241 
L 2688 2328 
Q 2688 2594 2478 2717 
Q 2269 2841 1825 2841 
Q 1466 2841 1156 2769 
Q 847 2697 581 2553 
L 581 3406 
Q 941 3494 1303 3539 
Q 1666 3584 2028 3584 
Q 2975 3584 3395 3211 
Q 3816 2838 3816 1997 
z
" transform="scale(0.015625)"/>
     </defs>
     <use xlink:href="#DejaVuSans-Bold-31"/>
     <use xlink:href="#DejaVuSans-Bold-2e" x="69.580078"/>
     <use xlink:href="#DejaVuSans-Bold-20" x="107.568359"/>
     <use xlink:href="#DejaVuSans-Bold-53" x="142.382812"/>
     <use xlink:href="#DejaVuSans-Bold-6f" x="214.404297"/>
     <use xlink:href="#DejaVuSans-Bold-6c" x="283.105469"/>
     <use xlink:href="#DejaVuSans-Bold-75" x="317.382812"/>
     <use xlink:href="#DejaVuSans-Bold-62" x="388.574219"/>
     <use xlink:href="#DejaVuSans-Bold-6c" x="460.15625"/>
     <use xlink:href="#DejaVuSans-Bold-65" x="494.433594"/>
     <use xlink:href="#DejaVuSans-Bold-2c" x="562.255859"/>
     <use xlink:href="#DejaVuSans-Bold-20" x="600.244141"/>
     <use xlink:href="#DejaVuSans-Bold-66" x="635.058594"/>
     <use xlink:href="#DejaVuSans-Bold-6c" x="678.564453"/>
     <use xlink:href="#DejaVuSans-Bold-6f" x="712.841797"/>
     <use xlink:href="#DejaVuSans-Bold-70" x="781.542969"/>
     <use xlink:href="#DejaVuSans-Bold-70" x="853.125"/>
     <use xlink:href="#DejaVuSans-Bold-79" x="924.707031"/>
     <use xlink:href="#DejaVuSans-Bold-20" x="989.892578"/>
     <use xlink:href="#DejaVuSans-Bold-74" x="1024.707031"/>
     <use xlink:href="#DejaVuSans-Bold-61" x="1072.509766"/>
     <use xlink:href="#DejaVuSans-Bold-75" x="1139.990234"/>
    </g>
    <!-- (sticky motifs hidden) -->
    <g style="fill: #16202c" transform="translate(26.559234 230.63274) scale(0.11 -0.11)">
     <defs>
      <path id="DejaVuSans-Bold-28" d="M 2413 -844 
L 1484 -844 
Q 1006 -72 778 623 
Q 550 1319 550 2003 
Q 550 2688 779 3389 
Q 1009 4091 1484 4856 
L 2413 4856 
Q 2013 4116 1813 3408 
Q 1613 2700 1613 2009 
Q 1613 1319 1811 609 
Q 2009 -100 2413 -844 
z
" transform="scale(0.015625)"/>
      <path id="DejaVuSans-Bold-73" d="M 3272 3391 
L 3272 2541 
Q 2913 2691 2578 2766 
Q 2244 2841 1947 2841 
Q 1628 2841 1473 2761 
Q 1319 2681 1319 2516 
Q 1319 2381 1436 2309 
Q 1553 2238 1856 2203 
L 2053 2175 
Q 2913 2066 3209 1816 
Q 3506 1566 3506 1031 
Q 3506 472 3093 190 
Q 2681 -91 1863 -91 
Q 1516 -91 1145 -36 
Q 775 19 384 128 
L 384 978 
Q 719 816 1070 734 
Q 1422 653 1784 653 
Q 2113 653 2278 743 
Q 2444 834 2444 1013 
Q 2444 1163 2330 1236 
Q 2216 1309 1875 1350 
L 1678 1375 
Q 931 1469 631 1722 
Q 331 1975 331 2491 
Q 331 3047 712 3315 
Q 1094 3584 1881 3584 
Q 2191 3584 2531 3537 
Q 2872 3491 3272 3391 
z
" transform="scale(0.015625)"/>
      <path id="DejaVuSans-Bold-69" d="M 538 3500 
L 1656 3500 
L 1656 0 
L 538 0 
L 538 3500 
z
M 538 4863 
L 1656 4863 
L 1656 3950 
L 538 3950 
L 538 4863 
z
" transform="scale(0.015625)"/>
      <path id="DejaVuSans-Bold-63" d="M 3366 3391 
L 3366 2478 
Q 3138 2634 2908 2709 
Q 2678 2784 2431 2784 
Q 1963 2784 1702 2511 
Q 1441 2238 1441 1747 
Q 1441 1256 1702 982 
Q 1963 709 2431 709 
Q 2694 709 2930 787 
Q 3166 866 3366 1019 
L 3366 103 
Q 3103 6 2833 -42 
Q 2563 -91 2291 -91 
Q 1344 -91 809 395 
Q 275 881 275 1747 
Q 275 2613 809 3098 
Q 1344 3584 2291 3584 
Q 2566 3584 2833 3536 
Q 3100 3488 3366 3391 
z
" transform="scale(0.015625)"/>
      <path id="DejaVuSans-Bold-6b" d="M 538 4863 
L 1656 4863 
L 1656 2216 
L 2944 3500 
L 4244 3500 
L 2534 1894 
L 4378 0 
L 3022 0 
L 1656 1459 
L 1656 0 
L 538 0 
L 538 4863 
z
" transform="scale(0.015625)"/>
      <path id="DejaVuSans-Bold-6d" d="M 3781 2919 
Q 3994 3244 4286 3414 
Q 4578 3584 4928 3584 
Q 5531 3584 5847 3212 
Q 6163 2841 6163 2131 
L 6163 0 
L 5038 0 
L 5038 1825 
Q 5041 1866 5042 1909 
Q 5044 1953 5044 2034 
Q 5044 2406 4934 2573 
Q 4825 2741 4581 2741 
Q 4263 2741 4089 2478 
Q 3916 2216 3909 1719 
L 3909 0 
L 2784 0 
L 2784 1825 
Q 2784 2406 2684 2573 
Q 2584 2741 2328 2741 
Q 2006 2741 1831 2477 
Q 1656 2213 1656 1722 
L 1656 0 
L 531 0 
L 531 3500 
L 1656 3500 
L 1656 2988 
Q 1863 3284 2130 3434 
Q 2397 3584 2719 3584 
Q 3081 3584 3359 3409 
Q 3638 3234 3781 2919 
z
" transform="scale(0.015625)"/>
      <path id="DejaVuSans-Bold-68" d="M 4056 2131 
L 4056 0 
L 2931 0 
L 2931 347 
L 2931 1625 
Q 2931 2084 2911 2256 
Q 2891 2428 2841 2509 
Q 2775 2619 2662 2680 
Q 2550 2741 2406 2741 
Q 2056 2741 1856 2470 
Q 1656 2200 1656 1722 
L 1656 0 
L 538 0 
L 538 4863 
L 1656 4863 
L 1656 2988 
Q 1909 3294 2193 3439 
Q 2478 3584 2822 3584 
Q 3428 3584 3742 3212 
Q 4056 2841 4056 2131 
z
" transform="scale(0.015625)"/>
      <path id="DejaVuSans-Bold-64" d="M 2919 2988 
L 2919 4863 
L 4044 4863 
L 4044 0 
L 2919 0 
L 2919 506 
Q 2688 197 2409 53 
Q 2131 -91 1766 -91 
Q 1119 -91 703 423 
Q 288 938 288 1747 
Q 288 2556 703 3070 
Q 1119 3584 1766 3584 
Q 2128 3584 2408 3439 
Q 2688 3294 2919 2988 
z
M 2181 722 
Q 2541 722 2730 984 
Q 2919 1247 2919 1747 
Q 2919 2247 2730 2509 
Q 2541 2772 2181 2772 
Q 1825 2772 1636 2509 
Q 1447 2247 1447 1747 
Q 1447 1247 1636 984 
Q 1825 722 2181 722 
z
" transform="scale(0.015625)"/>
      <path id="DejaVuSans-Bold-6e" d="M 4056 2131 
L 4056 0 
L 2931 0 
L 2931 347 
L 2931 1631 
Q 2931 2084 2911 2256 
Q 2891 2428 2841 2509 
Q 2775 2619 2662 2680 
Q 2550 2741 2406 2741 
Q 2056 2741 1856 2470 
Q 1656 2200 1656 1722 
L 1656 0 
L 538 0 
L 538 3500 
L 1656 3500 
L 1656 2988 
Q 1909 3294 2193 3439 
Q 2478 3584 2822 3584 
Q 3428 3584 3742 3212 
Q 4056 2841 4056 2131 
z
" transform="scale(0.015625)"/>
      <path id="DejaVuSans-Bold-29" d="M 513 -844 
Q 913 -100 1113 609 
Q 1313 1319 1313 2009 
Q 1313 2700 1113 3408 
Q 913 4116 513 4856 
L 1441 4856 
Q 1916 4091 2145 3389 
Q 2375 2688 2375 2003 
Q 2375 1319 2147 623 
Q 1919 -72 1441 -844 
L 513 -844 
z
" transform="scale(0.015625)"/>
     </defs>
     <use xlink:href="#DejaVuSans-Bold-28"/>
     <use xlink:href="#DejaVuSans-Bold-73" x="45.703125"/>
     <use xlink:href="#DejaVuSans-Bold-74" x="105.224609"/>
     <use xlink:href="#DejaVuSans-Bold-69" x="153.027344"/>
     <use xlink:href="#DejaVuSans-Bold-63" x="187.304688"/>
     <use xlink:href="#DejaVuSans-Bold-6b" x="246.582031"/>
     <use xlink:href="#DejaVuSans-Bold-79" x="313.085938"/>
     <use xlink:href="#DejaVuSans-Bold-20" x="378.271484"/>
     <use xlink:href="#DejaVuSans-Bold-6d" x="413.085938"/>
     <use xlink:href="#DejaVuSans-Bold-6f" x="517.285156"/>
     <use xlink:href="#DejaVuSans-Bold-74" x="585.986328"/>
     <use xlink:href="#DejaVuSans-Bold-69" x="633.789062"/>
     <use xlink:href="#DejaVuSans-Bold-66" x="668.066406"/>
     <use xlink:href="#DejaVuSans-Bold-73" x="711.572266"/>
     <use xlink:href="#DejaVuSans-Bold-20" x="771.09375"/>
     <use xlink:href="#DejaVuSans-Bold-68" x="805.908203"/>
     <use xlink:href="#DejaVuSans-Bold-69" x="877.099609"/>
     <use xlink:href="#DejaVuSans-Bold-64" x="911.376953"/>
     <use xlink:href="#DejaVuSans-Bold-64" x="982.958984"/>
     <use xlink:href="#DejaVuSans-Bold-65" x="1054.541016"/>
     <use xlink:href="#DejaVuSans-Bold-6e" x="1122.363281"/>
     <use xlink:href="#DejaVuSans-Bold-29" x="1193.554688"/>
    </g>
   </g>
   <g id="line2d_5">
    <path d="M 279.07875 94.149079 
L 280.125633 93.947828 
L 280.649075 93.998452 
L 281.172516 94.215645 
L 281.695958 94.631294 
L 282.219399 95.259416 
L 283.266282 97.111134 
L 285.88349 102.940726 
L 286.406932 103.747888 
L 286.930373 104.273158 
L 287.453815 104.469159 
L 287.977256 104.30733 
L 288.500698 103.780284 
L 289.02414 102.902639 
L 290.071023 100.258001 
L 293.211672 90.43942 
L 293.735113 89.331016 
L 294.258555 88.511482 
L 294.781997 87.991468 
L 295.305438 87.760724 
L 295.82888 87.789572 
L 296.352321 88.031814 
L 297.399204 88.914629 
L 298.446087 89.884481 
L 298.969529 90.248932 
L 299.492971 90.472632 
L 300.016412 90.53035 
L 300.539854 90.415635 
L 301.063295 90.141332 
L 302.110178 89.25417 
L 303.157061 88.283281 
L 303.680503 87.930771 
L 304.203945 87.753665 
L 304.727386 87.806956 
L 305.250828 88.131738 
L 305.774269 88.75147 
L 306.297711 89.669522 
L 307.344594 92.30946 
L 310.485243 102.139664 
L 311.008685 103.232347 
L 311.532126 103.996094 
L 312.055568 104.401939 
L 312.579009 104.442593 
L 313.102451 104.132671 
L 313.625893 103.507338 
L 314.672776 101.535636 
L 316.766542 96.754402 
L 317.813425 95.026366 
L 318.336867 94.469436 
L 318.860308 94.122427 
L 319.38375 93.965106 
L 320.430633 94.057167 
L 321.477516 94.314098 
L 322.000957 94.349344 
L 322.524399 94.24773 
L 323.04784 93.967097 
L 323.571282 93.481234 
L 324.094724 92.782536 
L 325.141607 90.81483 
L 327.758814 85.060652 
L 328.282256 84.341167 
L 328.805698 83.921254 
L 329.329139 83.842368 
L 329.852581 84.1262 
L 330.376022 84.772817 
L 330.899464 85.760354 
L 331.946347 88.57023 
L 334.563555 96.974037 
L 335.610438 99.273379 
L 336.133879 99.99321 
L 336.657321 100.414658 
L 337.180762 100.554685 
L 337.704204 100.448865 
L 338.227646 100.148041 
L 340.844853 97.957403 
L 341.368295 97.787127 
L 341.891736 97.787127 
L 342.415178 97.957403 
L 343.462061 98.714702 
L 345.032386 100.148041 
L 345.555827 100.448865 
L 346.079269 100.554685 
L 346.60271 100.414658 
L 347.126152 99.99321 
L 347.649593 99.273379 
L 348.173035 98.258777 
L 349.219918 95.463666 
L 352.360567 85.760354 
L 352.884009 84.772817 
L 353.407451 84.1262 
L 353.930892 83.842368 
L 354.454334 83.921254 
L 354.977775 84.341167 
L 355.501217 85.060652 
L 356.5481 87.154513 
L 358.641866 91.88319 
L 359.688749 93.481234 
L 360.212191 93.967097 
L 360.735632 94.24773 
L 361.259074 94.349344 
L 362.305957 94.196219 
L 363.35284 93.960253 
L 363.876282 93.965106 
L 364.399723 94.122427 
L 364.923165 94.469436 
L 365.446606 95.026366 
L 366.493489 96.754402 
L 368.063814 100.330941 
L 369.110697 102.619483 
L 369.634139 103.507338 
L 370.15758 104.132671 
L 370.681022 104.442593 
L 371.204463 104.401939 
L 371.727905 103.996094 
L 372.251346 103.232347 
L 372.774788 102.139664 
L 373.821671 99.179585 
L 376.438879 90.86822 
L 376.96232 89.669522 
L 377.485762 88.75147 
L 378.009204 88.131738 
L 378.532645 87.806956 
L 379.056087 87.753665 
L 379.579528 87.930771 
L 380.626411 88.747052 
L 382.196736 90.141332 
L 382.720178 90.415635 
L 383.243619 90.53035 
L 383.767061 90.472632 
L 384.290502 90.248932 
L 385.337385 89.421262 
L 386.90771 88.031814 
L 387.431152 87.789572 
L 387.954593 87.760724 
L 388.478035 87.991468 
L 389.001476 88.511482 
L 389.524918 89.331016 
L 390.571801 91.805236 
L 392.142126 96.864918 
L 393.189009 100.258001 
L 394.235892 102.902639 
L 394.759333 103.780284 
L 395.282775 104.30733 
L 395.806216 104.469159 
L 396.329658 104.273158 
L 396.8531 103.747888 
L 397.376541 102.940726 
L 398.423424 100.741107 
L 399.993749 97.111134 
L 401.040632 95.259416 
L 401.564073 94.631294 
L 402.087515 94.215645 
L 402.610957 93.998452 
L 403.134398 93.947828 
L 404.181281 94.149079 
L 404.181281 94.149079 
" clip-path="url(#p80873d3ad2)" style="fill: none; stroke: #9aa7b8; stroke-width: 4; stroke-linecap: round"/>
   </g>
   <g id="text_2">
    <!-- – -->
    <g style="fill: #c0392b" transform="translate(283.413094 131.349071) scale(0.09 -0.09)">
     <defs>
      <path id="DejaVuSans-Bold-2013" d="M 344 2156 
L 2856 2156 
L 2856 1350 
L 344 1350 
L 344 2156 
z
" transform="scale(0.015625)"/>
     </defs>
     <use xlink:href="#DejaVuSans-Bold-2013"/>
    </g>
   </g>
   <g id="text_3">
    <!-- – -->
    <g style="fill: #c0392b" transform="translate(320.724375 131.349071) scale(0.09 -0.09)">
     <use xlink:href="#DejaVuSans-Bold-2013"/>
    </g>
   </g>
   <g id="text_4">
    <!-- – -->
    <g style="fill: #c0392b" transform="translate(358.035656 131.349071) scale(0.09 -0.09)">
     <use xlink:href="#DejaVuSans-Bold-2013"/>
    </g>
   </g>
   <g id="text_5">
    <!-- – -->
    <g style="fill: #c0392b" transform="translate(395.346938 131.349071) scale(0.09 -0.09)">
     <use xlink:href="#DejaVuSans-Bold-2013"/>
    </g>
   </g>
   <g id="text_6">
    <!-- HS -->
    <g style="fill: #e0792b" transform="translate(337.137031 157.072834) scale(0.1 -0.1)">
     <defs>
      <path id="DejaVuSans-Bold-48" d="M 588 4666 
L 1791 4666 
L 1791 2888 
L 3566 2888 
L 3566 4666 
L 4769 4666 
L 4769 0 
L 3566 0 
L 3566 1978 
L 1791 1978 
L 1791 0 
L 588 0 
L 588 4666 
z
" transform="scale(0.015625)"/>
     </defs>
     <use xlink:href="#DejaVuSans-Bold-48"/>
     <use xlink:href="#DejaVuSans-Bold-53" x="83.691406"/>
    </g>
   </g>
   <g id="text_7">
    <!-- 2. HS binds the + repeats, -->
    <g style="fill: #16202c" transform="translate(263.224844 218.229209) scale(0.11 -0.11)">
     <defs>
      <path id="DejaVuSans-Bold-32" d="M 1844 884 
L 3897 884 
L 3897 0 
L 506 0 
L 506 884 
L 2209 2388 
Q 2438 2594 2547 2791 
Q 2656 2988 2656 3200 
Q 2656 3528 2436 3728 
Q 2216 3928 1850 3928 
Q 1569 3928 1234 3808 
Q 900 3688 519 3450 
L 519 4475 
Q 925 4609 1322 4679 
Q 1719 4750 2100 4750 
Q 2938 4750 3402 4381 
Q 3866 4013 3866 3353 
Q 3866 2972 3669 2642 
Q 3472 2313 2841 1759 
L 1844 884 
z
" transform="scale(0.015625)"/>
      <path id="DejaVuSans-Bold-2b" d="M 3053 4013 
L 3053 2375 
L 4684 2375 
L 4684 1638 
L 3053 1638 
L 3053 0 
L 2309 0 
L 2309 1638 
L 678 1638 
L 678 2375 
L 2309 2375 
L 2309 4013 
L 3053 4013 
z
" transform="scale(0.015625)"/>
      <path id="DejaVuSans-Bold-72" d="M 3138 2547 
Q 2991 2616 2845 2648 
Q 2700 2681 2553 2681 
Q 2122 2681 1889 2404 
Q 1656 2128 1656 1613 
L 1656 0 
L 538 0 
L 538 3500 
L 1656 3500 
L 1656 2925 
Q 1872 3269 2151 3426 
Q 2431 3584 2822 3584 
Q 2878 3584 2943 3579 
Q 3009 3575 3134 3559 
L 3138 2547 
z
" transform="scale(0.015625)"/>
     </defs>
     <use xlink:href="#DejaVuSans-Bold-32"/>
     <use xlink:href="#DejaVuSans-Bold-2e" x="69.580078"/>
     <use xlink:href="#DejaVuSans-Bold-20" x="107.568359"/>
     <use xlink:href="#DejaVuSans-Bold-48" x="142.382812"/>
     <use xlink:href="#DejaVuSans-Bold-53" x="226.074219"/>
     <use xlink:href="#DejaVuSans-Bold-20" x="298.095703"/>
     <use xlink:href="#DejaVuSans-Bold-62" x="332.910156"/>
     <use xlink:href="#DejaVuSans-Bold-69" x="404.492188"/>
     <use xlink:href="#DejaVuSans-Bold-6e" x="438.769531"/>
     <use xlink:href="#DejaVuSans-Bold-64" x="509.960938"/>
     <use xlink:href="#DejaVuSans-Bold-73" x="581.542969"/>
     <use xlink:href="#DejaVuSans-Bold-20" x="641.064453"/>
     <use xlink:href="#DejaVuSans-Bold-74" x="675.878906"/>
     <use xlink:href="#DejaVuSans-Bold-68" x="723.681641"/>
     <use xlink:href="#DejaVuSans-Bold-65" x="794.873047"/>
     <use xlink:href="#DejaVuSans-Bold-20" x="862.695312"/>
     <use xlink:href="#DejaVuSans-Bold-2b" x="897.509766"/>
     <use xlink:href="#DejaVuSans-Bold-20" x="981.298828"/>
     <use xlink:href="#DejaVuSans-Bold-72" x="1016.113281"/>
     <use xlink:href="#DejaVuSans-Bold-65" x="1065.429688"/>
     <use xlink:href="#DejaVuSans-Bold-70" x="1133.251953"/>
     <use xlink:href="#DejaVuSans-Bold-65" x="1204.833984"/>
     <use xlink:href="#DejaVuSans-Bold-61" x="1272.65625"/>
     <use xlink:href="#DejaVuSans-Bold-74" x="1340.136719"/>
     <use xlink:href="#DejaVuSans-Bold-73" x="1387.939453"/>
     <use xlink:href="#DejaVuSans-Bold-2c" x="1447.460938"/>
    </g>
    <!-- neutralises charge → motifs exposed -->
    <g style="fill: #16202c" transform="translate(231.101406 230.546803) scale(0.11 -0.11)">
     <defs>
      <path id="DejaVuSans-Bold-67" d="M 2919 594 
Q 2688 288 2409 144 
Q 2131 0 1766 0 
Q 1125 0 706 504 
Q 288 1009 288 1791 
Q 288 2575 706 3076 
Q 1125 3578 1766 3578 
Q 2131 3578 2409 3434 
Q 2688 3291 2919 2981 
L 2919 3500 
L 4044 3500 
L 4044 353 
Q 4044 -491 3511 -936 
Q 2978 -1381 1966 -1381 
Q 1638 -1381 1331 -1331 
Q 1025 -1281 716 -1178 
L 716 -306 
Q 1009 -475 1290 -558 
Q 1572 -641 1856 -641 
Q 2406 -641 2662 -400 
Q 2919 -159 2919 353 
L 2919 594 
z
M 2181 2772 
Q 1834 2772 1640 2515 
Q 1447 2259 1447 1791 
Q 1447 1309 1634 1061 
Q 1822 813 2181 813 
Q 2531 813 2725 1069 
Q 2919 1325 2919 1791 
Q 2919 2259 2725 2515 
Q 2531 2772 2181 2772 
z
" transform="scale(0.015625)"/>
      <path id="DejaVuSans-Bold-2192" d="M 5050 2225 
L 5050 1788 
L 3822 559 
L 3369 1013 
L 3988 1631 
L 366 1631 
L 366 2381 
L 3988 2381 
L 3369 3000 
L 3822 3453 
L 5050 2225 
z
" transform="scale(0.015625)"/>
      <path id="DejaVuSans-Bold-78" d="M 1422 1791 
L 159 3500 
L 1344 3500 
L 2059 2463 
L 2784 3500 
L 3969 3500 
L 2706 1797 
L 4031 0 
L 2847 0 
L 2059 1106 
L 1281 0 
L 97 0 
L 1422 1791 
z
" transform="scale(0.015625)"/>
     </defs>
     <use xlink:href="#DejaVuSans-Bold-6e"/>
     <use xlink:href="#DejaVuSans-Bold-65" x="71.191406"/>
     <use xlink:href="#DejaVuSans-Bold-75" x="139.013672"/>
     <use xlink:href="#DejaVuSans-Bold-74" x="210.205078"/>
     <use xlink:href="#DejaVuSans-Bold-72" x="258.007812"/>
     <use xlink:href="#DejaVuSans-Bold-61" x="307.324219"/>
     <use xlink:href="#DejaVuSans-Bold-6c" x="374.804688"/>
     <use xlink:href="#DejaVuSans-Bold-69" x="409.082031"/>
     <use xlink:href="#DejaVuSans-Bold-73" x="443.359375"/>
     <use xlink:href="#DejaVuSans-Bold-65" x="502.880859"/>
     <use xlink:href="#DejaVuSans-Bold-73" x="570.703125"/>
     <use xlink:href="#DejaVuSans-Bold-20" x="630.224609"/>
     <use xlink:href="#DejaVuSans-Bold-63" x="665.039062"/>
     <use xlink:href="#DejaVuSans-Bold-68" x="724.316406"/>
     <use xlink:href="#DejaVuSans-Bold-61" x="795.507812"/>
     <use xlink:href="#DejaVuSans-Bold-72" x="862.988281"/>
     <use xlink:href="#DejaVuSans-Bold-67" x="912.304688"/>
     <use xlink:href="#DejaVuSans-Bold-65" x="983.886719"/>
     <use xlink:href="#DejaVuSans-Bold-20" x="1051.708984"/>
     <use xlink:href="#DejaVuSans-Bold-2192" x="1086.523438"/>
     <use xlink:href="#DejaVuSans-Bold-20" x="1170.3125"/>
     <use xlink:href="#DejaVuSans-Bold-6d" x="1205.126953"/>
     <use xlink:href="#DejaVuSans-Bold-6f" x="1309.326172"/>
     <use xlink:href="#DejaVuSans-Bold-74" x="1378.027344"/>
     <use xlink:href="#DejaVuSans-Bold-69" x="1425.830078"/>
     <use xlink:href="#DejaVuSans-Bold-66" x="1460.107422"/>
     <use xlink:href="#DejaVuSans-Bold-73" x="1503.613281"/>
     <use xlink:href="#DejaVuSans-Bold-20" x="1563.134766"/>
     <use xlink:href="#DejaVuSans-Bold-65" x="1597.949219"/>
     <use xlink:href="#DejaVuSans-Bold-78" x="1665.771484"/>
     <use xlink:href="#DejaVuSans-Bold-70" x="1730.273438"/>
     <use xlink:href="#DejaVuSans-Bold-6f" x="1801.855469"/>
     <use xlink:href="#DejaVuSans-Bold-73" x="1870.556641"/>
     <use xlink:href="#DejaVuSans-Bold-65" x="1930.078125"/>
     <use xlink:href="#DejaVuSans-Bold-64" x="1997.900391"/>
    </g>
   </g>
   <g id="line2d_6">
    <path d="M 542.4525 72.451232 
L 543.278987 72.310357 
L 543.69223 72.345793 
L 544.105473 72.497828 
L 544.518717 72.788783 
L 545.345203 73.812998 
L 546.17169 75.332941 
L 547.824663 78.605385 
L 548.237907 79.170398 
L 548.65115 79.538088 
L 549.064393 79.675288 
L 549.477637 79.562008 
L 549.89088 79.193076 
L 550.304123 78.578724 
L 551.13061 76.727477 
L 553.61007 69.854471 
L 554.436557 68.504914 
L 554.8498 68.140904 
L 555.263043 67.979384 
L 555.676287 67.999578 
L 556.502773 68.447064 
L 558.155747 69.72113 
L 558.982233 69.918122 
L 559.80872 69.645809 
L 561.04845 68.669813 
L 561.874937 68.098417 
L 562.28818 67.974443 
L 562.701423 68.011746 
L 563.114667 68.239094 
L 563.52791 68.672906 
L 564.354397 70.154631 
L 565.180883 72.302676 
L 566.833857 77.083709 
L 567.660343 78.80952 
L 568.073587 79.344143 
L 568.48683 79.628234 
L 568.900073 79.656692 
L 569.313317 79.439747 
L 569.72656 79.002014 
L 570.553047 77.621822 
L 572.619263 73.602875 
L 573.44575 72.675482 
L 573.858993 72.432576 
L 574.68548 72.319054 
L 576.338453 72.591418 
L 576.751697 72.520288 
L 577.16494 72.323845 
L 577.578183 71.983741 
L 578.40467 70.86511 
L 579.6444 68.414349 
L 580.88413 66.089333 
L 581.297373 65.585694 
L 581.710617 65.291755 
L 582.12386 65.236535 
L 582.537103 65.435217 
L 582.950346 65.887849 
L 583.776833 67.479283 
L 585.016563 70.96534 
L 586.256293 74.428703 
L 587.08278 76.038242 
L 587.496023 76.542124 
L 587.909266 76.837138 
L 588.32251 76.935156 
L 588.735753 76.861082 
L 589.56224 76.346595 
L 590.80197 75.34206 
L 591.628456 74.997866 
L 592.0417 74.997866 
L 592.868186 75.34206 
L 594.934403 76.861082 
L 595.347646 76.935156 
L 595.76089 76.837138 
L 596.174133 76.542124 
L 596.587376 76.038242 
L 597.413863 74.428703 
L 598.653593 70.96534 
L 599.893323 67.479283 
L 600.71981 65.887849 
L 601.133053 65.435217 
L 601.546296 65.236535 
L 601.95954 65.291755 
L 602.372783 65.585694 
L 603.19927 66.762113 
L 605.67873 71.494652 
L 606.505216 72.323845 
L 606.91846 72.520288 
L 607.744946 72.566746 
L 609.39792 72.322451 
L 609.811163 72.432576 
L 610.224406 72.675482 
L 611.050893 73.602875 
L 611.87738 75.055145 
L 613.530353 78.380515 
L 614.35684 79.439747 
L 614.770083 79.656692 
L 615.183326 79.628234 
L 615.59657 79.344143 
L 616.009813 78.80952 
L 616.8363 77.083709 
L 618.07603 73.522365 
L 619.31576 70.154631 
L 620.142246 68.672906 
L 620.55549 68.239094 
L 620.968733 68.011746 
L 621.381976 67.974443 
L 621.79522 68.098417 
L 622.621706 68.669813 
L 623.861436 69.645809 
L 624.687923 69.918122 
L 625.101166 69.87772 
L 625.927653 69.466014 
L 627.580626 68.169147 
L 627.99387 67.999578 
L 628.407113 67.979384 
L 628.820356 68.140904 
L 629.2336 68.504914 
L 629.646843 69.078588 
L 630.47333 70.810542 
L 631.71306 74.35232 
L 632.95279 77.744063 
L 633.779276 79.193076 
L 634.19252 79.562008 
L 634.605763 79.675288 
L 635.019006 79.538088 
L 635.43225 79.170398 
L 636.258736 77.886799 
L 638.324953 73.812998 
L 639.15144 72.788783 
L 639.564683 72.497828 
L 640.39117 72.310357 
L 641.217656 72.451232 
L 641.217656 72.451232 
" clip-path="url(#p80873d3ad2)" style="fill: none; stroke: #9aa7b8; stroke-width: 3; stroke-linecap: round"/>
   </g>
   <g id="line2d_7">
    <path d="M 542.4525 102.828218 
L 543.278987 102.687342 
L 543.69223 102.722779 
L 544.105473 102.874814 
L 544.518717 103.165768 
L 545.345203 104.189983 
L 546.17169 105.709926 
L 547.824663 108.98237 
L 548.237907 109.547384 
L 548.65115 109.915073 
L 549.064393 110.052273 
L 549.477637 109.938993 
L 549.89088 109.570061 
L 550.304123 108.95571 
L 551.13061 107.104463 
L 553.61007 100.231456 
L 554.436557 98.8819 
L 554.8498 98.51789 
L 555.263043 98.356369 
L 555.676287 98.376563 
L 556.502773 98.824049 
L 558.155747 100.098115 
L 558.982233 100.295108 
L 559.80872 100.022795 
L 561.04845 99.046799 
L 561.874937 98.475402 
L 562.28818 98.351428 
L 562.701423 98.388731 
L 563.114667 98.616079 
L 563.52791 99.049891 
L 564.354397 100.531616 
L 565.180883 102.679661 
L 566.833857 107.460694 
L 567.660343 109.186505 
L 568.073587 109.721128 
L 568.48683 110.00522 
L 568.900073 110.033677 
L 569.313317 109.816732 
L 569.72656 109.378999 
L 570.553047 107.998807 
L 572.619263 103.979861 
L 573.44575 103.052467 
L 573.858993 102.809561 
L 574.68548 102.696039 
L 576.338453 102.968403 
L 576.751697 102.897273 
L 577.16494 102.70083 
L 577.578183 102.360726 
L 578.40467 101.242095 
L 579.6444 98.791334 
L 580.88413 96.466319 
L 581.297373 95.962679 
L 581.710617 95.66874 
L 582.12386 95.61352 
L 582.537103 95.812202 
L 582.950346 96.264834 
L 583.776833 97.856268 
L 585.016563 101.342325 
L 586.256293 104.805688 
L 587.08278 106.415227 
L 587.496023 106.919109 
L 587.909266 107.214123 
L 588.32251 107.312142 
L 588.735753 107.238068 
L 589.56224 106.72358 
L 590.80197 105.719045 
L 591.628456 105.374851 
L 592.0417 105.374851 
L 592.868186 105.719045 
L 594.934403 107.238068 
L 595.347646 107.312142 
L 595.76089 107.214123 
L 596.174133 106.919109 
L 596.587376 106.415227 
L 597.413863 104.805688 
L 598.653593 101.342325 
L 599.893323 97.856268 
L 600.71981 96.264834 
L 601.133053 95.812202 
L 601.546296 95.61352 
L 601.95954 95.66874 
L 602.372783 95.962679 
L 603.19927 97.139099 
L 605.67873 101.871637 
L 606.505216 102.70083 
L 606.91846 102.897273 
L 607.744946 102.943731 
L 609.39792 102.699437 
L 609.811163 102.809561 
L 610.224406 103.052467 
L 611.050893 103.979861 
L 611.87738 105.432131 
L 613.530353 108.7575 
L 614.35684 109.816732 
L 614.770083 110.033677 
L 615.183326 110.00522 
L 615.59657 109.721128 
L 616.009813 109.186505 
L 616.8363 107.460694 
L 618.07603 103.89935 
L 619.31576 100.531616 
L 620.142246 99.049891 
L 620.55549 98.616079 
L 620.968733 98.388731 
L 621.381976 98.351428 
L 621.79522 98.475402 
L 622.621706 99.046799 
L 623.861436 100.022795 
L 624.687923 100.295108 
L 625.101166 100.254705 
L 625.927653 99.842999 
L 627.580626 98.546132 
L 627.99387 98.376563 
L 628.407113 98.356369 
L 628.820356 98.51789 
L 629.2336 98.8819 
L 629.646843 99.455573 
L 630.47333 101.187527 
L 631.71306 104.729305 
L 632.95279 108.121049 
L 633.779276 109.570061 
L 634.19252 109.938993 
L 634.605763 110.052273 
L 635.019006 109.915073 
L 635.43225 109.547384 
L 636.258736 108.263784 
L 638.324953 104.189983 
L 639.15144 103.165768 
L 639.564683 102.874814 
L 640.39117 102.687342 
L 641.217656 102.828218 
L 641.217656 102.828218 
" clip-path="url(#p80873d3ad2)" style="fill: none; stroke: #9aa7b8; stroke-width: 3; stroke-linecap: round"/>
   </g>
   <g id="line2d_8">
    <path d="M 542.4525 133.205203 
L 543.278987 133.064328 
L 543.69223 133.099764 
L 544.105473 133.251799 
L 544.518717 133.542754 
L 545.345203 134.566969 
L 546.17169 136.086912 
L 547.824663 139.359356 
L 548.237907 139.924369 
L 548.65115 140.292058 
L 549.064393 140.429259 
L 549.477637 140.315979 
L 549.89088 139.947046 
L 550.304123 139.332695 
L 551.13061 137.481448 
L 553.61007 130.608442 
L 554.436557 129.258885 
L 554.8498 128.894875 
L 555.263043 128.733354 
L 555.676287 128.753548 
L 556.502773 129.201035 
L 558.155747 130.4751 
L 558.982233 130.672093 
L 559.80872 130.39978 
L 561.04845 129.423784 
L 561.874937 128.852387 
L 562.28818 128.728413 
L 562.701423 128.765717 
L 563.114667 128.993064 
L 563.52791 129.426876 
L 564.354397 130.908602 
L 565.180883 133.056646 
L 566.833857 137.83768 
L 567.660343 139.56349 
L 568.073587 140.098114 
L 568.48683 140.382205 
L 568.900073 140.410663 
L 569.313317 140.193717 
L 569.72656 139.755984 
L 570.553047 138.375793 
L 572.619263 134.356846 
L 573.44575 133.429453 
L 573.858993 133.186547 
L 574.68548 133.073025 
L 576.338453 133.345388 
L 576.751697 133.274259 
L 577.16494 133.077815 
L 577.578183 132.737712 
L 578.40467 131.619081 
L 579.6444 129.16832 
L 580.88413 126.843304 
L 581.297373 126.339665 
L 581.710617 126.045726 
L 582.12386 125.990505 
L 582.537103 126.189188 
L 582.950346 126.641819 
L 583.776833 128.233253 
L 585.016563 131.71931 
L 586.256293 135.182673 
L 587.08278 136.792213 
L 587.496023 137.296095 
L 587.909266 137.591108 
L 588.32251 137.689127 
L 588.735753 137.615053 
L 589.56224 137.100566 
L 590.80197 136.09603 
L 591.628456 135.751837 
L 592.0417 135.751837 
L 592.868186 136.09603 
L 594.934403 137.615053 
L 595.347646 137.689127 
L 595.76089 137.591108 
L 596.174133 137.296095 
L 596.587376 136.792213 
L 597.413863 135.182673 
L 598.653593 131.71931 
L 599.893323 128.233253 
L 600.71981 126.641819 
L 601.133053 126.189188 
L 601.546296 125.990505 
L 601.95954 126.045726 
L 602.372783 126.339665 
L 603.19927 127.516084 
L 605.67873 132.248623 
L 606.505216 133.077815 
L 606.91846 133.274259 
L 607.744946 133.320717 
L 609.39792 133.076422 
L 609.811163 133.186547 
L 610.224406 133.429453 
L 611.050893 134.356846 
L 611.87738 135.809116 
L 613.530353 139.134486 
L 614.35684 140.193717 
L 614.770083 140.410663 
L 615.183326 140.382205 
L 615.59657 140.098114 
L 616.009813 139.56349 
L 616.8363 137.83768 
L 618.07603 134.276336 
L 619.31576 130.908602 
L 620.142246 129.426876 
L 620.55549 128.993064 
L 620.968733 128.765717 
L 621.381976 128.728413 
L 621.79522 128.852387 
L 622.621706 129.423784 
L 623.861436 130.39978 
L 624.687923 130.672093 
L 625.101166 130.63169 
L 625.927653 130.219985 
L 627.580626 128.923117 
L 627.99387 128.753548 
L 628.407113 128.733354 
L 628.820356 128.894875 
L 629.2336 129.258885 
L 629.646843 129.832559 
L 630.47333 131.564513 
L 631.71306 135.10629 
L 632.95279 138.498034 
L 633.779276 139.947046 
L 634.19252 140.315979 
L 634.605763 140.429259 
L 635.019006 140.292058 
L 635.43225 139.924369 
L 636.258736 138.640769 
L 638.324953 134.566969 
L 639.15144 133.542754 
L 639.564683 133.251799 
L 640.39117 133.064328 
L 641.217656 133.205203 
L 641.217656 133.205203 
" clip-path="url(#p80873d3ad2)" style="fill: none; stroke: #9aa7b8; stroke-width: 3; stroke-linecap: round"/>
   </g>
   <g id="line2d_9">
    <path d="M 542.4525 163.582188 
L 543.278987 163.441313 
L 543.69223 163.476749 
L 544.105473 163.628784 
L 544.518717 163.919739 
L 545.345203 164.943954 
L 546.17169 166.463897 
L 547.824663 169.736341 
L 548.237907 170.301354 
L 548.65115 170.669044 
L 549.064393 170.806244 
L 549.477637 170.692964 
L 549.89088 170.324032 
L 550.304123 169.70968 
L 551.13061 167.858433 
L 553.61007 160.985427 
L 554.436557 159.63587 
L 554.8498 159.27186 
L 555.263043 159.11034 
L 555.676287 159.130534 
L 556.502773 159.57802 
L 558.155747 160.852086 
L 558.982233 161.049078 
L 559.80872 160.776765 
L 561.04845 159.800769 
L 561.874937 159.229373 
L 562.28818 159.105399 
L 562.701423 159.142702 
L 563.114667 159.37005 
L 563.52791 159.803862 
L 564.354397 161.285587 
L 565.180883 163.433632 
L 566.833857 168.214665 
L 567.660343 169.940476 
L 568.073587 170.475099 
L 568.48683 170.75919 
L 568.900073 170.787648 
L 569.313317 170.570703 
L 569.72656 170.13297 
L 570.553047 168.752778 
L 572.619263 164.733831 
L 573.44575 163.806438 
L 573.858993 163.563532 
L 574.68548 163.45001 
L 576.338453 163.722374 
L 576.751697 163.651244 
L 577.16494 163.454801 
L 577.578183 163.114697 
L 578.40467 161.996066 
L 579.6444 159.545305 
L 580.88413 157.220289 
L 581.297373 156.71665 
L 581.710617 156.422711 
L 582.12386 156.367491 
L 582.537103 156.566173 
L 582.950346 157.018805 
L 583.776833 158.610239 
L 585.016563 162.096296 
L 586.256293 165.559659 
L 587.08278 167.169198 
L 587.496023 167.67308 
L 587.909266 167.968094 
L 588.32251 168.066112 
L 588.735753 167.992038 
L 589.56224 167.477551 
L 590.80197 166.473016 
L 591.628456 166.128822 
L 592.0417 166.128822 
L 592.868186 166.473016 
L 594.934403 167.992038 
L 595.347646 168.066112 
L 595.76089 167.968094 
L 596.174133 167.67308 
L 596.587376 167.169198 
L 597.413863 165.559659 
L 598.653593 162.096296 
L 599.893323 158.610239 
L 600.71981 157.018805 
L 601.133053 156.566173 
L 601.546296 156.367491 
L 601.95954 156.422711 
L 602.372783 156.71665 
L 603.19927 157.893069 
L 605.67873 162.625608 
L 606.505216 163.454801 
L 606.91846 163.651244 
L 607.744946 163.697702 
L 609.39792 163.453407 
L 609.811163 163.563532 
L 610.224406 163.806438 
L 611.050893 164.733831 
L 611.87738 166.186101 
L 613.530353 169.511471 
L 614.35684 170.570703 
L 614.770083 170.787648 
L 615.183326 170.75919 
L 615.59657 170.475099 
L 616.009813 169.940476 
L 616.8363 168.214665 
L 618.07603 164.653321 
L 619.31576 161.285587 
L 620.142246 159.803862 
L 620.55549 159.37005 
L 620.968733 159.142702 
L 621.381976 159.105399 
L 621.79522 159.229373 
L 622.621706 159.800769 
L 623.861436 160.776765 
L 624.687923 161.049078 
L 625.101166 161.008676 
L 625.927653 160.59697 
L 627.580626 159.300103 
L 627.99387 159.130534 
L 628.407113 159.11034 
L 628.820356 159.27186 
L 629.2336 159.63587 
L 629.646843 160.209544 
L 630.47333 161.941498 
L 631.71306 165.483276 
L 632.95279 168.875019 
L 633.779276 170.324032 
L 634.19252 170.692964 
L 634.605763 170.806244 
L 635.019006 170.669044 
L 635.43225 170.301354 
L 636.258736 169.017755 
L 638.324953 164.943954 
L 639.15144 163.919739 
L 639.564683 163.628784 
L 640.39117 163.441313 
L 641.217656 163.582188 
L 641.217656 163.582188 
" clip-path="url(#p80873d3ad2)" style="fill: none; stroke: #9aa7b8; stroke-width: 3; stroke-linecap: round"/>
   </g>
   <g id="text_8">
    <!-- × many -->
    <g style="fill: #2563eb" transform="translate(570.501484 43.52077) scale(0.1 -0.1)">
     <defs>
      <path id="DejaVuSans-Bold-d7" d="M 4563 3359 
L 3206 2003 
L 4563 653 
L 4038 128 
L 2681 1478 
L 1325 128 
L 800 653 
L 2156 2003 
L 800 3359 
L 1325 3884 
L 2681 2528 
L 4038 3884 
L 4563 3359 
z
" transform="scale(0.015625)"/>
     </defs>
     <use xlink:href="#DejaVuSans-Bold-d7"/>
     <use xlink:href="#DejaVuSans-Bold-20" x="83.789062"/>
     <use xlink:href="#DejaVuSans-Bold-6d" x="118.603516"/>
     <use xlink:href="#DejaVuSans-Bold-61" x="222.802734"/>
     <use xlink:href="#DejaVuSans-Bold-6e" x="290.283203"/>
     <use xlink:href="#DejaVuSans-Bold-79" x="361.474609"/>
    </g>
   </g>
   <g id="text_9">
    <!-- 3. MANY tau line up — -->
    <g style="fill: #16202c" transform="translate(532.882531 218.229209) scale(0.11 -0.11)">
     <defs>
      <path id="DejaVuSans-Bold-33" d="M 2981 2516 
Q 3453 2394 3698 2092 
Q 3944 1791 3944 1325 
Q 3944 631 3412 270 
Q 2881 -91 1863 -91 
Q 1503 -91 1142 -33 
Q 781 25 428 141 
L 428 1069 
Q 766 900 1098 814 
Q 1431 728 1753 728 
Q 2231 728 2486 893 
Q 2741 1059 2741 1369 
Q 2741 1688 2480 1852 
Q 2219 2016 1709 2016 
L 1228 2016 
L 1228 2791 
L 1734 2791 
Q 2188 2791 2409 2933 
Q 2631 3075 2631 3366 
Q 2631 3634 2415 3781 
Q 2200 3928 1806 3928 
Q 1516 3928 1219 3862 
Q 922 3797 628 3669 
L 628 4550 
Q 984 4650 1334 4700 
Q 1684 4750 2022 4750 
Q 2931 4750 3382 4451 
Q 3834 4153 3834 3553 
Q 3834 3144 3618 2883 
Q 3403 2622 2981 2516 
z
" transform="scale(0.015625)"/>
      <path id="DejaVuSans-Bold-4d" d="M 588 4666 
L 2119 4666 
L 3181 2169 
L 4250 4666 
L 5778 4666 
L 5778 0 
L 4641 0 
L 4641 3413 
L 3566 897 
L 2803 897 
L 1728 3413 
L 1728 0 
L 588 0 
L 588 4666 
z
" transform="scale(0.015625)"/>
      <path id="DejaVuSans-Bold-41" d="M 3419 850 
L 1538 850 
L 1241 0 
L 31 0 
L 1759 4666 
L 3194 4666 
L 4922 0 
L 3713 0 
L 3419 850 
z
M 1838 1716 
L 3116 1716 
L 2478 3572 
L 1838 1716 
z
" transform="scale(0.015625)"/>
      <path id="DejaVuSans-Bold-4e" d="M 588 4666 
L 1931 4666 
L 3628 1466 
L 3628 4666 
L 4769 4666 
L 4769 0 
L 3425 0 
L 1728 3200 
L 1728 0 
L 588 0 
L 588 4666 
z
" transform="scale(0.015625)"/>
      <path id="DejaVuSans-Bold-59" d="M -63 4666 
L 1253 4666 
L 2316 3003 
L 3378 4666 
L 4697 4666 
L 2919 1966 
L 2919 0 
L 1716 0 
L 1716 1966 
L -63 4666 
z
" transform="scale(0.015625)"/>
      <path id="DejaVuSans-Bold-2014" d="M 344 2156 
L 6056 2156 
L 6056 1350 
L 344 1350 
L 344 2156 
z
" transform="scale(0.015625)"/>
     </defs>
     <use xlink:href="#DejaVuSans-Bold-33"/>
     <use xlink:href="#DejaVuSans-Bold-2e" x="69.580078"/>
     <use xlink:href="#DejaVuSans-Bold-20" x="107.568359"/>
     <use xlink:href="#DejaVuSans-Bold-4d" x="142.382812"/>
     <use xlink:href="#DejaVuSans-Bold-41" x="241.894531"/>
     <use xlink:href="#DejaVuSans-Bold-4e" x="319.287109"/>
     <use xlink:href="#DejaVuSans-Bold-59" x="402.978516"/>
     <use xlink:href="#DejaVuSans-Bold-20" x="475.390625"/>
     <use xlink:href="#DejaVuSans-Bold-74" x="510.205078"/>
     <use xlink:href="#DejaVuSans-Bold-61" x="558.007812"/>
     <use xlink:href="#DejaVuSans-Bold-75" x="625.488281"/>
     <use xlink:href="#DejaVuSans-Bold-20" x="696.679688"/>
     <use xlink:href="#DejaVuSans-Bold-6c" x="731.494141"/>
     <use xlink:href="#DejaVuSans-Bold-69" x="765.771484"/>
     <use xlink:href="#DejaVuSans-Bold-6e" x="800.048828"/>
     <use xlink:href="#DejaVuSans-Bold-65" x="871.240234"/>
     <use xlink:href="#DejaVuSans-Bold-20" x="939.0625"/>
     <use xlink:href="#DejaVuSans-Bold-75" x="973.876953"/>
     <use xlink:href="#DejaVuSans-Bold-70" x="1045.068359"/>
     <use xlink:href="#DejaVuSans-Bold-20" x="1116.650391"/>
     <use xlink:href="#DejaVuSans-Bold-2014" x="1151.464844"/>
    </g>
    <!-- their motifs interlock -->
    <g style="fill: #16202c" transform="translate(535.865422 230.546803) scale(0.11 -0.11)">
     <use xlink:href="#DejaVuSans-Bold-74"/>
     <use xlink:href="#DejaVuSans-Bold-68" x="47.802734"/>
     <use xlink:href="#DejaVuSans-Bold-65" x="118.994141"/>
     <use xlink:href="#DejaVuSans-Bold-69" x="186.816406"/>
     <use xlink:href="#DejaVuSans-Bold-72" x="221.09375"/>
     <use xlink:href="#DejaVuSans-Bold-20" x="270.410156"/>
     <use xlink:href="#DejaVuSans-Bold-6d" x="305.224609"/>
     <use xlink:href="#DejaVuSans-Bold-6f" x="409.423828"/>
     <use xlink:href="#DejaVuSans-Bold-74" x="478.125"/>
     <use xlink:href="#DejaVuSans-Bold-69" x="525.927734"/>
     <use xlink:href="#DejaVuSans-Bold-66" x="560.205078"/>
     <use xlink:href="#DejaVuSans-Bold-73" x="603.710938"/>
     <use xlink:href="#DejaVuSans-Bold-20" x="663.232422"/>
     <use xlink:href="#DejaVuSans-Bold-69" x="698.046875"/>
     <use xlink:href="#DejaVuSans-Bold-6e" x="732.324219"/>
     <use xlink:href="#DejaVuSans-Bold-74" x="803.515625"/>
     <use xlink:href="#DejaVuSans-Bold-65" x="851.318359"/>
     <use xlink:href="#DejaVuSans-Bold-72" x="919.140625"/>
     <use xlink:href="#DejaVuSans-Bold-6c" x="968.457031"/>
     <use xlink:href="#DejaVuSans-Bold-6f" x="1002.734375"/>
     <use xlink:href="#DejaVuSans-Bold-63" x="1071.435547"/>
     <use xlink:href="#DejaVuSans-Bold-6b" x="1130.712891"/>
    </g>
   </g>
   <g id="text_10">
    <!-- cross-β core -->
    <g style="fill: #0ea5a4" transform="translate(812.181994 43.52077) scale(0.1 -0.1)">
     <defs>
      <path id="DejaVuSans-Bold-2d" d="M 347 2297 
L 2309 2297 
L 2309 1388 
L 347 1388 
L 347 2297 
z
" transform="scale(0.015625)"/>
      <path id="DejaVuSans-Bold-3b2" d="M 2575 3038 
Q 2772 3309 2772 3503 
Q 2772 3769 2648 3948 
Q 2525 4128 2241 4128 
Q 1900 4128 1778 3864 
Q 1656 3600 1656 3103 
L 1656 1747 
Q 1656 1250 1848 986 
Q 2041 722 2400 722 
Q 2800 722 2953 934 
Q 3106 1147 3106 1275 
Q 3106 1722 2738 1988 
Q 2538 2122 1988 2134 
L 1988 2847 
Q 2497 2925 2575 3038 
z
M 538 -1331 
L 538 3044 
Q 538 3922 969 4369 
Q 1325 4741 1672 4845 
Q 2019 4950 2259 4950 
Q 2500 4947 2538 4941 
Q 3178 4841 3538 4438 
Q 3788 4163 3788 3600 
Q 3788 3313 3616 3053 
Q 3406 2734 3094 2709 
Q 3556 2584 3844 2322 
Q 4294 1919 4294 1288 
Q 4294 731 3903 320 
Q 3513 -91 2809 -91 
Q 2106 -91 1656 506 
L 1656 -1331 
L 538 -1331 
z
" transform="scale(0.015625)"/>
     </defs>
     <use xlink:href="#DejaVuSans-Bold-63"/>
     <use xlink:href="#DejaVuSans-Bold-72" x="59.277344"/>
     <use xlink:href="#DejaVuSans-Bold-6f" x="108.59375"/>
     <use xlink:href="#DejaVuSans-Bold-73" x="177.294922"/>
     <use xlink:href="#DejaVuSans-Bold-73" x="236.816406"/>
     <use xlink:href="#DejaVuSans-Bold-2d" x="296.337891"/>
     <use xlink:href="#DejaVuSans-Bold-3b2" x="337.841797"/>
     <use xlink:href="#DejaVuSans-Bold-20" x="409.423828"/>
     <use xlink:href="#DejaVuSans-Bold-63" x="444.238281"/>
     <use xlink:href="#DejaVuSans-Bold-6f" x="503.515625"/>
     <use xlink:href="#DejaVuSans-Bold-72" x="572.216797"/>
     <use xlink:href="#DejaVuSans-Bold-65" x="621.533203"/>
    </g>
   </g>
   <g id="text_11">
    <!-- 4. Motifs zip into a cross-β -->
    <g style="fill: #16202c" transform="translate(762.950047 218.37874) scale(0.11 -0.11)">
     <defs>
      <path id="DejaVuSans-Bold-34" d="M 2356 3675 
L 1038 1722 
L 2356 1722 
L 2356 3675 
z
M 2156 4666 
L 3494 4666 
L 3494 1722 
L 4159 1722 
L 4159 850 
L 3494 850 
L 3494 0 
L 2356 0 
L 2356 850 
L 288 850 
L 288 1881 
L 2156 4666 
z
" transform="scale(0.015625)"/>
      <path id="DejaVuSans-Bold-7a" d="M 366 3500 
L 3419 3500 
L 3419 2719 
L 1575 800 
L 3419 800 
L 3419 0 
L 288 0 
L 288 781 
L 2131 2700 
L 366 2700 
L 366 3500 
z
" transform="scale(0.015625)"/>
     </defs>
     <use xlink:href="#DejaVuSans-Bold-34"/>
     <use xlink:href="#DejaVuSans-Bold-2e" x="69.580078"/>
     <use xlink:href="#DejaVuSans-Bold-20" x="107.568359"/>
     <use xlink:href="#DejaVuSans-Bold-4d" x="142.382812"/>
     <use xlink:href="#DejaVuSans-Bold-6f" x="241.894531"/>
     <use xlink:href="#DejaVuSans-Bold-74" x="310.595703"/>
     <use xlink:href="#DejaVuSans-Bold-69" x="358.398438"/>
     <use xlink:href="#DejaVuSans-Bold-66" x="392.675781"/>
     <use xlink:href="#DejaVuSans-Bold-73" x="436.181641"/>
     <use xlink:href="#DejaVuSans-Bold-20" x="495.703125"/>
     <use xlink:href="#DejaVuSans-Bold-7a" x="530.517578"/>
     <use xlink:href="#DejaVuSans-Bold-69" x="588.720703"/>
     <use xlink:href="#DejaVuSans-Bold-70" x="622.998047"/>
     <use xlink:href="#DejaVuSans-Bold-20" x="694.580078"/>
     <use xlink:href="#DejaVuSans-Bold-69" x="729.394531"/>
     <use xlink:href="#DejaVuSans-Bold-6e" x="763.671875"/>
     <use xlink:href="#DejaVuSans-Bold-74" x="834.863281"/>
     <use xlink:href="#DejaVuSans-Bold-6f" x="882.666016"/>
     <use xlink:href="#DejaVuSans-Bold-20" x="951.367188"/>
     <use xlink:href="#DejaVuSans-Bold-61" x="986.181641"/>
     <use xlink:href="#DejaVuSans-Bold-20" x="1053.662109"/>
     <use xlink:href="#DejaVuSans-Bold-63" x="1088.476562"/>
     <use xlink:href="#DejaVuSans-Bold-72" x="1147.753906"/>
     <use xlink:href="#DejaVuSans-Bold-6f" x="1197.070312"/>
     <use xlink:href="#DejaVuSans-Bold-73" x="1265.771484"/>
     <use xlink:href="#DejaVuSans-Bold-73" x="1325.292969"/>
     <use xlink:href="#DejaVuSans-Bold-2d" x="1384.814453"/>
     <use xlink:href="#DejaVuSans-Bold-3b2" x="1426.318359"/>
    </g>
    <!-- fibril (PHF) → tangles -->
    <g style="fill: #16202c" transform="translate(779.780906 230.696334) scale(0.11 -0.11)">
     <defs>
      <path id="DejaVuSans-Bold-50" d="M 588 4666 
L 2584 4666 
Q 3475 4666 3951 4270 
Q 4428 3875 4428 3144 
Q 4428 2409 3951 2014 
Q 3475 1619 2584 1619 
L 1791 1619 
L 1791 0 
L 588 0 
L 588 4666 
z
M 1791 3794 
L 1791 2491 
L 2456 2491 
Q 2806 2491 2997 2661 
Q 3188 2831 3188 3144 
Q 3188 3456 2997 3625 
Q 2806 3794 2456 3794 
L 1791 3794 
z
" transform="scale(0.015625)"/>
      <path id="DejaVuSans-Bold-46" d="M 588 4666 
L 3834 4666 
L 3834 3756 
L 1791 3756 
L 1791 2888 
L 3713 2888 
L 3713 1978 
L 1791 1978 
L 1791 0 
L 588 0 
L 588 4666 
z
" transform="scale(0.015625)"/>
     </defs>
     <use xlink:href="#DejaVuSans-Bold-66"/>
     <use xlink:href="#DejaVuSans-Bold-69" x="43.505859"/>
     <use xlink:href="#DejaVuSans-Bold-62" x="77.783203"/>
     <use xlink:href="#DejaVuSans-Bold-72" x="149.365234"/>
     <use xlink:href="#DejaVuSans-Bold-69" x="198.681641"/>
     <use xlink:href="#DejaVuSans-Bold-6c" x="232.958984"/>
     <use xlink:href="#DejaVuSans-Bold-20" x="267.236328"/>
     <use xlink:href="#DejaVuSans-Bold-28" x="302.050781"/>
     <use xlink:href="#DejaVuSans-Bold-50" x="347.753906"/>
     <use xlink:href="#DejaVuSans-Bold-48" x="421.044922"/>
     <use xlink:href="#DejaVuSans-Bold-46" x="504.736328"/>
     <use xlink:href="#DejaVuSans-Bold-29" x="573.046875"/>
     <use xlink:href="#DejaVuSans-Bold-20" x="618.75"/>
     <use xlink:href="#DejaVuSans-Bold-2192" x="653.564453"/>
     <use xlink:href="#DejaVuSans-Bold-20" x="737.353516"/>
     <use xlink:href="#DejaVuSans-Bold-74" x="772.167969"/>
     <use xlink:href="#DejaVuSans-Bold-61" x="819.970703"/>
     <use xlink:href="#DejaVuSans-Bold-6e" x="887.451172"/>
     <use xlink:href="#DejaVuSans-Bold-67" x="958.642578"/>
     <use xlink:href="#DejaVuSans-Bold-6c" x="1030.224609"/>
     <use xlink:href="#DejaVuSans-Bold-65" x="1064.501953"/>
     <use xlink:href="#DejaVuSans-Bold-73" x="1132.324219"/>
    </g>
   </g>
   <g id="text_12">
    <!-- How HS catalyses tau aggregation: one tau changes shape, then MANY stack into the fibril -->
    <g style="fill: #16202c" transform="translate(195.710273 21.822923) scale(0.135 -0.135)">
     <defs>
      <path id="DejaVuSans-Bold-77" d="M 225 3500 
L 1313 3500 
L 1900 1088 
L 2491 3500 
L 3425 3500 
L 4013 1113 
L 4603 3500 
L 5691 3500 
L 4769 0 
L 3547 0 
L 2956 2406 
L 2369 0 
L 1147 0 
L 225 3500 
z
" transform="scale(0.015625)"/>
      <path id="DejaVuSans-Bold-3a" d="M 716 3500 
L 1844 3500 
L 1844 2291 
L 716 2291 
L 716 3500 
z
M 716 1209 
L 1844 1209 
L 1844 0 
L 716 0 
L 716 1209 
z
" transform="scale(0.015625)"/>
     </defs>
     <use xlink:href="#DejaVuSans-Bold-48"/>
     <use xlink:href="#DejaVuSans-Bold-6f" x="83.691406"/>
     <use xlink:href="#DejaVuSans-Bold-77" x="152.392578"/>
     <use xlink:href="#DejaVuSans-Bold-20" x="244.775391"/>
     <use xlink:href="#DejaVuSans-Bold-48" x="279.589844"/>
     <use xlink:href="#DejaVuSans-Bold-53" x="363.28125"/>
     <use xlink:href="#DejaVuSans-Bold-20" x="435.302734"/>
     <use xlink:href="#DejaVuSans-Bold-63" x="470.117188"/>
     <use xlink:href="#DejaVuSans-Bold-61" x="529.394531"/>
     <use xlink:href="#DejaVuSans-Bold-74" x="596.875"/>
     <use xlink:href="#DejaVuSans-Bold-61" x="644.677734"/>
     <use xlink:href="#DejaVuSans-Bold-6c" x="712.158203"/>
     <use xlink:href="#DejaVuSans-Bold-79" x="746.435547"/>
     <use xlink:href="#DejaVuSans-Bold-73" x="811.621094"/>
     <use xlink:href="#DejaVuSans-Bold-65" x="871.142578"/>
     <use xlink:href="#DejaVuSans-Bold-73" x="938.964844"/>
     <use xlink:href="#DejaVuSans-Bold-20" x="998.486328"/>
     <use xlink:href="#DejaVuSans-Bold-74" x="1033.300781"/>
     <use xlink:href="#DejaVuSans-Bold-61" x="1081.103516"/>
     <use xlink:href="#DejaVuSans-Bold-75" x="1148.583984"/>
     <use xlink:href="#DejaVuSans-Bold-20" x="1219.775391"/>
     <use xlink:href="#DejaVuSans-Bold-61" x="1254.589844"/>
     <use xlink:href="#DejaVuSans-Bold-67" x="1322.070312"/>
     <use xlink:href="#DejaVuSans-Bold-67" x="1393.652344"/>
     <use xlink:href="#DejaVuSans-Bold-72" x="1465.234375"/>
     <use xlink:href="#DejaVuSans-Bold-65" x="1514.550781"/>
     <use xlink:href="#DejaVuSans-Bold-67" x="1582.373047"/>
     <use xlink:href="#DejaVuSans-Bold-61" x="1653.955078"/>
     <use xlink:href="#DejaVuSans-Bold-74" x="1721.435547"/>
     <use xlink:href="#DejaVuSans-Bold-69" x="1769.238281"/>
     <use xlink:href="#DejaVuSans-Bold-6f" x="1803.515625"/>
     <use xlink:href="#DejaVuSans-Bold-6e" x="1872.216797"/>
     <use xlink:href="#DejaVuSans-Bold-3a" x="1943.408203"/>
     <use xlink:href="#DejaVuSans-Bold-20" x="1983.398438"/>
     <use xlink:href="#DejaVuSans-Bold-6f" x="2018.212891"/>
     <use xlink:href="#DejaVuSans-Bold-6e" x="2086.914062"/>
     <use xlink:href="#DejaVuSans-Bold-65" x="2158.105469"/>
     <use xlink:href="#DejaVuSans-Bold-20" x="2225.927734"/>
     <use xlink:href="#DejaVuSans-Bold-74" x="2260.742188"/>
     <use xlink:href="#DejaVuSans-Bold-61" x="2308.544922"/>
     <use xlink:href="#DejaVuSans-Bold-75" x="2376.025391"/>
     <use xlink:href="#DejaVuSans-Bold-20" x="2447.216797"/>
     <use xlink:href="#DejaVuSans-Bold-63" x="2482.03125"/>
     <use xlink:href="#DejaVuSans-Bold-68" x="2541.308594"/>
     <use xlink:href="#DejaVuSans-Bold-61" x="2612.5"/>
     <use xlink:href="#DejaVuSans-Bold-6e" x="2679.980469"/>
     <use xlink:href="#DejaVuSans-Bold-67" x="2751.171875"/>
     <use xlink:href="#DejaVuSans-Bold-65" x="2822.753906"/>
     <use xlink:href="#DejaVuSans-Bold-73" x="2890.576172"/>
     <use xlink:href="#DejaVuSans-Bold-20" x="2950.097656"/>
     <use xlink:href="#DejaVuSans-Bold-73" x="2984.912109"/>
     <use xlink:href="#DejaVuSans-Bold-68" x="3044.433594"/>
     <use xlink:href="#DejaVuSans-Bold-61" x="3115.625"/>
     <use xlink:href="#DejaVuSans-Bold-70" x="3183.105469"/>
     <use xlink:href="#DejaVuSans-Bold-65" x="3254.6875"/>
     <use xlink:href="#DejaVuSans-Bold-2c" x="3322.509766"/>
     <use xlink:href="#DejaVuSans-Bold-20" x="3360.498047"/>
     <use xlink:href="#DejaVuSans-Bold-74" x="3395.3125"/>
     <use xlink:href="#DejaVuSans-Bold-68" x="3443.115234"/>
     <use xlink:href="#DejaVuSans-Bold-65" x="3514.306641"/>
     <use xlink:href="#DejaVuSans-Bold-6e" x="3582.128906"/>
     <use xlink:href="#DejaVuSans-Bold-20" x="3653.320312"/>
     <use xlink:href="#DejaVuSans-Bold-4d" x="3688.134766"/>
     <use xlink:href="#DejaVuSans-Bold-41" x="3787.646484"/>
     <use xlink:href="#DejaVuSans-Bold-4e" x="3865.039062"/>
     <use xlink:href="#DejaVuSans-Bold-59" x="3948.730469"/>
     <use xlink:href="#DejaVuSans-Bold-20" x="4021.142578"/>
     <use xlink:href="#DejaVuSans-Bold-73" x="4055.957031"/>
     <use xlink:href="#DejaVuSans-Bold-74" x="4115.478516"/>
     <use xlink:href="#DejaVuSans-Bold-61" x="4163.28125"/>
     <use xlink:href="#DejaVuSans-Bold-63" x="4230.761719"/>
     <use xlink:href="#DejaVuSans-Bold-6b" x="4290.039062"/>
     <use xlink:href="#DejaVuSans-Bold-20" x="4356.542969"/>
     <use xlink:href="#DejaVuSans-Bold-69" x="4391.357422"/>
     <use xlink:href="#DejaVuSans-Bold-6e" x="4425.634766"/>
     <use xlink:href="#DejaVuSans-Bold-74" x="4496.826172"/>
     <use xlink:href="#DejaVuSans-Bold-6f" x="4544.628906"/>
     <use xlink:href="#DejaVuSans-Bold-20" x="4613.330078"/>
     <use xlink:href="#DejaVuSans-Bold-74" x="4648.144531"/>
     <use xlink:href="#DejaVuSans-Bold-68" x="4695.947266"/>
     <use xlink:href="#DejaVuSans-Bold-65" x="4767.138672"/>
     <use xlink:href="#DejaVuSans-Bold-20" x="4834.960938"/>
     <use xlink:href="#DejaVuSans-Bold-66" x="4869.775391"/>
     <use xlink:href="#DejaVuSans-Bold-69" x="4913.28125"/>
     <use xlink:href="#DejaVuSans-Bold-62" x="4947.558594"/>
     <use xlink:href="#DejaVuSans-Bold-72" x="5019.140625"/>
     <use xlink:href="#DejaVuSans-Bold-69" x="5068.457031"/>
     <use xlink:href="#DejaVuSans-Bold-6c" x="5102.734375"/>
    </g>
   </g>
   <g id="line2d_10">
    <path d="M 285.663094 137.544772 
L 304.318734 137.544772 
L 322.974375 137.544772 
L 341.630016 137.544772 
L 360.285656 137.544772 
L 378.941297 137.544772 
L 397.596938 137.544772 
" clip-path="url(#p80873d3ad2)" style="fill: none; stroke: #e0792b; stroke-width: 2.4; stroke-linecap: round"/>
   </g>
   <g id="line2d_11">
    <path d="M 81.548438 116.570187 
L 81.548438 104.998002 
" clip-path="url(#p80873d3ad2)" style="fill: none; stroke: #c0392b; stroke-opacity: 0.35; stroke-width: 5; stroke-linecap: round"/>
   </g>
   <g id="line2d_12">
    <path d="M 111.177984 119.463233 
L 111.177984 107.891048 
" clip-path="url(#p80873d3ad2)" style="fill: none; stroke: #c0392b; stroke-opacity: 0.35; stroke-width: 5; stroke-linecap: round"/>
   </g>
   <g id="line2d_13">
    <path d="M 325.169156 98.488648 
L 325.169156 86.916463 
" clip-path="url(#p80873d3ad2)" style="fill: none; stroke: #c0392b; stroke-width: 5; stroke-linecap: round"/>
   </g>
   <g id="line2d_14">
    <path d="M 371.259563 101.381694 
L 371.259563 89.80951 
" clip-path="url(#p80873d3ad2)" style="fill: none; stroke: #c0392b; stroke-width: 5; stroke-linecap: round"/>
   </g>
   <g id="patch_13">
    <path d="M 285.663094 141.522711 
C 286.623497 141.522711 287.544695 141.10357 288.223803 140.3576 
C 288.90291 139.611629 289.284483 138.599734 289.284483 137.544772 
C 289.284483 136.489811 288.90291 135.477915 288.223803 134.731945 
C 287.544695 133.985974 286.623497 133.566834 285.663094 133.566834 
C 284.70269 133.566834 283.781493 133.985974 283.102385 134.731945 
C 282.423277 135.477915 282.041705 136.489811 282.041705 137.544772 
C 282.041705 138.599734 282.423277 139.611629 283.102385 140.3576 
C 283.781493 141.10357 284.70269 141.522711 285.663094 141.522711 
z
" clip-path="url(#p80873d3ad2)" style="fill: #e0792b; stroke: #ffffff; stroke-width: 0.7; stroke-linejoin: miter"/>
   </g>
   <g id="patch_14">
    <path d="M 304.318734 141.522711 
C 305.279138 141.522711 306.200335 141.10357 306.879443 140.3576 
C 307.558551 139.611629 307.940123 138.599734 307.940123 137.544772 
C 307.940123 136.489811 307.558551 135.477915 306.879443 134.731945 
C 306.200335 133.985974 305.279138 133.566834 304.318734 133.566834 
C 303.358331 133.566834 302.437134 133.985974 301.758026 134.731945 
C 301.078918 135.477915 300.697345 136.489811 300.697345 137.544772 
C 300.697345 138.599734 301.078918 139.611629 301.758026 140.3576 
C 302.437134 141.10357 303.358331 141.522711 304.318734 141.522711 
z
" clip-path="url(#p80873d3ad2)" style="fill: #e0792b; stroke: #ffffff; stroke-width: 0.7; stroke-linejoin: miter"/>
   </g>
   <g id="patch_15">
    <path d="M 322.974375 141.522711 
C 323.934779 141.522711 324.855976 141.10357 325.535084 140.3576 
C 326.214192 139.611629 326.595764 138.599734 326.595764 137.544772 
C 326.595764 136.489811 326.214192 135.477915 325.535084 134.731945 
C 324.855976 133.985974 323.934779 133.566834 322.974375 133.566834 
C 322.013971 133.566834 321.092774 133.985974 320.413666 134.731945 
C 319.734558 135.477915 319.352986 136.489811 319.352986 137.544772 
C 319.352986 138.599734 319.734558 139.611629 320.413666 140.3576 
C 321.092774 141.10357 322.013971 141.522711 322.974375 141.522711 
z
" clip-path="url(#p80873d3ad2)" style="fill: #e0792b; stroke: #ffffff; stroke-width: 0.7; stroke-linejoin: miter"/>
   </g>
   <g id="patch_16">
    <path d="M 341.630016 141.522711 
C 342.590419 141.522711 343.511616 141.10357 344.190724 140.3576 
C 344.869832 139.611629 345.251405 138.599734 345.251405 137.544772 
C 345.251405 136.489811 344.869832 135.477915 344.190724 134.731945 
C 343.511616 133.985974 342.590419 133.566834 341.630016 133.566834 
C 340.669612 133.566834 339.748415 133.985974 339.069307 134.731945 
C 338.390199 135.477915 338.008627 136.489811 338.008627 137.544772 
C 338.008627 138.599734 338.390199 139.611629 339.069307 140.3576 
C 339.748415 141.10357 340.669612 141.522711 341.630016 141.522711 
z
" clip-path="url(#p80873d3ad2)" style="fill: #e0792b; stroke: #ffffff; stroke-width: 0.7; stroke-linejoin: miter"/>
   </g>
   <g id="patch_17">
    <path d="M 360.285656 141.522711 
C 361.24606 141.522711 362.167257 141.10357 362.846365 140.3576 
C 363.525473 139.611629 363.907045 138.599734 363.907045 137.544772 
C 363.907045 136.489811 363.525473 135.477915 362.846365 134.731945 
C 362.167257 133.985974 361.24606 133.566834 360.285656 133.566834 
C 359.325253 133.566834 358.404055 133.985974 357.724947 134.731945 
C 357.04584 135.477915 356.664267 136.489811 356.664267 137.544772 
C 356.664267 138.599734 357.04584 139.611629 357.724947 140.3576 
C 358.404055 141.10357 359.325253 141.522711 360.285656 141.522711 
z
" clip-path="url(#p80873d3ad2)" style="fill: #e0792b; stroke: #ffffff; stroke-width: 0.7; stroke-linejoin: miter"/>
   </g>
   <g id="patch_18">
    <path d="M 378.941297 141.522711 
C 379.9017 141.522711 380.822898 141.10357 381.502006 140.3576 
C 382.181114 139.611629 382.562686 138.599734 382.562686 137.544772 
C 382.562686 136.489811 382.181114 135.477915 381.502006 134.731945 
C 380.822898 133.985974 379.9017 133.566834 378.941297 133.566834 
C 377.980893 133.566834 377.059696 133.985974 376.380588 134.731945 
C 375.70148 135.477915 375.319908 136.489811 375.319908 137.544772 
C 375.319908 138.599734 375.70148 139.611629 376.380588 140.3576 
C 377.059696 141.10357 377.980893 141.522711 378.941297 141.522711 
z
" clip-path="url(#p80873d3ad2)" style="fill: #e0792b; stroke: #ffffff; stroke-width: 0.7; stroke-linejoin: miter"/>
   </g>
   <g id="patch_19">
    <path d="M 397.596938 141.522711 
C 398.557341 141.522711 399.478538 141.10357 400.157646 140.3576 
C 400.836754 139.611629 401.218327 138.599734 401.218327 137.544772 
C 401.218327 136.489811 400.836754 135.477915 400.157646 134.731945 
C 399.478538 133.985974 398.557341 133.566834 397.596938 133.566834 
C 396.636534 133.566834 395.715337 133.985974 395.036229 134.731945 
C 394.357121 135.477915 393.975548 136.489811 393.975548 137.544772 
C 393.975548 138.599734 394.357121 139.611629 395.036229 140.3576 
C 395.715337 141.10357 396.636534 141.522711 397.596938 141.522711 
z
" clip-path="url(#p80873d3ad2)" style="fill: #e0792b; stroke: #ffffff; stroke-width: 0.7; stroke-linejoin: miter"/>
   </g>
   <g id="line2d_15">
    <path d="M 591.835078 78.237325 
L 591.835078 66.66514 
" clip-path="url(#p80873d3ad2)" style="fill: none; stroke: #c0392b; stroke-width: 5; stroke-linecap: round"/>
   </g>
   <g id="line2d_16">
    <path d="M 591.835078 108.61431 
L 591.835078 97.042125 
" clip-path="url(#p80873d3ad2)" style="fill: none; stroke: #c0392b; stroke-width: 5; stroke-linecap: round"/>
   </g>
   <g id="line2d_17">
    <path d="M 591.835078 138.991295 
L 591.835078 127.41911 
" clip-path="url(#p80873d3ad2)" style="fill: none; stroke: #c0392b; stroke-width: 5; stroke-linecap: round"/>
   </g>
   <g id="line2d_18">
    <path d="M 591.835078 169.368281 
L 591.835078 157.796096 
" clip-path="url(#p80873d3ad2)" style="fill: none; stroke: #c0392b; stroke-width: 5; stroke-linecap: round"/>
   </g>
   <g id="legend_1">
    <g id="line2d_19">
     <path d="M 280.632969 298.428338 
L 290.632969 298.428338 
L 300.632969 298.428338 
" style="fill: none; stroke: #9aa7b8; stroke-width: 4; stroke-linecap: square"/>
    </g>
    <g id="text_13">
     <!-- tau (disordered) -->
     <g transform="translate(308.632969 301.928338) scale(0.1 -0.1)">
      <defs>
       <path id="DejaVuSans-74" d="M 1172 4494 
L 1172 3500 
L 2356 3500 
L 2356 3053 
L 1172 3053 
L 1172 1153 
Q 1172 725 1289 603 
Q 1406 481 1766 481 
L 2356 481 
L 2356 0 
L 1766 0 
Q 1100 0 847 248 
Q 594 497 594 1153 
L 594 3053 
L 172 3053 
L 172 3500 
L 594 3500 
L 594 4494 
L 1172 4494 
z
" transform="scale(0.015625)"/>
       <path id="DejaVuSans-61" d="M 2194 1759 
Q 1497 1759 1228 1600 
Q 959 1441 959 1056 
Q 959 750 1161 570 
Q 1363 391 1709 391 
Q 2188 391 2477 730 
Q 2766 1069 2766 1631 
L 2766 1759 
L 2194 1759 
z
M 3341 1997 
L 3341 0 
L 2766 0 
L 2766 531 
Q 2569 213 2275 61 
Q 1981 -91 1556 -91 
Q 1019 -91 701 211 
Q 384 513 384 1019 
Q 384 1609 779 1909 
Q 1175 2209 1959 2209 
L 2766 2209 
L 2766 2266 
Q 2766 2663 2505 2880 
Q 2244 3097 1772 3097 
Q 1472 3097 1187 3025 
Q 903 2953 641 2809 
L 641 3341 
Q 956 3463 1253 3523 
Q 1550 3584 1831 3584 
Q 2591 3584 2966 3190 
Q 3341 2797 3341 1997 
z
" transform="scale(0.015625)"/>
       <path id="DejaVuSans-75" d="M 544 1381 
L 544 3500 
L 1119 3500 
L 1119 1403 
Q 1119 906 1312 657 
Q 1506 409 1894 409 
Q 2359 409 2629 706 
Q 2900 1003 2900 1516 
L 2900 3500 
L 3475 3500 
L 3475 0 
L 2900 0 
L 2900 538 
Q 2691 219 2414 64 
Q 2138 -91 1772 -91 
Q 1169 -91 856 284 
Q 544 659 544 1381 
z
M 1991 3584 
L 1991 3584 
z
" transform="scale(0.015625)"/>
       <path id="DejaVuSans-20" transform="scale(0.015625)"/>
       <path id="DejaVuSans-28" d="M 1984 4856 
Q 1566 4138 1362 3434 
Q 1159 2731 1159 2009 
Q 1159 1288 1364 580 
Q 1569 -128 1984 -844 
L 1484 -844 
Q 1016 -109 783 600 
Q 550 1309 550 2009 
Q 550 2706 781 3412 
Q 1013 4119 1484 4856 
L 1984 4856 
z
" transform="scale(0.015625)"/>
       <path id="DejaVuSans-64" d="M 2906 2969 
L 2906 4863 
L 3481 4863 
L 3481 0 
L 2906 0 
L 2906 525 
Q 2725 213 2448 61 
Q 2172 -91 1784 -91 
Q 1150 -91 751 415 
Q 353 922 353 1747 
Q 353 2572 751 3078 
Q 1150 3584 1784 3584 
Q 2172 3584 2448 3432 
Q 2725 3281 2906 2969 
z
M 947 1747 
Q 947 1113 1208 752 
Q 1469 391 1925 391 
Q 2381 391 2643 752 
Q 2906 1113 2906 1747 
Q 2906 2381 2643 2742 
Q 2381 3103 1925 3103 
Q 1469 3103 1208 2742 
Q 947 2381 947 1747 
z
" transform="scale(0.015625)"/>
       <path id="DejaVuSans-69" d="M 603 3500 
L 1178 3500 
L 1178 0 
L 603 0 
L 603 3500 
z
M 603 4863 
L 1178 4863 
L 1178 4134 
L 603 4134 
L 603 4863 
z
" transform="scale(0.015625)"/>
       <path id="DejaVuSans-73" d="M 2834 3397 
L 2834 2853 
Q 2591 2978 2328 3040 
Q 2066 3103 1784 3103 
Q 1356 3103 1142 2972 
Q 928 2841 928 2578 
Q 928 2378 1081 2264 
Q 1234 2150 1697 2047 
L 1894 2003 
Q 2506 1872 2764 1633 
Q 3022 1394 3022 966 
Q 3022 478 2636 193 
Q 2250 -91 1575 -91 
Q 1294 -91 989 -36 
Q 684 19 347 128 
L 347 722 
Q 666 556 975 473 
Q 1284 391 1588 391 
Q 1994 391 2212 530 
Q 2431 669 2431 922 
Q 2431 1156 2273 1281 
Q 2116 1406 1581 1522 
L 1381 1569 
Q 847 1681 609 1914 
Q 372 2147 372 2553 
Q 372 3047 722 3315 
Q 1072 3584 1716 3584 
Q 2034 3584 2315 3537 
Q 2597 3491 2834 3397 
z
" transform="scale(0.015625)"/>
       <path id="DejaVuSans-6f" d="M 1959 3097 
Q 1497 3097 1228 2736 
Q 959 2375 959 1747 
Q 959 1119 1226 758 
Q 1494 397 1959 397 
Q 2419 397 2687 759 
Q 2956 1122 2956 1747 
Q 2956 2369 2687 2733 
Q 2419 3097 1959 3097 
z
M 1959 3584 
Q 2709 3584 3137 3096 
Q 3566 2609 3566 1747 
Q 3566 888 3137 398 
Q 2709 -91 1959 -91 
Q 1206 -91 779 398 
Q 353 888 353 1747 
Q 353 2609 779 3096 
Q 1206 3584 1959 3584 
z
" transform="scale(0.015625)"/>
       <path id="DejaVuSans-72" d="M 2631 2963 
Q 2534 3019 2420 3045 
Q 2306 3072 2169 3072 
Q 1681 3072 1420 2755 
Q 1159 2438 1159 1844 
L 1159 0 
L 581 0 
L 581 3500 
L 1159 3500 
L 1159 2956 
Q 1341 3275 1631 3429 
Q 1922 3584 2338 3584 
Q 2397 3584 2469 3576 
Q 2541 3569 2628 3553 
L 2631 2963 
z
" transform="scale(0.015625)"/>
       <path id="DejaVuSans-65" d="M 3597 1894 
L 3597 1613 
L 953 1613 
Q 991 1019 1311 708 
Q 1631 397 2203 397 
Q 2534 397 2845 478 
Q 3156 559 3463 722 
L 3463 178 
Q 3153 47 2828 -22 
Q 2503 -91 2169 -91 
Q 1331 -91 842 396 
Q 353 884 353 1716 
Q 353 2575 817 3079 
Q 1281 3584 2069 3584 
Q 2775 3584 3186 3129 
Q 3597 2675 3597 1894 
z
M 3022 2063 
Q 3016 2534 2758 2815 
Q 2500 3097 2075 3097 
Q 1594 3097 1305 2825 
Q 1016 2553 972 2059 
L 3022 2063 
z
" transform="scale(0.015625)"/>
       <path id="DejaVuSans-29" d="M 513 4856 
L 1013 4856 
Q 1481 4119 1714 3412 
Q 1947 2706 1947 2009 
Q 1947 1309 1714 600 
Q 1481 -109 1013 -844 
L 513 -844 
Q 928 -128 1133 580 
Q 1338 1288 1338 2009 
Q 1338 2731 1133 3434 
Q 928 4138 513 4856 
z
" transform="scale(0.015625)"/>
      </defs>
      <use xlink:href="#DejaVuSans-74"/>
      <use xlink:href="#DejaVuSans-61" x="39.208984"/>
      <use xlink:href="#DejaVuSans-75" x="100.488281"/>
      <use xlink:href="#DejaVuSans-20" x="163.867188"/>
      <use xlink:href="#DejaVuSans-28" x="195.654297"/>
      <use xlink:href="#DejaVuSans-64" x="234.667969"/>
      <use xlink:href="#DejaVuSans-69" x="298.144531"/>
      <use xlink:href="#DejaVuSans-73" x="325.927734"/>
      <use xlink:href="#DejaVuSans-6f" x="378.027344"/>
      <use xlink:href="#DejaVuSans-72" x="439.208984"/>
      <use xlink:href="#DejaVuSans-64" x="478.572266"/>
      <use xlink:href="#DejaVuSans-65" x="542.048828"/>
      <use xlink:href="#DejaVuSans-72" x="603.572266"/>
      <use xlink:href="#DejaVuSans-65" x="642.435547"/>
      <use xlink:href="#DejaVuSans-64" x="703.958984"/>
      <use xlink:href="#DejaVuSans-29" x="767.435547"/>
     </g>
    </g>
    <g id="line2d_20">
     <path d="M 409.279844 298.428338 
L 419.279844 298.428338 
L 429.279844 298.428338 
" style="fill: none; stroke: #c0392b; stroke-width: 5; stroke-linecap: square"/>
    </g>
    <g id="text_14">
     <!-- PHF6 / PHF6* sticky motifs -->
     <g transform="translate(437.279844 301.928338) scale(0.1 -0.1)">
      <defs>
       <path id="DejaVuSans-50" d="M 1259 4147 
L 1259 2394 
L 2053 2394 
Q 2494 2394 2734 2622 
Q 2975 2850 2975 3272 
Q 2975 3691 2734 3919 
Q 2494 4147 2053 4147 
L 1259 4147 
z
M 628 4666 
L 2053 4666 
Q 2838 4666 3239 4311 
Q 3641 3956 3641 3272 
Q 3641 2581 3239 2228 
Q 2838 1875 2053 1875 
L 1259 1875 
L 1259 0 
L 628 0 
L 628 4666 
z
" transform="scale(0.015625)"/>
       <path id="DejaVuSans-48" d="M 628 4666 
L 1259 4666 
L 1259 2753 
L 3553 2753 
L 3553 4666 
L 4184 4666 
L 4184 0 
L 3553 0 
L 3553 2222 
L 1259 2222 
L 1259 0 
L 628 0 
L 628 4666 
z
" transform="scale(0.015625)"/>
       <path id="DejaVuSans-46" d="M 628 4666 
L 3309 4666 
L 3309 4134 
L 1259 4134 
L 1259 2759 
L 3109 2759 
L 3109 2228 
L 1259 2228 
L 1259 0 
L 628 0 
L 628 4666 
z
" transform="scale(0.015625)"/>
       <path id="DejaVuSans-36" d="M 2113 2584 
Q 1688 2584 1439 2293 
Q 1191 2003 1191 1497 
Q 1191 994 1439 701 
Q 1688 409 2113 409 
Q 2538 409 2786 701 
Q 3034 994 3034 1497 
Q 3034 2003 2786 2293 
Q 2538 2584 2113 2584 
z
M 3366 4563 
L 3366 3988 
Q 3128 4100 2886 4159 
Q 2644 4219 2406 4219 
Q 1781 4219 1451 3797 
Q 1122 3375 1075 2522 
Q 1259 2794 1537 2939 
Q 1816 3084 2150 3084 
Q 2853 3084 3261 2657 
Q 3669 2231 3669 1497 
Q 3669 778 3244 343 
Q 2819 -91 2113 -91 
Q 1303 -91 875 529 
Q 447 1150 447 2328 
Q 447 3434 972 4092 
Q 1497 4750 2381 4750 
Q 2619 4750 2861 4703 
Q 3103 4656 3366 4563 
z
" transform="scale(0.015625)"/>
       <path id="DejaVuSans-2f" d="M 1625 4666 
L 2156 4666 
L 531 -594 
L 0 -594 
L 1625 4666 
z
" transform="scale(0.015625)"/>
       <path id="DejaVuSans-2a" d="M 3009 3897 
L 1888 3291 
L 3009 2681 
L 2828 2375 
L 1778 3009 
L 1778 1831 
L 1422 1831 
L 1422 3009 
L 372 2375 
L 191 2681 
L 1313 3291 
L 191 3897 
L 372 4206 
L 1422 3572 
L 1422 4750 
L 1778 4750 
L 1778 3572 
L 2828 4206 
L 3009 3897 
z
" transform="scale(0.015625)"/>
       <path id="DejaVuSans-63" d="M 3122 3366 
L 3122 2828 
Q 2878 2963 2633 3030 
Q 2388 3097 2138 3097 
Q 1578 3097 1268 2742 
Q 959 2388 959 1747 
Q 959 1106 1268 751 
Q 1578 397 2138 397 
Q 2388 397 2633 464 
Q 2878 531 3122 666 
L 3122 134 
Q 2881 22 2623 -34 
Q 2366 -91 2075 -91 
Q 1284 -91 818 406 
Q 353 903 353 1747 
Q 353 2603 823 3093 
Q 1294 3584 2113 3584 
Q 2378 3584 2631 3529 
Q 2884 3475 3122 3366 
z
" transform="scale(0.015625)"/>
       <path id="DejaVuSans-6b" d="M 581 4863 
L 1159 4863 
L 1159 1991 
L 2875 3500 
L 3609 3500 
L 1753 1863 
L 3688 0 
L 2938 0 
L 1159 1709 
L 1159 0 
L 581 0 
L 581 4863 
z
" transform="scale(0.015625)"/>
       <path id="DejaVuSans-79" d="M 2059 -325 
Q 1816 -950 1584 -1140 
Q 1353 -1331 966 -1331 
L 506 -1331 
L 506 -850 
L 844 -850 
Q 1081 -850 1212 -737 
Q 1344 -625 1503 -206 
L 1606 56 
L 191 3500 
L 800 3500 
L 1894 763 
L 2988 3500 
L 3597 3500 
L 2059 -325 
z
" transform="scale(0.015625)"/>
       <path id="DejaVuSans-6d" d="M 3328 2828 
Q 3544 3216 3844 3400 
Q 4144 3584 4550 3584 
Q 5097 3584 5394 3201 
Q 5691 2819 5691 2113 
L 5691 0 
L 5113 0 
L 5113 2094 
Q 5113 2597 4934 2840 
Q 4756 3084 4391 3084 
Q 3944 3084 3684 2787 
Q 3425 2491 3425 1978 
L 3425 0 
L 2847 0 
L 2847 2094 
Q 2847 2600 2669 2842 
Q 2491 3084 2119 3084 
Q 1678 3084 1418 2786 
Q 1159 2488 1159 1978 
L 1159 0 
L 581 0 
L 581 3500 
L 1159 3500 
L 1159 2956 
Q 1356 3278 1631 3431 
Q 1906 3584 2284 3584 
Q 2666 3584 2933 3390 
Q 3200 3197 3328 2828 
z
" transform="scale(0.015625)"/>
       <path id="DejaVuSans-66" d="M 2375 4863 
L 2375 4384 
L 1825 4384 
Q 1516 4384 1395 4259 
Q 1275 4134 1275 3809 
L 1275 3500 
L 2222 3500 
L 2222 3053 
L 1275 3053 
L 1275 0 
L 697 0 
L 697 3053 
L 147 3053 
L 147 3500 
L 697 3500 
L 697 3744 
Q 697 4328 969 4595 
Q 1241 4863 1831 4863 
L 2375 4863 
z
" transform="scale(0.015625)"/>
      </defs>
      <use xlink:href="#DejaVuSans-50"/>
      <use xlink:href="#DejaVuSans-48" x="60.302734"/>
      <use xlink:href="#DejaVuSans-46" x="135.498047"/>
      <use xlink:href="#DejaVuSans-36" x="193.017578"/>
      <use xlink:href="#DejaVuSans-20" x="256.640625"/>
      <use xlink:href="#DejaVuSans-2f" x="288.427734"/>
      <use xlink:href="#DejaVuSans-20" x="322.119141"/>
      <use xlink:href="#DejaVuSans-50" x="353.90625"/>
      <use xlink:href="#DejaVuSans-48" x="414.208984"/>
      <use xlink:href="#DejaVuSans-46" x="489.404297"/>
      <use xlink:href="#DejaVuSans-36" x="546.923828"/>
      <use xlink:href="#DejaVuSans-2a" x="610.546875"/>
      <use xlink:href="#DejaVuSans-20" x="660.546875"/>
      <use xlink:href="#DejaVuSans-73" x="692.333984"/>
      <use xlink:href="#DejaVuSans-74" x="744.433594"/>
      <use xlink:href="#DejaVuSans-69" x="783.642578"/>
      <use xlink:href="#DejaVuSans-63" x="811.425781"/>
      <use xlink:href="#DejaVuSans-6b" x="866.40625"/>
      <use xlink:href="#DejaVuSans-79" x="920.691406"/>
      <use xlink:href="#DejaVuSans-20" x="979.871094"/>
      <use xlink:href="#DejaVuSans-6d" x="1011.658203"/>
      <use xlink:href="#DejaVuSans-6f" x="1109.070312"/>
      <use xlink:href="#DejaVuSans-74" x="1170.251953"/>
      <use xlink:href="#DejaVuSans-69" x="1209.460938"/>
      <use xlink:href="#DejaVuSans-66" x="1237.244141"/>
      <use xlink:href="#DejaVuSans-73" x="1272.449219"/>
     </g>
    </g>
    <g id="line2d_21">
     <path d="M 589.729844 298.428338 
L 599.729844 298.428338 
L 609.729844 298.428338 
" style="fill: none; stroke: #e0792b; stroke-width: 3; stroke-linecap: square"/>
    </g>
    <g id="text_15">
     <!-- heparan-sulfate (negatively charged) -->
     <g transform="translate(617.729844 301.928338) scale(0.1 -0.1)">
      <defs>
       <path id="DejaVuSans-68" d="M 3513 2113 
L 3513 0 
L 2938 0 
L 2938 2094 
Q 2938 2591 2744 2837 
Q 2550 3084 2163 3084 
Q 1697 3084 1428 2787 
Q 1159 2491 1159 1978 
L 1159 0 
L 581 0 
L 581 4863 
L 1159 4863 
L 1159 2956 
Q 1366 3272 1645 3428 
Q 1925 3584 2291 3584 
Q 2894 3584 3203 3211 
Q 3513 2838 3513 2113 
z
" transform="scale(0.015625)"/>
       <path id="DejaVuSans-70" d="M 1159 525 
L 1159 -1331 
L 581 -1331 
L 581 3500 
L 1159 3500 
L 1159 2969 
Q 1341 3281 1617 3432 
Q 1894 3584 2278 3584 
Q 2916 3584 3314 3078 
Q 3713 2572 3713 1747 
Q 3713 922 3314 415 
Q 2916 -91 2278 -91 
Q 1894 -91 1617 61 
Q 1341 213 1159 525 
z
M 3116 1747 
Q 3116 2381 2855 2742 
Q 2594 3103 2138 3103 
Q 1681 3103 1420 2742 
Q 1159 2381 1159 1747 
Q 1159 1113 1420 752 
Q 1681 391 2138 391 
Q 2594 391 2855 752 
Q 3116 1113 3116 1747 
z
" transform="scale(0.015625)"/>
       <path id="DejaVuSans-6e" d="M 3513 2113 
L 3513 0 
L 2938 0 
L 2938 2094 
Q 2938 2591 2744 2837 
Q 2550 3084 2163 3084 
Q 1697 3084 1428 2787 
Q 1159 2491 1159 1978 
L 1159 0 
L 581 0 
L 581 3500 
L 1159 3500 
L 1159 2956 
Q 1366 3272 1645 3428 
Q 1925 3584 2291 3584 
Q 2894 3584 3203 3211 
Q 3513 2838 3513 2113 
z
" transform="scale(0.015625)"/>
       <path id="DejaVuSans-2d" d="M 313 2009 
L 1997 2009 
L 1997 1497 
L 313 1497 
L 313 2009 
z
" transform="scale(0.015625)"/>
       <path id="DejaVuSans-6c" d="M 603 4863 
L 1178 4863 
L 1178 0 
L 603 0 
L 603 4863 
z
" transform="scale(0.015625)"/>
       <path id="DejaVuSans-67" d="M 2906 1791 
Q 2906 2416 2648 2759 
Q 2391 3103 1925 3103 
Q 1463 3103 1205 2759 
Q 947 2416 947 1791 
Q 947 1169 1205 825 
Q 1463 481 1925 481 
Q 2391 481 2648 825 
Q 2906 1169 2906 1791 
z
M 3481 434 
Q 3481 -459 3084 -895 
Q 2688 -1331 1869 -1331 
Q 1566 -1331 1297 -1286 
Q 1028 -1241 775 -1147 
L 775 -588 
Q 1028 -725 1275 -790 
Q 1522 -856 1778 -856 
Q 2344 -856 2625 -561 
Q 2906 -266 2906 331 
L 2906 616 
Q 2728 306 2450 153 
Q 2172 0 1784 0 
Q 1141 0 747 490 
Q 353 981 353 1791 
Q 353 2603 747 3093 
Q 1141 3584 1784 3584 
Q 2172 3584 2450 3431 
Q 2728 3278 2906 2969 
L 2906 3500 
L 3481 3500 
L 3481 434 
z
" transform="scale(0.015625)"/>
       <path id="DejaVuSans-76" d="M 191 3500 
L 800 3500 
L 1894 563 
L 2988 3500 
L 3597 3500 
L 2284 0 
L 1503 0 
L 191 3500 
z
" transform="scale(0.015625)"/>
      </defs>
      <use xlink:href="#DejaVuSans-68"/>
      <use xlink:href="#DejaVuSans-65" x="63.378906"/>
      <use xlink:href="#DejaVuSans-70" x="124.902344"/>
      <use xlink:href="#DejaVuSans-61" x="188.378906"/>
      <use xlink:href="#DejaVuSans-72" x="249.658203"/>
      <use xlink:href="#DejaVuSans-61" x="290.771484"/>
      <use xlink:href="#DejaVuSans-6e" x="352.050781"/>
      <use xlink:href="#DejaVuSans-2d" x="415.429688"/>
      <use xlink:href="#DejaVuSans-73" x="451.513672"/>
      <use xlink:href="#DejaVuSans-75" x="503.613281"/>
      <use xlink:href="#DejaVuSans-6c" x="566.992188"/>
      <use xlink:href="#DejaVuSans-66" x="594.775391"/>
      <use xlink:href="#DejaVuSans-61" x="629.980469"/>
      <use xlink:href="#DejaVuSans-74" x="691.259766"/>
      <use xlink:href="#DejaVuSans-65" x="730.46875"/>
      <use xlink:href="#DejaVuSans-20" x="791.992188"/>
      <use xlink:href="#DejaVuSans-28" x="823.779297"/>
      <use xlink:href="#DejaVuSans-6e" x="862.792969"/>
      <use xlink:href="#DejaVuSans-65" x="926.171875"/>
      <use xlink:href="#DejaVuSans-67" x="987.695312"/>
      <use xlink:href="#DejaVuSans-61" x="1051.171875"/>
      <use xlink:href="#DejaVuSans-74" x="1112.451172"/>
      <use xlink:href="#DejaVuSans-69" x="1151.660156"/>
      <use xlink:href="#DejaVuSans-76" x="1179.443359"/>
      <use xlink:href="#DejaVuSans-65" x="1238.623047"/>
      <use xlink:href="#DejaVuSans-6c" x="1300.146484"/>
      <use xlink:href="#DejaVuSans-79" x="1327.929688"/>
      <use xlink:href="#DejaVuSans-20" x="1387.109375"/>
      <use xlink:href="#DejaVuSans-63" x="1418.896484"/>
      <use xlink:href="#DejaVuSans-68" x="1473.876953"/>
      <use xlink:href="#DejaVuSans-61" x="1537.255859"/>
      <use xlink:href="#DejaVuSans-72" x="1598.535156"/>
      <use xlink:href="#DejaVuSans-67" x="1637.898438"/>
      <use xlink:href="#DejaVuSans-65" x="1701.375"/>
      <use xlink:href="#DejaVuSans-64" x="1762.898438"/>
      <use xlink:href="#DejaVuSans-29" x="1826.375"/>
     </g>
    </g>
   </g>
  </g>
 </g>
 <defs>
  <clipPath id="p80873d3ad2">
   <rect x="15.705" y="10.974" width="1053.495" height="260.37416"/>
  </clipPath>
 </defs>
</svg>
