<?xml version="1.0" encoding="utf-8" standalone="no"?>
<!DOCTYPE svg PUBLIC "-//W3C//DTD SVG 1.1//EN"
  "http://www.w3.org/Graphics/SVG/1.1/DTD/svg11.dtd">
<svg xmlns:xlink="http://www.w3.org/1999/xlink" width="540pt" height="374.4pt" viewBox="0 0 540 374.4" xmlns="http://www.w3.org/2000/svg" version="1.1">
 <metadata>
  <rdf:RDF xmlns:dc="http://purl.org/dc/elements/1.1/" xmlns:cc="http://creativecommons.org/ns#" xmlns:rdf="http://www.w3.org/1999/02/22-rdf-syntax-ns#">
   <cc:Work>
    <dc:type rdf:resource="http://purl.org/dc/dcmitype/StillImage"/>
    <dc:date>2026-06-09T09:11:43.185319</dc:date>
    <dc:format>image/svg+xml</dc:format>
    <dc:creator>
     <cc:Agent>
      <dc:title>Matplotlib v3.9.3, https://matplotlib.org/</dc:title>
     </cc:Agent>
    </dc:creator>
   </cc:Work>
  </rdf:RDF>
 </metadata>
 <defs>
  <style type="text/css">*{stroke-linejoin: round; stroke-linecap: butt}</style>
 </defs>
 <g id="figure_1">
  <g id="patch_1">
   <path d="M 0 374.4 
L 540 374.4 
L 540 0 
L 0 0 
z
" style="fill: #ffffff"/>
  </g>
  <g id="axes_1">
   <g id="patch_2">
    <path d="M 59.24 332.44 
L 529.2 332.44 
L 529.2 41.856 
L 59.24 41.856 
z
" style="fill: #ffffff"/>
   </g>
   <g id="matplotlib.axis_1">
    <g id="xtick_1">
     <g id="line2d_1">
      <defs>
       <path id="meeea2c2879" d="M 0 0 
L 0 3.5 
" style="stroke: #000000; stroke-width: 0.8"/>
      </defs>
      <g>
       <use xlink:href="#meeea2c2879" x="80.601818" y="332.44" style="stroke: #000000; stroke-width: 0.8"/>
      </g>
     </g>
     <g id="text_1">
      <!-- −3 -->
      <g transform="translate(73.230724 347.038437) scale(0.1 -0.1)">
       <defs>
        <path id="DejaVuSans-2212" d="M 678 2272 
L 4684 2272 
L 4684 1741 
L 678 1741 
L 678 2272 
z
" transform="scale(0.015625)"/>
        <path id="DejaVuSans-33" d="M 2597 2516 
Q 3050 2419 3304 2112 
Q 3559 1806 3559 1356 
Q 3559 666 3084 287 
Q 2609 -91 1734 -91 
Q 1441 -91 1130 -33 
Q 819 25 488 141 
L 488 750 
Q 750 597 1062 519 
Q 1375 441 1716 441 
Q 2309 441 2620 675 
Q 2931 909 2931 1356 
Q 2931 1769 2642 2001 
Q 2353 2234 1838 2234 
L 1294 2234 
L 1294 2753 
L 1863 2753 
Q 2328 2753 2575 2939 
Q 2822 3125 2822 3475 
Q 2822 3834 2567 4026 
Q 2313 4219 1838 4219 
Q 1578 4219 1281 4162 
Q 984 4106 628 3988 
L 628 4550 
Q 988 4650 1302 4700 
Q 1616 4750 1894 4750 
Q 2613 4750 3031 4423 
Q 3450 4097 3450 3541 
Q 3450 3153 3228 2886 
Q 3006 2619 2597 2516 
z
" transform="scale(0.015625)"/>
       </defs>
       <use xlink:href="#DejaVuSans-2212"/>
       <use xlink:href="#DejaVuSans-33" x="83.789062"/>
      </g>
     </g>
    </g>
    <g id="xtick_2">
     <g id="line2d_2">
      <g>
       <use xlink:href="#meeea2c2879" x="151.807879" y="332.44" style="stroke: #000000; stroke-width: 0.8"/>
      </g>
     </g>
     <g id="text_2">
      <!-- −2 -->
      <g transform="translate(144.436785 347.038437) scale(0.1 -0.1)">
       <defs>
        <path id="DejaVuSans-32" d="M 1228 531 
L 3431 531 
L 3431 0 
L 469 0 
L 469 531 
Q 828 903 1448 1529 
Q 2069 2156 2228 2338 
Q 2531 2678 2651 2914 
Q 2772 3150 2772 3378 
Q 2772 3750 2511 3984 
Q 2250 4219 1831 4219 
Q 1534 4219 1204 4116 
Q 875 4013 500 3803 
L 500 4441 
Q 881 4594 1212 4672 
Q 1544 4750 1819 4750 
Q 2544 4750 2975 4387 
Q 3406 4025 3406 3419 
Q 3406 3131 3298 2873 
Q 3191 2616 2906 2266 
Q 2828 2175 2409 1742 
Q 1991 1309 1228 531 
z
" transform="scale(0.015625)"/>
       </defs>
       <use xlink:href="#DejaVuSans-2212"/>
       <use xlink:href="#DejaVuSans-32" x="83.789062"/>
      </g>
     </g>
    </g>
    <g id="xtick_3">
     <g id="line2d_3">
      <g>
       <use xlink:href="#meeea2c2879" x="223.013939" y="332.44" style="stroke: #000000; stroke-width: 0.8"/>
      </g>
     </g>
     <g id="text_3">
      <!-- −1 -->
      <g transform="translate(215.642846 347.038437) scale(0.1 -0.1)">
       <defs>
        <path id="DejaVuSans-31" d="M 794 531 
L 1825 531 
L 1825 4091 
L 703 3866 
L 703 4441 
L 1819 4666 
L 2450 4666 
L 2450 531 
L 3481 531 
L 3481 0 
L 794 0 
L 794 531 
z
" transform="scale(0.015625)"/>
       </defs>
       <use xlink:href="#DejaVuSans-2212"/>
       <use xlink:href="#DejaVuSans-31" x="83.789062"/>
      </g>
     </g>
    </g>
    <g id="xtick_4">
     <g id="line2d_4">
      <g>
       <use xlink:href="#meeea2c2879" x="294.22" y="332.44" style="stroke: #000000; stroke-width: 0.8"/>
      </g>
     </g>
     <g id="text_4">
      <!-- 0 -->
      <g transform="translate(291.03875 347.038437) scale(0.1 -0.1)">
       <defs>
        <path id="DejaVuSans-30" d="M 2034 4250 
Q 1547 4250 1301 3770 
Q 1056 3291 1056 2328 
Q 1056 1369 1301 889 
Q 1547 409 2034 409 
Q 2525 409 2770 889 
Q 3016 1369 3016 2328 
Q 3016 3291 2770 3770 
Q 2525 4250 2034 4250 
z
M 2034 4750 
Q 2819 4750 3233 4129 
Q 3647 3509 3647 2328 
Q 3647 1150 3233 529 
Q 2819 -91 2034 -91 
Q 1250 -91 836 529 
Q 422 1150 422 2328 
Q 422 3509 836 4129 
Q 1250 4750 2034 4750 
z
" transform="scale(0.015625)"/>
       </defs>
       <use xlink:href="#DejaVuSans-30"/>
      </g>
     </g>
    </g>
    <g id="xtick_5">
     <g id="line2d_5">
      <g>
       <use xlink:href="#meeea2c2879" x="365.426061" y="332.44" style="stroke: #000000; stroke-width: 0.8"/>
      </g>
     </g>
     <g id="text_5">
      <!-- 1 -->
      <g transform="translate(362.244811 347.038437) scale(0.1 -0.1)">
       <use xlink:href="#DejaVuSans-31"/>
      </g>
     </g>
    </g>
    <g id="xtick_6">
     <g id="line2d_6">
      <g>
       <use xlink:href="#meeea2c2879" x="436.632121" y="332.44" style="stroke: #000000; stroke-width: 0.8"/>
      </g>
     </g>
     <g id="text_6">
      <!-- 2 -->
      <g transform="translate(433.450871 347.038437) scale(0.1 -0.1)">
       <use xlink:href="#DejaVuSans-32"/>
      </g>
     </g>
    </g>
    <g id="xtick_7">
     <g id="line2d_7">
      <g>
       <use xlink:href="#meeea2c2879" x="507.838182" y="332.44" style="stroke: #000000; stroke-width: 0.8"/>
      </g>
     </g>
     <g id="text_7">
      <!-- 3 -->
      <g transform="translate(504.656932 347.038437) scale(0.1 -0.1)">
       <use xlink:href="#DejaVuSans-33"/>
      </g>
     </g>
    </g>
    <g id="text_8">
     <!-- local net charge (±5 residues, excluding self) -->
     <g transform="translate(180.824688 360.716563) scale(0.1 -0.1)">
      <defs>
       <path id="DejaVuSans-6c" d="M 603 4863 
L 1178 4863 
L 1178 0 
L 603 0 
L 603 4863 
z
" transform="scale(0.015625)"/>
       <path id="DejaVuSans-6f" d="M 1959 3097 
Q 1497 3097 1228 2736 
Q 959 2375 959 1747 
Q 959 1119 1226 758 
Q 1494 397 1959 397 
Q 2419 397 2687 759 
Q 2956 1122 2956 1747 
Q 2956 2369 2687 2733 
Q 2419 3097 1959 3097 
z
M 1959 3584 
Q 2709 3584 3137 3096 
Q 3566 2609 3566 1747 
Q 3566 888 3137 398 
Q 2709 -91 1959 -91 
Q 1206 -91 779 398 
Q 353 888 353 1747 
Q 353 2609 779 3096 
Q 1206 3584 1959 3584 
z
" transform="scale(0.015625)"/>
       <path id="DejaVuSans-63" d="M 3122 3366 
L 3122 2828 
Q 2878 2963 2633 3030 
Q 2388 3097 2138 3097 
Q 1578 3097 1268 2742 
Q 959 2388 959 1747 
Q 959 1106 1268 751 
Q 1578 397 2138 397 
Q 2388 397 2633 464 
Q 2878 531 3122 666 
L 3122 134 
Q 2881 22 2623 -34 
Q 2366 -91 2075 -91 
Q 1284 -91 818 406 
Q 353 903 353 1747 
Q 353 2603 823 3093 
Q 1294 3584 2113 3584 
Q 2378 3584 2631 3529 
Q 2884 3475 3122 3366 
z
" transform="scale(0.015625)"/>
       <path id="DejaVuSans-61" d="M 2194 1759 
Q 1497 1759 1228 1600 
Q 959 1441 959 1056 
Q 959 750 1161 570 
Q 1363 391 1709 391 
Q 2188 391 2477 730 
Q 2766 1069 2766 1631 
L 2766 1759 
L 2194 1759 
z
M 3341 1997 
L 3341 0 
L 2766 0 
L 2766 531 
Q 2569 213 2275 61 
Q 1981 -91 1556 -91 
Q 1019 -91 701 211 
Q 384 513 384 1019 
Q 384 1609 779 1909 
Q 1175 2209 1959 2209 
L 2766 2209 
L 2766 2266 
Q 2766 2663 2505 2880 
Q 2244 3097 1772 3097 
Q 1472 3097 1187 3025 
Q 903 2953 641 2809 
L 641 3341 
Q 956 3463 1253 3523 
Q 1550 3584 1831 3584 
Q 2591 3584 2966 3190 
Q 3341 2797 3341 1997 
z
" transform="scale(0.015625)"/>
       <path id="DejaVuSans-20" transform="scale(0.015625)"/>
       <path id="DejaVuSans-6e" d="M 3513 2113 
L 3513 0 
L 2938 0 
L 2938 2094 
Q 2938 2591 2744 2837 
Q 2550 3084 2163 3084 
Q 1697 3084 1428 2787 
Q 1159 2491 1159 1978 
L 1159 0 
L 581 0 
L 581 3500 
L 1159 3500 
L 1159 2956 
Q 1366 3272 1645 3428 
Q 1925 3584 2291 3584 
Q 2894 3584 3203 3211 
Q 3513 2838 3513 2113 
z
" transform="scale(0.015625)"/>
       <path id="DejaVuSans-65" d="M 3597 1894 
L 3597 1613 
L 953 1613 
Q 991 1019 1311 708 
Q 1631 397 2203 397 
Q 2534 397 2845 478 
Q 3156 559 3463 722 
L 3463 178 
Q 3153 47 2828 -22 
Q 2503 -91 2169 -91 
Q 1331 -91 842 396 
Q 353 884 353 1716 
Q 353 2575 817 3079 
Q 1281 3584 2069 3584 
Q 2775 3584 3186 3129 
Q 3597 2675 3597 1894 
z
M 3022 2063 
Q 3016 2534 2758 2815 
Q 2500 3097 2075 3097 
Q 1594 3097 1305 2825 
Q 1016 2553 972 2059 
L 3022 2063 
z
" transform="scale(0.015625)"/>
       <path id="DejaVuSans-74" d="M 1172 4494 
L 1172 3500 
L 2356 3500 
L 2356 3053 
L 1172 3053 
L 1172 1153 
Q 1172 725 1289 603 
Q 1406 481 1766 481 
L 2356 481 
L 2356 0 
L 1766 0 
Q 1100 0 847 248 
Q 594 497 594 1153 
L 594 3053 
L 172 3053 
L 172 3500 
L 594 3500 
L 594 4494 
L 1172 4494 
z
" transform="scale(0.015625)"/>
       <path id="DejaVuSans-68" d="M 3513 2113 
L 3513 0 
L 2938 0 
L 2938 2094 
Q 2938 2591 2744 2837 
Q 2550 3084 2163 3084 
Q 1697 3084 1428 2787 
Q 1159 2491 1159 1978 
L 1159 0 
L 581 0 
L 581 4863 
L 1159 4863 
L 1159 2956 
Q 1366 3272 1645 3428 
Q 1925 3584 2291 3584 
Q 2894 3584 3203 3211 
Q 3513 2838 3513 2113 
z
" transform="scale(0.015625)"/>
       <path id="DejaVuSans-72" d="M 2631 2963 
Q 2534 3019 2420 3045 
Q 2306 3072 2169 3072 
Q 1681 3072 1420 2755 
Q 1159 2438 1159 1844 
L 1159 0 
L 581 0 
L 581 3500 
L 1159 3500 
L 1159 2956 
Q 1341 3275 1631 3429 
Q 1922 3584 2338 3584 
Q 2397 3584 2469 3576 
Q 2541 3569 2628 3553 
L 2631 2963 
z
" transform="scale(0.015625)"/>
       <path id="DejaVuSans-67" d="M 2906 1791 
Q 2906 2416 2648 2759 
Q 2391 3103 1925 3103 
Q 1463 3103 1205 2759 
Q 947 2416 947 1791 
Q 947 1169 1205 825 
Q 1463 481 1925 481 
Q 2391 481 2648 825 
Q 2906 1169 2906 1791 
z
M 3481 434 
Q 3481 -459 3084 -895 
Q 2688 -1331 1869 -1331 
Q 1566 -1331 1297 -1286 
Q 1028 -1241 775 -1147 
L 775 -588 
Q 1028 -725 1275 -790 
Q 1522 -856 1778 -856 
Q 2344 -856 2625 -561 
Q 2906 -266 2906 331 
L 2906 616 
Q 2728 306 2450 153 
Q 2172 0 1784 0 
Q 1141 0 747 490 
Q 353 981 353 1791 
Q 353 2603 747 3093 
Q 1141 3584 1784 3584 
Q 2172 3584 2450 3431 
Q 2728 3278 2906 2969 
L 2906 3500 
L 3481 3500 
L 3481 434 
z
" transform="scale(0.015625)"/>
       <path id="DejaVuSans-28" d="M 1984 4856 
Q 1566 4138 1362 3434 
Q 1159 2731 1159 2009 
Q 1159 1288 1364 580 
Q 1569 -128 1984 -844 
L 1484 -844 
Q 1016 -109 783 600 
Q 550 1309 550 2009 
Q 550 2706 781 3412 
Q 1013 4119 1484 4856 
L 1984 4856 
z
" transform="scale(0.015625)"/>
       <path id="DejaVuSans-b1" d="M 2944 4013 
L 2944 2803 
L 4684 2803 
L 4684 2272 
L 2944 2272 
L 2944 1063 
L 2419 1063 
L 2419 2272 
L 678 2272 
L 678 2803 
L 2419 2803 
L 2419 4013 
L 2944 4013 
z
M 678 531 
L 4684 531 
L 4684 0 
L 678 0 
L 678 531 
z
" transform="scale(0.015625)"/>
       <path id="DejaVuSans-35" d="M 691 4666 
L 3169 4666 
L 3169 4134 
L 1269 4134 
L 1269 2991 
Q 1406 3038 1543 3061 
Q 1681 3084 1819 3084 
Q 2600 3084 3056 2656 
Q 3513 2228 3513 1497 
Q 3513 744 3044 326 
Q 2575 -91 1722 -91 
Q 1428 -91 1123 -41 
Q 819 9 494 109 
L 494 744 
Q 775 591 1075 516 
Q 1375 441 1709 441 
Q 2250 441 2565 725 
Q 2881 1009 2881 1497 
Q 2881 1984 2565 2268 
Q 2250 2553 1709 2553 
Q 1456 2553 1204 2497 
Q 953 2441 691 2322 
L 691 4666 
z
" transform="scale(0.015625)"/>
       <path id="DejaVuSans-73" d="M 2834 3397 
L 2834 2853 
Q 2591 2978 2328 3040 
Q 2066 3103 1784 3103 
Q 1356 3103 1142 2972 
Q 928 2841 928 2578 
Q 928 2378 1081 2264 
Q 1234 2150 1697 2047 
L 1894 2003 
Q 2506 1872 2764 1633 
Q 3022 1394 3022 966 
Q 3022 478 2636 193 
Q 2250 -91 1575 -91 
Q 1294 -91 989 -36 
Q 684 19 347 128 
L 347 722 
Q 666 556 975 473 
Q 1284 391 1588 391 
Q 1994 391 2212 530 
Q 2431 669 2431 922 
Q 2431 1156 2273 1281 
Q 2116 1406 1581 1522 
L 1381 1569 
Q 847 1681 609 1914 
Q 372 2147 372 2553 
Q 372 3047 722 3315 
Q 1072 3584 1716 3584 
Q 2034 3584 2315 3537 
Q 2597 3491 2834 3397 
z
" transform="scale(0.015625)"/>
       <path id="DejaVuSans-69" d="M 603 3500 
L 1178 3500 
L 1178 0 
L 603 0 
L 603 3500 
z
M 603 4863 
L 1178 4863 
L 1178 4134 
L 603 4134 
L 603 4863 
z
" transform="scale(0.015625)"/>
       <path id="DejaVuSans-64" d="M 2906 2969 
L 2906 4863 
L 3481 4863 
L 3481 0 
L 2906 0 
L 2906 525 
Q 2725 213 2448 61 
Q 2172 -91 1784 -91 
Q 1150 -91 751 415 
Q 353 922 353 1747 
Q 353 2572 751 3078 
Q 1150 3584 1784 3584 
Q 2172 3584 2448 3432 
Q 2725 3281 2906 2969 
z
M 947 1747 
Q 947 1113 1208 752 
Q 1469 391 1925 391 
Q 2381 391 2643 752 
Q 2906 1113 2906 1747 
Q 2906 2381 2643 2742 
Q 2381 3103 1925 3103 
Q 1469 3103 1208 2742 
Q 947 2381 947 1747 
z
" transform="scale(0.015625)"/>
       <path id="DejaVuSans-75" d="M 544 1381 
L 544 3500 
L 1119 3500 
L 1119 1403 
Q 1119 906 1312 657 
Q 1506 409 1894 409 
Q 2359 409 2629 706 
Q 2900 1003 2900 1516 
L 2900 3500 
L 3475 3500 
L 3475 0 
L 2900 0 
L 2900 538 
Q 2691 219 2414 64 
Q 2138 -91 1772 -91 
Q 1169 -91 856 284 
Q 544 659 544 1381 
z
M 1991 3584 
L 1991 3584 
z
" transform="scale(0.015625)"/>
       <path id="DejaVuSans-2c" d="M 750 794 
L 1409 794 
L 1409 256 
L 897 -744 
L 494 -744 
L 750 256 
L 750 794 
z
" transform="scale(0.015625)"/>
       <path id="DejaVuSans-78" d="M 3513 3500 
L 2247 1797 
L 3578 0 
L 2900 0 
L 1881 1375 
L 863 0 
L 184 0 
L 1544 1831 
L 300 3500 
L 978 3500 
L 1906 2253 
L 2834 3500 
L 3513 3500 
z
" transform="scale(0.015625)"/>
       <path id="DejaVuSans-66" d="M 2375 4863 
L 2375 4384 
L 1825 4384 
Q 1516 4384 1395 4259 
Q 1275 4134 1275 3809 
L 1275 3500 
L 2222 3500 
L 2222 3053 
L 1275 3053 
L 1275 0 
L 697 0 
L 697 3053 
L 147 3053 
L 147 3500 
L 697 3500 
L 697 3744 
Q 697 4328 969 4595 
Q 1241 4863 1831 4863 
L 2375 4863 
z
" transform="scale(0.015625)"/>
       <path id="DejaVuSans-29" d="M 513 4856 
L 1013 4856 
Q 1481 4119 1714 3412 
Q 1947 2706 1947 2009 
Q 1947 1309 1714 600 
Q 1481 -109 1013 -844 
L 513 -844 
Q 928 -128 1133 580 
Q 1338 1288 1338 2009 
Q 1338 2731 1133 3434 
Q 928 4138 513 4856 
z
" transform="scale(0.015625)"/>
      </defs>
      <use xlink:href="#DejaVuSans-6c"/>
      <use xlink:href="#DejaVuSans-6f" x="27.783203"/>
      <use xlink:href="#DejaVuSans-63" x="88.964844"/>
      <use xlink:href="#DejaVuSans-61" x="143.945312"/>
      <use xlink:href="#DejaVuSans-6c" x="205.224609"/>
      <use xlink:href="#DejaVuSans-20" x="233.007812"/>
      <use xlink:href="#DejaVuSans-6e" x="264.794922"/>
      <use xlink:href="#DejaVuSans-65" x="328.173828"/>
      <use xlink:href="#DejaVuSans-74" x="389.697266"/>
      <use xlink:href="#DejaVuSans-20" x="428.90625"/>
      <use xlink:href="#DejaVuSans-63" x="460.693359"/>
      <use xlink:href="#DejaVuSans-68" x="515.673828"/>
      <use xlink:href="#DejaVuSans-61" x="579.052734"/>
      <use xlink:href="#DejaVuSans-72" x="640.332031"/>
      <use xlink:href="#DejaVuSans-67" x="679.695312"/>
      <use xlink:href="#DejaVuSans-65" x="743.171875"/>
      <use xlink:href="#DejaVuSans-20" x="804.695312"/>
      <use xlink:href="#DejaVuSans-28" x="836.482422"/>
      <use xlink:href="#DejaVuSans-b1" x="875.496094"/>
      <use xlink:href="#DejaVuSans-35" x="959.285156"/>
      <use xlink:href="#DejaVuSans-20" x="1022.908203"/>
      <use xlink:href="#DejaVuSans-72" x="1054.695312"/>
      <use xlink:href="#DejaVuSans-65" x="1093.558594"/>
      <use xlink:href="#DejaVuSans-73" x="1155.082031"/>
      <use xlink:href="#DejaVuSans-69" x="1207.181641"/>
      <use xlink:href="#DejaVuSans-64" x="1234.964844"/>
      <use xlink:href="#DejaVuSans-75" x="1298.441406"/>
      <use xlink:href="#DejaVuSans-65" x="1361.820312"/>
      <use xlink:href="#DejaVuSans-73" x="1423.34375"/>
      <use xlink:href="#DejaVuSans-2c" x="1475.443359"/>
      <use xlink:href="#DejaVuSans-20" x="1507.230469"/>
      <use xlink:href="#DejaVuSans-65" x="1539.017578"/>
      <use xlink:href="#DejaVuSans-78" x="1598.791016"/>
      <use xlink:href="#DejaVuSans-63" x="1656.220703"/>
      <use xlink:href="#DejaVuSans-6c" x="1711.201172"/>
      <use xlink:href="#DejaVuSans-75" x="1738.984375"/>
      <use xlink:href="#DejaVuSans-64" x="1802.363281"/>
      <use xlink:href="#DejaVuSans-69" x="1865.839844"/>
      <use xlink:href="#DejaVuSans-6e" x="1893.623047"/>
      <use xlink:href="#DejaVuSans-67" x="1957.001953"/>
      <use xlink:href="#DejaVuSans-20" x="2020.478516"/>
      <use xlink:href="#DejaVuSans-73" x="2052.265625"/>
      <use xlink:href="#DejaVuSans-65" x="2104.365234"/>
      <use xlink:href="#DejaVuSans-6c" x="2165.888672"/>
      <use xlink:href="#DejaVuSans-66" x="2193.671875"/>
      <use xlink:href="#DejaVuSans-29" x="2228.876953"/>
     </g>
    </g>
   </g>
   <g id="matplotlib.axis_2">
    <g id="ytick_1">
     <g id="line2d_8">
      <defs>
       <path id="mb839c70bae" d="M 0 0 
L -3.5 0 
" style="stroke: #000000; stroke-width: 0.8"/>
      </defs>
      <g>
       <use xlink:href="#mb839c70bae" x="59.24" y="48.900821" style="stroke: #000000; stroke-width: 0.8"/>
      </g>
     </g>
     <g id="text_9">
      <!-- −500 -->
      <g transform="translate(24.772813 52.70004) scale(0.1 -0.1)">
       <use xlink:href="#DejaVuSans-2212"/>
       <use xlink:href="#DejaVuSans-35" x="83.789062"/>
       <use xlink:href="#DejaVuSans-30" x="147.412109"/>
       <use xlink:href="#DejaVuSans-30" x="211.035156"/>
      </g>
     </g>
    </g>
    <g id="ytick_2">
     <g id="line2d_9">
      <g>
       <use xlink:href="#mb839c70bae" x="59.24" y="102.966984" style="stroke: #000000; stroke-width: 0.8"/>
      </g>
     </g>
     <g id="text_10">
      <!-- −400 -->
      <g transform="translate(24.772813 106.766203) scale(0.1 -0.1)">
       <defs>
        <path id="DejaVuSans-34" d="M 2419 4116 
L 825 1625 
L 2419 1625 
L 2419 4116 
z
M 2253 4666 
L 3047 4666 
L 3047 1625 
L 3713 1625 
L 3713 1100 
L 3047 1100 
L 3047 0 
L 2419 0 
L 2419 1100 
L 313 1100 
L 313 1709 
L 2253 4666 
z
" transform="scale(0.015625)"/>
       </defs>
       <use xlink:href="#DejaVuSans-2212"/>
       <use xlink:href="#DejaVuSans-34" x="83.789062"/>
       <use xlink:href="#DejaVuSans-30" x="147.412109"/>
       <use xlink:href="#DejaVuSans-30" x="211.035156"/>
      </g>
     </g>
    </g>
    <g id="ytick_3">
     <g id="line2d_10">
      <g>
       <use xlink:href="#mb839c70bae" x="59.24" y="157.033147" style="stroke: #000000; stroke-width: 0.8"/>
      </g>
     </g>
     <g id="text_11">
      <!-- −300 -->
      <g transform="translate(24.772813 160.832366) scale(0.1 -0.1)">
       <use xlink:href="#DejaVuSans-2212"/>
       <use xlink:href="#DejaVuSans-33" x="83.789062"/>
       <use xlink:href="#DejaVuSans-30" x="147.412109"/>
       <use xlink:href="#DejaVuSans-30" x="211.035156"/>
      </g>
     </g>
    </g>
    <g id="ytick_4">
     <g id="line2d_11">
      <g>
       <use xlink:href="#mb839c70bae" x="59.24" y="211.09931" style="stroke: #000000; stroke-width: 0.8"/>
      </g>
     </g>
     <g id="text_12">
      <!-- −200 -->
      <g transform="translate(24.772813 214.898529) scale(0.1 -0.1)">
       <use xlink:href="#DejaVuSans-2212"/>
       <use xlink:href="#DejaVuSans-32" x="83.789062"/>
       <use xlink:href="#DejaVuSans-30" x="147.412109"/>
       <use xlink:href="#DejaVuSans-30" x="211.035156"/>
      </g>
     </g>
    </g>
    <g id="ytick_5">
     <g id="line2d_12">
      <g>
       <use xlink:href="#mb839c70bae" x="59.24" y="265.165473" style="stroke: #000000; stroke-width: 0.8"/>
      </g>
     </g>
     <g id="text_13">
      <!-- −100 -->
      <g transform="translate(24.772813 268.964692) scale(0.1 -0.1)">
       <use xlink:href="#DejaVuSans-2212"/>
       <use xlink:href="#DejaVuSans-31" x="83.789062"/>
       <use xlink:href="#DejaVuSans-30" x="147.412109"/>
       <use xlink:href="#DejaVuSans-30" x="211.035156"/>
      </g>
     </g>
    </g>
    <g id="ytick_6">
     <g id="line2d_13">
      <g>
       <use xlink:href="#mb839c70bae" x="59.24" y="319.231636" style="stroke: #000000; stroke-width: 0.8"/>
      </g>
     </g>
     <g id="text_14">
      <!-- 0 -->
      <g transform="translate(45.8775 323.030855) scale(0.1 -0.1)">
       <use xlink:href="#DejaVuSans-30"/>
      </g>
     </g>
    </g>
    <g id="text_15">
     <!-- interaction energy (kJ/mol) -->
     <g transform="translate(18.693125 254.065188) rotate(-90) scale(0.1 -0.1)">
      <defs>
       <path id="DejaVuSans-79" d="M 2059 -325 
Q 1816 -950 1584 -1140 
Q 1353 -1331 966 -1331 
L 506 -1331 
L 506 -850 
L 844 -850 
Q 1081 -850 1212 -737 
Q 1344 -625 1503 -206 
L 1606 56 
L 191 3500 
L 800 3500 
L 1894 763 
L 2988 3500 
L 3597 3500 
L 2059 -325 
z
" transform="scale(0.015625)"/>
       <path id="DejaVuSans-6b" d="M 581 4863 
L 1159 4863 
L 1159 1991 
L 2875 3500 
L 3609 3500 
L 1753 1863 
L 3688 0 
L 2938 0 
L 1159 1709 
L 1159 0 
L 581 0 
L 581 4863 
z
" transform="scale(0.015625)"/>
       <path id="DejaVuSans-4a" d="M 628 4666 
L 1259 4666 
L 1259 325 
Q 1259 -519 939 -900 
Q 619 -1281 -91 -1281 
L -331 -1281 
L -331 -750 
L -134 -750 
Q 284 -750 456 -515 
Q 628 -281 628 325 
L 628 4666 
z
" transform="scale(0.015625)"/>
       <path id="DejaVuSans-2f" d="M 1625 4666 
L 2156 4666 
L 531 -594 
L 0 -594 
L 1625 4666 
z
" transform="scale(0.015625)"/>
       <path id="DejaVuSans-6d" d="M 3328 2828 
Q 3544 3216 3844 3400 
Q 4144 3584 4550 3584 
Q 5097 3584 5394 3201 
Q 5691 2819 5691 2113 
L 5691 0 
L 5113 0 
L 5113 2094 
Q 5113 2597 4934 2840 
Q 4756 3084 4391 3084 
Q 3944 3084 3684 2787 
Q 3425 2491 3425 1978 
L 3425 0 
L 2847 0 
L 2847 2094 
Q 2847 2600 2669 2842 
Q 2491 3084 2119 3084 
Q 1678 3084 1418 2786 
Q 1159 2488 1159 1978 
L 1159 0 
L 581 0 
L 581 3500 
L 1159 3500 
L 1159 2956 
Q 1356 3278 1631 3431 
Q 1906 3584 2284 3584 
Q 2666 3584 2933 3390 
Q 3200 3197 3328 2828 
z
" transform="scale(0.015625)"/>
      </defs>
      <use xlink:href="#DejaVuSans-69"/>
      <use xlink:href="#DejaVuSans-6e" x="27.783203"/>
      <use xlink:href="#DejaVuSans-74" x="91.162109"/>
      <use xlink:href="#DejaVuSans-65" x="130.371094"/>
      <use xlink:href="#DejaVuSans-72" x="191.894531"/>
      <use xlink:href="#DejaVuSans-61" x="233.007812"/>
      <use xlink:href="#DejaVuSans-63" x="294.287109"/>
      <use xlink:href="#DejaVuSans-74" x="349.267578"/>
      <use xlink:href="#DejaVuSans-69" x="388.476562"/>
      <use xlink:href="#DejaVuSans-6f" x="416.259766"/>
      <use xlink:href="#DejaVuSans-6e" x="477.441406"/>
      <use xlink:href="#DejaVuSans-20" x="540.820312"/>
      <use xlink:href="#DejaVuSans-65" x="572.607422"/>
      <use xlink:href="#DejaVuSans-6e" x="634.130859"/>
      <use xlink:href="#DejaVuSans-65" x="697.509766"/>
      <use xlink:href="#DejaVuSans-72" x="759.033203"/>
      <use xlink:href="#DejaVuSans-67" x="798.396484"/>
      <use xlink:href="#DejaVuSans-79" x="861.873047"/>
      <use xlink:href="#DejaVuSans-20" x="921.052734"/>
      <use xlink:href="#DejaVuSans-28" x="952.839844"/>
      <use xlink:href="#DejaVuSans-6b" x="991.853516"/>
      <use xlink:href="#DejaVuSans-4a" x="1049.763672"/>
      <use xlink:href="#DejaVuSans-2f" x="1079.255859"/>
      <use xlink:href="#DejaVuSans-6d" x="1112.947266"/>
      <use xlink:href="#DejaVuSans-6f" x="1210.359375"/>
      <use xlink:href="#DejaVuSans-6c" x="1271.541016"/>
      <use xlink:href="#DejaVuSans-29" x="1299.324219"/>
     </g>
    </g>
   </g>
   <g id="line2d_14">
    <path d="M 80.601818 240.338625 
L 89.320928 239.59476 
L 98.040037 238.850895 
L 106.759147 238.10703 
L 115.478256 237.363165 
L 124.197365 236.6193 
L 132.916475 235.875436 
L 141.635584 235.131571 
L 150.354694 234.387706 
L 159.073803 233.643841 
L 167.792913 232.899976 
L 176.512022 232.156111 
L 185.231132 231.412247 
L 193.950241 230.668382 
L 202.669351 229.924517 
L 211.38846 229.180652 
L 220.10757 228.436787 
L 228.826679 227.692922 
L 237.545788 226.949057 
L 246.264898 226.205193 
L 254.984007 225.461328 
L 263.703117 224.717463 
L 272.422226 223.973598 
L 281.141336 223.229733 
L 289.860445 222.485868 
L 298.579555 221.742004 
L 307.298664 220.998139 
L 316.017774 220.254274 
L 324.736883 219.510409 
L 333.455993 218.766544 
L 342.175102 218.022679 
L 350.894212 217.278815 
L 359.613321 216.53495 
L 368.33243 215.791085 
L 377.05154 215.04722 
L 385.770649 214.303355 
L 394.489759 213.55949 
L 403.208868 212.815625 
L 411.927978 212.071761 
L 420.647087 211.327896 
L 429.366197 210.584031 
L 438.085306 209.840166 
L 446.804416 209.096301 
L 455.523525 208.352436 
L 464.242635 207.608572 
L 472.961744 206.864707 
L 481.680853 206.120842 
L 490.399963 205.376977 
L 499.119072 204.633112 
L 507.838182 203.889247 
" clip-path="url(#p3c918d1e25)" style="fill: none; stroke-dasharray: 4.44,1.92; stroke-dashoffset: 0; stroke: #444444; stroke-width: 1.2"/>
   </g>
   <g id="line2d_15">
    <path d="M 59.24 319.231636 
L 529.2 319.231636 
" clip-path="url(#p3c918d1e25)" style="fill: none; stroke: #999999; stroke-width: 0.6; stroke-linecap: square"/>
   </g>
   <g id="patch_3">
    <path d="M 59.24 332.44 
L 59.24 41.856 
" style="fill: none; stroke: #000000; stroke-width: 0.8; stroke-linejoin: miter; stroke-linecap: square"/>
   </g>
   <g id="patch_4">
    <path d="M 529.2 332.44 
L 529.2 41.856 
" style="fill: none; stroke: #000000; stroke-width: 0.8; stroke-linejoin: miter; stroke-linecap: square"/>
   </g>
   <g id="patch_5">
    <path d="M 59.24 332.44 
L 529.2 332.44 
" style="fill: none; stroke: #000000; stroke-width: 0.8; stroke-linejoin: miter; stroke-linecap: square"/>
   </g>
   <g id="patch_6">
    <path d="M 59.24 41.856 
L 529.2 41.856 
" style="fill: none; stroke: #000000; stroke-width: 0.8; stroke-linejoin: miter; stroke-linecap: square"/>
   </g>
   <g id="PathCollection_1">
    <defs>
     <path id="m8c3713594c" d="M 0 3.391165 
C 0.899347 3.391165 1.761981 3.03385 2.397916 2.397916 
C 3.03385 1.761981 3.391165 0.899347 3.391165 0 
C 3.391165 -0.899347 3.03385 -1.761981 2.397916 -2.397916 
C 1.761981 -3.03385 0.899347 -3.391165 0 -3.391165 
C -0.899347 -3.391165 -1.761981 -3.03385 -2.397916 -2.397916 
C -3.03385 -1.761981 -3.391165 -0.899347 -3.391165 0 
C -3.391165 0.899347 -3.03385 1.761981 -2.397916 2.397916 
C -1.761981 3.03385 -0.899347 3.391165 0 3.391165 
z
" style="stroke: #ffffff; stroke-width: 0.6"/>
    </defs>
    <g clip-path="url(#p3c918d1e25)">
     <use xlink:href="#m8c3713594c" x="80.601818" y="187.975212" style="fill: #4477aa; stroke: #ffffff; stroke-width: 0.6"/>
     <use xlink:href="#m8c3713594c" x="80.601818" y="240.824887" style="fill: #4477aa; stroke: #ffffff; stroke-width: 0.6"/>
     <use xlink:href="#m8c3713594c" x="223.013939" y="232.568984" style="fill: #4477aa; stroke: #ffffff; stroke-width: 0.6"/>
     <use xlink:href="#m8c3713594c" x="223.013939" y="249.821496" style="fill: #4477aa; stroke: #ffffff; stroke-width: 0.6"/>
     <use xlink:href="#m8c3713594c" x="151.807879" y="248.621227" style="fill: #4477aa; stroke: #ffffff; stroke-width: 0.6"/>
     <use xlink:href="#m8c3713594c" x="151.807879" y="258.812699" style="fill: #4477aa; stroke: #ffffff; stroke-width: 0.6"/>
     <use xlink:href="#m8c3713594c" x="151.807879" y="261.126731" style="fill: #4477aa; stroke: #ffffff; stroke-width: 0.6"/>
     <use xlink:href="#m8c3713594c" x="223.013939" y="219.771523" style="fill: #4477aa; stroke: #ffffff; stroke-width: 0.6"/>
    </g>
   </g>
   <g id="PathCollection_2">
    <defs>
     <path id="mbfa002ac8a" d="M 0 3.391165 
C 0.899347 3.391165 1.761981 3.03385 2.397916 2.397916 
C 3.03385 1.761981 3.391165 0.899347 3.391165 0 
C 3.391165 -0.899347 3.03385 -1.761981 2.397916 -2.397916 
C 1.761981 -3.03385 0.899347 -3.391165 0 -3.391165 
C -0.899347 -3.391165 -1.761981 -3.03385 -2.397916 -2.397916 
C -3.03385 -1.761981 -3.391165 -0.899347 -3.391165 0 
C -3.391165 0.899347 -3.03385 1.761981 -2.397916 2.397916 
C -1.761981 3.03385 -0.899347 3.391165 0 3.391165 
z
" style="stroke: #ffffff; stroke-width: 0.6"/>
    </defs>
    <g clip-path="url(#p3c918d1e25)">
     <use xlink:href="#mbfa002ac8a" x="151.807879" y="113.098983" style="fill: #66ccee; stroke: #ffffff; stroke-width: 0.6"/>
     <use xlink:href="#mbfa002ac8a" x="223.013939" y="245.247499" style="fill: #66ccee; stroke: #ffffff; stroke-width: 0.6"/>
     <use xlink:href="#mbfa002ac8a" x="436.632121" y="257.634057" style="fill: #66ccee; stroke: #ffffff; stroke-width: 0.6"/>
     <use xlink:href="#mbfa002ac8a" x="365.426061" y="236.353615" style="fill: #66ccee; stroke: #ffffff; stroke-width: 0.6"/>
     <use xlink:href="#mbfa002ac8a" x="294.22" y="268.890632" style="fill: #66ccee; stroke: #ffffff; stroke-width: 0.6"/>
     <use xlink:href="#mbfa002ac8a" x="294.22" y="242.933467" style="fill: #66ccee; stroke: #ffffff; stroke-width: 0.6"/>
     <use xlink:href="#mbfa002ac8a" x="223.013939" y="256.098578" style="fill: #66ccee; stroke: #ffffff; stroke-width: 0.6"/>
     <use xlink:href="#mbfa002ac8a" x="294.22" y="257.812475" style="fill: #66ccee; stroke: #ffffff; stroke-width: 0.6"/>
     <use xlink:href="#mbfa002ac8a" x="365.426061" y="214.446006" style="fill: #66ccee; stroke: #ffffff; stroke-width: 0.6"/>
     <use xlink:href="#mbfa002ac8a" x="365.426061" y="246.609966" style="fill: #66ccee; stroke: #ffffff; stroke-width: 0.6"/>
     <use xlink:href="#mbfa002ac8a" x="365.426061" y="246.393701" style="fill: #66ccee; stroke: #ffffff; stroke-width: 0.6"/>
     <use xlink:href="#mbfa002ac8a" x="294.22" y="242.987533" style="fill: #66ccee; stroke: #ffffff; stroke-width: 0.6"/>
     <use xlink:href="#mbfa002ac8a" x="365.426061" y="252.25988" style="fill: #66ccee; stroke: #ffffff; stroke-width: 0.6"/>
     <use xlink:href="#mbfa002ac8a" x="365.426061" y="252.021989" style="fill: #66ccee; stroke: #ffffff; stroke-width: 0.6"/>
    </g>
   </g>
   <g id="PathCollection_3">
    <defs>
     <path id="m3ed1192e01" d="M 0 3.391165 
C 0.899347 3.391165 1.761981 3.03385 2.397916 2.397916 
C 3.03385 1.761981 3.391165 0.899347 3.391165 0 
C 3.391165 -0.899347 3.03385 -1.761981 2.397916 -2.397916 
C 1.761981 -3.03385 0.899347 -3.391165 0 -3.391165 
C -0.899347 -3.391165 -1.761981 -3.03385 -2.397916 -2.397916 
C -3.03385 -1.761981 -3.391165 -0.899347 -3.391165 0 
C -3.391165 0.899347 -3.03385 1.761981 -2.397916 2.397916 
C -1.761981 3.03385 -0.899347 3.391165 0 3.391165 
z
" style="stroke: #ffffff; stroke-width: 0.6"/>
    </defs>
    <g clip-path="url(#p3c918d1e25)">
     <use xlink:href="#m3ed1192e01" x="294.22" y="284.52116" style="fill: #228833; stroke: #ffffff; stroke-width: 0.6"/>
     <use xlink:href="#m3ed1192e01" x="223.013939" y="160.509601" style="fill: #228833; stroke: #ffffff; stroke-width: 0.6"/>
     <use xlink:href="#m3ed1192e01" x="294.22" y="176.534812" style="fill: #228833; stroke: #ffffff; stroke-width: 0.6"/>
     <use xlink:href="#m3ed1192e01" x="365.426061" y="287.662404" style="fill: #228833; stroke: #ffffff; stroke-width: 0.6"/>
     <use xlink:href="#m3ed1192e01" x="365.426061" y="255.747148" style="fill: #228833; stroke: #ffffff; stroke-width: 0.6"/>
     <use xlink:href="#m3ed1192e01" x="365.426061" y="232.628456" style="fill: #228833; stroke: #ffffff; stroke-width: 0.6"/>
     <use xlink:href="#m3ed1192e01" x="365.426061" y="167.278685" style="fill: #228833; stroke: #ffffff; stroke-width: 0.6"/>
     <use xlink:href="#m3ed1192e01" x="436.632121" y="98.890395" style="fill: #228833; stroke: #ffffff; stroke-width: 0.6"/>
     <use xlink:href="#m3ed1192e01" x="436.632121" y="182.595629" style="fill: #228833; stroke: #ffffff; stroke-width: 0.6"/>
     <use xlink:href="#m3ed1192e01" x="365.426061" y="223.32367" style="fill: #228833; stroke: #ffffff; stroke-width: 0.6"/>
     <use xlink:href="#m3ed1192e01" x="365.426061" y="191.824723" style="fill: #228833; stroke: #ffffff; stroke-width: 0.6"/>
     <use xlink:href="#m3ed1192e01" x="365.426061" y="219.852622" style="fill: #228833; stroke: #ffffff; stroke-width: 0.6"/>
     <use xlink:href="#m3ed1192e01" x="365.426061" y="276.638313" style="fill: #228833; stroke: #ffffff; stroke-width: 0.6"/>
     <use xlink:href="#m3ed1192e01" x="365.426061" y="287.754316" style="fill: #228833; stroke: #ffffff; stroke-width: 0.6"/>
     <use xlink:href="#m3ed1192e01" x="365.426061" y="284.742831" style="fill: #228833; stroke: #ffffff; stroke-width: 0.6"/>
    </g>
   </g>
   <g id="PathCollection_4">
    <defs>
     <path id="m6647d0ecad" d="M 0 3.391165 
C 0.899347 3.391165 1.761981 3.03385 2.397916 2.397916 
C 3.03385 1.761981 3.391165 0.899347 3.391165 0 
C 3.391165 -0.899347 3.03385 -1.761981 2.397916 -2.397916 
C 1.761981 -3.03385 0.899347 -3.391165 0 -3.391165 
C -0.899347 -3.391165 -1.761981 -3.03385 -2.397916 -2.397916 
C -3.03385 -1.761981 -3.391165 -0.899347 -3.391165 0 
C -3.391165 0.899347 -3.03385 1.761981 -2.397916 2.397916 
C -1.761981 3.03385 -0.899347 3.391165 0 3.391165 
z
" style="stroke: #ffffff; stroke-width: 0.6"/>
    </defs>
    <g clip-path="url(#p3c918d1e25)">
     <use xlink:href="#m6647d0ecad" x="294.22" y="279.584919" style="fill: #ccbb44; stroke: #ffffff; stroke-width: 0.6"/>
     <use xlink:href="#m6647d0ecad" x="294.22" y="102.096519" style="fill: #ccbb44; stroke: #ffffff; stroke-width: 0.6"/>
     <use xlink:href="#m6647d0ecad" x="294.22" y="162.169433" style="fill: #ccbb44; stroke: #ffffff; stroke-width: 0.6"/>
     <use xlink:href="#m6647d0ecad" x="294.22" y="208.60686" style="fill: #ccbb44; stroke: #ffffff; stroke-width: 0.6"/>
     <use xlink:href="#m6647d0ecad" x="294.22" y="125.831564" style="fill: #ccbb44; stroke: #ffffff; stroke-width: 0.6"/>
     <use xlink:href="#m6647d0ecad" x="294.22" y="55.064364" style="fill: #ccbb44; stroke: #ffffff; stroke-width: 0.6"/>
     <use xlink:href="#m6647d0ecad" x="436.632121" y="157.671128" style="fill: #ccbb44; stroke: #ffffff; stroke-width: 0.6"/>
     <use xlink:href="#m6647d0ecad" x="365.426061" y="203.335409" style="fill: #ccbb44; stroke: #ffffff; stroke-width: 0.6"/>
     <use xlink:href="#m6647d0ecad" x="365.426061" y="266.733392" style="fill: #ccbb44; stroke: #ffffff; stroke-width: 0.6"/>
     <use xlink:href="#m6647d0ecad" x="223.013939" y="134.22804" style="fill: #ccbb44; stroke: #ffffff; stroke-width: 0.6"/>
     <use xlink:href="#m6647d0ecad" x="294.22" y="249.297054" style="fill: #ccbb44; stroke: #ffffff; stroke-width: 0.6"/>
     <use xlink:href="#m6647d0ecad" x="365.426061" y="233.866572" style="fill: #ccbb44; stroke: #ffffff; stroke-width: 0.6"/>
     <use xlink:href="#m6647d0ecad" x="436.632121" y="252.222034" style="fill: #ccbb44; stroke: #ffffff; stroke-width: 0.6"/>
     <use xlink:href="#m6647d0ecad" x="436.632121" y="67.667186" style="fill: #ccbb44; stroke: #ffffff; stroke-width: 0.6"/>
     <use xlink:href="#m6647d0ecad" x="436.632121" y="252.984367" style="fill: #ccbb44; stroke: #ffffff; stroke-width: 0.6"/>
     <use xlink:href="#m6647d0ecad" x="151.807879" y="287.857042" style="fill: #ccbb44; stroke: #ffffff; stroke-width: 0.6"/>
     <use xlink:href="#m6647d0ecad" x="151.807879" y="281.536707" style="fill: #ccbb44; stroke: #ffffff; stroke-width: 0.6"/>
     <use xlink:href="#m6647d0ecad" x="223.013939" y="282.153062" style="fill: #ccbb44; stroke: #ffffff; stroke-width: 0.6"/>
     <use xlink:href="#m6647d0ecad" x="294.22" y="253.935931" style="fill: #ccbb44; stroke: #ffffff; stroke-width: 0.6"/>
     <use xlink:href="#m6647d0ecad" x="223.013939" y="295.875054" style="fill: #ccbb44; stroke: #ffffff; stroke-width: 0.6"/>
    </g>
   </g>
   <g id="PathCollection_5">
    <defs>
     <path id="m934e06d21b" d="M 0 3.391165 
C 0.899347 3.391165 1.761981 3.03385 2.397916 2.397916 
C 3.03385 1.761981 3.391165 0.899347 3.391165 0 
C 3.391165 -0.899347 3.03385 -1.761981 2.397916 -2.397916 
C 1.761981 -3.03385 0.899347 -3.391165 0 -3.391165 
C -0.899347 -3.391165 -1.761981 -3.03385 -2.397916 -2.397916 
C -3.03385 -1.761981 -3.391165 -0.899347 -3.391165 0 
C -3.391165 0.899347 -3.03385 1.761981 -2.397916 2.397916 
C -1.761981 3.03385 -0.899347 3.391165 0 3.391165 
z
" style="stroke: #ffffff; stroke-width: 0.6"/>
    </defs>
    <g clip-path="url(#p3c918d1e25)">
     <use xlink:href="#m934e06d21b" x="223.013939" y="192.008548" style="fill: #ee6677; stroke: #ffffff; stroke-width: 0.6"/>
     <use xlink:href="#m934e06d21b" x="365.426061" y="213.348463" style="fill: #ee6677; stroke: #ffffff; stroke-width: 0.6"/>
     <use xlink:href="#m934e06d21b" x="436.632121" y="229.335827" style="fill: #ee6677; stroke: #ffffff; stroke-width: 0.6"/>
     <use xlink:href="#m934e06d21b" x="507.838182" y="173.139457" style="fill: #ee6677; stroke: #ffffff; stroke-width: 0.6"/>
     <use xlink:href="#m934e06d21b" x="365.426061" y="170.122565" style="fill: #ee6677; stroke: #ffffff; stroke-width: 0.6"/>
     <use xlink:href="#m934e06d21b" x="436.632121" y="215.484076" style="fill: #ee6677; stroke: #ffffff; stroke-width: 0.6"/>
     <use xlink:href="#m934e06d21b" x="365.426061" y="194.187414" style="fill: #ee6677; stroke: #ffffff; stroke-width: 0.6"/>
     <use xlink:href="#m934e06d21b" x="294.22" y="202.805561" style="fill: #ee6677; stroke: #ffffff; stroke-width: 0.6"/>
     <use xlink:href="#m934e06d21b" x="294.22" y="137.315218" style="fill: #ee6677; stroke: #ffffff; stroke-width: 0.6"/>
     <use xlink:href="#m934e06d21b" x="223.013939" y="268.122892" style="fill: #ee6677; stroke: #ffffff; stroke-width: 0.6"/>
     <use xlink:href="#m934e06d21b" x="294.22" y="237.807995" style="fill: #ee6677; stroke: #ffffff; stroke-width: 0.6"/>
     <use xlink:href="#m934e06d21b" x="294.22" y="228.373449" style="fill: #ee6677; stroke: #ffffff; stroke-width: 0.6"/>
     <use xlink:href="#m934e06d21b" x="294.22" y="285.342965" style="fill: #ee6677; stroke: #ffffff; stroke-width: 0.6"/>
    </g>
   </g>
   <g id="text_16">
    <!-- LYS290 -->
    <g transform="translate(298.22 57.271864) scale(0.08 -0.08)">
     <defs>
      <path id="DejaVuSans-4c" d="M 628 4666 
L 1259 4666 
L 1259 531 
L 3531 531 
L 3531 0 
L 628 0 
L 628 4666 
z
" transform="scale(0.015625)"/>
      <path id="DejaVuSans-59" d="M -13 4666 
L 666 4666 
L 1959 2747 
L 3244 4666 
L 3922 4666 
L 2272 2222 
L 2272 0 
L 1638 0 
L 1638 2222 
L -13 4666 
z
" transform="scale(0.015625)"/>
      <path id="DejaVuSans-53" d="M 3425 4513 
L 3425 3897 
Q 3066 4069 2747 4153 
Q 2428 4238 2131 4238 
Q 1616 4238 1336 4038 
Q 1056 3838 1056 3469 
Q 1056 3159 1242 3001 
Q 1428 2844 1947 2747 
L 2328 2669 
Q 3034 2534 3370 2195 
Q 3706 1856 3706 1288 
Q 3706 609 3251 259 
Q 2797 -91 1919 -91 
Q 1588 -91 1214 -16 
Q 841 59 441 206 
L 441 856 
Q 825 641 1194 531 
Q 1563 422 1919 422 
Q 2459 422 2753 634 
Q 3047 847 3047 1241 
Q 3047 1584 2836 1778 
Q 2625 1972 2144 2069 
L 1759 2144 
Q 1053 2284 737 2584 
Q 422 2884 422 3419 
Q 422 4038 858 4394 
Q 1294 4750 2059 4750 
Q 2388 4750 2728 4690 
Q 3069 4631 3425 4513 
z
" transform="scale(0.015625)"/>
      <path id="DejaVuSans-39" d="M 703 97 
L 703 672 
Q 941 559 1184 500 
Q 1428 441 1663 441 
Q 2288 441 2617 861 
Q 2947 1281 2994 2138 
Q 2813 1869 2534 1725 
Q 2256 1581 1919 1581 
Q 1219 1581 811 2004 
Q 403 2428 403 3163 
Q 403 3881 828 4315 
Q 1253 4750 1959 4750 
Q 2769 4750 3195 4129 
Q 3622 3509 3622 2328 
Q 3622 1225 3098 567 
Q 2575 -91 1691 -91 
Q 1453 -91 1209 -44 
Q 966 3 703 97 
z
M 1959 2075 
Q 2384 2075 2632 2365 
Q 2881 2656 2881 3163 
Q 2881 3666 2632 3958 
Q 2384 4250 1959 4250 
Q 1534 4250 1286 3958 
Q 1038 3666 1038 3163 
Q 1038 2656 1286 2365 
Q 1534 2075 1959 2075 
z
" transform="scale(0.015625)"/>
     </defs>
     <use xlink:href="#DejaVuSans-4c"/>
     <use xlink:href="#DejaVuSans-59" x="42.462891"/>
     <use xlink:href="#DejaVuSans-53" x="103.546875"/>
     <use xlink:href="#DejaVuSans-32" x="167.023438"/>
     <use xlink:href="#DejaVuSans-39" x="230.646484"/>
     <use xlink:href="#DejaVuSans-30" x="294.269531"/>
    </g>
   </g>
   <g id="text_17">
    <!-- HSP330 -->
    <g transform="translate(440.632121 69.874686) scale(0.08 -0.08)">
     <defs>
      <path id="DejaVuSans-48" d="M 628 4666 
L 1259 4666 
L 1259 2753 
L 3553 2753 
L 3553 4666 
L 4184 4666 
L 4184 0 
L 3553 0 
L 3553 2222 
L 1259 2222 
L 1259 0 
L 628 0 
L 628 4666 
z
" transform="scale(0.015625)"/>
      <path id="DejaVuSans-50" d="M 1259 4147 
L 1259 2394 
L 2053 2394 
Q 2494 2394 2734 2622 
Q 2975 2850 2975 3272 
Q 2975 3691 2734 3919 
Q 2494 4147 2053 4147 
L 1259 4147 
z
M 628 4666 
L 2053 4666 
Q 2838 4666 3239 4311 
Q 3641 3956 3641 3272 
Q 3641 2581 3239 2228 
Q 2838 1875 2053 1875 
L 1259 1875 
L 1259 0 
L 628 0 
L 628 4666 
z
" transform="scale(0.015625)"/>
     </defs>
     <use xlink:href="#DejaVuSans-48"/>
     <use xlink:href="#DejaVuSans-53" x="75.195312"/>
     <use xlink:href="#DejaVuSans-50" x="138.671875"/>
     <use xlink:href="#DejaVuSans-33" x="198.974609"/>
     <use xlink:href="#DejaVuSans-33" x="262.597656"/>
     <use xlink:href="#DejaVuSans-30" x="326.220703"/>
    </g>
   </g>
   <g id="text_18">
    <!-- LYS225 -->
    <g transform="translate(440.632121 101.097895) scale(0.08 -0.08)">
     <use xlink:href="#DejaVuSans-4c"/>
     <use xlink:href="#DejaVuSans-59" x="42.462891"/>
     <use xlink:href="#DejaVuSans-53" x="103.546875"/>
     <use xlink:href="#DejaVuSans-32" x="167.023438"/>
     <use xlink:href="#DejaVuSans-32" x="230.646484"/>
     <use xlink:href="#DejaVuSans-35" x="294.269531"/>
    </g>
   </g>
   <g id="text_19">
    <!-- HSP268 -->
    <g transform="translate(298.22 104.304019) scale(0.08 -0.08)">
     <defs>
      <path id="DejaVuSans-36" d="M 2113 2584 
Q 1688 2584 1439 2293 
Q 1191 2003 1191 1497 
Q 1191 994 1439 701 
Q 1688 409 2113 409 
Q 2538 409 2786 701 
Q 3034 994 3034 1497 
Q 3034 2003 2786 2293 
Q 2538 2584 2113 2584 
z
M 3366 4563 
L 3366 3988 
Q 3128 4100 2886 4159 
Q 2644 4219 2406 4219 
Q 1781 4219 1451 3797 
Q 1122 3375 1075 2522 
Q 1259 2794 1537 2939 
Q 1816 3084 2150 3084 
Q 2853 3084 3261 2657 
Q 3669 2231 3669 1497 
Q 3669 778 3244 343 
Q 2819 -91 2113 -91 
Q 1303 -91 875 529 
Q 447 1150 447 2328 
Q 447 3434 972 4092 
Q 1497 4750 2381 4750 
Q 2619 4750 2861 4703 
Q 3103 4656 3366 4563 
z
" transform="scale(0.015625)"/>
      <path id="DejaVuSans-38" d="M 2034 2216 
Q 1584 2216 1326 1975 
Q 1069 1734 1069 1313 
Q 1069 891 1326 650 
Q 1584 409 2034 409 
Q 2484 409 2743 651 
Q 3003 894 3003 1313 
Q 3003 1734 2745 1975 
Q 2488 2216 2034 2216 
z
M 1403 2484 
Q 997 2584 770 2862 
Q 544 3141 544 3541 
Q 544 4100 942 4425 
Q 1341 4750 2034 4750 
Q 2731 4750 3128 4425 
Q 3525 4100 3525 3541 
Q 3525 3141 3298 2862 
Q 3072 2584 2669 2484 
Q 3125 2378 3379 2068 
Q 3634 1759 3634 1313 
Q 3634 634 3220 271 
Q 2806 -91 2034 -91 
Q 1263 -91 848 271 
Q 434 634 434 1313 
Q 434 1759 690 2068 
Q 947 2378 1403 2484 
z
M 1172 3481 
Q 1172 3119 1398 2916 
Q 1625 2713 2034 2713 
Q 2441 2713 2670 2916 
Q 2900 3119 2900 3481 
Q 2900 3844 2670 4047 
Q 2441 4250 2034 4250 
Q 1625 4250 1398 4047 
Q 1172 3844 1172 3481 
z
" transform="scale(0.015625)"/>
     </defs>
     <use xlink:href="#DejaVuSans-48"/>
     <use xlink:href="#DejaVuSans-53" x="75.195312"/>
     <use xlink:href="#DejaVuSans-50" x="138.671875"/>
     <use xlink:href="#DejaVuSans-32" x="198.974609"/>
     <use xlink:href="#DejaVuSans-36" x="262.597656"/>
     <use xlink:href="#DejaVuSans-38" x="326.220703"/>
    </g>
   </g>
   <g id="text_20">
    <!-- HSP94 -->
    <g transform="translate(155.807879 115.306483) scale(0.08 -0.08)">
     <use xlink:href="#DejaVuSans-48"/>
     <use xlink:href="#DejaVuSans-53" x="75.195312"/>
     <use xlink:href="#DejaVuSans-50" x="138.671875"/>
     <use xlink:href="#DejaVuSans-39" x="198.974609"/>
     <use xlink:href="#DejaVuSans-34" x="262.597656"/>
    </g>
   </g>
   <g id="text_21">
    <!-- LYS281 -->
    <g transform="translate(298.22 128.039064) scale(0.08 -0.08)">
     <use xlink:href="#DejaVuSans-4c"/>
     <use xlink:href="#DejaVuSans-59" x="42.462891"/>
     <use xlink:href="#DejaVuSans-53" x="103.546875"/>
     <use xlink:href="#DejaVuSans-32" x="167.023438"/>
     <use xlink:href="#DejaVuSans-38" x="230.646484"/>
     <use xlink:href="#DejaVuSans-31" x="294.269531"/>
    </g>
   </g>
   <g id="text_22">
    <!-- LYS311 -->
    <g transform="translate(227.013939 136.43554) scale(0.08 -0.08)">
     <use xlink:href="#DejaVuSans-4c"/>
     <use xlink:href="#DejaVuSans-59" x="42.462891"/>
     <use xlink:href="#DejaVuSans-53" x="103.546875"/>
     <use xlink:href="#DejaVuSans-33" x="167.023438"/>
     <use xlink:href="#DejaVuSans-31" x="230.646484"/>
     <use xlink:href="#DejaVuSans-31" x="294.269531"/>
    </g>
   </g>
   <g id="text_23">
    <!-- HSP388 -->
    <g transform="translate(298.22 139.522718) scale(0.08 -0.08)">
     <use xlink:href="#DejaVuSans-48"/>
     <use xlink:href="#DejaVuSans-53" x="75.195312"/>
     <use xlink:href="#DejaVuSans-50" x="138.671875"/>
     <use xlink:href="#DejaVuSans-33" x="198.974609"/>
     <use xlink:href="#DejaVuSans-38" x="262.597656"/>
     <use xlink:href="#DejaVuSans-38" x="326.220703"/>
    </g>
   </g>
   <g id="text_24">
    <!-- Local sequence charge is a WEAK predictor (r=-0.14). -->
    <g transform="translate(132.8275 22.418625) scale(0.12 -0.12)">
     <defs>
      <path id="DejaVuSans-71" d="M 947 1747 
Q 947 1113 1208 752 
Q 1469 391 1925 391 
Q 2381 391 2643 752 
Q 2906 1113 2906 1747 
Q 2906 2381 2643 2742 
Q 2381 3103 1925 3103 
Q 1469 3103 1208 2742 
Q 947 2381 947 1747 
z
M 2906 525 
Q 2725 213 2448 61 
Q 2172 -91 1784 -91 
Q 1150 -91 751 415 
Q 353 922 353 1747 
Q 353 2572 751 3078 
Q 1150 3584 1784 3584 
Q 2172 3584 2448 3432 
Q 2725 3281 2906 2969 
L 2906 3500 
L 3481 3500 
L 3481 -1331 
L 2906 -1331 
L 2906 525 
z
" transform="scale(0.015625)"/>
      <path id="DejaVuSans-57" d="M 213 4666 
L 850 4666 
L 1831 722 
L 2809 4666 
L 3519 4666 
L 4500 722 
L 5478 4666 
L 6119 4666 
L 4947 0 
L 4153 0 
L 3169 4050 
L 2175 0 
L 1381 0 
L 213 4666 
z
" transform="scale(0.015625)"/>
      <path id="DejaVuSans-45" d="M 628 4666 
L 3578 4666 
L 3578 4134 
L 1259 4134 
L 1259 2753 
L 3481 2753 
L 3481 2222 
L 1259 2222 
L 1259 531 
L 3634 531 
L 3634 0 
L 628 0 
L 628 4666 
z
" transform="scale(0.015625)"/>
      <path id="DejaVuSans-41" d="M 2188 4044 
L 1331 1722 
L 3047 1722 
L 2188 4044 
z
M 1831 4666 
L 2547 4666 
L 4325 0 
L 3669 0 
L 3244 1197 
L 1141 1197 
L 716 0 
L 50 0 
L 1831 4666 
z
" transform="scale(0.015625)"/>
      <path id="DejaVuSans-4b" d="M 628 4666 
L 1259 4666 
L 1259 2694 
L 3353 4666 
L 4166 4666 
L 1850 2491 
L 4331 0 
L 3500 0 
L 1259 2247 
L 1259 0 
L 628 0 
L 628 4666 
z
" transform="scale(0.015625)"/>
      <path id="DejaVuSans-70" d="M 1159 525 
L 1159 -1331 
L 581 -1331 
L 581 3500 
L 1159 3500 
L 1159 2969 
Q 1341 3281 1617 3432 
Q 1894 3584 2278 3584 
Q 2916 3584 3314 3078 
Q 3713 2572 3713 1747 
Q 3713 922 3314 415 
Q 2916 -91 2278 -91 
Q 1894 -91 1617 61 
Q 1341 213 1159 525 
z
M 3116 1747 
Q 3116 2381 2855 2742 
Q 2594 3103 2138 3103 
Q 1681 3103 1420 2742 
Q 1159 2381 1159 1747 
Q 1159 1113 1420 752 
Q 1681 391 2138 391 
Q 2594 391 2855 752 
Q 3116 1113 3116 1747 
z
" transform="scale(0.015625)"/>
      <path id="DejaVuSans-3d" d="M 678 2906 
L 4684 2906 
L 4684 2381 
L 678 2381 
L 678 2906 
z
M 678 1631 
L 4684 1631 
L 4684 1100 
L 678 1100 
L 678 1631 
z
" transform="scale(0.015625)"/>
      <path id="DejaVuSans-2d" d="M 313 2009 
L 1997 2009 
L 1997 1497 
L 313 1497 
L 313 2009 
z
" transform="scale(0.015625)"/>
      <path id="DejaVuSans-2e" d="M 684 794 
L 1344 794 
L 1344 0 
L 684 0 
L 684 794 
z
" transform="scale(0.015625)"/>
     </defs>
     <use xlink:href="#DejaVuSans-4c"/>
     <use xlink:href="#DejaVuSans-6f" x="53.962891"/>
     <use xlink:href="#DejaVuSans-63" x="115.144531"/>
     <use xlink:href="#DejaVuSans-61" x="170.125"/>
     <use xlink:href="#DejaVuSans-6c" x="231.404297"/>
     <use xlink:href="#DejaVuSans-20" x="259.1875"/>
     <use xlink:href="#DejaVuSans-73" x="290.974609"/>
     <use xlink:href="#DejaVuSans-65" x="343.074219"/>
     <use xlink:href="#DejaVuSans-71" x="404.597656"/>
     <use xlink:href="#DejaVuSans-75" x="468.074219"/>
     <use xlink:href="#DejaVuSans-65" x="531.453125"/>
     <use xlink:href="#DejaVuSans-6e" x="592.976562"/>
     <use xlink:href="#DejaVuSans-63" x="656.355469"/>
     <use xlink:href="#DejaVuSans-65" x="711.335938"/>
     <use xlink:href="#DejaVuSans-20" x="772.859375"/>
     <use xlink:href="#DejaVuSans-63" x="804.646484"/>
     <use xlink:href="#DejaVuSans-68" x="859.626953"/>
     <use xlink:href="#DejaVuSans-61" x="923.005859"/>
     <use xlink:href="#DejaVuSans-72" x="984.285156"/>
     <use xlink:href="#DejaVuSans-67" x="1023.648438"/>
     <use xlink:href="#DejaVuSans-65" x="1087.125"/>
     <use xlink:href="#DejaVuSans-20" x="1148.648438"/>
     <use xlink:href="#DejaVuSans-69" x="1180.435547"/>
     <use xlink:href="#DejaVuSans-73" x="1208.21875"/>
     <use xlink:href="#DejaVuSans-20" x="1260.318359"/>
     <use xlink:href="#DejaVuSans-61" x="1292.105469"/>
     <use xlink:href="#DejaVuSans-20" x="1353.384766"/>
     <use xlink:href="#DejaVuSans-57" x="1385.171875"/>
     <use xlink:href="#DejaVuSans-45" x="1484.048828"/>
     <use xlink:href="#DejaVuSans-41" x="1547.232422"/>
     <use xlink:href="#DejaVuSans-4b" x="1615.640625"/>
     <use xlink:href="#DejaVuSans-20" x="1681.216797"/>
     <use xlink:href="#DejaVuSans-70" x="1713.003906"/>
     <use xlink:href="#DejaVuSans-72" x="1776.480469"/>
     <use xlink:href="#DejaVuSans-65" x="1815.34375"/>
     <use xlink:href="#DejaVuSans-64" x="1876.867188"/>
     <use xlink:href="#DejaVuSans-69" x="1940.34375"/>
     <use xlink:href="#DejaVuSans-63" x="1968.126953"/>
     <use xlink:href="#DejaVuSans-74" x="2023.107422"/>
     <use xlink:href="#DejaVuSans-6f" x="2062.316406"/>
     <use xlink:href="#DejaVuSans-72" x="2123.498047"/>
     <use xlink:href="#DejaVuSans-20" x="2164.611328"/>
     <use xlink:href="#DejaVuSans-28" x="2196.398438"/>
     <use xlink:href="#DejaVuSans-72" x="2235.412109"/>
     <use xlink:href="#DejaVuSans-3d" x="2276.525391"/>
     <use xlink:href="#DejaVuSans-2d" x="2360.314453"/>
     <use xlink:href="#DejaVuSans-30" x="2396.398438"/>
     <use xlink:href="#DejaVuSans-2e" x="2460.021484"/>
     <use xlink:href="#DejaVuSans-31" x="2491.808594"/>
     <use xlink:href="#DejaVuSans-34" x="2555.431641"/>
     <use xlink:href="#DejaVuSans-29" x="2619.054688"/>
     <use xlink:href="#DejaVuSans-2e" x="2658.068359"/>
    </g>
    <!-- Favorability is regional (repeats/PRR ≫ acidic N-term), not nearest-neighbour -->
    <g transform="translate(62.163438 35.856) scale(0.12 -0.12)">
     <defs>
      <path id="DejaVuSans-46" d="M 628 4666 
L 3309 4666 
L 3309 4134 
L 1259 4134 
L 1259 2759 
L 3109 2759 
L 3109 2228 
L 1259 2228 
L 1259 0 
L 628 0 
L 628 4666 
z
" transform="scale(0.015625)"/>
      <path id="DejaVuSans-76" d="M 191 3500 
L 800 3500 
L 1894 563 
L 2988 3500 
L 3597 3500 
L 2284 0 
L 1503 0 
L 191 3500 
z
" transform="scale(0.015625)"/>
      <path id="DejaVuSans-62" d="M 3116 1747 
Q 3116 2381 2855 2742 
Q 2594 3103 2138 3103 
Q 1681 3103 1420 2742 
Q 1159 2381 1159 1747 
Q 1159 1113 1420 752 
Q 1681 391 2138 391 
Q 2594 391 2855 752 
Q 3116 1113 3116 1747 
z
M 1159 2969 
Q 1341 3281 1617 3432 
Q 1894 3584 2278 3584 
Q 2916 3584 3314 3078 
Q 3713 2572 3713 1747 
Q 3713 922 3314 415 
Q 2916 -91 2278 -91 
Q 1894 -91 1617 61 
Q 1341 213 1159 525 
L 1159 0 
L 581 0 
L 581 4863 
L 1159 4863 
L 1159 2969 
z
" transform="scale(0.015625)"/>
      <path id="DejaVuSans-52" d="M 2841 2188 
Q 3044 2119 3236 1894 
Q 3428 1669 3622 1275 
L 4263 0 
L 3584 0 
L 2988 1197 
Q 2756 1666 2539 1819 
Q 2322 1972 1947 1972 
L 1259 1972 
L 1259 0 
L 628 0 
L 628 4666 
L 2053 4666 
Q 2853 4666 3247 4331 
Q 3641 3997 3641 3322 
Q 3641 2881 3436 2590 
Q 3231 2300 2841 2188 
z
M 1259 4147 
L 1259 2491 
L 2053 2491 
Q 2509 2491 2742 2702 
Q 2975 2913 2975 3322 
Q 2975 3731 2742 3939 
Q 2509 4147 2053 4147 
L 1259 4147 
z
" transform="scale(0.015625)"/>
      <path id="DejaVuSans-226b" d="M 463 3253 
L 463 3897 
L 3831 2266 
L 3831 1769 
L 463 144 
L 463 759 
L 3044 2003 
L 463 3253 
z
M 2869 3253 
L 2869 3897 
L 6238 2266 
L 6238 1769 
L 2869 144 
L 2869 759 
L 5450 2003 
L 2869 3253 
z
" transform="scale(0.015625)"/>
      <path id="DejaVuSans-4e" d="M 628 4666 
L 1478 4666 
L 3547 763 
L 3547 4666 
L 4159 4666 
L 4159 0 
L 3309 0 
L 1241 3903 
L 1241 0 
L 628 0 
L 628 4666 
z
" transform="scale(0.015625)"/>
     </defs>
     <use xlink:href="#DejaVuSans-46"/>
     <use xlink:href="#DejaVuSans-61" x="48.394531"/>
     <use xlink:href="#DejaVuSans-76" x="109.673828"/>
     <use xlink:href="#DejaVuSans-6f" x="168.853516"/>
     <use xlink:href="#DejaVuSans-72" x="230.035156"/>
     <use xlink:href="#DejaVuSans-61" x="271.148438"/>
     <use xlink:href="#DejaVuSans-62" x="332.427734"/>
     <use xlink:href="#DejaVuSans-69" x="395.904297"/>
     <use xlink:href="#DejaVuSans-6c" x="423.6875"/>
     <use xlink:href="#DejaVuSans-69" x="451.470703"/>
     <use xlink:href="#DejaVuSans-74" x="479.253906"/>
     <use xlink:href="#DejaVuSans-79" x="518.462891"/>
     <use xlink:href="#DejaVuSans-20" x="577.642578"/>
     <use xlink:href="#DejaVuSans-69" x="609.429688"/>
     <use xlink:href="#DejaVuSans-73" x="637.212891"/>
     <use xlink:href="#DejaVuSans-20" x="689.3125"/>
     <use xlink:href="#DejaVuSans-72" x="721.099609"/>
     <use xlink:href="#DejaVuSans-65" x="759.962891"/>
     <use xlink:href="#DejaVuSans-67" x="821.486328"/>
     <use xlink:href="#DejaVuSans-69" x="884.962891"/>
     <use xlink:href="#DejaVuSans-6f" x="912.746094"/>
     <use xlink:href="#DejaVuSans-6e" x="973.927734"/>
     <use xlink:href="#DejaVuSans-61" x="1037.306641"/>
     <use xlink:href="#DejaVuSans-6c" x="1098.585938"/>
     <use xlink:href="#DejaVuSans-20" x="1126.369141"/>
     <use xlink:href="#DejaVuSans-28" x="1158.15625"/>
     <use xlink:href="#DejaVuSans-72" x="1197.169922"/>
     <use xlink:href="#DejaVuSans-65" x="1236.033203"/>
     <use xlink:href="#DejaVuSans-70" x="1297.556641"/>
     <use xlink:href="#DejaVuSans-65" x="1361.033203"/>
     <use xlink:href="#DejaVuSans-61" x="1422.556641"/>
     <use xlink:href="#DejaVuSans-74" x="1483.835938"/>
     <use xlink:href="#DejaVuSans-73" x="1523.044922"/>
     <use xlink:href="#DejaVuSans-2f" x="1575.144531"/>
     <use xlink:href="#DejaVuSans-50" x="1608.835938"/>
     <use xlink:href="#DejaVuSans-52" x="1669.138672"/>
     <use xlink:href="#DejaVuSans-52" x="1738.621094"/>
     <use xlink:href="#DejaVuSans-20" x="1808.103516"/>
     <use xlink:href="#DejaVuSans-226b" x="1839.890625"/>
     <use xlink:href="#DejaVuSans-20" x="1944.578125"/>
     <use xlink:href="#DejaVuSans-61" x="1976.365234"/>
     <use xlink:href="#DejaVuSans-63" x="2037.644531"/>
     <use xlink:href="#DejaVuSans-69" x="2092.625"/>
     <use xlink:href="#DejaVuSans-64" x="2120.408203"/>
     <use xlink:href="#DejaVuSans-69" x="2183.884766"/>
     <use xlink:href="#DejaVuSans-63" x="2211.667969"/>
     <use xlink:href="#DejaVuSans-20" x="2266.648438"/>
     <use xlink:href="#DejaVuSans-4e" x="2298.435547"/>
     <use xlink:href="#DejaVuSans-2d" x="2373.240234"/>
     <use xlink:href="#DejaVuSans-74" x="2409.324219"/>
     <use xlink:href="#DejaVuSans-65" x="2448.533203"/>
     <use xlink:href="#DejaVuSans-72" x="2510.056641"/>
     <use xlink:href="#DejaVuSans-6d" x="2549.419922"/>
     <use xlink:href="#DejaVuSans-29" x="2646.832031"/>
     <use xlink:href="#DejaVuSans-2c" x="2685.845703"/>
     <use xlink:href="#DejaVuSans-20" x="2717.632812"/>
     <use xlink:href="#DejaVuSans-6e" x="2749.419922"/>
     <use xlink:href="#DejaVuSans-6f" x="2812.798828"/>
     <use xlink:href="#DejaVuSans-74" x="2873.980469"/>
     <use xlink:href="#DejaVuSans-20" x="2913.189453"/>
     <use xlink:href="#DejaVuSans-6e" x="2944.976562"/>
     <use xlink:href="#DejaVuSans-65" x="3008.355469"/>
     <use xlink:href="#DejaVuSans-61" x="3069.878906"/>
     <use xlink:href="#DejaVuSans-72" x="3131.158203"/>
     <use xlink:href="#DejaVuSans-65" x="3170.021484"/>
     <use xlink:href="#DejaVuSans-73" x="3231.544922"/>
     <use xlink:href="#DejaVuSans-74" x="3283.644531"/>
     <use xlink:href="#DejaVuSans-2d" x="3322.853516"/>
     <use xlink:href="#DejaVuSans-6e" x="3358.9375"/>
     <use xlink:href="#DejaVuSans-65" x="3422.316406"/>
     <use xlink:href="#DejaVuSans-69" x="3483.839844"/>
     <use xlink:href="#DejaVuSans-67" x="3511.623047"/>
     <use xlink:href="#DejaVuSans-68" x="3575.099609"/>
     <use xlink:href="#DejaVuSans-62" x="3638.478516"/>
     <use xlink:href="#DejaVuSans-6f" x="3701.955078"/>
     <use xlink:href="#DejaVuSans-75" x="3763.136719"/>
     <use xlink:href="#DejaVuSans-72" x="3826.515625"/>
    </g>
   </g>
   <g id="legend_1">
    <g id="patch_7">
     <path d="M 432.1225 328.44 
L 523.6 328.44 
Q 525.2 328.44 525.2 326.84 
L 525.2 257.185 
Q 525.2 255.585 523.6 255.585 
L 432.1225 255.585 
Q 430.5225 255.585 430.5225 257.185 
L 430.5225 326.84 
Q 430.5225 328.44 432.1225 328.44 
z
" style="fill: #ffffff; opacity: 0.8; stroke: #cccccc; stroke-linejoin: miter"/>
    </g>
    <g id="PathCollection_6">
     <g>
      <use xlink:href="#m8c3713594c" x="441.7225" y="262.76375" style="fill: #4477aa; stroke: #ffffff; stroke-width: 0.6"/>
     </g>
    </g>
    <g id="text_25">
     <!-- seg1 -->
     <g transform="translate(456.1225 264.86375) scale(0.08 -0.08)">
      <use xlink:href="#DejaVuSans-73"/>
      <use xlink:href="#DejaVuSans-65" x="52.099609"/>
      <use xlink:href="#DejaVuSans-67" x="113.623047"/>
      <use xlink:href="#DejaVuSans-31" x="177.099609"/>
     </g>
    </g>
    <g id="PathCollection_7">
     <g>
      <use xlink:href="#mbfa002ac8a" x="441.7225" y="274.50625" style="fill: #66ccee; stroke: #ffffff; stroke-width: 0.6"/>
     </g>
    </g>
    <g id="text_26">
     <!-- seg2 -->
     <g transform="translate(456.1225 276.60625) scale(0.08 -0.08)">
      <use xlink:href="#DejaVuSans-73"/>
      <use xlink:href="#DejaVuSans-65" x="52.099609"/>
      <use xlink:href="#DejaVuSans-67" x="113.623047"/>
      <use xlink:href="#DejaVuSans-32" x="177.099609"/>
     </g>
    </g>
    <g id="PathCollection_8">
     <g>
      <use xlink:href="#m3ed1192e01" x="441.7225" y="286.24875" style="fill: #228833; stroke: #ffffff; stroke-width: 0.6"/>
     </g>
    </g>
    <g id="text_27">
     <!-- seg3 -->
     <g transform="translate(456.1225 288.34875) scale(0.08 -0.08)">
      <use xlink:href="#DejaVuSans-73"/>
      <use xlink:href="#DejaVuSans-65" x="52.099609"/>
      <use xlink:href="#DejaVuSans-67" x="113.623047"/>
      <use xlink:href="#DejaVuSans-33" x="177.099609"/>
     </g>
    </g>
    <g id="PathCollection_9">
     <g>
      <use xlink:href="#m6647d0ecad" x="441.7225" y="297.99125" style="fill: #ccbb44; stroke: #ffffff; stroke-width: 0.6"/>
     </g>
    </g>
    <g id="text_28">
     <!-- seg4 -->
     <g transform="translate(456.1225 300.09125) scale(0.08 -0.08)">
      <use xlink:href="#DejaVuSans-73"/>
      <use xlink:href="#DejaVuSans-65" x="52.099609"/>
      <use xlink:href="#DejaVuSans-67" x="113.623047"/>
      <use xlink:href="#DejaVuSans-34" x="177.099609"/>
     </g>
    </g>
    <g id="PathCollection_10">
     <g>
      <use xlink:href="#m934e06d21b" x="441.7225" y="309.73375" style="fill: #ee6677; stroke: #ffffff; stroke-width: 0.6"/>
     </g>
    </g>
    <g id="text_29">
     <!-- seg5 -->
     <g transform="translate(456.1225 311.83375) scale(0.08 -0.08)">
      <use xlink:href="#DejaVuSans-73"/>
      <use xlink:href="#DejaVuSans-65" x="52.099609"/>
      <use xlink:href="#DejaVuSans-67" x="113.623047"/>
      <use xlink:href="#DejaVuSans-35" x="177.099609"/>
     </g>
    </g>
    <g id="line2d_16">
     <path d="M 433.7225 320.77625 
L 441.7225 320.77625 
L 449.7225 320.77625 
" style="fill: none; stroke-dasharray: 4.44,1.92; stroke-dashoffset: 0; stroke: #444444; stroke-width: 1.2"/>
    </g>
    <g id="text_30">
     <!-- trend (r = -0.14) -->
     <g transform="translate(456.1225 323.57625) scale(0.08 -0.08)">
      <use xlink:href="#DejaVuSans-74"/>
      <use xlink:href="#DejaVuSans-72" x="39.208984"/>
      <use xlink:href="#DejaVuSans-65" x="78.072266"/>
      <use xlink:href="#DejaVuSans-6e" x="139.595703"/>
      <use xlink:href="#DejaVuSans-64" x="202.974609"/>
      <use xlink:href="#DejaVuSans-20" x="266.451172"/>
      <use xlink:href="#DejaVuSans-28" x="298.238281"/>
      <use xlink:href="#DejaVuSans-72" x="337.251953"/>
      <use xlink:href="#DejaVuSans-20" x="378.365234"/>
      <use xlink:href="#DejaVuSans-3d" x="410.152344"/>
      <use xlink:href="#DejaVuSans-20" x="493.941406"/>
      <use xlink:href="#DejaVuSans-2d" x="525.728516"/>
      <use xlink:href="#DejaVuSans-30" x="561.8125"/>
      <use xlink:href="#DejaVuSans-2e" x="625.435547"/>
      <use xlink:href="#DejaVuSans-31" x="657.222656"/>
      <use xlink:href="#DejaVuSans-34" x="720.845703"/>
      <use xlink:href="#DejaVuSans-29" x="784.46875"/>
     </g>
    </g>
   </g>
  </g>
 </g>
 <defs>
  <clipPath id="p3c918d1e25">
   <rect x="59.24" y="41.856" width="469.96" height="290.584"/>
  </clipPath>
 </defs>
</svg>
