<?xml version="1.0" encoding="utf-8" standalone="no"?>
<!DOCTYPE svg PUBLIC "-//W3C//DTD SVG 1.1//EN"
  "http://www.w3.org/Graphics/SVG/1.1/DTD/svg11.dtd">
<svg xmlns:xlink="http://www.w3.org/1999/xlink" width="1008pt" height="302.4pt" viewBox="0 0 1008 302.4" xmlns="http://www.w3.org/2000/svg" version="1.1">
 <metadata>
  <rdf:RDF xmlns:dc="http://purl.org/dc/elements/1.1/" xmlns:cc="http://creativecommons.org/ns#" xmlns:rdf="http://www.w3.org/1999/02/22-rdf-syntax-ns#">
   <cc:Work>
    <dc:type rdf:resource="http://purl.org/dc/dcmitype/StillImage"/>
    <dc:date>2026-06-09T12:16:13.842612</dc:date>
    <dc:format>image/svg+xml</dc:format>
    <dc:creator>
     <cc:Agent>
      <dc:title>Matplotlib v3.9.3, https://matplotlib.org/</dc:title>
     </cc:Agent>
    </dc:creator>
   </cc:Work>
  </rdf:RDF>
 </metadata>
 <defs>
  <style type="text/css">*{stroke-linejoin: round; stroke-linecap: butt}</style>
 </defs>
 <g id="figure_1">
  <g id="patch_1">
   <path d="M 0 302.4 
L 1008 302.4 
L 1008 0 
L 0 0 
z
" style="fill: #ffffff"/>
  </g>
  <g id="axes_1">
   <g id="patch_2">
    <path d="M 59.24 260.44 
L 997.2 260.44 
L 997.2 26.88 
L 59.24 26.88 
z
" style="fill: #ffffff"/>
   </g>
   <g id="patch_3">
    <path d="M 62.408784 260.44 
L 250.423288 260.44 
L 250.423288 26.88 
L 62.408784 26.88 
z
" clip-path="url(#p96c72925f7)" style="fill: #4477aa; opacity: 0.08; stroke: #4477aa; stroke-linejoin: miter"/>
   </g>
   <g id="patch_4">
    <path d="M 250.423288 260.44 
L 436.32527 260.44 
L 436.32527 26.88 
L 250.423288 26.88 
z
" clip-path="url(#p96c72925f7)" style="fill: #66ccee; opacity: 0.08; stroke: #66ccee; stroke-linejoin: miter"/>
   </g>
   <g id="patch_5">
    <path d="M 436.32527 260.44 
L 622.227252 260.44 
L 622.227252 26.88 
L 436.32527 26.88 
z
" clip-path="url(#p96c72925f7)" style="fill: #228833; opacity: 0.08; stroke: #228833; stroke-linejoin: miter"/>
   </g>
   <g id="patch_6">
    <path d="M 622.227252 260.44 
L 808.129234 260.44 
L 808.129234 26.88 
L 622.227252 26.88 
z
" clip-path="url(#p96c72925f7)" style="fill: #ccbb44; opacity: 0.08; stroke: #ccbb44; stroke-linejoin: miter"/>
   </g>
   <g id="patch_7">
    <path d="M 808.129234 260.44 
L 994.031216 260.44 
L 994.031216 26.88 
L 808.129234 26.88 
z
" clip-path="url(#p96c72925f7)" style="fill: #ee6677; opacity: 0.08; stroke: #ee6677; stroke-linejoin: miter"/>
   </g>
   <g id="PolyCollection_1">
    <defs>
     <path id="m21e8506c28" d="M 63.465045 -196.055039 
L 63.465045 -189.722126 
L 65.577568 -207.677939 
L 67.69009 -214.887664 
L 69.802613 -207.388522 
L 71.915135 -164.710714 
L 74.027658 -204.148427 
L 76.14018 -213.911525 
L 78.252703 -205.973977 
L 80.365225 -211.808546 
L 82.477748 -206.330182 
L 84.59027 -209.020557 
L 86.702793 -213.214528 
L 88.815315 -217.074557 
L 90.927838 -176.650431 
L 93.04036 -205.677711 
L 95.152883 -204.9379 
L 97.265405 -203.518218 
L 99.377928 -203.567881 
L 101.49045 -205.12114 
L 103.602973 -205.756487 
L 105.715495 -205.965415 
L 107.828018 -215.629187 
L 109.940541 -176.217162 
L 112.053063 -180.671437 
L 114.165586 -215.146255 
L 116.278108 -201.704655 
L 118.390631 -204.323104 
L 120.503153 -204.696434 
L 122.615676 -202.93596 
L 124.728198 -205.862663 
L 126.840721 -206.941553 
L 128.953243 -181.714364 
L 131.065766 -204.669034 
L 133.178288 -215.817565 
L 135.290811 -175.520165 
L 137.403333 -209.333949 
L 139.515856 -204.36763 
L 141.628378 -210.3255 
L 143.740901 -203.790509 
L 145.853423 -214.079353 
L 147.965946 -205.903764 
L 150.078468 -204.633071 
L 152.190991 -205.299243 
L 154.303514 -184.401314 
L 156.416036 -216.267958 
L 158.528559 -203.312715 
L 160.641081 -204.814599 
L 162.753604 -204.454969 
L 164.866126 -203.44458 
L 166.978649 -202.340002 
L 169.091171 -205.254717 
L 171.203694 -203.047274 
L 173.316216 -214.747237 
L 175.428739 -212.099675 
L 177.541261 -204.773498 
L 179.653784 -203.228802 
L 181.766306 -210.79987 
L 183.878829 -211.241701 
L 185.991351 -206.126392 
L 188.103874 -204.975576 
L 190.216396 -206.379845 
L 192.328919 -215.343195 
L 194.441441 -205.109153 
L 196.553964 -204.633071 
L 198.666486 -181.275958 
L 200.779009 -204.086776 
L 202.891532 -183.651229 
L 205.004054 -206.235993 
L 207.116577 -203.299015 
L 209.229099 -204.526895 
L 211.341622 -203.007886 
L 213.454144 -204.251178 
L 215.566667 -214.814026 
L 217.679189 -214.428708 
L 219.791712 -205.684561 
L 221.904234 -204.901937 
L 224.016757 -204.511482 
L 226.129279 -204.379618 
L 228.241802 -205.874651 
L 230.354324 -205.823275 
L 232.466847 -208.484537 
L 234.579369 -208.390348 
L 236.691892 -204.598821 
L 238.804414 -203.273327 
L 240.916937 -204.742673 
L 243.029459 -205.660585 
L 245.141982 -165.012119 
L 247.254505 -203.632957 
L 249.367027 -205.98254 
L 251.47955 -207.629988 
L 253.592072 -207.21042 
L 255.704595 -206.859352 
L 257.817117 -207.171031 
L 259.92964 -136.481471 
L 262.042162 -201.375851 
L 264.154685 -216.048755 
L 266.267207 -203.45828 
L 268.37973 -203.63467 
L 270.492252 -216.845079 
L 272.604775 -206.643574 
L 274.717297 -202.959935 
L 276.82982 -201.297075 
L 278.942342 -203.614119 
L 281.054865 -212.877161 
L 283.167387 -213.303579 
L 285.27991 -204.932763 
L 287.392432 -204.845424 
L 289.504955 -202.423915 
L 291.617477 -203.396629 
L 293.73 -214.05709 
L 295.842523 -200.788455 
L 297.955045 -204.494357 
L 300.067568 -201.771444 
L 302.18009 -203.427454 
L 304.292613 -214.74895 
L 306.405135 -214.817451 
L 308.517658 -213.577583 
L 310.63018 -205.641748 
L 312.742703 -206.194893 
L 314.855225 -208.061544 
L 316.967748 -169.459543 
L 319.08027 -206.266819 
L 321.192793 -204.888237 
L 323.305315 -154.462972 
L 325.417838 -205.266705 
L 327.53036 -176.720644 
L 329.642883 -205.554409 
L 331.755405 -206.316482 
L 333.867928 -203.50623 
L 335.98045 -168.52793 
L 338.092973 -205.561259 
L 340.205495 -186.259402 
L 342.318018 -215.648025 
L 344.430541 -205.025239 
L 346.543063 -204.146714 
L 348.655586 -204.300841 
L 350.768108 -205.013251 
L 352.880631 -211.596193 
L 354.993153 -213.209391 
L 357.105676 -181.520849 
L 359.218198 -182.13222 
L 361.330721 -206.129817 
L 363.443243 -184.245474 
L 365.555766 -205.525296 
L 367.668288 -205.705111 
L 369.780811 -218.114059 
L 371.893333 -205.143403 
L 374.005856 -157.261236 
L 376.118378 -205.802725 
L 378.230901 -174.463538 
L 380.343423 -208.162583 
L 382.455946 -208.212246 
L 384.568468 -205.002976 
L 386.680991 -155.966568 
L 388.793514 -169.0845 
L 390.906036 -201.529978 
L 393.018559 -204.600533 
L 395.131081 -206.141805 
L 397.243604 -204.19809 
L 399.356126 -206.359295 
L 401.468649 -204.739248 
L 403.581171 -203.698033 
L 405.693694 -173.977181 
L 407.806216 -204.744385 
L 409.918739 -204.583408 
L 412.031261 -204.674172 
L 414.143784 -202.167037 
L 416.256306 -203.941211 
L 418.368829 -203.725433 
L 420.481351 -177.862898 
L 422.593874 -203.829897 
L 424.706396 -205.845538 
L 426.818919 -205.847251 
L 428.931441 -173.54905 
L 431.043964 -205.967127 
L 433.156486 -205.184504 
L 435.269009 -204.94475 
L 437.381532 -207.681364 
L 439.494054 -207.662526 
L 441.606577 -191.684678 
L 443.719099 -206.38327 
L 445.831622 -203.607269 
L 447.944144 -204.946463 
L 450.056667 -201.958109 
L 452.169189 -204.814599 
L 454.281712 -204.814599 
L 456.394234 -221.22914 
L 458.506757 -206.585348 
L 460.619279 -201.935846 
L 462.731802 -141.649868 
L 464.844324 -204.552582 
L 466.956847 -206.167492 
L 469.069369 -224.013704 
L 471.181892 -152.832649 
L 473.294414 -202.792108 
L 475.406937 -202.648256 
L 477.519459 -197.01919 
L 479.631982 -194.923061 
L 481.744505 -199.68559 
L 483.857027 -203.602132 
L 485.96955 -198.122055 
L 488.082072 -198.736851 
L 490.194595 -204.345367 
L 492.307117 -205.790737 
L 494.41964 -201.704655 
L 496.532162 -199.404736 
L 498.644685 -201.733768 
L 500.757207 -207.200144 
L 502.86973 -186.61047 
L 504.982252 -204.540595 
L 507.094775 -182.580901 
L 509.207297 -200.029807 
L 511.31982 -202.598593 
L 513.432342 -201.875908 
L 515.544865 -205.631473 
L 517.657387 -203.257914 
L 519.76991 -200.793593 
L 521.882432 -205.097165 
L 523.994955 -204.062801 
L 526.107477 -195.089176 
L 528.22 -168.022736 
L 530.332523 -227.036308 
L 532.445045 -203.287027 
L 534.557568 -111.387859 
L 536.67009 -99.845448 
L 538.782613 -206.345595 
L 540.895135 -203.768247 
L 543.007658 -201.718355 
L 545.12018 -205.963702 
L 547.232703 -148.767117 
L 549.345225 -206.068166 
L 551.457748 -206.467184 
L 553.57027 -206.378133 
L 555.682793 -164.626801 
L 557.795315 -202.595168 
L 559.907838 -203.338403 
L 562.02036 -201.495727 
L 564.132883 -202.994186 
L 566.245405 -205.148541 
L 568.357928 -156.357023 
L 570.47045 -201.547103 
L 572.582973 -164.311696 
L 574.695495 -204.425856 
L 576.808018 -201.69438 
L 578.920541 -204.39503 
L 581.033063 -204.636496 
L 583.145586 -204.812886 
L 585.258108 -208.474262 
L 587.370631 -206.051041 
L 589.483153 -205.311231 
L 591.595676 -206.516847 
L 593.708198 -209.857981 
L 595.820721 -206.044191 
L 597.933243 -185.562405 
L 600.045766 -205.766762 
L 602.158288 -206.527122 
L 604.270811 -187.70991 
L 606.383333 -205.638323 
L 608.495856 -188.699749 
L 610.608378 -206.054466 
L 612.720901 -205.520158 
L 614.833423 -205.247867 
L 616.945946 -205.006401 
L 619.058468 -207.717327 
L 621.170991 -205.136553 
L 623.283514 -206.280519 
L 625.396036 -193.777382 
L 627.508559 -52.576364 
L 629.621081 -204.194665 
L 631.733604 -137.753876 
L 633.846126 -203.658645 
L 635.958649 -191.13667 
L 638.071171 -186.867348 
L 640.183694 -130.749654 
L 642.296216 -197.228118 
L 644.408739 -204.071363 
L 646.521261 -196.757174 
L 648.633784 -199.379048 
L 650.746306 -201.788569 
L 652.858829 -167.132223 
L 654.971351 -122.140796 
L 657.083874 -203.413754 
L 659.196396 -216.18062 
L 661.308919 -204.631359 
L 663.421441 -203.151738 
L 665.533964 -200.308948 
L 667.646486 -204.013137 
L 669.759009 -191.494588 
L 671.871532 -198.524498 
L 673.984054 -56.467218 
L 676.096577 -203.244214 
L 678.209099 -204.681022 
L 680.321622 -204.168977 
L 682.434144 -127.968515 
L 684.546667 -216.925567 
L 686.659189 -201.288512 
L 688.771712 -208.539338 
L 690.884234 -162.657398 
L 692.996757 -181.599625 
L 695.109279 -134.81861 
L 697.221802 -205.727374 
L 699.334324 -204.934475 
L 701.446847 -205.605785 
L 703.559369 -204.139864 
L 705.671892 -200.098308 
L 707.784414 -204.9105 
L 709.896937 -200.10687 
L 712.009459 -203.956624 
L 714.121982 -203.915524 
L 716.234505 -203.83161 
L 718.347027 -138.038155 
L 720.45955 -205.064627 
L 722.572072 -204.907075 
L 724.684595 -209.352787 
L 726.797117 -205.542421 
L 728.90964 -204.223778 
L 731.022162 -165.077195 
L 733.134685 -204.317967 
L 735.247207 -203.223664 
L 737.35973 -202.487279 
L 739.472252 -155.137706 
L 741.584775 -203.769959 
L 743.697297 -204.927625 
L 745.80982 -201.291937 
L 747.922342 -202.084836 
L 750.034865 -204.715272 
L 752.147387 -204.579983 
L 754.25991 -206.787426 
L 756.372432 -165.837555 
L 758.484955 -112.454761 
L 760.597477 -165.777617 
L 762.71 -205.374594 
L 764.822523 -203.900111 
L 766.935045 -203.436017 
L 769.047568 -205.076615 
L 771.16009 -204.847137 
L 773.272613 -205.194779 
L 775.385135 -207.652251 
L 777.497658 -205.867801 
L 779.61018 -187.473582 
L 781.722703 -205.282118 
L 783.835225 -207.5769 
L 785.947748 -181.294796 
L 788.06027 -205.496183 
L 790.172793 -207.915979 
L 792.285315 -204.415581 
L 794.397838 -183.318999 
L 796.51036 -207.311458 
L 798.622883 -165.260435 
L 800.735405 -204.535457 
L 802.847928 -204.271729 
L 804.96045 -204.55772 
L 807.072973 -192.265224 
L 809.185495 -207.482711 
L 811.298018 -206.333607 
L 813.410541 -205.331781 
L 815.523063 -206.458622 
L 817.635586 -174.006294 
L 819.748108 -203.259627 
L 821.860631 -204.090201 
L 823.973153 -204.864262 
L 826.085676 -139.760954 
L 828.198198 -204.251178 
L 830.310721 -204.494357 
L 832.423243 -201.350163 
L 834.535766 -202.858896 
L 836.648288 -202.518104 
L 838.760811 -198.974892 
L 840.873333 -149.328825 
L 842.985856 -160.465368 
L 845.098378 -206.494585 
L 847.210901 -212.09625 
L 849.323423 -198.545049 
L 851.435946 -121.575663 
L 853.548468 -124.726707 
L 855.660991 -202.627706 
L 857.773514 -196.132103 
L 859.886036 -204.288854 
L 861.998559 -162.612873 
L 864.111081 -216.973518 
L 866.223604 -200.511026 
L 868.336126 -202.631131 
L 870.448649 -163.561611 
L 872.561171 -205.139978 
L 874.673694 -163.251644 
L 876.786216 -204.148427 
L 878.898739 -217.531801 
L 881.011261 -141.689256 
L 883.123784 -205.092027 
L 885.236306 -205.420832 
L 887.348829 -209.866544 
L 889.461351 -205.268417 
L 891.573874 -205.540709 
L 893.686396 -207.003204 
L 895.798919 -179.736399 
L 897.911441 -202.408503 
L 900.023964 -204.920775 
L 902.136486 -206.107554 
L 904.249009 -202.627706 
L 906.361532 -201.086434 
L 908.474054 -202.846909 
L 910.586577 -216.396398 
L 912.699099 -202.648256 
L 914.811622 -205.992815 
L 916.924144 -206.432934 
L 919.036667 -159.836872 
L 921.149189 -164.325397 
L 923.261712 -204.728972 
L 925.374234 -201.038483 
L 927.486757 -202.405078 
L 929.599279 -203.290452 
L 931.711802 -202.069423 
L 933.824324 -201.106984 
L 935.936847 -205.026952 
L 938.049369 -206.075016 
L 940.161892 -204.602246 
L 942.274414 -206.114404 
L 944.386937 -172.170468 
L 946.499459 -204.758085 
L 948.611982 -204.956738 
L 950.724505 -205.903764 
L 952.837027 -203.245927 
L 954.94955 -205.321506 
L 957.062072 -205.756487 
L 959.174595 -204.340229 
L 961.287117 -205.96884 
L 963.39964 -205.170804 
L 965.512162 -205.831838 
L 967.624685 -205.766762 
L 969.737207 -205.145116 
L 971.84973 -206.91929 
L 973.962252 -204.698147 
L 976.074775 -200.675428 
L 978.187297 -205.506458 
L 980.29982 -204.105614 
L 982.412342 -205.523583 
L 984.524865 -204.826586 
L 986.637387 -183.968045 
L 988.74991 -203.650082 
L 990.862432 -205.843825 
L 992.974955 -206.441496 
L 992.974955 -224.532599 
L 992.974955 -224.532599 
L 990.862432 -206.87819 
L 988.74991 -207.208707 
L 986.637387 -208.354385 
L 984.524865 -206.89874 
L 982.412342 -206.886753 
L 980.29982 -206.968954 
L 978.187297 -206.886753 
L 976.074775 -206.953541 
L 973.962252 -206.718925 
L 971.84973 -221.599045 
L 969.737207 -219.441265 
L 967.624685 -206.770301 
L 965.512162 -206.739475 
L 963.39964 -206.924428 
L 961.287117 -206.773726 
L 959.174595 -206.706937 
L 957.062072 -208.482825 
L 954.94955 -206.855927 
L 952.837027 -207.379959 
L 950.724505 -218.090084 
L 948.611982 -207.097393 
L 946.499459 -206.785714 
L 944.386937 -180.89064 
L 942.274414 -208.381786 
L 940.161892 -208.219096 
L 938.049369 -207.78754 
L 935.936847 -208.17457 
L 933.824324 -206.289082 
L 931.711802 -205.960277 
L 929.599279 -206.259969 
L 927.486757 -204.946463 
L 925.374234 -206.658987 
L 923.261712 -205.97569 
L 921.149189 -190.944868 
L 919.036667 -201.310775 
L 916.924144 -207.234395 
L 914.811622 -206.951828 
L 912.699099 -205.378019 
L 910.586577 -234.199796 
L 908.474054 -204.758085 
L 906.361532 -204.247753 
L 904.249009 -207.203569 
L 902.136486 -206.700087 
L 900.023964 -206.31477 
L 897.911441 -205.104015 
L 895.798919 -201.803982 
L 893.686396 -208.030718 
L 891.573874 -206.890178 
L 889.461351 -206.17263 
L 887.348829 -219.401877 
L 885.236306 -206.790851 
L 883.123784 -207.030605 
L 881.011261 -156.982094 
L 878.898739 -229.783197 
L 876.786216 -208.909243 
L 874.673694 -176.55453 
L 872.561171 -207.181307 
L 870.448649 -170.747361 
L 868.336126 -206.234281 
L 866.223604 -203.63467 
L 864.111081 -236.931271 
L 861.998559 -185.519592 
L 859.886036 -205.782175 
L 857.773514 -205.441382 
L 855.660991 -206.141805 
L 853.548468 -194.772359 
L 851.435946 -199.872255 
L 849.323423 -206.556235 
L 847.210901 -234.472087 
L 845.098378 -207.128218 
L 842.985856 -196.565371 
L 840.873333 -197.591173 
L 838.760811 -206.513422 
L 836.648288 -206.131529 
L 834.535766 -205.585234 
L 832.423243 -205.991103 
L 830.310721 -208.525638 
L 828.198198 -207.056292 
L 826.085676 -193.643805 
L 823.973153 -206.206881 
L 821.860631 -206.224006 
L 819.748108 -205.677711 
L 817.635586 -197.457596 
L 815.523063 -207.941667 
L 813.410541 -207.684789 
L 811.298018 -207.731027 
L 809.185495 -208.099219 
L 807.072973 -206.393546 
L 804.96045 -207.006629 
L 802.847928 -206.833664 
L 800.735405 -206.881615 
L 798.622883 -206.162355 
L 796.51036 -218.138034 
L 794.397838 -205.215329 
L 792.285315 -206.909015 
L 790.172793 -224.482935 
L 788.06027 -206.831952 
L 785.947748 -207.03403 
L 783.835225 -217.523238 
L 781.722703 -206.888465 
L 779.61018 -205.903764 
L 777.497658 -206.809689 
L 775.385135 -217.934244 
L 773.272613 -206.770301 
L 771.16009 -208.436587 
L 769.047568 -206.953541 
L 766.935045 -206.635011 
L 764.822523 -206.69495 
L 762.71 -206.754888 
L 760.597477 -204.758085 
L 758.484955 -141.964972 
L 756.372432 -205.653735 
L 754.25991 -209.085633 
L 752.147387 -208.306435 
L 750.034865 -208.311572 
L 747.922342 -206.633299 
L 745.80982 -206.53911 
L 743.697297 -207.006629 
L 741.584775 -206.999779 
L 739.472252 -203.437729 
L 737.35973 -206.463759 
L 735.247207 -206.55281 
L 733.134685 -206.653849 
L 731.022162 -204.235766 
L 728.90964 -206.597336 
L 726.797117 -206.265106 
L 724.684595 -228.94406 
L 722.572072 -205.749637 
L 720.45955 -205.948289 
L 718.347027 -159.225501 
L 716.234505 -205.314656 
L 714.121982 -207.652251 
L 712.009459 -205.624622 
L 709.896937 -205.398569 
L 707.784414 -210.517303 
L 705.671892 -204.787198 
L 703.559369 -205.927739 
L 701.446847 -206.705225 
L 699.334324 -207.044305 
L 697.221802 -207.128218 
L 695.109279 -143.018175 
L 692.996757 -199.300272 
L 690.884234 -178.405768 
L 688.771712 -209.583978 
L 686.659189 -206.474034 
L 684.546667 -264.903636 
L 682.434144 -184.067372 
L 680.321622 -204.672459 
L 678.209099 -208.17457 
L 676.096577 -209.484651 
L 673.984054 -190.75649 
L 671.871532 -202.658531 
L 669.759009 -202.502691 
L 667.646486 -205.27013 
L 665.533964 -205.552696 
L 663.421441 -204.521757 
L 661.308919 -206.018503 
L 659.196396 -222.996465 
L 657.083874 -205.201629 
L 654.971351 -169.975013 
L 652.858829 -177.222414 
L 650.746306 -203.30244 
L 648.633784 -206.235993 
L 646.521261 -207.292621 
L 644.408739 -206.098992 
L 642.296216 -207.558062 
L 640.183694 -184.111897 
L 638.071171 -210.198774 
L 635.958649 -208.381786 
L 633.846126 -205.994528 
L 631.733604 -140.815869 
L 629.621081 -208.116345 
L 627.508559 -223.986303 
L 625.396036 -195.096026 
L 623.283514 -207.705339 
L 621.170991 -206.818252 
L 619.058468 -214.567422 
L 616.945946 -206.7429 
L 614.833423 -206.429509 
L 612.720901 -206.496297 
L 610.608378 -206.530548 
L 608.495856 -201.245699 
L 606.383333 -205.830125 
L 604.270811 -204.348792 
L 602.158288 -206.777151 
L 600.045766 -206.592198 
L 597.933243 -200.372312 
L 595.820721 -207.016904 
L 593.708198 -214.954452 
L 591.595676 -207.116231 
L 589.483153 -206.201743 
L 587.370631 -206.537398 
L 585.258108 -209.203797 
L 583.145586 -205.956852 
L 581.033063 -205.554409 
L 578.920541 -206.254831 
L 576.808018 -205.698261 
L 574.695495 -206.189755 
L 572.582973 -187.417069 
L 570.47045 -205.842113 
L 568.357928 -177.811522 
L 566.245405 -206.569936 
L 564.132883 -207.696776 
L 562.02036 -205.900339 
L 559.907838 -204.818024 
L 557.795315 -204.972151 
L 555.682793 -189.194668 
L 553.57027 -207.405647 
L 551.457748 -207.62485 
L 549.345225 -208.078669 
L 547.232703 -179.578847 
L 545.12018 -207.775552 
L 543.007658 -203.742559 
L 540.895135 -205.330068 
L 538.782613 -207.510111 
L 536.67009 -175.484202 
L 534.557568 -206.51171 
L 532.445045 -207.174457 
L 530.332523 -250.151956 
L 528.22 -191.282235 
L 526.107477 -203.857298 
L 523.994955 -206.093854 
L 521.882432 -206.645287 
L 519.76991 -203.564456 
L 517.657387 -208.583864 
L 515.544865 -208.484537 
L 513.432342 -203.701458 
L 511.31982 -204.674172 
L 509.207297 -207.338859 
L 507.094775 -190.112581 
L 504.982252 -206.424371 
L 502.86973 -205.797587 
L 500.757207 -207.292621 
L 498.644685 -204.867687 
L 496.532162 -205.768474 
L 494.41964 -206.225718 
L 492.307117 -210.524153 
L 490.194595 -207.715614 
L 488.082072 -203.850448 
L 485.96955 -207.739589 
L 483.857027 -204.461819 
L 481.744505 -201.14466 
L 479.631982 -203.324703 
L 477.519459 -202.40679 
L 475.406937 -205.48762 
L 473.294414 -205.675998 
L 471.181892 -171.738912 
L 469.069369 -237.789246 
L 466.956847 -208.407474 
L 464.844324 -206.107554 
L 462.731802 -172.989055 
L 460.619279 -202.90856 
L 458.506757 -207.869741 
L 456.394234 -232.888003 
L 454.281712 -206.013365 
L 452.169189 -205.941439 
L 450.056667 -205.431107 
L 447.944144 -207.073418 
L 445.831622 -207.857754 
L 443.719099 -207.907417 
L 441.606577 -200.4254 
L 439.494054 -208.847592 
L 437.381532 -208.068394 
L 435.269009 -205.965415 
L 433.156486 -206.32162 
L 431.043964 -206.847364 
L 428.931441 -198.616975 
L 426.818919 -206.374708 
L 424.706396 -205.938014 
L 422.593874 -206.278807 
L 420.481351 -193.78252 
L 418.368829 -206.746326 
L 416.256306 -207.020329 
L 414.143784 -205.96884 
L 412.031261 -206.828527 
L 409.918739 -206.021928 
L 407.806216 -206.155505 
L 405.693694 -190.780465 
L 403.581171 -205.338631 
L 401.468649 -206.609324 
L 399.356126 -208.671202 
L 397.243604 -206.451771 
L 395.131081 -206.830239 
L 393.018559 -206.830239 
L 390.906036 -205.907189 
L 388.793514 -199.159845 
L 386.680991 -160.217052 
L 384.568468 -206.386696 
L 382.455946 -208.451999 
L 380.343423 -209.560002 
L 378.230901 -193.907534 
L 376.118378 -206.960391 
L 374.005856 -190.542425 
L 371.893333 -206.057891 
L 369.780811 -227.193861 
L 367.668288 -206.400396 
L 365.555766 -206.453484 
L 363.443243 -191.612752 
L 361.330721 -207.208707 
L 359.218198 -192.972496 
L 357.105676 -184.791769 
L 354.993153 -215.182218 
L 352.880631 -218.436014 
L 350.768108 -205.489333 
L 348.655586 -204.653621 
L 346.543063 -205.023527 
L 344.430541 -205.275268 
L 342.318018 -226.049895 
L 340.205495 -196.743474 
L 338.092973 -205.852388 
L 335.98045 -191.4552 
L 333.867928 -205.294105 
L 331.755405 -206.515135 
L 329.642883 -205.61606 
L 327.53036 -195.04465 
L 325.417838 -205.938014 
L 323.305315 -157.94967 
L 321.192793 -206.706937 
L 319.08027 -208.215671 
L 316.967748 -189.328245 
L 314.855225 -208.541051 
L 312.742703 -206.982654 
L 310.63018 -206.323332 
L 308.517658 -219.859121 
L 306.405135 -221.838798 
L 304.292613 -222.225829 
L 302.18009 -205.396857 
L 300.067568 -204.357355 
L 297.955045 -205.857526 
L 295.842523 -204.764935 
L 293.73 -227.997034 
L 291.617477 -205.472208 
L 289.504955 -204.872824 
L 287.392432 -205.98254 
L 285.27991 -206.039053 
L 283.167387 -217.023181 
L 281.054865 -218.89497 
L 278.942342 -205.46707 
L 276.82982 -205.095453 
L 274.717297 -204.655334 
L 272.604775 -207.513536 
L 270.492252 -222.561484 
L 268.37973 -205.518446 
L 266.267207 -205.129703 
L 264.154685 -220.826697 
L 262.042162 -204.742673 
L 259.92964 -149.510353 
L 257.817117 -208.198546 
L 255.704595 -208.092369 
L 253.592072 -208.33726 
L 251.47955 -208.523925 
L 249.367027 -206.756601 
L 247.254505 -206.7292 
L 245.141982 -182.901143 
L 243.029459 -207.116231 
L 240.916937 -206.352445 
L 238.804414 -205.540709 
L 236.691892 -205.006401 
L 234.579369 -214.007427 
L 232.466847 -217.540364 
L 230.354324 -207.573475 
L 228.241802 -206.354158 
L 226.129279 -205.862663 
L 224.016757 -206.604186 
L 221.904234 -205.412269 
L 219.791712 -206.092141 
L 217.679189 -219.237475 
L 215.566667 -219.482366 
L 213.454144 -204.970438 
L 211.341622 -206.141805 
L 209.229099 -205.078327 
L 207.116577 -204.744385 
L 205.004054 -206.739475 
L 202.891532 -193.672918 
L 200.779009 -204.549157 
L 198.666486 -189.633074 
L 196.553964 -206.266819 
L 194.441441 -208.294447 
L 192.328919 -215.682275 
L 190.216396 -207.195007 
L 188.103874 -205.201629 
L 185.991351 -206.379845 
L 183.878829 -215.605212 
L 181.766306 -215.707963 
L 179.653784 -204.763223 
L 177.541261 -205.722236 
L 175.428739 -218.56959 
L 173.316216 -222.905701 
L 171.203694 -204.369342 
L 169.091171 -206.672687 
L 166.978649 -203.788797 
L 164.866126 -206.557948 
L 162.753604 -205.335206 
L 160.641081 -205.499608 
L 158.528559 -204.371055 
L 156.416036 -220.922598 
L 154.303514 -192.504977 
L 152.190991 -205.562972 
L 150.078468 -205.571534 
L 147.965946 -206.496297 
L 145.853423 -217.08312 
L 143.740901 -204.989276 
L 141.628378 -213.223091 
L 139.515856 -205.374594 
L 137.403333 -212.320591 
L 135.290811 -176.266826 
L 133.178288 -220.139975 
L 131.065766 -206.86449 
L 128.953243 -188.797363 
L 126.840721 -207.578612 
L 124.728198 -206.835377 
L 122.615676 -205.090315 
L 120.503153 -205.669148 
L 118.390631 -205.552696 
L 116.278108 -203.732284 
L 114.165586 -217.615715 
L 112.053063 -190.720527 
L 109.940541 -184.553729 
L 107.828018 -218.074671 
L 105.715495 -207.133356 
L 103.602973 -206.503147 
L 101.49045 -206.176055 
L 99.377928 -205.581809 
L 97.265405 -206.052753 
L 95.152883 -206.297644 
L 93.04036 -206.174343 
L 90.927838 -189.192956 
L 88.815315 -221.146939 
L 86.702793 -215.766189 
L 84.59027 -209.685017 
L 82.477748 -206.621311 
L 80.365225 -213.647797 
L 78.252703 -206.676112 
L 76.14018 -217.408499 
L 74.027658 -205.436245 
L 71.915135 -166.782868 
L 69.802613 -208.152308 
L 67.69009 -218.675767 
L 65.577568 -208.071819 
L 63.465045 -196.055039 
z
"/>
    </defs>
    <g clip-path="url(#p96c72925f7)">
     <use xlink:href="#m21e8506c28" x="0" y="302.4" style="fill: #888888; fill-opacity: 0.25"/>
    </g>
   </g>
   <g id="patch_8">
    <path d="M 690.068259 183.720428 
Q 682.982334 181.547503 675.89641 179.374577 
" clip-path="url(#p96c72925f7)" style="fill: none; stroke: #888888; stroke-width: 0.7; stroke-linecap: round"/>
   </g>
   <g id="patch_9">
    <path d="M 773.107742 176.428182 
Q 766.794168 175.893639 760.480594 175.359096 
" clip-path="url(#p96c72925f7)" style="fill: none; stroke: #888888; stroke-width: 0.7; stroke-linecap: round"/>
   </g>
   <g id="patch_10">
    <path d="M 708.582242 162.577599 
Q 702.844062 162.962619 697.105883 163.34764 
" clip-path="url(#p96c72925f7)" style="fill: none; stroke: #888888; stroke-width: 0.7; stroke-linecap: round"/>
   </g>
   <g id="patch_11">
    <path d="M 616.457562 157.560007 
Q 623.157613 159.996475 629.857664 162.432943 
" clip-path="url(#p96c72925f7)" style="fill: none; stroke: #888888; stroke-width: 0.7; stroke-linecap: round"/>
   </g>
   <g id="patch_12">
    <path d="M 272.13359 156.350805 
Q 267.001436 157.634809 261.869281 158.918813 
" clip-path="url(#p96c72925f7)" style="fill: none; stroke: #888888; stroke-width: 0.7; stroke-linecap: round"/>
   </g>
   <g id="patch_13">
    <path d="M 674.347346 147.334204 
Q 665.566416 151.416455 656.785486 155.498705 
" clip-path="url(#p96c72925f7)" style="fill: none; stroke: #888888; stroke-width: 0.7; stroke-linecap: round"/>
   </g>
   <g id="patch_14">
    <path d="M 734.851924 148.170402 
Q 727.548427 150.647442 720.244929 153.124483 
" clip-path="url(#p96c72925f7)" style="fill: none; stroke: #888888; stroke-width: 0.7; stroke-linecap: round"/>
   </g>
   <g id="matplotlib.axis_1">
    <g id="xtick_1">
     <g id="line2d_1">
      <defs>
       <path id="m8e3478b142" d="M 0 0 
L 0 3.5 
" style="stroke: #000000; stroke-width: 0.8"/>
      </defs>
      <g>
       <use xlink:href="#m8e3478b142" x="61.352523" y="260.44" style="stroke: #000000; stroke-width: 0.8"/>
      </g>
     </g>
     <g id="text_1">
      <!-- 0 -->
      <g transform="translate(58.171273 275.038438) scale(0.1 -0.1)">
       <defs>
        <path id="DejaVuSans-30" d="M 2034 4250 
Q 1547 4250 1301 3770 
Q 1056 3291 1056 2328 
Q 1056 1369 1301 889 
Q 1547 409 2034 409 
Q 2525 409 2770 889 
Q 3016 1369 3016 2328 
Q 3016 3291 2770 3770 
Q 2525 4250 2034 4250 
z
M 2034 4750 
Q 2819 4750 3233 4129 
Q 3647 3509 3647 2328 
Q 3647 1150 3233 529 
Q 2819 -91 2034 -91 
Q 1250 -91 836 529 
Q 422 1150 422 2328 
Q 422 3509 836 4129 
Q 1250 4750 2034 4750 
z
" transform="scale(0.015625)"/>
       </defs>
       <use xlink:href="#DejaVuSans-30"/>
      </g>
     </g>
    </g>
    <g id="xtick_2">
     <g id="line2d_2">
      <g>
       <use xlink:href="#m8e3478b142" x="166.978649" y="260.44" style="stroke: #000000; stroke-width: 0.8"/>
      </g>
     </g>
     <g id="text_2">
      <!-- 50 -->
      <g transform="translate(160.616149 275.038438) scale(0.1 -0.1)">
       <defs>
        <path id="DejaVuSans-35" d="M 691 4666 
L 3169 4666 
L 3169 4134 
L 1269 4134 
L 1269 2991 
Q 1406 3038 1543 3061 
Q 1681 3084 1819 3084 
Q 2600 3084 3056 2656 
Q 3513 2228 3513 1497 
Q 3513 744 3044 326 
Q 2575 -91 1722 -91 
Q 1428 -91 1123 -41 
Q 819 9 494 109 
L 494 744 
Q 775 591 1075 516 
Q 1375 441 1709 441 
Q 2250 441 2565 725 
Q 2881 1009 2881 1497 
Q 2881 1984 2565 2268 
Q 2250 2553 1709 2553 
Q 1456 2553 1204 2497 
Q 953 2441 691 2322 
L 691 4666 
z
" transform="scale(0.015625)"/>
       </defs>
       <use xlink:href="#DejaVuSans-35"/>
       <use xlink:href="#DejaVuSans-30" x="63.623047"/>
      </g>
     </g>
    </g>
    <g id="xtick_3">
     <g id="line2d_3">
      <g>
       <use xlink:href="#m8e3478b142" x="272.604775" y="260.44" style="stroke: #000000; stroke-width: 0.8"/>
      </g>
     </g>
     <g id="text_3">
      <!-- 100 -->
      <g transform="translate(263.061025 275.038438) scale(0.1 -0.1)">
       <defs>
        <path id="DejaVuSans-31" d="M 794 531 
L 1825 531 
L 1825 4091 
L 703 3866 
L 703 4441 
L 1819 4666 
L 2450 4666 
L 2450 531 
L 3481 531 
L 3481 0 
L 794 0 
L 794 531 
z
" transform="scale(0.015625)"/>
       </defs>
       <use xlink:href="#DejaVuSans-31"/>
       <use xlink:href="#DejaVuSans-30" x="63.623047"/>
       <use xlink:href="#DejaVuSans-30" x="127.246094"/>
      </g>
     </g>
    </g>
    <g id="xtick_4">
     <g id="line2d_4">
      <g>
       <use xlink:href="#m8e3478b142" x="378.230901" y="260.44" style="stroke: #000000; stroke-width: 0.8"/>
      </g>
     </g>
     <g id="text_4">
      <!-- 150 -->
      <g transform="translate(368.687151 275.038438) scale(0.1 -0.1)">
       <use xlink:href="#DejaVuSans-31"/>
       <use xlink:href="#DejaVuSans-35" x="63.623047"/>
       <use xlink:href="#DejaVuSans-30" x="127.246094"/>
      </g>
     </g>
    </g>
    <g id="xtick_5">
     <g id="line2d_5">
      <g>
       <use xlink:href="#m8e3478b142" x="483.857027" y="260.44" style="stroke: #000000; stroke-width: 0.8"/>
      </g>
     </g>
     <g id="text_5">
      <!-- 200 -->
      <g transform="translate(474.313277 275.038438) scale(0.1 -0.1)">
       <defs>
        <path id="DejaVuSans-32" d="M 1228 531 
L 3431 531 
L 3431 0 
L 469 0 
L 469 531 
Q 828 903 1448 1529 
Q 2069 2156 2228 2338 
Q 2531 2678 2651 2914 
Q 2772 3150 2772 3378 
Q 2772 3750 2511 3984 
Q 2250 4219 1831 4219 
Q 1534 4219 1204 4116 
Q 875 4013 500 3803 
L 500 4441 
Q 881 4594 1212 4672 
Q 1544 4750 1819 4750 
Q 2544 4750 2975 4387 
Q 3406 4025 3406 3419 
Q 3406 3131 3298 2873 
Q 3191 2616 2906 2266 
Q 2828 2175 2409 1742 
Q 1991 1309 1228 531 
z
" transform="scale(0.015625)"/>
       </defs>
       <use xlink:href="#DejaVuSans-32"/>
       <use xlink:href="#DejaVuSans-30" x="63.623047"/>
       <use xlink:href="#DejaVuSans-30" x="127.246094"/>
      </g>
     </g>
    </g>
    <g id="xtick_6">
     <g id="line2d_6">
      <g>
       <use xlink:href="#m8e3478b142" x="589.483153" y="260.44" style="stroke: #000000; stroke-width: 0.8"/>
      </g>
     </g>
     <g id="text_6">
      <!-- 250 -->
      <g transform="translate(579.939403 275.038438) scale(0.1 -0.1)">
       <use xlink:href="#DejaVuSans-32"/>
       <use xlink:href="#DejaVuSans-35" x="63.623047"/>
       <use xlink:href="#DejaVuSans-30" x="127.246094"/>
      </g>
     </g>
    </g>
    <g id="xtick_7">
     <g id="line2d_7">
      <g>
       <use xlink:href="#m8e3478b142" x="695.109279" y="260.44" style="stroke: #000000; stroke-width: 0.8"/>
      </g>
     </g>
     <g id="text_7">
      <!-- 300 -->
      <g transform="translate(685.565529 275.038438) scale(0.1 -0.1)">
       <defs>
        <path id="DejaVuSans-33" d="M 2597 2516 
Q 3050 2419 3304 2112 
Q 3559 1806 3559 1356 
Q 3559 666 3084 287 
Q 2609 -91 1734 -91 
Q 1441 -91 1130 -33 
Q 819 25 488 141 
L 488 750 
Q 750 597 1062 519 
Q 1375 441 1716 441 
Q 2309 441 2620 675 
Q 2931 909 2931 1356 
Q 2931 1769 2642 2001 
Q 2353 2234 1838 2234 
L 1294 2234 
L 1294 2753 
L 1863 2753 
Q 2328 2753 2575 2939 
Q 2822 3125 2822 3475 
Q 2822 3834 2567 4026 
Q 2313 4219 1838 4219 
Q 1578 4219 1281 4162 
Q 984 4106 628 3988 
L 628 4550 
Q 988 4650 1302 4700 
Q 1616 4750 1894 4750 
Q 2613 4750 3031 4423 
Q 3450 4097 3450 3541 
Q 3450 3153 3228 2886 
Q 3006 2619 2597 2516 
z
" transform="scale(0.015625)"/>
       </defs>
       <use xlink:href="#DejaVuSans-33"/>
       <use xlink:href="#DejaVuSans-30" x="63.623047"/>
       <use xlink:href="#DejaVuSans-30" x="127.246094"/>
      </g>
     </g>
    </g>
    <g id="xtick_8">
     <g id="line2d_8">
      <g>
       <use xlink:href="#m8e3478b142" x="800.735405" y="260.44" style="stroke: #000000; stroke-width: 0.8"/>
      </g>
     </g>
     <g id="text_8">
      <!-- 350 -->
      <g transform="translate(791.191655 275.038438) scale(0.1 -0.1)">
       <use xlink:href="#DejaVuSans-33"/>
       <use xlink:href="#DejaVuSans-35" x="63.623047"/>
       <use xlink:href="#DejaVuSans-30" x="127.246094"/>
      </g>
     </g>
    </g>
    <g id="xtick_9">
     <g id="line2d_9">
      <g>
       <use xlink:href="#m8e3478b142" x="906.361532" y="260.44" style="stroke: #000000; stroke-width: 0.8"/>
      </g>
     </g>
     <g id="text_9">
      <!-- 400 -->
      <g transform="translate(896.817782 275.038438) scale(0.1 -0.1)">
       <defs>
        <path id="DejaVuSans-34" d="M 2419 4116 
L 825 1625 
L 2419 1625 
L 2419 4116 
z
M 2253 4666 
L 3047 4666 
L 3047 1625 
L 3713 1625 
L 3713 1100 
L 3047 1100 
L 3047 0 
L 2419 0 
L 2419 1100 
L 313 1100 
L 313 1709 
L 2253 4666 
z
" transform="scale(0.015625)"/>
       </defs>
       <use xlink:href="#DejaVuSans-34"/>
       <use xlink:href="#DejaVuSans-30" x="63.623047"/>
       <use xlink:href="#DejaVuSans-30" x="127.246094"/>
      </g>
     </g>
    </g>
    <g id="text_10">
     <!-- Tau residue number -->
     <g transform="translate(478.633281 288.716563) scale(0.1 -0.1)">
      <defs>
       <path id="DejaVuSans-54" d="M -19 4666 
L 3928 4666 
L 3928 4134 
L 2272 4134 
L 2272 0 
L 1638 0 
L 1638 4134 
L -19 4134 
L -19 4666 
z
" transform="scale(0.015625)"/>
       <path id="DejaVuSans-61" d="M 2194 1759 
Q 1497 1759 1228 1600 
Q 959 1441 959 1056 
Q 959 750 1161 570 
Q 1363 391 1709 391 
Q 2188 391 2477 730 
Q 2766 1069 2766 1631 
L 2766 1759 
L 2194 1759 
z
M 3341 1997 
L 3341 0 
L 2766 0 
L 2766 531 
Q 2569 213 2275 61 
Q 1981 -91 1556 -91 
Q 1019 -91 701 211 
Q 384 513 384 1019 
Q 384 1609 779 1909 
Q 1175 2209 1959 2209 
L 2766 2209 
L 2766 2266 
Q 2766 2663 2505 2880 
Q 2244 3097 1772 3097 
Q 1472 3097 1187 3025 
Q 903 2953 641 2809 
L 641 3341 
Q 956 3463 1253 3523 
Q 1550 3584 1831 3584 
Q 2591 3584 2966 3190 
Q 3341 2797 3341 1997 
z
" transform="scale(0.015625)"/>
       <path id="DejaVuSans-75" d="M 544 1381 
L 544 3500 
L 1119 3500 
L 1119 1403 
Q 1119 906 1312 657 
Q 1506 409 1894 409 
Q 2359 409 2629 706 
Q 2900 1003 2900 1516 
L 2900 3500 
L 3475 3500 
L 3475 0 
L 2900 0 
L 2900 538 
Q 2691 219 2414 64 
Q 2138 -91 1772 -91 
Q 1169 -91 856 284 
Q 544 659 544 1381 
z
M 1991 3584 
L 1991 3584 
z
" transform="scale(0.015625)"/>
       <path id="DejaVuSans-20" transform="scale(0.015625)"/>
       <path id="DejaVuSans-72" d="M 2631 2963 
Q 2534 3019 2420 3045 
Q 2306 3072 2169 3072 
Q 1681 3072 1420 2755 
Q 1159 2438 1159 1844 
L 1159 0 
L 581 0 
L 581 3500 
L 1159 3500 
L 1159 2956 
Q 1341 3275 1631 3429 
Q 1922 3584 2338 3584 
Q 2397 3584 2469 3576 
Q 2541 3569 2628 3553 
L 2631 2963 
z
" transform="scale(0.015625)"/>
       <path id="DejaVuSans-65" d="M 3597 1894 
L 3597 1613 
L 953 1613 
Q 991 1019 1311 708 
Q 1631 397 2203 397 
Q 2534 397 2845 478 
Q 3156 559 3463 722 
L 3463 178 
Q 3153 47 2828 -22 
Q 2503 -91 2169 -91 
Q 1331 -91 842 396 
Q 353 884 353 1716 
Q 353 2575 817 3079 
Q 1281 3584 2069 3584 
Q 2775 3584 3186 3129 
Q 3597 2675 3597 1894 
z
M 3022 2063 
Q 3016 2534 2758 2815 
Q 2500 3097 2075 3097 
Q 1594 3097 1305 2825 
Q 1016 2553 972 2059 
L 3022 2063 
z
" transform="scale(0.015625)"/>
       <path id="DejaVuSans-73" d="M 2834 3397 
L 2834 2853 
Q 2591 2978 2328 3040 
Q 2066 3103 1784 3103 
Q 1356 3103 1142 2972 
Q 928 2841 928 2578 
Q 928 2378 1081 2264 
Q 1234 2150 1697 2047 
L 1894 2003 
Q 2506 1872 2764 1633 
Q 3022 1394 3022 966 
Q 3022 478 2636 193 
Q 2250 -91 1575 -91 
Q 1294 -91 989 -36 
Q 684 19 347 128 
L 347 722 
Q 666 556 975 473 
Q 1284 391 1588 391 
Q 1994 391 2212 530 
Q 2431 669 2431 922 
Q 2431 1156 2273 1281 
Q 2116 1406 1581 1522 
L 1381 1569 
Q 847 1681 609 1914 
Q 372 2147 372 2553 
Q 372 3047 722 3315 
Q 1072 3584 1716 3584 
Q 2034 3584 2315 3537 
Q 2597 3491 2834 3397 
z
" transform="scale(0.015625)"/>
       <path id="DejaVuSans-69" d="M 603 3500 
L 1178 3500 
L 1178 0 
L 603 0 
L 603 3500 
z
M 603 4863 
L 1178 4863 
L 1178 4134 
L 603 4134 
L 603 4863 
z
" transform="scale(0.015625)"/>
       <path id="DejaVuSans-64" d="M 2906 2969 
L 2906 4863 
L 3481 4863 
L 3481 0 
L 2906 0 
L 2906 525 
Q 2725 213 2448 61 
Q 2172 -91 1784 -91 
Q 1150 -91 751 415 
Q 353 922 353 1747 
Q 353 2572 751 3078 
Q 1150 3584 1784 3584 
Q 2172 3584 2448 3432 
Q 2725 3281 2906 2969 
z
M 947 1747 
Q 947 1113 1208 752 
Q 1469 391 1925 391 
Q 2381 391 2643 752 
Q 2906 1113 2906 1747 
Q 2906 2381 2643 2742 
Q 2381 3103 1925 3103 
Q 1469 3103 1208 2742 
Q 947 2381 947 1747 
z
" transform="scale(0.015625)"/>
       <path id="DejaVuSans-6e" d="M 3513 2113 
L 3513 0 
L 2938 0 
L 2938 2094 
Q 2938 2591 2744 2837 
Q 2550 3084 2163 3084 
Q 1697 3084 1428 2787 
Q 1159 2491 1159 1978 
L 1159 0 
L 581 0 
L 581 3500 
L 1159 3500 
L 1159 2956 
Q 1366 3272 1645 3428 
Q 1925 3584 2291 3584 
Q 2894 3584 3203 3211 
Q 3513 2838 3513 2113 
z
" transform="scale(0.015625)"/>
       <path id="DejaVuSans-6d" d="M 3328 2828 
Q 3544 3216 3844 3400 
Q 4144 3584 4550 3584 
Q 5097 3584 5394 3201 
Q 5691 2819 5691 2113 
L 5691 0 
L 5113 0 
L 5113 2094 
Q 5113 2597 4934 2840 
Q 4756 3084 4391 3084 
Q 3944 3084 3684 2787 
Q 3425 2491 3425 1978 
L 3425 0 
L 2847 0 
L 2847 2094 
Q 2847 2600 2669 2842 
Q 2491 3084 2119 3084 
Q 1678 3084 1418 2786 
Q 1159 2488 1159 1978 
L 1159 0 
L 581 0 
L 581 3500 
L 1159 3500 
L 1159 2956 
Q 1356 3278 1631 3431 
Q 1906 3584 2284 3584 
Q 2666 3584 2933 3390 
Q 3200 3197 3328 2828 
z
" transform="scale(0.015625)"/>
       <path id="DejaVuSans-62" d="M 3116 1747 
Q 3116 2381 2855 2742 
Q 2594 3103 2138 3103 
Q 1681 3103 1420 2742 
Q 1159 2381 1159 1747 
Q 1159 1113 1420 752 
Q 1681 391 2138 391 
Q 2594 391 2855 752 
Q 3116 1113 3116 1747 
z
M 1159 2969 
Q 1341 3281 1617 3432 
Q 1894 3584 2278 3584 
Q 2916 3584 3314 3078 
Q 3713 2572 3713 1747 
Q 3713 922 3314 415 
Q 2916 -91 2278 -91 
Q 1894 -91 1617 61 
Q 1341 213 1159 525 
L 1159 0 
L 581 0 
L 581 4863 
L 1159 4863 
L 1159 2969 
z
" transform="scale(0.015625)"/>
      </defs>
      <use xlink:href="#DejaVuSans-54"/>
      <use xlink:href="#DejaVuSans-61" x="44.583984"/>
      <use xlink:href="#DejaVuSans-75" x="105.863281"/>
      <use xlink:href="#DejaVuSans-20" x="169.242188"/>
      <use xlink:href="#DejaVuSans-72" x="201.029297"/>
      <use xlink:href="#DejaVuSans-65" x="239.892578"/>
      <use xlink:href="#DejaVuSans-73" x="301.416016"/>
      <use xlink:href="#DejaVuSans-69" x="353.515625"/>
      <use xlink:href="#DejaVuSans-64" x="381.298828"/>
      <use xlink:href="#DejaVuSans-75" x="444.775391"/>
      <use xlink:href="#DejaVuSans-65" x="508.154297"/>
      <use xlink:href="#DejaVuSans-20" x="569.677734"/>
      <use xlink:href="#DejaVuSans-6e" x="601.464844"/>
      <use xlink:href="#DejaVuSans-75" x="664.84375"/>
      <use xlink:href="#DejaVuSans-6d" x="728.222656"/>
      <use xlink:href="#DejaVuSans-62" x="825.634766"/>
      <use xlink:href="#DejaVuSans-65" x="889.111328"/>
      <use xlink:href="#DejaVuSans-72" x="950.634766"/>
     </g>
    </g>
   </g>
   <g id="matplotlib.axis_2">
    <g id="ytick_1">
     <g id="line2d_10">
      <defs>
       <path id="m3b5c1d179b" d="M 0 0 
L -3.5 0 
" style="stroke: #000000; stroke-width: 0.8"/>
      </defs>
      <g>
       <use xlink:href="#m3b5c1d179b" x="59.24" y="232.540845" style="stroke: #000000; stroke-width: 0.8"/>
      </g>
     </g>
     <g id="text_11">
      <!-- −800 -->
      <g transform="translate(24.772813 236.340064) scale(0.1 -0.1)">
       <defs>
        <path id="DejaVuSans-2212" d="M 678 2272 
L 4684 2272 
L 4684 1741 
L 678 1741 
L 678 2272 
z
" transform="scale(0.015625)"/>
        <path id="DejaVuSans-38" d="M 2034 2216 
Q 1584 2216 1326 1975 
Q 1069 1734 1069 1313 
Q 1069 891 1326 650 
Q 1584 409 2034 409 
Q 2484 409 2743 651 
Q 3003 894 3003 1313 
Q 3003 1734 2745 1975 
Q 2488 2216 2034 2216 
z
M 1403 2484 
Q 997 2584 770 2862 
Q 544 3141 544 3541 
Q 544 4100 942 4425 
Q 1341 4750 2034 4750 
Q 2731 4750 3128 4425 
Q 3525 4100 3525 3541 
Q 3525 3141 3298 2862 
Q 3072 2584 2669 2484 
Q 3125 2378 3379 2068 
Q 3634 1759 3634 1313 
Q 3634 634 3220 271 
Q 2806 -91 2034 -91 
Q 1263 -91 848 271 
Q 434 634 434 1313 
Q 434 1759 690 2068 
Q 947 2378 1403 2484 
z
M 1172 3481 
Q 1172 3119 1398 2916 
Q 1625 2713 2034 2713 
Q 2441 2713 2670 2916 
Q 2900 3119 2900 3481 
Q 2900 3844 2670 4047 
Q 2441 4250 2034 4250 
Q 1625 4250 1398 4047 
Q 1172 3844 1172 3481 
z
" transform="scale(0.015625)"/>
       </defs>
       <use xlink:href="#DejaVuSans-2212"/>
       <use xlink:href="#DejaVuSans-38" x="83.789062"/>
       <use xlink:href="#DejaVuSans-30" x="147.412109"/>
       <use xlink:href="#DejaVuSans-30" x="211.035156"/>
      </g>
     </g>
    </g>
    <g id="ytick_2">
     <g id="line2d_11">
      <g>
       <use xlink:href="#m3b5c1d179b" x="59.24" y="198.290368" style="stroke: #000000; stroke-width: 0.8"/>
      </g>
     </g>
     <g id="text_12">
      <!-- −600 -->
      <g transform="translate(24.772813 202.089587) scale(0.1 -0.1)">
       <defs>
        <path id="DejaVuSans-36" d="M 2113 2584 
Q 1688 2584 1439 2293 
Q 1191 2003 1191 1497 
Q 1191 994 1439 701 
Q 1688 409 2113 409 
Q 2538 409 2786 701 
Q 3034 994 3034 1497 
Q 3034 2003 2786 2293 
Q 2538 2584 2113 2584 
z
M 3366 4563 
L 3366 3988 
Q 3128 4100 2886 4159 
Q 2644 4219 2406 4219 
Q 1781 4219 1451 3797 
Q 1122 3375 1075 2522 
Q 1259 2794 1537 2939 
Q 1816 3084 2150 3084 
Q 2853 3084 3261 2657 
Q 3669 2231 3669 1497 
Q 3669 778 3244 343 
Q 2819 -91 2113 -91 
Q 1303 -91 875 529 
Q 447 1150 447 2328 
Q 447 3434 972 4092 
Q 1497 4750 2381 4750 
Q 2619 4750 2861 4703 
Q 3103 4656 3366 4563 
z
" transform="scale(0.015625)"/>
       </defs>
       <use xlink:href="#DejaVuSans-2212"/>
       <use xlink:href="#DejaVuSans-36" x="83.789062"/>
       <use xlink:href="#DejaVuSans-30" x="147.412109"/>
       <use xlink:href="#DejaVuSans-30" x="211.035156"/>
      </g>
     </g>
    </g>
    <g id="ytick_3">
     <g id="line2d_12">
      <g>
       <use xlink:href="#m3b5c1d179b" x="59.24" y="164.03989" style="stroke: #000000; stroke-width: 0.8"/>
      </g>
     </g>
     <g id="text_13">
      <!-- −400 -->
      <g transform="translate(24.772813 167.839109) scale(0.1 -0.1)">
       <use xlink:href="#DejaVuSans-2212"/>
       <use xlink:href="#DejaVuSans-34" x="83.789062"/>
       <use xlink:href="#DejaVuSans-30" x="147.412109"/>
       <use xlink:href="#DejaVuSans-30" x="211.035156"/>
      </g>
     </g>
    </g>
    <g id="ytick_4">
     <g id="line2d_13">
      <g>
       <use xlink:href="#m3b5c1d179b" x="59.24" y="129.789413" style="stroke: #000000; stroke-width: 0.8"/>
      </g>
     </g>
     <g id="text_14">
      <!-- −200 -->
      <g transform="translate(24.772813 133.588632) scale(0.1 -0.1)">
       <use xlink:href="#DejaVuSans-2212"/>
       <use xlink:href="#DejaVuSans-32" x="83.789062"/>
       <use xlink:href="#DejaVuSans-30" x="147.412109"/>
       <use xlink:href="#DejaVuSans-30" x="211.035156"/>
      </g>
     </g>
    </g>
    <g id="ytick_5">
     <g id="line2d_14">
      <g>
       <use xlink:href="#m3b5c1d179b" x="59.24" y="95.538935" style="stroke: #000000; stroke-width: 0.8"/>
      </g>
     </g>
     <g id="text_15">
      <!-- 0 -->
      <g transform="translate(45.8775 99.338154) scale(0.1 -0.1)">
       <use xlink:href="#DejaVuSans-30"/>
      </g>
     </g>
    </g>
    <g id="ytick_6">
     <g id="line2d_15">
      <g>
       <use xlink:href="#m3b5c1d179b" x="59.24" y="61.288458" style="stroke: #000000; stroke-width: 0.8"/>
      </g>
     </g>
     <g id="text_16">
      <!-- 200 -->
      <g transform="translate(33.1525 65.087677) scale(0.1 -0.1)">
       <use xlink:href="#DejaVuSans-32"/>
       <use xlink:href="#DejaVuSans-30" x="63.623047"/>
       <use xlink:href="#DejaVuSans-30" x="127.246094"/>
      </g>
     </g>
    </g>
    <g id="ytick_7">
     <g id="line2d_16">
      <g>
       <use xlink:href="#m3b5c1d179b" x="59.24" y="27.03798" style="stroke: #000000; stroke-width: 0.8"/>
      </g>
     </g>
     <g id="text_17">
      <!-- 400 -->
      <g transform="translate(33.1525 30.837199) scale(0.1 -0.1)">
       <use xlink:href="#DejaVuSans-34"/>
       <use xlink:href="#DejaVuSans-30" x="63.623047"/>
       <use xlink:href="#DejaVuSans-30" x="127.246094"/>
      </g>
     </g>
    </g>
    <g id="text_18">
     <!-- screened interaction energy (kJ/mol) -->
     <g transform="translate(18.693125 235.035781) rotate(-90) scale(0.1 -0.1)">
      <defs>
       <path id="DejaVuSans-63" d="M 3122 3366 
L 3122 2828 
Q 2878 2963 2633 3030 
Q 2388 3097 2138 3097 
Q 1578 3097 1268 2742 
Q 959 2388 959 1747 
Q 959 1106 1268 751 
Q 1578 397 2138 397 
Q 2388 397 2633 464 
Q 2878 531 3122 666 
L 3122 134 
Q 2881 22 2623 -34 
Q 2366 -91 2075 -91 
Q 1284 -91 818 406 
Q 353 903 353 1747 
Q 353 2603 823 3093 
Q 1294 3584 2113 3584 
Q 2378 3584 2631 3529 
Q 2884 3475 3122 3366 
z
" transform="scale(0.015625)"/>
       <path id="DejaVuSans-74" d="M 1172 4494 
L 1172 3500 
L 2356 3500 
L 2356 3053 
L 1172 3053 
L 1172 1153 
Q 1172 725 1289 603 
Q 1406 481 1766 481 
L 2356 481 
L 2356 0 
L 1766 0 
Q 1100 0 847 248 
Q 594 497 594 1153 
L 594 3053 
L 172 3053 
L 172 3500 
L 594 3500 
L 594 4494 
L 1172 4494 
z
" transform="scale(0.015625)"/>
       <path id="DejaVuSans-6f" d="M 1959 3097 
Q 1497 3097 1228 2736 
Q 959 2375 959 1747 
Q 959 1119 1226 758 
Q 1494 397 1959 397 
Q 2419 397 2687 759 
Q 2956 1122 2956 1747 
Q 2956 2369 2687 2733 
Q 2419 3097 1959 3097 
z
M 1959 3584 
Q 2709 3584 3137 3096 
Q 3566 2609 3566 1747 
Q 3566 888 3137 398 
Q 2709 -91 1959 -91 
Q 1206 -91 779 398 
Q 353 888 353 1747 
Q 353 2609 779 3096 
Q 1206 3584 1959 3584 
z
" transform="scale(0.015625)"/>
       <path id="DejaVuSans-67" d="M 2906 1791 
Q 2906 2416 2648 2759 
Q 2391 3103 1925 3103 
Q 1463 3103 1205 2759 
Q 947 2416 947 1791 
Q 947 1169 1205 825 
Q 1463 481 1925 481 
Q 2391 481 2648 825 
Q 2906 1169 2906 1791 
z
M 3481 434 
Q 3481 -459 3084 -895 
Q 2688 -1331 1869 -1331 
Q 1566 -1331 1297 -1286 
Q 1028 -1241 775 -1147 
L 775 -588 
Q 1028 -725 1275 -790 
Q 1522 -856 1778 -856 
Q 2344 -856 2625 -561 
Q 2906 -266 2906 331 
L 2906 616 
Q 2728 306 2450 153 
Q 2172 0 1784 0 
Q 1141 0 747 490 
Q 353 981 353 1791 
Q 353 2603 747 3093 
Q 1141 3584 1784 3584 
Q 2172 3584 2450 3431 
Q 2728 3278 2906 2969 
L 2906 3500 
L 3481 3500 
L 3481 434 
z
" transform="scale(0.015625)"/>
       <path id="DejaVuSans-79" d="M 2059 -325 
Q 1816 -950 1584 -1140 
Q 1353 -1331 966 -1331 
L 506 -1331 
L 506 -850 
L 844 -850 
Q 1081 -850 1212 -737 
Q 1344 -625 1503 -206 
L 1606 56 
L 191 3500 
L 800 3500 
L 1894 763 
L 2988 3500 
L 3597 3500 
L 2059 -325 
z
" transform="scale(0.015625)"/>
       <path id="DejaVuSans-28" d="M 1984 4856 
Q 1566 4138 1362 3434 
Q 1159 2731 1159 2009 
Q 1159 1288 1364 580 
Q 1569 -128 1984 -844 
L 1484 -844 
Q 1016 -109 783 600 
Q 550 1309 550 2009 
Q 550 2706 781 3412 
Q 1013 4119 1484 4856 
L 1984 4856 
z
" transform="scale(0.015625)"/>
       <path id="DejaVuSans-6b" d="M 581 4863 
L 1159 4863 
L 1159 1991 
L 2875 3500 
L 3609 3500 
L 1753 1863 
L 3688 0 
L 2938 0 
L 1159 1709 
L 1159 0 
L 581 0 
L 581 4863 
z
" transform="scale(0.015625)"/>
       <path id="DejaVuSans-4a" d="M 628 4666 
L 1259 4666 
L 1259 325 
Q 1259 -519 939 -900 
Q 619 -1281 -91 -1281 
L -331 -1281 
L -331 -750 
L -134 -750 
Q 284 -750 456 -515 
Q 628 -281 628 325 
L 628 4666 
z
" transform="scale(0.015625)"/>
       <path id="DejaVuSans-2f" d="M 1625 4666 
L 2156 4666 
L 531 -594 
L 0 -594 
L 1625 4666 
z
" transform="scale(0.015625)"/>
       <path id="DejaVuSans-6c" d="M 603 4863 
L 1178 4863 
L 1178 0 
L 603 0 
L 603 4863 
z
" transform="scale(0.015625)"/>
       <path id="DejaVuSans-29" d="M 513 4856 
L 1013 4856 
Q 1481 4119 1714 3412 
Q 1947 2706 1947 2009 
Q 1947 1309 1714 600 
Q 1481 -109 1013 -844 
L 513 -844 
Q 928 -128 1133 580 
Q 1338 1288 1338 2009 
Q 1338 2731 1133 3434 
Q 928 4138 513 4856 
z
" transform="scale(0.015625)"/>
      </defs>
      <use xlink:href="#DejaVuSans-73"/>
      <use xlink:href="#DejaVuSans-63" x="52.099609"/>
      <use xlink:href="#DejaVuSans-72" x="107.080078"/>
      <use xlink:href="#DejaVuSans-65" x="145.943359"/>
      <use xlink:href="#DejaVuSans-65" x="207.466797"/>
      <use xlink:href="#DejaVuSans-6e" x="268.990234"/>
      <use xlink:href="#DejaVuSans-65" x="332.369141"/>
      <use xlink:href="#DejaVuSans-64" x="393.892578"/>
      <use xlink:href="#DejaVuSans-20" x="457.369141"/>
      <use xlink:href="#DejaVuSans-69" x="489.15625"/>
      <use xlink:href="#DejaVuSans-6e" x="516.939453"/>
      <use xlink:href="#DejaVuSans-74" x="580.318359"/>
      <use xlink:href="#DejaVuSans-65" x="619.527344"/>
      <use xlink:href="#DejaVuSans-72" x="681.050781"/>
      <use xlink:href="#DejaVuSans-61" x="722.164062"/>
      <use xlink:href="#DejaVuSans-63" x="783.443359"/>
      <use xlink:href="#DejaVuSans-74" x="838.423828"/>
      <use xlink:href="#DejaVuSans-69" x="877.632812"/>
      <use xlink:href="#DejaVuSans-6f" x="905.416016"/>
      <use xlink:href="#DejaVuSans-6e" x="966.597656"/>
      <use xlink:href="#DejaVuSans-20" x="1029.976562"/>
      <use xlink:href="#DejaVuSans-65" x="1061.763672"/>
      <use xlink:href="#DejaVuSans-6e" x="1123.287109"/>
      <use xlink:href="#DejaVuSans-65" x="1186.666016"/>
      <use xlink:href="#DejaVuSans-72" x="1248.189453"/>
      <use xlink:href="#DejaVuSans-67" x="1287.552734"/>
      <use xlink:href="#DejaVuSans-79" x="1351.029297"/>
      <use xlink:href="#DejaVuSans-20" x="1410.208984"/>
      <use xlink:href="#DejaVuSans-28" x="1441.996094"/>
      <use xlink:href="#DejaVuSans-6b" x="1481.009766"/>
      <use xlink:href="#DejaVuSans-4a" x="1538.919922"/>
      <use xlink:href="#DejaVuSans-2f" x="1568.412109"/>
      <use xlink:href="#DejaVuSans-6d" x="1602.103516"/>
      <use xlink:href="#DejaVuSans-6f" x="1699.515625"/>
      <use xlink:href="#DejaVuSans-6c" x="1760.697266"/>
      <use xlink:href="#DejaVuSans-29" x="1788.480469"/>
     </g>
    </g>
   </g>
   <g id="line2d_17">
    <path d="M 63.465045 109.511418 
L 65.577568 94.525121 
L 67.69009 85.618285 
L 69.802613 94.629585 
L 71.915135 136.653209 
L 74.027658 97.607664 
L 76.14018 86.739988 
L 78.252703 96.074955 
L 80.365225 89.671829 
L 82.477748 95.924253 
L 84.59027 93.047213 
L 86.702793 87.909641 
L 88.815315 83.289252 
L 90.927838 119.478307 
L 93.04036 96.473973 
L 95.152883 96.782228 
L 97.265405 97.614514 
L 99.377928 97.825155 
L 101.49045 96.751402 
L 105.715495 95.850615 
L 107.828018 85.548071 
L 109.940541 122.014554 
L 112.053063 116.704018 
L 114.165586 86.019015 
L 116.278108 99.681531 
L 118.390631 97.4621 
L 120.503153 97.217209 
L 122.615676 98.386863 
L 124.728198 96.05098 
L 126.840721 95.139917 
L 128.953243 117.144137 
L 131.065766 96.633238 
L 133.178288 84.42123 
L 135.290811 126.506505 
L 137.403333 91.57273 
L 139.515856 97.528888 
L 141.628378 90.625704 
L 143.740901 98.010107 
L 145.853423 86.818764 
L 147.965946 96.19997 
L 150.078468 97.297697 
L 152.190991 96.968893 
L 154.303514 113.946854 
L 156.416036 83.804722 
L 158.528559 98.558115 
L 160.641081 97.242897 
L 162.753604 97.504913 
L 164.866126 97.398736 
L 166.978649 99.335601 
L 169.091171 96.436298 
L 171.203694 98.691692 
L 173.316216 83.573531 
L 175.428739 87.065367 
L 177.541261 97.152133 
L 179.653784 98.403988 
L 181.766306 89.146084 
L 183.878829 88.976544 
L 185.991351 96.146881 
L 188.103874 97.311398 
L 190.216396 95.612574 
L 192.328919 86.887265 
L 194.441441 95.6982 
L 196.553964 96.950055 
L 198.666486 116.945484 
L 200.779009 98.082033 
L 202.891532 113.737927 
L 205.004054 95.912266 
L 207.116577 98.3783 
L 209.229099 97.597389 
L 211.341622 97.825155 
L 213.454144 97.789192 
L 215.566667 85.251804 
L 217.679189 85.566909 
L 219.791712 96.511649 
L 221.904234 97.242897 
L 224.016757 96.842166 
L 226.129279 97.27886 
L 228.241802 96.285596 
L 230.354324 95.701625 
L 232.466847 89.38755 
L 234.579369 91.201112 
L 236.691892 97.597389 
L 238.804414 97.992982 
L 240.916937 96.852441 
L 243.029459 96.011592 
L 245.141982 128.443369 
L 247.254505 97.218921 
L 249.367027 96.03043 
L 251.47955 94.323043 
L 255.704595 94.924139 
L 257.817117 94.715211 
L 259.92964 159.404088 
L 262.042162 99.340738 
L 264.154685 83.962274 
L 266.267207 98.106009 
L 268.37973 97.823442 
L 270.492252 82.696719 
L 272.604775 95.321445 
L 274.717297 98.592365 
L 276.82982 99.203736 
L 278.942342 97.859405 
L 281.054865 86.513935 
L 283.167387 87.23662 
L 285.27991 96.914092 
L 287.392432 96.986018 
L 289.504955 98.75163 
L 291.617477 97.965582 
L 293.73 81.372938 
L 295.842523 99.623305 
L 297.955045 97.224059 
L 300.067568 99.335601 
L 302.18009 97.987844 
L 304.292613 83.912611 
L 306.405135 84.071875 
L 308.517658 85.681648 
L 310.63018 96.41746 
L 312.742703 95.811227 
L 314.855225 94.098703 
L 316.967748 123.006106 
L 319.08027 95.158755 
L 321.192793 96.602413 
L 323.305315 146.193679 
L 325.417838 96.79764 
L 327.53036 116.517353 
L 329.642883 96.814766 
L 331.755405 95.984192 
L 333.867928 97.999832 
L 335.98045 122.408435 
L 338.092973 96.693176 
L 340.205495 110.898562 
L 342.318018 81.55104 
L 344.430541 97.249747 
L 346.543063 97.81488 
L 348.655586 97.922769 
L 350.768108 97.148708 
L 352.880631 87.383897 
L 354.993153 88.204196 
L 357.105676 119.243691 
L 359.218198 114.847642 
L 361.330721 95.730738 
L 363.443243 114.470887 
L 365.555766 96.41061 
L 367.668288 96.347247 
L 369.780811 79.74604 
L 371.893333 96.799353 
L 374.005856 128.49817 
L 376.118378 96.018442 
L 378.230901 118.214464 
L 380.343423 93.538707 
L 382.455946 94.067877 
L 384.568468 96.705164 
L 386.680991 144.30819 
L 388.793514 118.277827 
L 390.906036 98.681417 
L 393.018559 96.684614 
L 395.131081 95.913978 
L 397.243604 97.075069 
L 399.356126 94.884751 
L 401.468649 96.725714 
L 403.581171 97.881668 
L 405.693694 120.021177 
L 407.806216 96.950055 
L 409.918739 97.097332 
L 412.031261 96.648651 
L 414.143784 98.332062 
L 416.256306 96.91923 
L 418.368829 97.164121 
L 420.481351 116.577291 
L 422.593874 97.345648 
L 424.706396 96.508224 
L 426.818919 96.289021 
L 428.931441 116.316988 
L 431.043964 95.992754 
L 433.156486 96.646938 
L 435.269009 96.944917 
L 437.381532 94.525121 
L 439.494054 94.144941 
L 441.606577 106.344961 
L 443.719099 95.254656 
L 445.831622 96.667489 
L 447.944144 96.39006 
L 450.056667 98.705392 
L 452.169189 97.021981 
L 454.281712 96.986018 
L 456.394234 75.341429 
L 458.506757 95.172455 
L 460.619279 99.977797 
L 462.731802 145.080539 
L 464.844324 97.069932 
L 466.956847 95.112517 
L 469.069369 71.498525 
L 471.181892 140.114219 
L 473.294414 98.165947 
L 475.406937 98.332062 
L 477.519459 102.68701 
L 479.631982 103.276118 
L 481.744505 101.984875 
L 483.857027 98.368025 
L 485.96955 99.469178 
L 488.082072 101.10635 
L 490.194595 96.369509 
L 492.307117 94.242555 
L 494.41964 98.434813 
L 496.532162 99.813395 
L 498.644685 99.099272 
L 500.757207 95.153617 
L 502.86973 106.195971 
L 504.982252 96.917517 
L 507.094775 116.053259 
L 509.207297 98.715667 
L 511.31982 98.763618 
L 513.432342 99.611317 
L 515.544865 95.341995 
L 517.657387 96.479111 
L 519.76991 100.220976 
L 521.882432 96.528774 
L 523.994955 97.321673 
L 526.107477 102.926763 
L 528.22 122.747515 
L 530.332523 63.805868 
L 532.445045 97.169258 
L 534.557568 143.450216 
L 536.67009 164.735175 
L 538.782613 95.472147 
L 540.895135 97.850843 
L 543.007658 99.669543 
L 545.12018 95.530373 
L 547.232703 138.227018 
L 549.345225 95.326582 
L 551.457748 95.353983 
L 553.57027 95.50811 
L 555.682793 125.489265 
L 557.795315 98.616341 
L 559.907838 98.321787 
L 562.02036 98.701967 
L 564.132883 97.054519 
L 566.245405 96.540762 
L 568.357928 135.315727 
L 570.47045 98.705392 
L 572.582973 126.535618 
L 574.695495 97.092195 
L 576.808018 98.703679 
L 578.920541 97.075069 
L 581.033063 97.304547 
L 583.145586 97.015131 
L 585.258108 93.56097 
L 587.370631 96.105781 
L 589.483153 96.643513 
L 591.595676 95.583461 
L 593.708198 89.993783 
L 595.820721 95.869452 
L 597.933243 109.432642 
L 600.045766 96.22052 
L 602.158288 95.747863 
L 604.270811 106.370649 
L 606.383333 96.665776 
L 608.495856 107.427276 
L 610.608378 96.107493 
L 612.720901 96.391772 
L 614.833423 96.561312 
L 616.945946 96.525349 
L 619.058468 91.257626 
L 621.170991 96.422598 
L 623.283514 95.407071 
L 625.396036 107.963296 
L 627.508559 164.118666 
L 629.621081 96.244495 
L 631.733604 163.115127 
L 633.846126 97.573414 
L 635.958649 102.640772 
L 638.071171 103.866939 
L 640.183694 144.969225 
L 642.296216 100.00691 
L 644.408739 97.314823 
L 646.521261 100.375103 
L 648.633784 99.592479 
L 650.746306 99.854496 
L 652.858829 130.222681 
L 654.971351 156.342096 
L 657.083874 98.092308 
L 659.196396 82.811458 
L 661.308919 97.075069 
L 663.421441 98.563253 
L 665.533964 99.469178 
L 667.646486 97.758366 
L 669.759009 105.40136 
L 671.871532 101.808485 
L 673.984054 178.788146 
L 676.096577 96.035567 
L 678.209099 95.972204 
L 680.321622 97.979282 
L 682.434144 146.382057 
L 684.546667 61.485398 
L 686.659189 98.518727 
L 688.771712 93.338342 
L 690.884234 131.868417 
L 692.996757 111.950052 
L 695.109279 163.481608 
L 697.221802 95.972204 
L 699.334324 96.41061 
L 701.446847 96.244495 
L 703.559369 97.366198 
L 705.671892 99.957247 
L 707.784414 94.686098 
L 709.896937 99.64728 
L 712.009459 97.609377 
L 714.121982 96.616113 
L 716.234505 97.826867 
L 718.347027 153.768172 
L 720.45955 96.893542 
L 722.572072 97.071644 
L 724.684595 83.251577 
L 726.797117 96.496236 
L 728.90964 96.989443 
L 731.022162 117.74352 
L 733.134685 96.914092 
L 735.247207 97.511763 
L 737.35973 97.924481 
L 739.472252 123.112282 
L 741.584775 97.015131 
L 743.697297 96.432873 
L 745.80982 98.484476 
L 747.922342 98.040933 
L 750.034865 95.886578 
L 752.147387 95.956791 
L 754.25991 94.46347 
L 756.372432 116.654355 
L 758.484955 175.190133 
L 760.597477 117.132149 
L 762.71 96.335259 
L 764.822523 97.10247 
L 766.935045 97.364486 
L 769.047568 96.384922 
L 771.16009 95.758138 
L 773.272613 96.41746 
L 775.385135 89.606753 
L 777.497658 96.061255 
L 779.61018 105.711327 
L 781.722703 96.314709 
L 783.835225 89.849931 
L 785.947748 108.235587 
L 788.06027 96.235933 
L 790.172793 86.200543 
L 792.285315 96.737702 
L 794.397838 108.132836 
L 796.51036 89.675254 
L 798.622883 116.688605 
L 800.735405 96.691464 
L 802.847928 96.847304 
L 804.96045 96.617825 
L 807.072973 103.070615 
L 809.185495 94.609035 
L 811.298018 95.367683 
L 813.410541 95.891715 
L 815.523063 95.199856 
L 817.635586 116.668055 
L 819.748108 97.931331 
L 821.860631 97.242897 
L 823.973153 96.864429 
L 826.085676 135.69762 
L 828.198198 96.746265 
L 830.310721 95.890003 
L 832.423243 98.729367 
L 834.535766 98.177935 
L 836.648288 98.075183 
L 838.760811 99.655843 
L 840.873333 128.940001 
L 842.985856 123.884631 
L 845.098378 95.588599 
L 847.210901 79.115831 
L 849.323423 99.849358 
L 851.435946 141.676041 
L 853.548468 142.650467 
L 855.660991 98.015245 
L 857.773514 101.613258 
L 859.886036 97.364486 
L 861.998559 128.333768 
L 864.111081 75.447605 
L 866.223604 100.327152 
L 868.336126 97.967294 
L 870.448649 135.245514 
L 872.561171 96.239358 
L 874.673694 132.496913 
L 876.786216 95.871165 
L 878.898739 78.742501 
L 881.011261 153.064325 
L 883.123784 96.338684 
L 885.236306 96.294158 
L 887.348829 87.765789 
L 889.461351 96.679476 
L 891.573874 96.184557 
L 893.686396 94.883039 
L 895.798919 111.62981 
L 897.911441 98.643741 
L 900.023964 96.782228 
L 902.136486 95.996179 
L 904.249009 97.484362 
L 906.361532 99.732906 
L 908.474054 98.597503 
L 910.586577 77.101903 
L 912.699099 98.386863 
L 914.811622 95.927678 
L 916.924144 95.566336 
L 919.036667 121.826177 
L 921.149189 124.764868 
L 923.261712 97.047669 
L 925.374234 98.551265 
L 927.486757 98.72423 
L 929.599279 97.624789 
L 931.711802 98.38515 
L 933.824324 98.701967 
L 935.936847 95.799239 
L 938.049369 95.468722 
L 940.161892 95.989329 
L 942.274414 95.151905 
L 944.386937 125.869446 
L 946.499459 96.628101 
L 948.611982 96.372934 
L 950.724505 90.403076 
L 952.837027 97.087057 
L 954.94955 96.311284 
L 957.062072 95.280344 
L 959.174595 96.876417 
L 961.287117 96.028717 
L 963.39964 96.352384 
L 965.512162 96.114343 
L 967.624685 96.131469 
L 969.737207 90.10681 
L 971.84973 88.140832 
L 973.962252 96.691464 
L 976.074775 98.585515 
L 978.187297 96.203395 
L 980.29982 96.862716 
L 982.412342 96.194832 
L 984.524865 96.537337 
L 986.637387 106.238785 
L 988.74991 96.970605 
L 990.862432 96.038992 
L 992.974955 86.912953 
L 992.974955 86.912953 
" clip-path="url(#p96c72925f7)" style="fill: none; stroke: #111111; stroke-width: 1.1; stroke-linecap: square"/>
   </g>
   <g id="line2d_18">
    <path d="M 59.24 95.538935 
L 997.2 95.538935 
" clip-path="url(#p96c72925f7)" style="fill: none; stroke: #999999; stroke-width: 0.6; stroke-linecap: square"/>
   </g>
   <g id="patch_15">
    <path d="M 59.24 260.44 
L 59.24 26.88 
" style="fill: none; stroke: #000000; stroke-width: 0.8; stroke-linejoin: miter; stroke-linecap: square"/>
   </g>
   <g id="patch_16">
    <path d="M 997.2 260.44 
L 997.2 26.88 
" style="fill: none; stroke: #000000; stroke-width: 0.8; stroke-linejoin: miter; stroke-linecap: square"/>
   </g>
   <g id="patch_17">
    <path d="M 59.24 260.44 
L 997.2 260.44 
" style="fill: none; stroke: #000000; stroke-width: 0.8; stroke-linejoin: miter; stroke-linecap: square"/>
   </g>
   <g id="patch_18">
    <path d="M 59.24 26.88 
L 997.2 26.88 
" style="fill: none; stroke: #000000; stroke-width: 0.8; stroke-linejoin: miter; stroke-linecap: square"/>
   </g>
   <g id="text_19">
    <!-- seg1 -->
    <g style="fill: #4477aa" transform="translate(146.786661 93.703933) scale(0.08 -0.08)">
     <use xlink:href="#DejaVuSans-73"/>
     <use xlink:href="#DejaVuSans-65" x="52.099609"/>
     <use xlink:href="#DejaVuSans-67" x="113.623047"/>
     <use xlink:href="#DejaVuSans-31" x="177.099609"/>
    </g>
   </g>
   <g id="text_20">
    <!-- seg2 -->
    <g style="fill: #66ccee" transform="translate(333.744904 93.703933) scale(0.08 -0.08)">
     <use xlink:href="#DejaVuSans-73"/>
     <use xlink:href="#DejaVuSans-65" x="52.099609"/>
     <use xlink:href="#DejaVuSans-67" x="113.623047"/>
     <use xlink:href="#DejaVuSans-32" x="177.099609"/>
    </g>
   </g>
   <g id="text_21">
    <!-- seg3 -->
    <g style="fill: #228833" transform="translate(519.646886 93.703933) scale(0.08 -0.08)">
     <use xlink:href="#DejaVuSans-73"/>
     <use xlink:href="#DejaVuSans-65" x="52.099609"/>
     <use xlink:href="#DejaVuSans-67" x="113.623047"/>
     <use xlink:href="#DejaVuSans-33" x="177.099609"/>
    </g>
   </g>
   <g id="text_22">
    <!-- seg4 -->
    <g style="fill: #ccbb44" transform="translate(705.548868 93.703933) scale(0.08 -0.08)">
     <use xlink:href="#DejaVuSans-73"/>
     <use xlink:href="#DejaVuSans-65" x="52.099609"/>
     <use xlink:href="#DejaVuSans-67" x="113.623047"/>
     <use xlink:href="#DejaVuSans-34" x="177.099609"/>
    </g>
   </g>
   <g id="text_23">
    <!-- seg5 -->
    <g style="fill: #ee6677" transform="translate(891.45085 93.703933) scale(0.08 -0.08)">
     <use xlink:href="#DejaVuSans-73"/>
     <use xlink:href="#DejaVuSans-65" x="52.099609"/>
     <use xlink:href="#DejaVuSans-67" x="113.623047"/>
     <use xlink:href="#DejaVuSans-35" x="177.099609"/>
    </g>
   </g>
   <g id="text_24">
    <!-- LYS290 -->
    <g style="fill: #7a1f12" transform="translate(688.550409 190.384267) scale(0.08 -0.08)">
     <defs>
      <path id="DejaVuSans-Bold-4c" d="M 588 4666 
L 1791 4666 
L 1791 909 
L 3903 909 
L 3903 0 
L 588 0 
L 588 4666 
z
" transform="scale(0.015625)"/>
      <path id="DejaVuSans-Bold-59" d="M -63 4666 
L 1253 4666 
L 2316 3003 
L 3378 4666 
L 4697 4666 
L 2919 1966 
L 2919 0 
L 1716 0 
L 1716 1966 
L -63 4666 
z
" transform="scale(0.015625)"/>
      <path id="DejaVuSans-Bold-53" d="M 3834 4519 
L 3834 3531 
Q 3450 3703 3084 3790 
Q 2719 3878 2394 3878 
Q 1963 3878 1756 3759 
Q 1550 3641 1550 3391 
Q 1550 3203 1689 3098 
Q 1828 2994 2194 2919 
L 2706 2816 
Q 3484 2659 3812 2340 
Q 4141 2022 4141 1434 
Q 4141 663 3683 286 
Q 3225 -91 2284 -91 
Q 1841 -91 1394 -6 
Q 947 78 500 244 
L 500 1259 
Q 947 1022 1364 901 
Q 1781 781 2169 781 
Q 2563 781 2772 912 
Q 2981 1044 2981 1288 
Q 2981 1506 2839 1625 
Q 2697 1744 2272 1838 
L 1806 1941 
Q 1106 2091 782 2419 
Q 459 2747 459 3303 
Q 459 4000 909 4375 
Q 1359 4750 2203 4750 
Q 2588 4750 2994 4692 
Q 3400 4634 3834 4519 
z
" transform="scale(0.015625)"/>
      <path id="DejaVuSans-Bold-32" d="M 1844 884 
L 3897 884 
L 3897 0 
L 506 0 
L 506 884 
L 2209 2388 
Q 2438 2594 2547 2791 
Q 2656 2988 2656 3200 
Q 2656 3528 2436 3728 
Q 2216 3928 1850 3928 
Q 1569 3928 1234 3808 
Q 900 3688 519 3450 
L 519 4475 
Q 925 4609 1322 4679 
Q 1719 4750 2100 4750 
Q 2938 4750 3402 4381 
Q 3866 4013 3866 3353 
Q 3866 2972 3669 2642 
Q 3472 2313 2841 1759 
L 1844 884 
z
" transform="scale(0.015625)"/>
      <path id="DejaVuSans-Bold-39" d="M 641 103 
L 641 966 
Q 928 831 1190 764 
Q 1453 697 1709 697 
Q 2247 697 2547 995 
Q 2847 1294 2900 1881 
Q 2688 1725 2447 1647 
Q 2206 1569 1925 1569 
Q 1209 1569 770 1986 
Q 331 2403 331 3084 
Q 331 3838 820 4291 
Q 1309 4744 2131 4744 
Q 3044 4744 3544 4128 
Q 4044 3513 4044 2388 
Q 4044 1231 3459 570 
Q 2875 -91 1856 -91 
Q 1528 -91 1228 -42 
Q 928 6 641 103 
z
M 2125 2350 
Q 2441 2350 2600 2554 
Q 2759 2759 2759 3169 
Q 2759 3575 2600 3781 
Q 2441 3988 2125 3988 
Q 1809 3988 1650 3781 
Q 1491 3575 1491 3169 
Q 1491 2759 1650 2554 
Q 1809 2350 2125 2350 
z
" transform="scale(0.015625)"/>
      <path id="DejaVuSans-Bold-30" d="M 2944 2338 
Q 2944 3213 2780 3570 
Q 2616 3928 2228 3928 
Q 1841 3928 1675 3570 
Q 1509 3213 1509 2338 
Q 1509 1453 1675 1090 
Q 1841 728 2228 728 
Q 2613 728 2778 1090 
Q 2944 1453 2944 2338 
z
M 4147 2328 
Q 4147 1169 3647 539 
Q 3147 -91 2228 -91 
Q 1306 -91 806 539 
Q 306 1169 306 2328 
Q 306 3491 806 4120 
Q 1306 4750 2228 4750 
Q 3147 4750 3647 4120 
Q 4147 3491 4147 2328 
z
" transform="scale(0.015625)"/>
     </defs>
     <use xlink:href="#DejaVuSans-Bold-4c"/>
     <use xlink:href="#DejaVuSans-Bold-59" x="48.095703"/>
     <use xlink:href="#DejaVuSans-Bold-53" x="120.507812"/>
     <use xlink:href="#DejaVuSans-Bold-32" x="192.529297"/>
     <use xlink:href="#DejaVuSans-Bold-39" x="262.109375"/>
     <use xlink:href="#DejaVuSans-Bold-30" x="331.689453"/>
    </g>
   </g>
   <g id="text_25">
    <!-- HSP330 -->
    <g style="fill: #7a1f12" transform="translate(775.095715 180.28644) scale(0.08 -0.08)">
     <defs>
      <path id="DejaVuSans-Bold-48" d="M 588 4666 
L 1791 4666 
L 1791 2888 
L 3566 2888 
L 3566 4666 
L 4769 4666 
L 4769 0 
L 3566 0 
L 3566 1978 
L 1791 1978 
L 1791 0 
L 588 0 
L 588 4666 
z
" transform="scale(0.015625)"/>
      <path id="DejaVuSans-Bold-50" d="M 588 4666 
L 2584 4666 
Q 3475 4666 3951 4270 
Q 4428 3875 4428 3144 
Q 4428 2409 3951 2014 
Q 3475 1619 2584 1619 
L 1791 1619 
L 1791 0 
L 588 0 
L 588 4666 
z
M 1791 3794 
L 1791 2491 
L 2456 2491 
Q 2806 2491 2997 2661 
Q 3188 2831 3188 3144 
Q 3188 3456 2997 3625 
Q 2806 3794 2456 3794 
L 1791 3794 
z
" transform="scale(0.015625)"/>
      <path id="DejaVuSans-Bold-33" d="M 2981 2516 
Q 3453 2394 3698 2092 
Q 3944 1791 3944 1325 
Q 3944 631 3412 270 
Q 2881 -91 1863 -91 
Q 1503 -91 1142 -33 
Q 781 25 428 141 
L 428 1069 
Q 766 900 1098 814 
Q 1431 728 1753 728 
Q 2231 728 2486 893 
Q 2741 1059 2741 1369 
Q 2741 1688 2480 1852 
Q 2219 2016 1709 2016 
L 1228 2016 
L 1228 2791 
L 1734 2791 
Q 2188 2791 2409 2933 
Q 2631 3075 2631 3366 
Q 2631 3634 2415 3781 
Q 2200 3928 1806 3928 
Q 1516 3928 1219 3862 
Q 922 3797 628 3669 
L 628 4550 
Q 984 4650 1334 4700 
Q 1684 4750 2022 4750 
Q 2931 4750 3382 4451 
Q 3834 4153 3834 3553 
Q 3834 3144 3618 2883 
Q 3403 2622 2981 2516 
z
" transform="scale(0.015625)"/>
     </defs>
     <use xlink:href="#DejaVuSans-Bold-48"/>
     <use xlink:href="#DejaVuSans-Bold-53" x="83.691406"/>
     <use xlink:href="#DejaVuSans-Bold-50" x="155.712891"/>
     <use xlink:href="#DejaVuSans-Bold-33" x="229.003906"/>
     <use xlink:href="#DejaVuSans-Bold-33" x="298.583984"/>
     <use xlink:href="#DejaVuSans-Bold-30" x="368.164062"/>
    </g>
   </g>
   <g id="text_26">
    <!-- LYS225 -->
    <g style="fill: #7a1f12" transform="translate(542.52073 173.44249) scale(0.08 -0.08)">
     <defs>
      <path id="DejaVuSans-Bold-35" d="M 678 4666 
L 3669 4666 
L 3669 3781 
L 1638 3781 
L 1638 3059 
Q 1775 3097 1914 3117 
Q 2053 3138 2203 3138 
Q 3056 3138 3531 2711 
Q 4006 2284 4006 1522 
Q 4006 766 3489 337 
Q 2972 -91 2053 -91 
Q 1656 -91 1267 -14 
Q 878 63 494 219 
L 494 1166 
Q 875 947 1217 837 
Q 1559 728 1863 728 
Q 2300 728 2551 942 
Q 2803 1156 2803 1522 
Q 2803 1891 2551 2103 
Q 2300 2316 1863 2316 
Q 1603 2316 1309 2248 
Q 1016 2181 678 2041 
L 678 4666 
z
" transform="scale(0.015625)"/>
     </defs>
     <use xlink:href="#DejaVuSans-Bold-4c"/>
     <use xlink:href="#DejaVuSans-Bold-59" x="48.095703"/>
     <use xlink:href="#DejaVuSans-Bold-53" x="120.507812"/>
     <use xlink:href="#DejaVuSans-Bold-32" x="192.529297"/>
     <use xlink:href="#DejaVuSans-Bold-32" x="262.109375"/>
     <use xlink:href="#DejaVuSans-Bold-35" x="331.689453"/>
    </g>
   </g>
   <g id="text_27">
    <!-- HSP268 -->
    <g style="fill: #7a1f12" transform="translate(634.70976 172.825981) scale(0.08 -0.08)">
     <defs>
      <path id="DejaVuSans-Bold-36" d="M 2316 2303 
Q 2000 2303 1842 2098 
Q 1684 1894 1684 1484 
Q 1684 1075 1842 870 
Q 2000 666 2316 666 
Q 2634 666 2792 870 
Q 2950 1075 2950 1484 
Q 2950 1894 2792 2098 
Q 2634 2303 2316 2303 
z
M 3803 4544 
L 3803 3681 
Q 3506 3822 3243 3889 
Q 2981 3956 2731 3956 
Q 2194 3956 1894 3657 
Q 1594 3359 1544 2772 
Q 1750 2925 1990 3001 
Q 2231 3078 2516 3078 
Q 3231 3078 3670 2659 
Q 4109 2241 4109 1563 
Q 4109 813 3618 361 
Q 3128 -91 2303 -91 
Q 1394 -91 895 523 
Q 397 1138 397 2266 
Q 397 3422 980 4083 
Q 1563 4744 2578 4744 
Q 2900 4744 3203 4694 
Q 3506 4644 3803 4544 
z
" transform="scale(0.015625)"/>
      <path id="DejaVuSans-Bold-38" d="M 2228 2088 
Q 1891 2088 1709 1903 
Q 1528 1719 1528 1375 
Q 1528 1031 1709 848 
Q 1891 666 2228 666 
Q 2563 666 2741 848 
Q 2919 1031 2919 1375 
Q 2919 1722 2741 1905 
Q 2563 2088 2228 2088 
z
M 1350 2484 
Q 925 2613 709 2878 
Q 494 3144 494 3541 
Q 494 4131 934 4440 
Q 1375 4750 2228 4750 
Q 3075 4750 3515 4442 
Q 3956 4134 3956 3541 
Q 3956 3144 3739 2878 
Q 3522 2613 3097 2484 
Q 3572 2353 3814 2058 
Q 4056 1763 4056 1313 
Q 4056 619 3595 264 
Q 3134 -91 2228 -91 
Q 1319 -91 855 264 
Q 391 619 391 1313 
Q 391 1763 633 2058 
Q 875 2353 1350 2484 
z
M 1631 3419 
Q 1631 3141 1786 2991 
Q 1941 2841 2228 2841 
Q 2509 2841 2662 2991 
Q 2816 3141 2816 3419 
Q 2816 3697 2662 3845 
Q 2509 3994 2228 3994 
Q 1941 3994 1786 3844 
Q 1631 3694 1631 3419 
z
" transform="scale(0.015625)"/>
     </defs>
     <use xlink:href="#DejaVuSans-Bold-48"/>
     <use xlink:href="#DejaVuSans-Bold-53" x="83.691406"/>
     <use xlink:href="#DejaVuSans-Bold-50" x="155.712891"/>
     <use xlink:href="#DejaVuSans-Bold-32" x="229.003906"/>
     <use xlink:href="#DejaVuSans-Bold-36" x="298.583984"/>
     <use xlink:href="#DejaVuSans-Bold-38" x="368.164062"/>
    </g>
   </g>
   <g id="text_28">
    <!-- VAL300 -->
    <g style="fill: #7a1f12" transform="translate(710.580067 163.522503) scale(0.08 -0.08)">
     <defs>
      <path id="DejaVuSans-Bold-56" d="M 31 4666 
L 1241 4666 
L 2478 1222 
L 3713 4666 
L 4922 4666 
L 3194 0 
L 1759 0 
L 31 4666 
z
" transform="scale(0.015625)"/>
      <path id="DejaVuSans-Bold-41" d="M 3419 850 
L 1538 850 
L 1241 0 
L 31 0 
L 1759 4666 
L 3194 4666 
L 4922 0 
L 3713 0 
L 3419 850 
z
M 1838 1716 
L 3116 1716 
L 2478 3572 
L 1838 1716 
z
" transform="scale(0.015625)"/>
     </defs>
     <use xlink:href="#DejaVuSans-Bold-56"/>
     <use xlink:href="#DejaVuSans-Bold-41" x="70.642578"/>
     <use xlink:href="#DejaVuSans-Bold-4c" x="148.035156"/>
     <use xlink:href="#DejaVuSans-Bold-33" x="211.755859"/>
     <use xlink:href="#DejaVuSans-Bold-30" x="281.335938"/>
     <use xlink:href="#DejaVuSans-Bold-30" x="350.916016"/>
    </g>
   </g>
   <g id="text_29">
    <!-- PRO270 -->
    <g style="fill: #7a1f12" transform="translate(586.167951 155.211805) scale(0.08 -0.08)">
     <defs>
      <path id="DejaVuSans-Bold-52" d="M 2297 2597 
Q 2675 2597 2839 2737 
Q 3003 2878 3003 3200 
Q 3003 3519 2839 3656 
Q 2675 3794 2297 3794 
L 1791 3794 
L 1791 2597 
L 2297 2597 
z
M 1791 1766 
L 1791 0 
L 588 0 
L 588 4666 
L 2425 4666 
Q 3347 4666 3776 4356 
Q 4206 4047 4206 3378 
Q 4206 2916 3982 2619 
Q 3759 2322 3309 2181 
Q 3556 2125 3751 1926 
Q 3947 1728 4147 1325 
L 4800 0 
L 3519 0 
L 2950 1159 
Q 2778 1509 2601 1637 
Q 2425 1766 2131 1766 
L 1791 1766 
z
" transform="scale(0.015625)"/>
      <path id="DejaVuSans-Bold-4f" d="M 2719 3878 
Q 2169 3878 1866 3472 
Q 1563 3066 1563 2328 
Q 1563 1594 1866 1187 
Q 2169 781 2719 781 
Q 3272 781 3575 1187 
Q 3878 1594 3878 2328 
Q 3878 3066 3575 3472 
Q 3272 3878 2719 3878 
z
M 2719 4750 
Q 3844 4750 4481 4106 
Q 5119 3463 5119 2328 
Q 5119 1197 4481 553 
Q 3844 -91 2719 -91 
Q 1597 -91 958 553 
Q 319 1197 319 2328 
Q 319 3463 958 4106 
Q 1597 4750 2719 4750 
z
" transform="scale(0.015625)"/>
      <path id="DejaVuSans-Bold-37" d="M 428 4666 
L 3944 4666 
L 3944 3988 
L 2125 0 
L 953 0 
L 2675 3781 
L 428 3781 
L 428 4666 
z
" transform="scale(0.015625)"/>
     </defs>
     <use xlink:href="#DejaVuSans-Bold-50"/>
     <use xlink:href="#DejaVuSans-Bold-52" x="73.291016"/>
     <use xlink:href="#DejaVuSans-Bold-4f" x="150.292969"/>
     <use xlink:href="#DejaVuSans-Bold-32" x="235.302734"/>
     <use xlink:href="#DejaVuSans-Bold-37" x="304.882812"/>
     <use xlink:href="#DejaVuSans-Bold-30" x="374.462891"/>
    </g>
   </g>
   <g id="text_30">
    <!-- HSP94 -->
    <g style="fill: #7a1f12" transform="translate(274.069732 154.389572) scale(0.08 -0.08)">
     <defs>
      <path id="DejaVuSans-Bold-34" d="M 2356 3675 
L 1038 1722 
L 2356 1722 
L 2356 3675 
z
M 2156 4666 
L 3494 4666 
L 3494 1722 
L 4159 1722 
L 4159 850 
L 3494 850 
L 3494 0 
L 2356 0 
L 2356 850 
L 288 850 
L 288 1881 
L 2156 4666 
z
" transform="scale(0.015625)"/>
     </defs>
     <use xlink:href="#DejaVuSans-Bold-48"/>
     <use xlink:href="#DejaVuSans-Bold-53" x="83.691406"/>
     <use xlink:href="#DejaVuSans-Bold-50" x="155.712891"/>
     <use xlink:href="#DejaVuSans-Bold-39" x="229.003906"/>
     <use xlink:href="#DejaVuSans-Bold-34" x="298.583984"/>
    </g>
   </g>
   <g id="text_31">
    <!-- LYS281 -->
    <g style="fill: #7a1f12" transform="translate(668.437039 144.827765) scale(0.08 -0.08)">
     <defs>
      <path id="DejaVuSans-Bold-31" d="M 750 831 
L 1813 831 
L 1813 3847 
L 722 3622 
L 722 4441 
L 1806 4666 
L 2950 4666 
L 2950 831 
L 4013 831 
L 4013 0 
L 750 0 
L 750 831 
z
" transform="scale(0.015625)"/>
     </defs>
     <use xlink:href="#DejaVuSans-Bold-4c"/>
     <use xlink:href="#DejaVuSans-Bold-59" x="48.095703"/>
     <use xlink:href="#DejaVuSans-Bold-53" x="120.507812"/>
     <use xlink:href="#DejaVuSans-Bold-32" x="192.529297"/>
     <use xlink:href="#DejaVuSans-Bold-38" x="262.109375"/>
     <use xlink:href="#DejaVuSans-Bold-31" x="331.689453"/>
    </g>
   </g>
   <g id="text_32">
    <!-- LYS311 -->
    <g style="fill: #7a1f12" transform="translate(732.108553 145.86485) scale(0.08 -0.08)">
     <use xlink:href="#DejaVuSans-Bold-4c"/>
     <use xlink:href="#DejaVuSans-Bold-59" x="48.095703"/>
     <use xlink:href="#DejaVuSans-Bold-53" x="120.507812"/>
     <use xlink:href="#DejaVuSans-Bold-33" x="192.529297"/>
     <use xlink:href="#DejaVuSans-Bold-31" x="262.109375"/>
     <use xlink:href="#DejaVuSans-Bold-31" x="331.689453"/>
    </g>
   </g>
   <g id="text_33">
    <!-- HS binding along Tau (screened interaction energy) — 3 replicas/segment, mean ± SD -->
    <g transform="translate(268.584063 20.88) scale(0.12 -0.12)">
     <defs>
      <path id="DejaVuSans-48" d="M 628 4666 
L 1259 4666 
L 1259 2753 
L 3553 2753 
L 3553 4666 
L 4184 4666 
L 4184 0 
L 3553 0 
L 3553 2222 
L 1259 2222 
L 1259 0 
L 628 0 
L 628 4666 
z
" transform="scale(0.015625)"/>
      <path id="DejaVuSans-53" d="M 3425 4513 
L 3425 3897 
Q 3066 4069 2747 4153 
Q 2428 4238 2131 4238 
Q 1616 4238 1336 4038 
Q 1056 3838 1056 3469 
Q 1056 3159 1242 3001 
Q 1428 2844 1947 2747 
L 2328 2669 
Q 3034 2534 3370 2195 
Q 3706 1856 3706 1288 
Q 3706 609 3251 259 
Q 2797 -91 1919 -91 
Q 1588 -91 1214 -16 
Q 841 59 441 206 
L 441 856 
Q 825 641 1194 531 
Q 1563 422 1919 422 
Q 2459 422 2753 634 
Q 3047 847 3047 1241 
Q 3047 1584 2836 1778 
Q 2625 1972 2144 2069 
L 1759 2144 
Q 1053 2284 737 2584 
Q 422 2884 422 3419 
Q 422 4038 858 4394 
Q 1294 4750 2059 4750 
Q 2388 4750 2728 4690 
Q 3069 4631 3425 4513 
z
" transform="scale(0.015625)"/>
      <path id="DejaVuSans-2014" d="M 313 1978 
L 6088 1978 
L 6088 1528 
L 313 1528 
L 313 1978 
z
" transform="scale(0.015625)"/>
      <path id="DejaVuSans-70" d="M 1159 525 
L 1159 -1331 
L 581 -1331 
L 581 3500 
L 1159 3500 
L 1159 2969 
Q 1341 3281 1617 3432 
Q 1894 3584 2278 3584 
Q 2916 3584 3314 3078 
Q 3713 2572 3713 1747 
Q 3713 922 3314 415 
Q 2916 -91 2278 -91 
Q 1894 -91 1617 61 
Q 1341 213 1159 525 
z
M 3116 1747 
Q 3116 2381 2855 2742 
Q 2594 3103 2138 3103 
Q 1681 3103 1420 2742 
Q 1159 2381 1159 1747 
Q 1159 1113 1420 752 
Q 1681 391 2138 391 
Q 2594 391 2855 752 
Q 3116 1113 3116 1747 
z
" transform="scale(0.015625)"/>
      <path id="DejaVuSans-2c" d="M 750 794 
L 1409 794 
L 1409 256 
L 897 -744 
L 494 -744 
L 750 256 
L 750 794 
z
" transform="scale(0.015625)"/>
      <path id="DejaVuSans-b1" d="M 2944 4013 
L 2944 2803 
L 4684 2803 
L 4684 2272 
L 2944 2272 
L 2944 1063 
L 2419 1063 
L 2419 2272 
L 678 2272 
L 678 2803 
L 2419 2803 
L 2419 4013 
L 2944 4013 
z
M 678 531 
L 4684 531 
L 4684 0 
L 678 0 
L 678 531 
z
" transform="scale(0.015625)"/>
      <path id="DejaVuSans-44" d="M 1259 4147 
L 1259 519 
L 2022 519 
Q 2988 519 3436 956 
Q 3884 1394 3884 2338 
Q 3884 3275 3436 3711 
Q 2988 4147 2022 4147 
L 1259 4147 
z
M 628 4666 
L 1925 4666 
Q 3281 4666 3915 4102 
Q 4550 3538 4550 2338 
Q 4550 1131 3912 565 
Q 3275 0 1925 0 
L 628 0 
L 628 4666 
z
" transform="scale(0.015625)"/>
     </defs>
     <use xlink:href="#DejaVuSans-48"/>
     <use xlink:href="#DejaVuSans-53" x="75.195312"/>
     <use xlink:href="#DejaVuSans-20" x="138.671875"/>
     <use xlink:href="#DejaVuSans-62" x="170.458984"/>
     <use xlink:href="#DejaVuSans-69" x="233.935547"/>
     <use xlink:href="#DejaVuSans-6e" x="261.71875"/>
     <use xlink:href="#DejaVuSans-64" x="325.097656"/>
     <use xlink:href="#DejaVuSans-69" x="388.574219"/>
     <use xlink:href="#DejaVuSans-6e" x="416.357422"/>
     <use xlink:href="#DejaVuSans-67" x="479.736328"/>
     <use xlink:href="#DejaVuSans-20" x="543.212891"/>
     <use xlink:href="#DejaVuSans-61" x="575"/>
     <use xlink:href="#DejaVuSans-6c" x="636.279297"/>
     <use xlink:href="#DejaVuSans-6f" x="664.0625"/>
     <use xlink:href="#DejaVuSans-6e" x="725.244141"/>
     <use xlink:href="#DejaVuSans-67" x="788.623047"/>
     <use xlink:href="#DejaVuSans-20" x="852.099609"/>
     <use xlink:href="#DejaVuSans-54" x="883.886719"/>
     <use xlink:href="#DejaVuSans-61" x="928.470703"/>
     <use xlink:href="#DejaVuSans-75" x="989.75"/>
     <use xlink:href="#DejaVuSans-20" x="1053.128906"/>
     <use xlink:href="#DejaVuSans-28" x="1084.916016"/>
     <use xlink:href="#DejaVuSans-73" x="1123.929688"/>
     <use xlink:href="#DejaVuSans-63" x="1176.029297"/>
     <use xlink:href="#DejaVuSans-72" x="1231.009766"/>
     <use xlink:href="#DejaVuSans-65" x="1269.873047"/>
     <use xlink:href="#DejaVuSans-65" x="1331.396484"/>
     <use xlink:href="#DejaVuSans-6e" x="1392.919922"/>
     <use xlink:href="#DejaVuSans-65" x="1456.298828"/>
     <use xlink:href="#DejaVuSans-64" x="1517.822266"/>
     <use xlink:href="#DejaVuSans-20" x="1581.298828"/>
     <use xlink:href="#DejaVuSans-69" x="1613.085938"/>
     <use xlink:href="#DejaVuSans-6e" x="1640.869141"/>
     <use xlink:href="#DejaVuSans-74" x="1704.248047"/>
     <use xlink:href="#DejaVuSans-65" x="1743.457031"/>
     <use xlink:href="#DejaVuSans-72" x="1804.980469"/>
     <use xlink:href="#DejaVuSans-61" x="1846.09375"/>
     <use xlink:href="#DejaVuSans-63" x="1907.373047"/>
     <use xlink:href="#DejaVuSans-74" x="1962.353516"/>
     <use xlink:href="#DejaVuSans-69" x="2001.5625"/>
     <use xlink:href="#DejaVuSans-6f" x="2029.345703"/>
     <use xlink:href="#DejaVuSans-6e" x="2090.527344"/>
     <use xlink:href="#DejaVuSans-20" x="2153.90625"/>
     <use xlink:href="#DejaVuSans-65" x="2185.693359"/>
     <use xlink:href="#DejaVuSans-6e" x="2247.216797"/>
     <use xlink:href="#DejaVuSans-65" x="2310.595703"/>
     <use xlink:href="#DejaVuSans-72" x="2372.119141"/>
     <use xlink:href="#DejaVuSans-67" x="2411.482422"/>
     <use xlink:href="#DejaVuSans-79" x="2474.958984"/>
     <use xlink:href="#DejaVuSans-29" x="2534.138672"/>
     <use xlink:href="#DejaVuSans-20" x="2573.152344"/>
     <use xlink:href="#DejaVuSans-2014" x="2604.939453"/>
     <use xlink:href="#DejaVuSans-20" x="2704.939453"/>
     <use xlink:href="#DejaVuSans-33" x="2736.726562"/>
     <use xlink:href="#DejaVuSans-20" x="2800.349609"/>
     <use xlink:href="#DejaVuSans-72" x="2832.136719"/>
     <use xlink:href="#DejaVuSans-65" x="2871"/>
     <use xlink:href="#DejaVuSans-70" x="2932.523438"/>
     <use xlink:href="#DejaVuSans-6c" x="2996"/>
     <use xlink:href="#DejaVuSans-69" x="3023.783203"/>
     <use xlink:href="#DejaVuSans-63" x="3051.566406"/>
     <use xlink:href="#DejaVuSans-61" x="3106.546875"/>
     <use xlink:href="#DejaVuSans-73" x="3167.826172"/>
     <use xlink:href="#DejaVuSans-2f" x="3219.925781"/>
     <use xlink:href="#DejaVuSans-73" x="3253.617188"/>
     <use xlink:href="#DejaVuSans-65" x="3305.716797"/>
     <use xlink:href="#DejaVuSans-67" x="3367.240234"/>
     <use xlink:href="#DejaVuSans-6d" x="3430.716797"/>
     <use xlink:href="#DejaVuSans-65" x="3528.128906"/>
     <use xlink:href="#DejaVuSans-6e" x="3589.652344"/>
     <use xlink:href="#DejaVuSans-74" x="3653.03125"/>
     <use xlink:href="#DejaVuSans-2c" x="3692.240234"/>
     <use xlink:href="#DejaVuSans-20" x="3724.027344"/>
     <use xlink:href="#DejaVuSans-6d" x="3755.814453"/>
     <use xlink:href="#DejaVuSans-65" x="3853.226562"/>
     <use xlink:href="#DejaVuSans-61" x="3914.75"/>
     <use xlink:href="#DejaVuSans-6e" x="3976.029297"/>
     <use xlink:href="#DejaVuSans-20" x="4039.408203"/>
     <use xlink:href="#DejaVuSans-b1" x="4071.195312"/>
     <use xlink:href="#DejaVuSans-20" x="4154.984375"/>
     <use xlink:href="#DejaVuSans-53" x="4186.771484"/>
     <use xlink:href="#DejaVuSans-44" x="4250.248047"/>
    </g>
   </g>
   <g id="PathCollection_1">
    <defs>
     <path id="m27d20f5df0" d="M 0 1.870829 
C 0.49615 1.870829 0.972045 1.673706 1.322876 1.322876 
C 1.673706 0.972045 1.870829 0.49615 1.870829 0 
C 1.870829 -0.49615 1.673706 -0.972045 1.322876 -1.322876 
C 0.972045 -1.673706 0.49615 -1.870829 0 -1.870829 
C -0.49615 -1.870829 -0.972045 -1.673706 -1.322876 -1.322876 
C -1.673706 -0.972045 -1.870829 -0.49615 -1.870829 0 
C -1.870829 0.49615 -1.673706 0.972045 -1.322876 1.322876 
C -0.972045 1.673706 -0.49615 1.870829 0 1.870829 
z
" style="stroke: #c0392b"/>
    </defs>
    <g clip-path="url(#p96c72925f7)">
     <use xlink:href="#m27d20f5df0" x="673.984054" y="178.788146" style="fill: #c0392b; stroke: #c0392b"/>
    </g>
   </g>
   <g id="PathCollection_2">
    <g clip-path="url(#p96c72925f7)">
     <use xlink:href="#m27d20f5df0" x="758.484955" y="175.190133" style="fill: #c0392b; stroke: #c0392b"/>
    </g>
   </g>
   <g id="PathCollection_3">
    <g clip-path="url(#p96c72925f7)">
     <use xlink:href="#m27d20f5df0" x="536.67009" y="164.735175" style="fill: #c0392b; stroke: #c0392b"/>
    </g>
   </g>
   <g id="PathCollection_4">
    <g clip-path="url(#p96c72925f7)">
     <use xlink:href="#m27d20f5df0" x="627.508559" y="164.118666" style="fill: #c0392b; stroke: #c0392b"/>
    </g>
   </g>
   <g id="PathCollection_5">
    <g clip-path="url(#p96c72925f7)">
     <use xlink:href="#m27d20f5df0" x="695.109279" y="163.481608" style="fill: #c0392b; stroke: #c0392b"/>
    </g>
   </g>
   <g id="PathCollection_6">
    <g clip-path="url(#p96c72925f7)">
     <use xlink:href="#m27d20f5df0" x="631.733604" y="163.115127" style="fill: #c0392b; stroke: #c0392b"/>
    </g>
   </g>
   <g id="PathCollection_7">
    <g clip-path="url(#p96c72925f7)">
     <use xlink:href="#m27d20f5df0" x="259.92964" y="159.404088" style="fill: #c0392b; stroke: #c0392b"/>
    </g>
   </g>
   <g id="PathCollection_8">
    <g clip-path="url(#p96c72925f7)">
     <use xlink:href="#m27d20f5df0" x="654.971351" y="156.342096" style="fill: #c0392b; stroke: #c0392b"/>
    </g>
   </g>
   <g id="PathCollection_9">
    <g clip-path="url(#p96c72925f7)">
     <use xlink:href="#m27d20f5df0" x="718.347027" y="153.768172" style="fill: #c0392b; stroke: #c0392b"/>
    </g>
   </g>
   <g id="legend_1">
    <g id="patch_19">
     <path d="M 886.30875 56.765 
L 991.6 56.765 
Q 993.2 56.765 993.2 55.165 
L 993.2 32.48 
Q 993.2 30.88 991.6 30.88 
L 886.30875 30.88 
Q 884.70875 30.88 884.70875 32.48 
L 884.70875 55.165 
Q 884.70875 56.765 886.30875 56.765 
z
" style="fill: #ffffff; opacity: 0.9; stroke: #cccccc; stroke-linejoin: miter"/>
    </g>
    <g id="patch_20">
     <path d="M 887.90875 40.15875 
L 903.90875 40.15875 
L 903.90875 34.55875 
L 887.90875 34.55875 
z
" style="fill: #888888; fill-opacity: 0.25"/>
    </g>
    <g id="text_34">
     <!-- ±SD across replicas -->
     <g transform="translate(910.30875 40.15875) scale(0.08 -0.08)">
      <use xlink:href="#DejaVuSans-b1"/>
      <use xlink:href="#DejaVuSans-53" x="83.789062"/>
      <use xlink:href="#DejaVuSans-44" x="147.265625"/>
      <use xlink:href="#DejaVuSans-20" x="224.267578"/>
      <use xlink:href="#DejaVuSans-61" x="256.054688"/>
      <use xlink:href="#DejaVuSans-63" x="317.333984"/>
      <use xlink:href="#DejaVuSans-72" x="372.314453"/>
      <use xlink:href="#DejaVuSans-6f" x="411.177734"/>
      <use xlink:href="#DejaVuSans-73" x="472.359375"/>
      <use xlink:href="#DejaVuSans-73" x="524.458984"/>
      <use xlink:href="#DejaVuSans-20" x="576.558594"/>
      <use xlink:href="#DejaVuSans-72" x="608.345703"/>
      <use xlink:href="#DejaVuSans-65" x="647.208984"/>
      <use xlink:href="#DejaVuSans-70" x="708.732422"/>
      <use xlink:href="#DejaVuSans-6c" x="772.208984"/>
      <use xlink:href="#DejaVuSans-69" x="799.992188"/>
      <use xlink:href="#DejaVuSans-63" x="827.775391"/>
      <use xlink:href="#DejaVuSans-61" x="882.755859"/>
      <use xlink:href="#DejaVuSans-73" x="944.035156"/>
     </g>
    </g>
    <g id="line2d_19">
     <path d="M 887.90875 49.10125 
L 895.90875 49.10125 
L 903.90875 49.10125 
" style="fill: none; stroke: #111111; stroke-width: 1.1; stroke-linecap: square"/>
    </g>
    <g id="text_35">
     <!-- replica mean -->
     <g transform="translate(910.30875 51.90125) scale(0.08 -0.08)">
      <use xlink:href="#DejaVuSans-72"/>
      <use xlink:href="#DejaVuSans-65" x="38.863281"/>
      <use xlink:href="#DejaVuSans-70" x="100.386719"/>
      <use xlink:href="#DejaVuSans-6c" x="163.863281"/>
      <use xlink:href="#DejaVuSans-69" x="191.646484"/>
      <use xlink:href="#DejaVuSans-63" x="219.429688"/>
      <use xlink:href="#DejaVuSans-61" x="274.410156"/>
      <use xlink:href="#DejaVuSans-20" x="335.689453"/>
      <use xlink:href="#DejaVuSans-6d" x="367.476562"/>
      <use xlink:href="#DejaVuSans-65" x="464.888672"/>
      <use xlink:href="#DejaVuSans-61" x="526.412109"/>
      <use xlink:href="#DejaVuSans-6e" x="587.691406"/>
     </g>
    </g>
   </g>
  </g>
 </g>
 <defs>
  <clipPath id="p96c72925f7">
   <rect x="59.24" y="26.88" width="937.96" height="233.56"/>
  </clipPath>
 </defs>
</svg>
