<?xml version="1.0" encoding="utf-8" standalone="no"?>
<!DOCTYPE svg PUBLIC "-//W3C//DTD SVG 1.1//EN"
  "http://www.w3.org/Graphics/SVG/1.1/DTD/svg11.dtd">
<svg xmlns:xlink="http://www.w3.org/1999/xlink" width="1008pt" height="302.4pt" viewBox="0 0 1008 302.4" xmlns="http://www.w3.org/2000/svg" version="1.1">
 <metadata>
  <rdf:RDF xmlns:dc="http://purl.org/dc/elements/1.1/" xmlns:cc="http://creativecommons.org/ns#" xmlns:rdf="http://www.w3.org/1999/02/22-rdf-syntax-ns#">
   <cc:Work>
    <dc:type rdf:resource="http://purl.org/dc/dcmitype/StillImage"/>
    <dc:date>2026-06-09T09:11:39.707685</dc:date>
    <dc:format>image/svg+xml</dc:format>
    <dc:creator>
     <cc:Agent>
      <dc:title>Matplotlib v3.9.3, https://matplotlib.org/</dc:title>
     </cc:Agent>
    </dc:creator>
   </cc:Work>
  </rdf:RDF>
 </metadata>
 <defs>
  <style type="text/css">*{stroke-linejoin: round; stroke-linecap: butt}</style>
 </defs>
 <g id="figure_1">
  <g id="patch_1">
   <path d="M 0 302.4 
L 1008 302.4 
L 1008 0 
L 0 0 
z
" style="fill: #ffffff"/>
  </g>
  <g id="axes_1">
   <g id="patch_2">
    <path d="M 59.24 260.44 
L 997.2 260.44 
L 997.2 26.88 
L 59.24 26.88 
z
" style="fill: #ffffff"/>
   </g>
   <g id="patch_3">
    <path d="M 62.408784 260.44 
L 250.423288 260.44 
L 250.423288 26.88 
L 62.408784 26.88 
z
" clip-path="url(#p07c366bf53)" style="fill: #4477aa; opacity: 0.08; stroke: #4477aa; stroke-linejoin: miter"/>
   </g>
   <g id="patch_4">
    <path d="M 250.423288 260.44 
L 436.32527 260.44 
L 436.32527 26.88 
L 250.423288 26.88 
z
" clip-path="url(#p07c366bf53)" style="fill: #66ccee; opacity: 0.08; stroke: #66ccee; stroke-linejoin: miter"/>
   </g>
   <g id="patch_5">
    <path d="M 436.32527 260.44 
L 622.227252 260.44 
L 622.227252 26.88 
L 436.32527 26.88 
z
" clip-path="url(#p07c366bf53)" style="fill: #228833; opacity: 0.08; stroke: #228833; stroke-linejoin: miter"/>
   </g>
   <g id="patch_6">
    <path d="M 622.227252 260.44 
L 808.129234 260.44 
L 808.129234 26.88 
L 622.227252 26.88 
z
" clip-path="url(#p07c366bf53)" style="fill: #ccbb44; opacity: 0.08; stroke: #ccbb44; stroke-linejoin: miter"/>
   </g>
   <g id="patch_7">
    <path d="M 808.129234 260.44 
L 994.031216 260.44 
L 994.031216 26.88 
L 808.129234 26.88 
z
" clip-path="url(#p07c366bf53)" style="fill: #ee6677; opacity: 0.08; stroke: #ee6677; stroke-linejoin: miter"/>
   </g>
   <g id="PolyCollection_1">
    <defs>
     <path id="m123f4badb0" d="M 63.465045 -195.65219 
L 63.465045 -189.033335 
L 65.577568 -207.600714 
L 67.69009 -215.114981 
L 69.802613 -207.347328 
L 71.915135 -163.749512 
L 74.027658 -204.000235 
L 76.14018 -214.192177 
L 78.252703 -205.888646 
L 80.365225 -211.872324 
L 82.477748 -206.311527 
L 84.59027 -209.011458 
L 86.702793 -213.094741 
L 88.815315 -217.023937 
L 90.927838 -175.091963 
L 93.04036 -205.616427 
L 95.152883 -204.777514 
L 97.265405 -203.380466 
L 99.377928 -203.320544 
L 101.49045 -205.024051 
L 103.602973 -205.698606 
L 105.715495 -205.878373 
L 107.828018 -215.844322 
L 109.940541 -174.283867 
L 112.053063 -179.022872 
L 114.165586 -215.414593 
L 116.278108 -201.308863 
L 118.390631 -204.257045 
L 120.503153 -204.645684 
L 122.615676 -202.808635 
L 124.728198 -205.827011 
L 126.840721 -206.811451 
L 128.953243 -181.138988 
L 131.065766 -204.59261 
L 133.178288 -216.356231 
L 135.290811 -175.504572 
L 137.403333 -209.55076 
L 139.515856 -204.072142 
L 141.628378 -210.32119 
L 143.740901 -203.806771 
L 145.853423 -214.373656 
L 147.965946 -205.880086 
L 150.078468 -204.623427 
L 152.190991 -205.224363 
L 154.303514 -182.6302 
L 156.416036 -216.145646 
L 158.528559 -203.01922 
L 160.641081 -204.825452 
L 162.753604 -204.465917 
L 164.866126 -203.056885 
L 166.978649 -202.012523 
L 169.091171 -205.325375 
L 171.203694 -203.062021 
L 173.316216 -215.385488 
L 175.428739 -212.695829 
L 177.541261 -204.67479 
L 179.653784 -202.993539 
L 181.766306 -211.154968 
L 183.878829 -210.932399 
L 185.991351 -206.118063 
L 188.103874 -204.787786 
L 190.216396 -206.316663 
L 192.328919 -215.17148 
L 194.441441 -204.827164 
L 196.553964 -204.767241 
L 198.666486 -181.775877 
L 200.779009 -204.149185 
L 202.891532 -182.453856 
L 205.004054 -206.18997 
L 207.116577 -203.139064 
L 209.229099 -204.491598 
L 211.341622 -202.988402 
L 213.454144 -204.238212 
L 215.566667 -214.402761 
L 217.679189 -213.928518 
L 219.791712 -205.690046 
L 221.904234 -204.912767 
L 224.016757 -204.527552 
L 226.129279 -204.423116 
L 228.241802 -205.893782 
L 230.354324 -205.838996 
L 232.466847 -207.634955 
L 234.579369 -208.129743 
L 236.691892 -204.594322 
L 238.804414 -203.344513 
L 240.916937 -204.994946 
L 243.029459 -205.868101 
L 245.141982 -164.653484 
L 247.254505 -203.512295 
L 249.367027 -206.023899 
L 251.47955 -207.561336 
L 253.592072 -207.035732 
L 255.704595 -206.826859 
L 257.817117 -206.989506 
L 259.92964 -133.319212 
L 262.042162 -200.779834 
L 264.154685 -216.001833 
L 266.267207 -203.192138 
L 268.37973 -203.436964 
L 270.492252 -216.881836 
L 272.604775 -206.395418 
L 274.717297 -202.575794 
L 276.82982 -200.663414 
L 278.942342 -203.173306 
L 281.054865 -212.750615 
L 283.167387 -213.531318 
L 285.27991 -204.695334 
L 287.392432 -204.775802 
L 289.504955 -202.736728 
L 291.617477 -203.08599 
L 293.73 -214.222994 
L 295.842523 -201.315712 
L 297.955045 -204.416267 
L 300.067568 -202.42342 
L 302.18009 -203.686926 
L 304.292613 -213.051939 
L 306.405135 -213.675132 
L 308.517658 -212.524622 
L 310.63018 -205.987946 
L 312.742703 -206.256741 
L 314.855225 -208.073245 
L 316.967748 -172.181447 
L 319.08027 -206.393706 
L 321.192793 -204.953857 
L 323.305315 -154.379362 
L 325.417838 -205.64382 
L 327.53036 -176.845121 
L 329.642883 -205.472613 
L 331.755405 -206.183122 
L 333.867928 -203.323968 
L 335.98045 -167.935518 
L 338.092973 -205.277438 
L 340.205495 -185.811222 
L 342.318018 -214.897549 
L 344.430541 -204.988098 
L 346.543063 -204.056733 
L 348.655586 -204.411131 
L 350.768108 -204.945296 
L 352.880631 -211.95964 
L 354.993153 -213.925094 
L 357.105676 -180.926692 
L 359.218198 -181.873465 
L 361.330721 -206.09067 
L 363.443243 -184.664137 
L 365.555766 -205.489734 
L 367.668288 -205.575337 
L 369.780811 -219.105812 
L 371.893333 -205.133624 
L 374.005856 -157.637428 
L 376.118378 -205.64382 
L 378.230901 -175.169006 
L 380.343423 -208.114335 
L 382.455946 -208.199938 
L 384.568468 -205.037748 
L 386.680991 -155.759289 
L 388.793514 -169.217857 
L 390.906036 -201.560537 
L 393.018559 -204.558369 
L 395.131081 -206.232772 
L 397.243604 -204.173154 
L 399.356126 -206.342344 
L 401.468649 -204.722727 
L 403.581171 -203.431828 
L 405.693694 -171.878411 
L 407.806216 -204.613155 
L 409.918739 -204.303271 
L 412.031261 -204.541248 
L 414.143784 -202.243653 
L 416.256306 -203.962569 
L 418.368829 -203.799923 
L 420.481351 -175.530253 
L 422.593874 -203.782802 
L 424.706396 -205.691758 
L 426.818919 -205.719151 
L 428.931441 -172.867987 
L 431.043964 -205.902342 
L 433.156486 -205.133624 
L 435.269009 -204.799771 
L 437.381532 -207.679469 
L 439.494054 -207.626395 
L 441.606577 -191.317234 
L 443.719099 -206.323511 
L 445.831622 -203.512295 
L 447.944144 -204.911055 
L 450.056667 -201.849877 
L 452.169189 -204.750121 
L 454.281712 -204.765529 
L 456.394234 -221.252746 
L 458.506757 -206.53752 
L 460.619279 -201.88583 
L 462.731802 -140.311298 
L 464.844324 -204.488174 
L 466.956847 -206.135184 
L 469.069369 -224.033145 
L 471.181892 -151.706824 
L 473.294414 -202.702487 
L 475.406937 -202.568946 
L 477.519459 -196.953362 
L 479.631982 -194.902304 
L 481.744505 -199.542009 
L 483.857027 -203.539688 
L 485.96955 -198.107296 
L 488.082072 -198.711656 
L 490.194595 -204.330664 
L 492.307117 -205.99137 
L 494.41964 -201.700927 
L 496.532162 -199.387923 
L 498.644685 -201.714624 
L 500.757207 -207.20009 
L 502.86973 -187.393173 
L 504.982252 -204.48475 
L 507.094775 -182.522339 
L 509.207297 -200.017964 
L 511.31982 -202.505599 
L 513.432342 -201.76941 
L 515.544865 -205.568489 
L 517.657387 -203.250349 
L 519.76991 -200.771274 
L 521.882432 -205.077126 
L 523.994955 -203.995098 
L 526.107477 -195.068375 
L 528.22 -167.983456 
L 530.332523 -227.575414 
L 532.445045 -203.269182 
L 534.557568 -111.365361 
L 536.67009 -99.760963 
L 538.782613 -206.325223 
L 540.895135 -203.748561 
L 543.007658 -201.637581 
L 545.12018 -205.93316 
L 547.232703 -147.760507 
L 549.345225 -206.039308 
L 551.457748 -206.451916 
L 553.57027 -206.361177 
L 555.682793 -163.850524 
L 557.795315 -202.488478 
L 559.907838 -203.248637 
L 562.02036 -201.375634 
L 564.132883 -202.865133 
L 566.245405 -205.061717 
L 568.357928 -155.274774 
L 570.47045 -201.389331 
L 572.582973 -163.419082 
L 574.695495 -204.364905 
L 576.808018 -201.587931 
L 578.920541 -204.281014 
L 581.033063 -204.599459 
L 583.145586 -204.760393 
L 585.258108 -208.4499 
L 587.370631 -206.087246 
L 589.483153 -205.320239 
L 591.595676 -206.457053 
L 593.708198 -210.05582 
L 595.820721 -206.056429 
L 597.933243 -186.182741 
L 600.045766 -205.803042 
L 602.158288 -206.549504 
L 604.270811 -189.560652 
L 606.383333 -205.630124 
L 608.495856 -190.517698 
L 610.608378 -206.034172 
L 612.720901 -205.597594 
L 614.833423 -205.092534 
L 616.945946 -205.234636 
L 619.058468 -207.741104 
L 621.170991 -205.263741 
L 623.283514 -206.260165 
L 625.396036 -193.645646 
L 627.508559 -52.576364 
L 629.621081 -204.17829 
L 631.733604 -137.898994 
L 633.846126 -203.6407 
L 635.958649 -191.12377 
L 638.071171 -186.855584 
L 640.183694 -130.711732 
L 642.296216 -197.213596 
L 644.408739 -203.983114 
L 646.521261 -196.742778 
L 648.633784 -199.362242 
L 650.746306 -201.726608 
L 652.858829 -166.452867 
L 654.971351 -122.028122 
L 657.083874 -203.397587 
L 659.196396 -216.179888 
L 661.308919 -204.608019 
L 663.421441 -203.120232 
L 665.533964 -200.208004 
L 667.646486 -203.965993 
L 669.759009 -191.457623 
L 671.871532 -198.482239 
L 673.984054 -56.426805 
L 676.096577 -203.243501 
L 678.209099 -204.657669 
L 680.321622 -204.138912 
L 682.434144 -127.919348 
L 684.546667 -217.263627 
L 686.659189 -201.271198 
L 688.771712 -208.521807 
L 690.884234 -161.946704 
L 692.996757 -181.19035 
L 695.109279 -134.945676 
L 697.221802 -205.691758 
L 699.334324 -204.9316 
L 701.446847 -205.582186 
L 703.559369 -204.126928 
L 705.671892 -200.139521 
L 707.784414 -205.029188 
L 709.896937 -200.062478 
L 712.009459 -204.001947 
L 714.121982 -203.971129 
L 716.234505 -203.77253 
L 718.347027 -138.001718 
L 720.45955 -205.049732 
L 722.572072 -204.856269 
L 724.684595 -209.478853 
L 726.797117 -205.496582 
L 728.90964 -204.217667 
L 731.022162 -165.302357 
L 733.134685 -204.423116 
L 735.247207 -203.274318 
L 737.35973 -202.416572 
L 739.472252 -156.300303 
L 741.584775 -203.786226 
L 743.697297 -204.935024 
L 745.80982 -201.411588 
L 747.922342 -202.087854 
L 750.034865 -204.664517 
L 752.147387 -204.532688 
L 754.25991 -206.797754 
L 756.372432 -165.6773 
L 758.484955 -112.402874 
L 760.597477 -167.011001 
L 762.71 -205.29627 
L 764.822523 -203.909495 
L 766.935045 -203.421556 
L 769.047568 -205.107943 
L 771.16009 -204.866541 
L 773.272613 -205.183274 
L 775.385135 -207.585305 
L 777.497658 -205.862965 
L 779.61018 -187.999245 
L 781.722703 -205.438372 
L 783.835225 -207.564761 
L 785.947748 -183.246544 
L 788.06027 -205.501718 
L 790.172793 -207.917447 
L 792.285315 -204.548096 
L 794.397838 -184.850752 
L 796.51036 -207.438068 
L 798.622883 -166.389521 
L 800.735405 -204.733 
L 802.847928 -204.399147 
L 804.96045 -204.645684 
L 807.072973 -192.609845 
L 809.185495 -207.465461 
L 811.298018 -206.318375 
L 813.410541 -205.309967 
L 815.523063 -206.434796 
L 817.635586 -174.093828 
L 819.748108 -203.224668 
L 821.860631 -204.067005 
L 823.973153 -204.822027 
L 826.085676 -139.70009 
L 828.198198 -204.231364 
L 830.310721 -204.474478 
L 832.423243 -201.33112 
L 834.535766 -202.832604 
L 836.648288 -202.502175 
L 838.760811 -198.956482 
L 840.873333 -149.222613 
L 842.985856 -160.335648 
L 845.098378 -206.475885 
L 847.210901 -212.15824 
L 849.323423 -198.526753 
L 851.435946 -121.531622 
L 853.548468 -124.669843 
L 855.660991 -202.613459 
L 857.773514 -196.112737 
L 859.886036 -204.263893 
L 861.998559 -162.561336 
L 864.111081 -217.037634 
L 866.223604 -200.661702 
L 868.336126 -202.603187 
L 870.448649 -163.824843 
L 872.561171 -205.248332 
L 874.673694 -163.405386 
L 876.786216 -204.14576 
L 878.898739 -217.537558 
L 881.011261 -141.446399 
L 883.123784 -205.04802 
L 885.236306 -205.400706 
L 887.348829 -209.800722 
L 889.461351 -205.239772 
L 891.573874 -205.517127 
L 893.686396 -206.994642 
L 895.798919 -179.461161 
L 897.911441 -202.514159 
L 900.023964 -204.979538 
L 902.136486 -206.102654 
L 904.249009 -202.668246 
L 906.361532 -201.12396 
L 908.474054 -202.842877 
L 910.586577 -216.07374 
L 912.699099 -202.634004 
L 914.811622 -206.236196 
L 916.924144 -206.547792 
L 919.036667 -160.484597 
L 921.149189 -165.004458 
L 923.261712 -204.661093 
L 925.374234 -201.070886 
L 927.486757 -202.536416 
L 929.599279 -203.313695 
L 931.711802 -202.087854 
L 933.824324 -201.106839 
L 935.936847 -205.034324 
L 938.049369 -206.056429 
L 940.161892 -204.582338 
L 942.274414 -206.135184 
L 944.386937 -172.066739 
L 946.499459 -204.74156 
L 948.611982 -204.941872 
L 950.724505 -205.912615 
L 952.837027 -203.229804 
L 954.94955 -205.304831 
L 957.062072 -205.75168 
L 959.174595 -204.308407 
L 961.287117 -205.938296 
L 963.39964 -205.154169 
L 965.512162 -205.791058 
L 967.624685 -205.758529 
L 969.737207 -205.150744 
L 971.84973 -206.94328 
L 973.962252 -204.690198 
L 976.074775 -200.636021 
L 978.187297 -205.493158 
L 980.29982 -204.099535 
L 982.412342 -205.517127 
L 984.524865 -204.815179 
L 986.637387 -183.934795 
L 988.74991 -203.635564 
L 990.862432 -205.823587 
L 992.974955 -206.409115 
L 992.974955 -224.498827 
L 992.974955 -224.498827 
L 990.862432 -206.857676 
L 988.74991 -207.193242 
L 986.637387 -208.294102 
L 984.524865 -206.886782 
L 982.412342 -206.886782 
L 980.29982 -206.968961 
L 978.187297 -206.873085 
L 976.074775 -206.898766 
L 973.962252 -206.70359 
L 971.84973 -221.619128 
L 969.737207 -219.429393 
L 967.624685 -206.754952 
L 965.512162 -206.729271 
L 963.39964 -206.907326 
L 961.287117 -206.756664 
L 959.174595 -206.684758 
L 957.062072 -208.473869 
L 954.94955 -206.838844 
L 952.837027 -207.359312 
L 950.724505 -218.081996 
L 948.611982 -207.078533 
L 946.499459 -206.768649 
L 944.386937 -180.877042 
L 942.274414 -208.371145 
L 940.161892 -208.20165 
L 938.049369 -207.771921 
L 935.936847 -208.170833 
L 933.824324 -206.294406 
L 931.711802 -205.957129 
L 929.599279 -206.316663 
L 927.486757 -205.053157 
L 925.374234 -206.665925 
L 923.261712 -205.965689 
L 921.149189 -191.144315 
L 919.036667 -201.639293 
L 916.924144 -207.184681 
L 914.811622 -206.931295 
L 912.699099 -205.366465 
L 910.586577 -233.718314 
L 908.474054 -204.743272 
L 906.361532 -204.233076 
L 904.249009 -207.174409 
L 902.136486 -206.650516 
L 900.023964 -206.311527 
L 897.911441 -205.058293 
L 895.798919 -201.861861 
L 893.686396 -208.015035 
L 891.573874 -206.845692 
L 889.461351 -206.14032 
L 887.348829 -219.580055 
L 885.236306 -206.777209 
L 883.123784 -207.013475 
L 881.011261 -157.033068 
L 878.898739 -229.672697 
L 876.786216 -208.908734 
L 874.673694 -176.550645 
L 872.561171 -207.135032 
L 870.448649 -170.673115 
L 868.336126 -206.191682 
L 866.223604 -203.606459 
L 864.111081 -236.959259 
L 861.998559 -185.424295 
L 859.886036 -205.760241 
L 857.773514 -205.39557 
L 855.660991 -206.126623 
L 853.548468 -194.587284 
L 851.435946 -199.636173 
L 849.323423 -206.525535 
L 847.210901 -234.493881 
L 845.098378 -207.112775 
L 842.985856 -196.422621 
L 840.873333 -197.410484 
L 838.760811 -206.479309 
L 836.648288 -206.104366 
L 834.535766 -205.558217 
L 832.423243 -205.960553 
L 830.310721 -208.501262 
L 828.198198 -207.035732 
L 826.085676 -193.417941 
L 823.973153 -206.19853 
L 821.860631 -206.200242 
L 819.748108 -205.655805 
L 817.635586 -197.460134 
L 815.523063 -207.920871 
L 813.410541 -207.658924 
L 811.298018 -207.70515 
L 809.185495 -208.078381 
L 807.072973 -206.28927 
L 804.96045 -206.960401 
L 802.847928 -206.78577 
L 800.735405 -206.818299 
L 798.622883 -205.948568 
L 796.51036 -217.255067 
L 794.397838 -205.357905 
L 792.285315 -206.931295 
L 790.172793 -223.750653 
L 788.06027 -206.792618 
L 785.947748 -206.571761 
L 783.835225 -216.994832 
L 781.722703 -206.838844 
L 779.61018 -205.821875 
L 777.497658 -206.780633 
L 775.385135 -217.659115 
L 773.272613 -206.741256 
L 771.16009 -208.413946 
L 769.047568 -206.977521 
L 766.935045 -206.63682 
L 764.822523 -206.734408 
L 762.71 -206.737832 
L 760.597477 -204.72444 
L 758.484955 -141.966868 
L 756.372432 -205.575337 
L 754.25991 -209.026867 
L 752.147387 -208.278693 
L 750.034865 -208.297526 
L 747.922342 -206.566625 
L 745.80982 -206.516975 
L 743.697297 -207.040868 
L 741.584775 -206.967249 
L 739.472252 -203.327392 
L 737.35973 -206.443356 
L 735.247207 -206.551216 
L 733.134685 -206.621411 
L 731.022162 -204.097823 
L 728.90964 -206.570049 
L 726.797117 -206.249892 
L 724.684595 -228.369813 
L 722.572072 -205.732848 
L 720.45955 -205.936584 
L 718.347027 -158.522567 
L 716.234505 -205.292846 
L 714.121982 -207.614411 
L 712.009459 -205.580474 
L 709.896937 -205.38701 
L 707.784414 -210.497533 
L 705.671892 -204.731288 
L 703.559369 -205.808179 
L 701.446847 -206.688182 
L 699.334324 -207.030595 
L 697.221802 -207.10935 
L 695.109279 -143.030062 
L 692.996757 -199.25267 
L 690.884234 -178.344893 
L 688.771712 -209.583289 
L 686.659189 -206.407403 
L 684.546667 -264.903636 
L 682.434144 -183.451992 
L 680.321622 -204.62514 
L 678.209099 -208.157136 
L 676.096577 -209.461732 
L 673.984054 -189.961276 
L 671.871532 -202.570658 
L 669.759009 -202.387466 
L 667.646486 -205.24662 
L 665.533964 -205.529112 
L 663.421441 -204.465917 
L 661.308919 -205.987946 
L 659.196396 -223.237033 
L 657.083874 -205.150744 
L 654.971351 -169.17848 
L 652.858829 -177.177262 
L 650.746306 -203.253773 
L 648.633784 -206.183122 
L 646.521261 -207.244604 
L 644.408739 -206.08211 
L 642.296216 -207.516823 
L 640.183694 -183.50849 
L 638.071171 -210.153408 
L 635.958649 -208.326631 
L 633.846126 -205.958841 
L 631.733604 -140.830055 
L 629.621081 -208.078381 
L 627.508559 -223.598279 
L 625.396036 -194.936546 
L 623.283514 -207.670909 
L 621.170991 -206.763513 
L 619.058468 -214.044939 
L 616.945946 -206.717287 
L 614.833423 -206.417675 
L 612.720901 -206.470749 
L 610.608378 -206.606002 
L 608.495856 -201.33112 
L 606.383333 -205.818451 
L 604.270811 -204.19541 
L 602.158288 -206.751528 
L 600.045766 -206.556352 
L 597.933243 -200.533297 
L 595.820721 -207.059701 
L 593.708198 -214.216146 
L 591.595676 -207.114487 
L 589.483153 -206.224211 
L 587.370631 -206.525535 
L 585.258108 -209.199786 
L 583.145586 -205.948568 
L 581.033063 -205.541096 
L 578.920541 -206.246468 
L 576.808018 -205.696894 
L 574.695495 -206.179697 
L 572.582973 -187.333251 
L 570.47045 -205.816739 
L 568.357928 -177.726836 
L 566.245405 -206.544368 
L 564.132883 -207.676045 
L 562.02036 -205.888646 
L 559.907838 -204.796346 
L 557.795315 -204.950433 
L 555.682793 -189.100105 
L 553.57027 -207.39869 
L 551.457748 -207.619547 
L 549.345225 -208.086941 
L 547.232703 -179.396103 
L 545.12018 -207.778769 
L 543.007658 -203.688638 
L 540.895135 -205.268877 
L 538.782613 -207.50655 
L 536.67009 -174.383167 
L 534.557568 -206.09067 
L 532.445045 -207.145304 
L 530.332523 -250.202107 
L 528.22 -190.860111 
L 526.107477 -203.63214 
L 523.994955 -206.087246 
L 521.882432 -206.60429 
L 519.76991 -203.431828 
L 517.657387 -208.605698 
L 515.544865 -208.472157 
L 513.432342 -203.656109 
L 511.31982 -204.751833 
L 509.207297 -207.301102 
L 507.094775 -190.962835 
L 504.982252 -206.474173 
L 502.86973 -206.304678 
L 500.757207 -207.395266 
L 498.644685 -204.792922 
L 496.532162 -205.708879 
L 494.41964 -206.275573 
L 492.307117 -210.576289 
L 490.194595 -207.706862 
L 488.082072 -203.758833 
L 485.96955 -207.684605 
L 483.857027 -204.474478 
L 481.744505 -201.209564 
L 479.631982 -203.178442 
L 477.519459 -202.271046 
L 475.406937 -205.462341 
L 473.294414 -205.657517 
L 471.181892 -171.611329 
L 469.069369 -238.370004 
L 466.956847 -208.439627 
L 464.844324 -206.09067 
L 462.731802 -172.857714 
L 460.619279 -202.82062 
L 458.506757 -207.848964 
L 456.394234 -233.44952 
L 454.281712 -205.994794 
L 452.169189 -205.924599 
L 450.056667 -205.424675 
L 447.944144 -207.057988 
L 445.831622 -207.836979 
L 443.719099 -207.89519 
L 441.606577 -200.391195 
L 439.494054 -208.838539 
L 437.381532 -208.062972 
L 435.269009 -206.011915 
L 433.156486 -206.390282 
L 431.043964 -206.826859 
L 428.931441 -198.257958 
L 426.818919 -206.534096 
L 424.706396 -206.08211 
L 422.593874 -206.111215 
L 420.481351 -195.746354 
L 418.368829 -206.888494 
L 416.256306 -207.105926 
L 414.143784 -206.013627 
L 412.031261 -206.99293 
L 409.918739 -206.176273 
L 407.806216 -206.366313 
L 405.693694 -193.525801 
L 403.581171 -205.630124 
L 401.468649 -206.664213 
L 399.356126 -208.636515 
L 397.243604 -206.354328 
L 395.131081 -207.003202 
L 393.018559 -206.804602 
L 390.906036 -205.936584 
L 388.793514 -198.343561 
L 386.680991 -159.803194 
L 384.568468 -206.201954 
L 382.455946 -208.422507 
L 380.343423 -209.545624 
L 378.230901 -192.529378 
L 376.118378 -206.93472 
L 374.005856 -189.690769 
L 371.893333 -205.993082 
L 369.780811 -226.933388 
L 367.668288 -206.383434 
L 365.555766 -206.390282 
L 363.443243 -190.129058 
L 361.330721 -207.193242 
L 359.218198 -191.834278 
L 357.105676 -184.44328 
L 354.993153 -215.099573 
L 352.880631 -218.489468 
L 350.768108 -205.613003 
L 348.655586 -204.572065 
L 346.543063 -204.936736 
L 344.430541 -205.309967 
L 342.318018 -226.47113 
L 340.205495 -195.998028 
L 338.092973 -205.886934 
L 335.98045 -193.267279 
L 333.867928 -205.227788 
L 331.755405 -206.381722 
L 329.642883 -205.558217 
L 327.53036 -197.835077 
L 325.417838 -205.928023 
L 323.305315 -157.950737 
L 321.192793 -206.871373 
L 319.08027 -208.427643 
L 316.967748 -194.654054 
L 314.855225 -208.364296 
L 312.742703 -206.948416 
L 310.63018 -206.217363 
L 308.517658 -219.246202 
L 306.405135 -221.591735 
L 304.292613 -221.947845 
L 302.18009 -205.416115 
L 300.067568 -204.453933 
L 297.955045 -206.268725 
L 295.842523 -204.596034 
L 293.73 -228.484522 
L 291.617477 -205.503431 
L 289.504955 -205.222651 
L 287.392432 -205.895494 
L 285.27991 -205.876661 
L 283.167387 -216.260355 
L 281.054865 -219.69134 
L 278.942342 -205.501718 
L 276.82982 -205.193546 
L 274.717297 -204.513855 
L 272.604775 -207.511687 
L 270.492252 -223.305516 
L 268.37973 -205.491446 
L 266.267207 -205.092534 
L 264.154685 -222.312516 
L 262.042162 -204.765529 
L 259.92964 -149.823549 
L 257.817117 -208.211922 
L 255.704595 -208.032155 
L 253.592072 -208.347176 
L 251.47955 -208.496126 
L 249.367027 -206.886782 
L 247.254505 -207.337056 
L 245.141982 -186.047488 
L 243.029459 -207.176121 
L 240.916937 -206.751528 
L 238.804414 -205.844132 
L 236.691892 -205.001795 
L 234.579369 -214.012409 
L 232.466847 -217.568375 
L 230.354324 -207.787329 
L 228.241802 -206.482734 
L 226.129279 -205.912615 
L 224.016757 -206.246468 
L 221.904234 -205.772225 
L 219.791712 -206.183122 
L 217.679189 -219.184567 
L 215.566667 -219.456786 
L 213.454144 -205.227788 
L 211.341622 -205.977673 
L 209.229099 -205.073701 
L 207.116577 -204.74156 
L 205.004054 -206.772073 
L 202.891532 -194.438334 
L 200.779009 -204.388874 
L 198.666486 -188.713178 
L 196.553964 -206.201954 
L 194.441441 -208.4499 
L 192.328919 -215.94191 
L 190.216396 -207.275421 
L 188.103874 -205.462341 
L 185.991351 -206.330359 
L 183.878829 -216.246658 
L 181.766306 -215.739886 
L 179.653784 -204.828876 
L 177.541261 -205.698606 
L 175.428739 -218.492892 
L 173.316216 -222.661778 
L 171.203694 -204.387162 
L 169.091171 -206.633396 
L 166.978649 -203.87183 
L 164.866126 -206.583746 
L 162.753604 -205.267165 
L 160.641081 -205.380162 
L 158.528559 -204.436812 
L 156.416036 -221.867378 
L 154.303514 -192.79646 
L 152.190991 -205.474325 
L 150.078468 -205.407555 
L 147.965946 -206.311527 
L 145.853423 -217.078724 
L 143.740901 -204.823739 
L 141.628378 -213.190617 
L 139.515856 -205.410979 
L 137.403333 -212.344855 
L 135.290811 -176.189399 
L 133.178288 -220.091964 
L 131.065766 -206.766937 
L 128.953243 -187.833175 
L 126.840721 -207.568185 
L 124.728198 -206.813163 
L 122.615676 -204.98981 
L 120.503153 -205.590746 
L 118.390631 -205.472613 
L 116.278108 -203.767393 
L 114.165586 -217.94503 
L 112.053063 -190.709449 
L 109.940541 -184.522035 
L 107.828018 -218.501452 
L 105.715495 -207.138456 
L 103.602973 -206.475885 
L 101.49045 -206.143744 
L 99.377928 -205.59417 
L 97.265405 -205.996506 
L 95.152883 -206.304678 
L 93.04036 -206.14032 
L 90.927838 -188.942595 
L 88.815315 -222.077963 
L 86.702793 -216.433274 
L 84.59027 -209.723679 
L 82.477748 -206.588882 
L 80.365225 -213.964472 
L 78.252703 -206.676197 
L 76.14018 -217.660827 
L 74.027658 -205.397282 
L 71.915135 -166.814114 
L 69.802613 -208.114335 
L 67.69009 -218.956862 
L 65.577568 -208.059548 
L 63.465045 -195.65219 
z
"/>
    </defs>
    <g clip-path="url(#p07c366bf53)">
     <use xlink:href="#m123f4badb0" x="0" y="302.4" style="fill: #888888; fill-opacity: 0.25"/>
    </g>
   </g>
   <g id="patch_8">
    <path d="M 688.123106 189.334569 
Q 681.866507 184.85261 675.609907 180.370651 
" clip-path="url(#p07c366bf53)" style="fill: none; stroke: #888888; stroke-width: 0.7; stroke-linecap: round"/>
   </g>
   <g id="patch_9">
    <path d="M 782.546309 173.220743 
Q 771.512804 174.135283 760.479298 175.049823 
" clip-path="url(#p07c366bf53)" style="fill: none; stroke: #888888; stroke-width: 0.7; stroke-linecap: round"/>
   </g>
   <g id="patch_10">
    <path d="M 549.06232 167.977413 
Q 543.844937 166.861928 538.627554 165.746444 
" clip-path="url(#p07c366bf53)" style="fill: none; stroke: #888888; stroke-width: 0.7; stroke-linecap: round"/>
   </g>
   <g id="patch_11">
    <path d="M 631.841691 166.157653 
Q 630.595493 165.627043 629.349294 165.096432 
" clip-path="url(#p07c366bf53)" style="fill: none; stroke: #888888; stroke-width: 0.7; stroke-linecap: round"/>
   </g>
   <g id="patch_12">
    <path d="M 712.357306 164.793576 
Q 704.729181 164.182617 697.101056 163.571658 
" clip-path="url(#p07c366bf53)" style="fill: none; stroke: #888888; stroke-width: 0.7; stroke-linecap: round"/>
   </g>
   <g id="patch_13">
    <path d="M 626.017968 155.498518 
Q 628.27157 158.470243 630.525171 161.441968 
" clip-path="url(#p07c366bf53)" style="fill: none; stroke: #888888; stroke-width: 0.7; stroke-linecap: round"/>
   </g>
   <g id="patch_14">
    <path d="M 272.13359 157.775336 
Q 267.001436 159.05934 261.869281 160.343345 
" clip-path="url(#p07c366bf53)" style="fill: none; stroke: #888888; stroke-width: 0.7; stroke-linecap: round"/>
   </g>
   <g id="patch_15">
    <path d="M 686.300937 132.989718 
Q 671.433534 144.287282 656.566131 155.584845 
" clip-path="url(#p07c366bf53)" style="fill: none; stroke: #888888; stroke-width: 0.7; stroke-linecap: round"/>
   </g>
   <g id="patch_16">
    <path d="M 733.927312 150.787973 
Q 727.116643 152.25232 720.305974 153.716668 
" clip-path="url(#p07c366bf53)" style="fill: none; stroke: #888888; stroke-width: 0.7; stroke-linecap: round"/>
   </g>
   <g id="matplotlib.axis_1">
    <g id="xtick_1">
     <g id="line2d_1">
      <defs>
       <path id="mec21c84c5e" d="M 0 0 
L 0 3.5 
" style="stroke: #000000; stroke-width: 0.8"/>
      </defs>
      <g>
       <use xlink:href="#mec21c84c5e" x="61.352523" y="260.44" style="stroke: #000000; stroke-width: 0.8"/>
      </g>
     </g>
     <g id="text_1">
      <!-- 0 -->
      <g transform="translate(58.171273 275.038438) scale(0.1 -0.1)">
       <defs>
        <path id="DejaVuSans-30" d="M 2034 4250 
Q 1547 4250 1301 3770 
Q 1056 3291 1056 2328 
Q 1056 1369 1301 889 
Q 1547 409 2034 409 
Q 2525 409 2770 889 
Q 3016 1369 3016 2328 
Q 3016 3291 2770 3770 
Q 2525 4250 2034 4250 
z
M 2034 4750 
Q 2819 4750 3233 4129 
Q 3647 3509 3647 2328 
Q 3647 1150 3233 529 
Q 2819 -91 2034 -91 
Q 1250 -91 836 529 
Q 422 1150 422 2328 
Q 422 3509 836 4129 
Q 1250 4750 2034 4750 
z
" transform="scale(0.015625)"/>
       </defs>
       <use xlink:href="#DejaVuSans-30"/>
      </g>
     </g>
    </g>
    <g id="xtick_2">
     <g id="line2d_2">
      <g>
       <use xlink:href="#mec21c84c5e" x="166.978649" y="260.44" style="stroke: #000000; stroke-width: 0.8"/>
      </g>
     </g>
     <g id="text_2">
      <!-- 50 -->
      <g transform="translate(160.616149 275.038438) scale(0.1 -0.1)">
       <defs>
        <path id="DejaVuSans-35" d="M 691 4666 
L 3169 4666 
L 3169 4134 
L 1269 4134 
L 1269 2991 
Q 1406 3038 1543 3061 
Q 1681 3084 1819 3084 
Q 2600 3084 3056 2656 
Q 3513 2228 3513 1497 
Q 3513 744 3044 326 
Q 2575 -91 1722 -91 
Q 1428 -91 1123 -41 
Q 819 9 494 109 
L 494 744 
Q 775 591 1075 516 
Q 1375 441 1709 441 
Q 2250 441 2565 725 
Q 2881 1009 2881 1497 
Q 2881 1984 2565 2268 
Q 2250 2553 1709 2553 
Q 1456 2553 1204 2497 
Q 953 2441 691 2322 
L 691 4666 
z
" transform="scale(0.015625)"/>
       </defs>
       <use xlink:href="#DejaVuSans-35"/>
       <use xlink:href="#DejaVuSans-30" x="63.623047"/>
      </g>
     </g>
    </g>
    <g id="xtick_3">
     <g id="line2d_3">
      <g>
       <use xlink:href="#mec21c84c5e" x="272.604775" y="260.44" style="stroke: #000000; stroke-width: 0.8"/>
      </g>
     </g>
     <g id="text_3">
      <!-- 100 -->
      <g transform="translate(263.061025 275.038438) scale(0.1 -0.1)">
       <defs>
        <path id="DejaVuSans-31" d="M 794 531 
L 1825 531 
L 1825 4091 
L 703 3866 
L 703 4441 
L 1819 4666 
L 2450 4666 
L 2450 531 
L 3481 531 
L 3481 0 
L 794 0 
L 794 531 
z
" transform="scale(0.015625)"/>
       </defs>
       <use xlink:href="#DejaVuSans-31"/>
       <use xlink:href="#DejaVuSans-30" x="63.623047"/>
       <use xlink:href="#DejaVuSans-30" x="127.246094"/>
      </g>
     </g>
    </g>
    <g id="xtick_4">
     <g id="line2d_4">
      <g>
       <use xlink:href="#mec21c84c5e" x="378.230901" y="260.44" style="stroke: #000000; stroke-width: 0.8"/>
      </g>
     </g>
     <g id="text_4">
      <!-- 150 -->
      <g transform="translate(368.687151 275.038438) scale(0.1 -0.1)">
       <use xlink:href="#DejaVuSans-31"/>
       <use xlink:href="#DejaVuSans-35" x="63.623047"/>
       <use xlink:href="#DejaVuSans-30" x="127.246094"/>
      </g>
     </g>
    </g>
    <g id="xtick_5">
     <g id="line2d_5">
      <g>
       <use xlink:href="#mec21c84c5e" x="483.857027" y="260.44" style="stroke: #000000; stroke-width: 0.8"/>
      </g>
     </g>
     <g id="text_5">
      <!-- 200 -->
      <g transform="translate(474.313277 275.038438) scale(0.1 -0.1)">
       <defs>
        <path id="DejaVuSans-32" d="M 1228 531 
L 3431 531 
L 3431 0 
L 469 0 
L 469 531 
Q 828 903 1448 1529 
Q 2069 2156 2228 2338 
Q 2531 2678 2651 2914 
Q 2772 3150 2772 3378 
Q 2772 3750 2511 3984 
Q 2250 4219 1831 4219 
Q 1534 4219 1204 4116 
Q 875 4013 500 3803 
L 500 4441 
Q 881 4594 1212 4672 
Q 1544 4750 1819 4750 
Q 2544 4750 2975 4387 
Q 3406 4025 3406 3419 
Q 3406 3131 3298 2873 
Q 3191 2616 2906 2266 
Q 2828 2175 2409 1742 
Q 1991 1309 1228 531 
z
" transform="scale(0.015625)"/>
       </defs>
       <use xlink:href="#DejaVuSans-32"/>
       <use xlink:href="#DejaVuSans-30" x="63.623047"/>
       <use xlink:href="#DejaVuSans-30" x="127.246094"/>
      </g>
     </g>
    </g>
    <g id="xtick_6">
     <g id="line2d_6">
      <g>
       <use xlink:href="#mec21c84c5e" x="589.483153" y="260.44" style="stroke: #000000; stroke-width: 0.8"/>
      </g>
     </g>
     <g id="text_6">
      <!-- 250 -->
      <g transform="translate(579.939403 275.038438) scale(0.1 -0.1)">
       <use xlink:href="#DejaVuSans-32"/>
       <use xlink:href="#DejaVuSans-35" x="63.623047"/>
       <use xlink:href="#DejaVuSans-30" x="127.246094"/>
      </g>
     </g>
    </g>
    <g id="xtick_7">
     <g id="line2d_7">
      <g>
       <use xlink:href="#mec21c84c5e" x="695.109279" y="260.44" style="stroke: #000000; stroke-width: 0.8"/>
      </g>
     </g>
     <g id="text_7">
      <!-- 300 -->
      <g transform="translate(685.565529 275.038438) scale(0.1 -0.1)">
       <defs>
        <path id="DejaVuSans-33" d="M 2597 2516 
Q 3050 2419 3304 2112 
Q 3559 1806 3559 1356 
Q 3559 666 3084 287 
Q 2609 -91 1734 -91 
Q 1441 -91 1130 -33 
Q 819 25 488 141 
L 488 750 
Q 750 597 1062 519 
Q 1375 441 1716 441 
Q 2309 441 2620 675 
Q 2931 909 2931 1356 
Q 2931 1769 2642 2001 
Q 2353 2234 1838 2234 
L 1294 2234 
L 1294 2753 
L 1863 2753 
Q 2328 2753 2575 2939 
Q 2822 3125 2822 3475 
Q 2822 3834 2567 4026 
Q 2313 4219 1838 4219 
Q 1578 4219 1281 4162 
Q 984 4106 628 3988 
L 628 4550 
Q 988 4650 1302 4700 
Q 1616 4750 1894 4750 
Q 2613 4750 3031 4423 
Q 3450 4097 3450 3541 
Q 3450 3153 3228 2886 
Q 3006 2619 2597 2516 
z
" transform="scale(0.015625)"/>
       </defs>
       <use xlink:href="#DejaVuSans-33"/>
       <use xlink:href="#DejaVuSans-30" x="63.623047"/>
       <use xlink:href="#DejaVuSans-30" x="127.246094"/>
      </g>
     </g>
    </g>
    <g id="xtick_8">
     <g id="line2d_8">
      <g>
       <use xlink:href="#mec21c84c5e" x="800.735405" y="260.44" style="stroke: #000000; stroke-width: 0.8"/>
      </g>
     </g>
     <g id="text_8">
      <!-- 350 -->
      <g transform="translate(791.191655 275.038438) scale(0.1 -0.1)">
       <use xlink:href="#DejaVuSans-33"/>
       <use xlink:href="#DejaVuSans-35" x="63.623047"/>
       <use xlink:href="#DejaVuSans-30" x="127.246094"/>
      </g>
     </g>
    </g>
    <g id="xtick_9">
     <g id="line2d_9">
      <g>
       <use xlink:href="#mec21c84c5e" x="906.361532" y="260.44" style="stroke: #000000; stroke-width: 0.8"/>
      </g>
     </g>
     <g id="text_9">
      <!-- 400 -->
      <g transform="translate(896.817782 275.038438) scale(0.1 -0.1)">
       <defs>
        <path id="DejaVuSans-34" d="M 2419 4116 
L 825 1625 
L 2419 1625 
L 2419 4116 
z
M 2253 4666 
L 3047 4666 
L 3047 1625 
L 3713 1625 
L 3713 1100 
L 3047 1100 
L 3047 0 
L 2419 0 
L 2419 1100 
L 313 1100 
L 313 1709 
L 2253 4666 
z
" transform="scale(0.015625)"/>
       </defs>
       <use xlink:href="#DejaVuSans-34"/>
       <use xlink:href="#DejaVuSans-30" x="63.623047"/>
       <use xlink:href="#DejaVuSans-30" x="127.246094"/>
      </g>
     </g>
    </g>
    <g id="text_10">
     <!-- Tau residue number -->
     <g transform="translate(478.633281 288.716563) scale(0.1 -0.1)">
      <defs>
       <path id="DejaVuSans-54" d="M -19 4666 
L 3928 4666 
L 3928 4134 
L 2272 4134 
L 2272 0 
L 1638 0 
L 1638 4134 
L -19 4134 
L -19 4666 
z
" transform="scale(0.015625)"/>
       <path id="DejaVuSans-61" d="M 2194 1759 
Q 1497 1759 1228 1600 
Q 959 1441 959 1056 
Q 959 750 1161 570 
Q 1363 391 1709 391 
Q 2188 391 2477 730 
Q 2766 1069 2766 1631 
L 2766 1759 
L 2194 1759 
z
M 3341 1997 
L 3341 0 
L 2766 0 
L 2766 531 
Q 2569 213 2275 61 
Q 1981 -91 1556 -91 
Q 1019 -91 701 211 
Q 384 513 384 1019 
Q 384 1609 779 1909 
Q 1175 2209 1959 2209 
L 2766 2209 
L 2766 2266 
Q 2766 2663 2505 2880 
Q 2244 3097 1772 3097 
Q 1472 3097 1187 3025 
Q 903 2953 641 2809 
L 641 3341 
Q 956 3463 1253 3523 
Q 1550 3584 1831 3584 
Q 2591 3584 2966 3190 
Q 3341 2797 3341 1997 
z
" transform="scale(0.015625)"/>
       <path id="DejaVuSans-75" d="M 544 1381 
L 544 3500 
L 1119 3500 
L 1119 1403 
Q 1119 906 1312 657 
Q 1506 409 1894 409 
Q 2359 409 2629 706 
Q 2900 1003 2900 1516 
L 2900 3500 
L 3475 3500 
L 3475 0 
L 2900 0 
L 2900 538 
Q 2691 219 2414 64 
Q 2138 -91 1772 -91 
Q 1169 -91 856 284 
Q 544 659 544 1381 
z
M 1991 3584 
L 1991 3584 
z
" transform="scale(0.015625)"/>
       <path id="DejaVuSans-20" transform="scale(0.015625)"/>
       <path id="DejaVuSans-72" d="M 2631 2963 
Q 2534 3019 2420 3045 
Q 2306 3072 2169 3072 
Q 1681 3072 1420 2755 
Q 1159 2438 1159 1844 
L 1159 0 
L 581 0 
L 581 3500 
L 1159 3500 
L 1159 2956 
Q 1341 3275 1631 3429 
Q 1922 3584 2338 3584 
Q 2397 3584 2469 3576 
Q 2541 3569 2628 3553 
L 2631 2963 
z
" transform="scale(0.015625)"/>
       <path id="DejaVuSans-65" d="M 3597 1894 
L 3597 1613 
L 953 1613 
Q 991 1019 1311 708 
Q 1631 397 2203 397 
Q 2534 397 2845 478 
Q 3156 559 3463 722 
L 3463 178 
Q 3153 47 2828 -22 
Q 2503 -91 2169 -91 
Q 1331 -91 842 396 
Q 353 884 353 1716 
Q 353 2575 817 3079 
Q 1281 3584 2069 3584 
Q 2775 3584 3186 3129 
Q 3597 2675 3597 1894 
z
M 3022 2063 
Q 3016 2534 2758 2815 
Q 2500 3097 2075 3097 
Q 1594 3097 1305 2825 
Q 1016 2553 972 2059 
L 3022 2063 
z
" transform="scale(0.015625)"/>
       <path id="DejaVuSans-73" d="M 2834 3397 
L 2834 2853 
Q 2591 2978 2328 3040 
Q 2066 3103 1784 3103 
Q 1356 3103 1142 2972 
Q 928 2841 928 2578 
Q 928 2378 1081 2264 
Q 1234 2150 1697 2047 
L 1894 2003 
Q 2506 1872 2764 1633 
Q 3022 1394 3022 966 
Q 3022 478 2636 193 
Q 2250 -91 1575 -91 
Q 1294 -91 989 -36 
Q 684 19 347 128 
L 347 722 
Q 666 556 975 473 
Q 1284 391 1588 391 
Q 1994 391 2212 530 
Q 2431 669 2431 922 
Q 2431 1156 2273 1281 
Q 2116 1406 1581 1522 
L 1381 1569 
Q 847 1681 609 1914 
Q 372 2147 372 2553 
Q 372 3047 722 3315 
Q 1072 3584 1716 3584 
Q 2034 3584 2315 3537 
Q 2597 3491 2834 3397 
z
" transform="scale(0.015625)"/>
       <path id="DejaVuSans-69" d="M 603 3500 
L 1178 3500 
L 1178 0 
L 603 0 
L 603 3500 
z
M 603 4863 
L 1178 4863 
L 1178 4134 
L 603 4134 
L 603 4863 
z
" transform="scale(0.015625)"/>
       <path id="DejaVuSans-64" d="M 2906 2969 
L 2906 4863 
L 3481 4863 
L 3481 0 
L 2906 0 
L 2906 525 
Q 2725 213 2448 61 
Q 2172 -91 1784 -91 
Q 1150 -91 751 415 
Q 353 922 353 1747 
Q 353 2572 751 3078 
Q 1150 3584 1784 3584 
Q 2172 3584 2448 3432 
Q 2725 3281 2906 2969 
z
M 947 1747 
Q 947 1113 1208 752 
Q 1469 391 1925 391 
Q 2381 391 2643 752 
Q 2906 1113 2906 1747 
Q 2906 2381 2643 2742 
Q 2381 3103 1925 3103 
Q 1469 3103 1208 2742 
Q 947 2381 947 1747 
z
" transform="scale(0.015625)"/>
       <path id="DejaVuSans-6e" d="M 3513 2113 
L 3513 0 
L 2938 0 
L 2938 2094 
Q 2938 2591 2744 2837 
Q 2550 3084 2163 3084 
Q 1697 3084 1428 2787 
Q 1159 2491 1159 1978 
L 1159 0 
L 581 0 
L 581 3500 
L 1159 3500 
L 1159 2956 
Q 1366 3272 1645 3428 
Q 1925 3584 2291 3584 
Q 2894 3584 3203 3211 
Q 3513 2838 3513 2113 
z
" transform="scale(0.015625)"/>
       <path id="DejaVuSans-6d" d="M 3328 2828 
Q 3544 3216 3844 3400 
Q 4144 3584 4550 3584 
Q 5097 3584 5394 3201 
Q 5691 2819 5691 2113 
L 5691 0 
L 5113 0 
L 5113 2094 
Q 5113 2597 4934 2840 
Q 4756 3084 4391 3084 
Q 3944 3084 3684 2787 
Q 3425 2491 3425 1978 
L 3425 0 
L 2847 0 
L 2847 2094 
Q 2847 2600 2669 2842 
Q 2491 3084 2119 3084 
Q 1678 3084 1418 2786 
Q 1159 2488 1159 1978 
L 1159 0 
L 581 0 
L 581 3500 
L 1159 3500 
L 1159 2956 
Q 1356 3278 1631 3431 
Q 1906 3584 2284 3584 
Q 2666 3584 2933 3390 
Q 3200 3197 3328 2828 
z
" transform="scale(0.015625)"/>
       <path id="DejaVuSans-62" d="M 3116 1747 
Q 3116 2381 2855 2742 
Q 2594 3103 2138 3103 
Q 1681 3103 1420 2742 
Q 1159 2381 1159 1747 
Q 1159 1113 1420 752 
Q 1681 391 2138 391 
Q 2594 391 2855 752 
Q 3116 1113 3116 1747 
z
M 1159 2969 
Q 1341 3281 1617 3432 
Q 1894 3584 2278 3584 
Q 2916 3584 3314 3078 
Q 3713 2572 3713 1747 
Q 3713 922 3314 415 
Q 2916 -91 2278 -91 
Q 1894 -91 1617 61 
Q 1341 213 1159 525 
L 1159 0 
L 581 0 
L 581 4863 
L 1159 4863 
L 1159 2969 
z
" transform="scale(0.015625)"/>
      </defs>
      <use xlink:href="#DejaVuSans-54"/>
      <use xlink:href="#DejaVuSans-61" x="44.583984"/>
      <use xlink:href="#DejaVuSans-75" x="105.863281"/>
      <use xlink:href="#DejaVuSans-20" x="169.242188"/>
      <use xlink:href="#DejaVuSans-72" x="201.029297"/>
      <use xlink:href="#DejaVuSans-65" x="239.892578"/>
      <use xlink:href="#DejaVuSans-73" x="301.416016"/>
      <use xlink:href="#DejaVuSans-69" x="353.515625"/>
      <use xlink:href="#DejaVuSans-64" x="381.298828"/>
      <use xlink:href="#DejaVuSans-75" x="444.775391"/>
      <use xlink:href="#DejaVuSans-65" x="508.154297"/>
      <use xlink:href="#DejaVuSans-20" x="569.677734"/>
      <use xlink:href="#DejaVuSans-6e" x="601.464844"/>
      <use xlink:href="#DejaVuSans-75" x="664.84375"/>
      <use xlink:href="#DejaVuSans-6d" x="728.222656"/>
      <use xlink:href="#DejaVuSans-62" x="825.634766"/>
      <use xlink:href="#DejaVuSans-65" x="889.111328"/>
      <use xlink:href="#DejaVuSans-72" x="950.634766"/>
     </g>
    </g>
   </g>
   <g id="matplotlib.axis_2">
    <g id="ytick_1">
     <g id="line2d_10">
      <defs>
       <path id="m65e3f07906" d="M 0 0 
L -3.5 0 
" style="stroke: #000000; stroke-width: 0.8"/>
      </defs>
      <g>
       <use xlink:href="#m65e3f07906" x="59.24" y="232.519763" style="stroke: #000000; stroke-width: 0.8"/>
      </g>
     </g>
     <g id="text_11">
      <!-- −800 -->
      <g transform="translate(24.772813 236.318982) scale(0.1 -0.1)">
       <defs>
        <path id="DejaVuSans-2212" d="M 678 2272 
L 4684 2272 
L 4684 1741 
L 678 1741 
L 678 2272 
z
" transform="scale(0.015625)"/>
        <path id="DejaVuSans-38" d="M 2034 2216 
Q 1584 2216 1326 1975 
Q 1069 1734 1069 1313 
Q 1069 891 1326 650 
Q 1584 409 2034 409 
Q 2484 409 2743 651 
Q 3003 894 3003 1313 
Q 3003 1734 2745 1975 
Q 2488 2216 2034 2216 
z
M 1403 2484 
Q 997 2584 770 2862 
Q 544 3141 544 3541 
Q 544 4100 942 4425 
Q 1341 4750 2034 4750 
Q 2731 4750 3128 4425 
Q 3525 4100 3525 3541 
Q 3525 3141 3298 2862 
Q 3072 2584 2669 2484 
Q 3125 2378 3379 2068 
Q 3634 1759 3634 1313 
Q 3634 634 3220 271 
Q 2806 -91 2034 -91 
Q 1263 -91 848 271 
Q 434 634 434 1313 
Q 434 1759 690 2068 
Q 947 2378 1403 2484 
z
M 1172 3481 
Q 1172 3119 1398 2916 
Q 1625 2713 2034 2713 
Q 2441 2713 2670 2916 
Q 2900 3119 2900 3481 
Q 2900 3844 2670 4047 
Q 2441 4250 2034 4250 
Q 1625 4250 1398 4047 
Q 1172 3844 1172 3481 
z
" transform="scale(0.015625)"/>
       </defs>
       <use xlink:href="#DejaVuSans-2212"/>
       <use xlink:href="#DejaVuSans-38" x="83.789062"/>
       <use xlink:href="#DejaVuSans-30" x="147.412109"/>
       <use xlink:href="#DejaVuSans-30" x="211.035156"/>
      </g>
     </g>
    </g>
    <g id="ytick_2">
     <g id="line2d_11">
      <g>
       <use xlink:href="#m65e3f07906" x="59.24" y="198.278399" style="stroke: #000000; stroke-width: 0.8"/>
      </g>
     </g>
     <g id="text_12">
      <!-- −600 -->
      <g transform="translate(24.772813 202.077618) scale(0.1 -0.1)">
       <defs>
        <path id="DejaVuSans-36" d="M 2113 2584 
Q 1688 2584 1439 2293 
Q 1191 2003 1191 1497 
Q 1191 994 1439 701 
Q 1688 409 2113 409 
Q 2538 409 2786 701 
Q 3034 994 3034 1497 
Q 3034 2003 2786 2293 
Q 2538 2584 2113 2584 
z
M 3366 4563 
L 3366 3988 
Q 3128 4100 2886 4159 
Q 2644 4219 2406 4219 
Q 1781 4219 1451 3797 
Q 1122 3375 1075 2522 
Q 1259 2794 1537 2939 
Q 1816 3084 2150 3084 
Q 2853 3084 3261 2657 
Q 3669 2231 3669 1497 
Q 3669 778 3244 343 
Q 2819 -91 2113 -91 
Q 1303 -91 875 529 
Q 447 1150 447 2328 
Q 447 3434 972 4092 
Q 1497 4750 2381 4750 
Q 2619 4750 2861 4703 
Q 3103 4656 3366 4563 
z
" transform="scale(0.015625)"/>
       </defs>
       <use xlink:href="#DejaVuSans-2212"/>
       <use xlink:href="#DejaVuSans-36" x="83.789062"/>
       <use xlink:href="#DejaVuSans-30" x="147.412109"/>
       <use xlink:href="#DejaVuSans-30" x="211.035156"/>
      </g>
     </g>
    </g>
    <g id="ytick_3">
     <g id="line2d_12">
      <g>
       <use xlink:href="#m65e3f07906" x="59.24" y="164.037036" style="stroke: #000000; stroke-width: 0.8"/>
      </g>
     </g>
     <g id="text_13">
      <!-- −400 -->
      <g transform="translate(24.772813 167.836254) scale(0.1 -0.1)">
       <use xlink:href="#DejaVuSans-2212"/>
       <use xlink:href="#DejaVuSans-34" x="83.789062"/>
       <use xlink:href="#DejaVuSans-30" x="147.412109"/>
       <use xlink:href="#DejaVuSans-30" x="211.035156"/>
      </g>
     </g>
    </g>
    <g id="ytick_4">
     <g id="line2d_13">
      <g>
       <use xlink:href="#m65e3f07906" x="59.24" y="129.795672" style="stroke: #000000; stroke-width: 0.8"/>
      </g>
     </g>
     <g id="text_14">
      <!-- −200 -->
      <g transform="translate(24.772813 133.594891) scale(0.1 -0.1)">
       <use xlink:href="#DejaVuSans-2212"/>
       <use xlink:href="#DejaVuSans-32" x="83.789062"/>
       <use xlink:href="#DejaVuSans-30" x="147.412109"/>
       <use xlink:href="#DejaVuSans-30" x="211.035156"/>
      </g>
     </g>
    </g>
    <g id="ytick_5">
     <g id="line2d_14">
      <g>
       <use xlink:href="#m65e3f07906" x="59.24" y="95.554308" style="stroke: #000000; stroke-width: 0.8"/>
      </g>
     </g>
     <g id="text_15">
      <!-- 0 -->
      <g transform="translate(45.8775 99.353527) scale(0.1 -0.1)">
       <use xlink:href="#DejaVuSans-30"/>
      </g>
     </g>
    </g>
    <g id="ytick_6">
     <g id="line2d_15">
      <g>
       <use xlink:href="#m65e3f07906" x="59.24" y="61.312944" style="stroke: #000000; stroke-width: 0.8"/>
      </g>
     </g>
     <g id="text_16">
      <!-- 200 -->
      <g transform="translate(33.1525 65.112163) scale(0.1 -0.1)">
       <use xlink:href="#DejaVuSans-32"/>
       <use xlink:href="#DejaVuSans-30" x="63.623047"/>
       <use xlink:href="#DejaVuSans-30" x="127.246094"/>
      </g>
     </g>
    </g>
    <g id="ytick_7">
     <g id="line2d_16">
      <g>
       <use xlink:href="#m65e3f07906" x="59.24" y="27.07158" style="stroke: #000000; stroke-width: 0.8"/>
      </g>
     </g>
     <g id="text_17">
      <!-- 400 -->
      <g transform="translate(33.1525 30.870799) scale(0.1 -0.1)">
       <use xlink:href="#DejaVuSans-34"/>
       <use xlink:href="#DejaVuSans-30" x="63.623047"/>
       <use xlink:href="#DejaVuSans-30" x="127.246094"/>
      </g>
     </g>
    </g>
    <g id="text_18">
     <!-- screened interaction energy (kJ/mol) -->
     <g transform="translate(18.693125 235.035781) rotate(-90) scale(0.1 -0.1)">
      <defs>
       <path id="DejaVuSans-63" d="M 3122 3366 
L 3122 2828 
Q 2878 2963 2633 3030 
Q 2388 3097 2138 3097 
Q 1578 3097 1268 2742 
Q 959 2388 959 1747 
Q 959 1106 1268 751 
Q 1578 397 2138 397 
Q 2388 397 2633 464 
Q 2878 531 3122 666 
L 3122 134 
Q 2881 22 2623 -34 
Q 2366 -91 2075 -91 
Q 1284 -91 818 406 
Q 353 903 353 1747 
Q 353 2603 823 3093 
Q 1294 3584 2113 3584 
Q 2378 3584 2631 3529 
Q 2884 3475 3122 3366 
z
" transform="scale(0.015625)"/>
       <path id="DejaVuSans-74" d="M 1172 4494 
L 1172 3500 
L 2356 3500 
L 2356 3053 
L 1172 3053 
L 1172 1153 
Q 1172 725 1289 603 
Q 1406 481 1766 481 
L 2356 481 
L 2356 0 
L 1766 0 
Q 1100 0 847 248 
Q 594 497 594 1153 
L 594 3053 
L 172 3053 
L 172 3500 
L 594 3500 
L 594 4494 
L 1172 4494 
z
" transform="scale(0.015625)"/>
       <path id="DejaVuSans-6f" d="M 1959 3097 
Q 1497 3097 1228 2736 
Q 959 2375 959 1747 
Q 959 1119 1226 758 
Q 1494 397 1959 397 
Q 2419 397 2687 759 
Q 2956 1122 2956 1747 
Q 2956 2369 2687 2733 
Q 2419 3097 1959 3097 
z
M 1959 3584 
Q 2709 3584 3137 3096 
Q 3566 2609 3566 1747 
Q 3566 888 3137 398 
Q 2709 -91 1959 -91 
Q 1206 -91 779 398 
Q 353 888 353 1747 
Q 353 2609 779 3096 
Q 1206 3584 1959 3584 
z
" transform="scale(0.015625)"/>
       <path id="DejaVuSans-67" d="M 2906 1791 
Q 2906 2416 2648 2759 
Q 2391 3103 1925 3103 
Q 1463 3103 1205 2759 
Q 947 2416 947 1791 
Q 947 1169 1205 825 
Q 1463 481 1925 481 
Q 2391 481 2648 825 
Q 2906 1169 2906 1791 
z
M 3481 434 
Q 3481 -459 3084 -895 
Q 2688 -1331 1869 -1331 
Q 1566 -1331 1297 -1286 
Q 1028 -1241 775 -1147 
L 775 -588 
Q 1028 -725 1275 -790 
Q 1522 -856 1778 -856 
Q 2344 -856 2625 -561 
Q 2906 -266 2906 331 
L 2906 616 
Q 2728 306 2450 153 
Q 2172 0 1784 0 
Q 1141 0 747 490 
Q 353 981 353 1791 
Q 353 2603 747 3093 
Q 1141 3584 1784 3584 
Q 2172 3584 2450 3431 
Q 2728 3278 2906 2969 
L 2906 3500 
L 3481 3500 
L 3481 434 
z
" transform="scale(0.015625)"/>
       <path id="DejaVuSans-79" d="M 2059 -325 
Q 1816 -950 1584 -1140 
Q 1353 -1331 966 -1331 
L 506 -1331 
L 506 -850 
L 844 -850 
Q 1081 -850 1212 -737 
Q 1344 -625 1503 -206 
L 1606 56 
L 191 3500 
L 800 3500 
L 1894 763 
L 2988 3500 
L 3597 3500 
L 2059 -325 
z
" transform="scale(0.015625)"/>
       <path id="DejaVuSans-28" d="M 1984 4856 
Q 1566 4138 1362 3434 
Q 1159 2731 1159 2009 
Q 1159 1288 1364 580 
Q 1569 -128 1984 -844 
L 1484 -844 
Q 1016 -109 783 600 
Q 550 1309 550 2009 
Q 550 2706 781 3412 
Q 1013 4119 1484 4856 
L 1984 4856 
z
" transform="scale(0.015625)"/>
       <path id="DejaVuSans-6b" d="M 581 4863 
L 1159 4863 
L 1159 1991 
L 2875 3500 
L 3609 3500 
L 1753 1863 
L 3688 0 
L 2938 0 
L 1159 1709 
L 1159 0 
L 581 0 
L 581 4863 
z
" transform="scale(0.015625)"/>
       <path id="DejaVuSans-4a" d="M 628 4666 
L 1259 4666 
L 1259 325 
Q 1259 -519 939 -900 
Q 619 -1281 -91 -1281 
L -331 -1281 
L -331 -750 
L -134 -750 
Q 284 -750 456 -515 
Q 628 -281 628 325 
L 628 4666 
z
" transform="scale(0.015625)"/>
       <path id="DejaVuSans-2f" d="M 1625 4666 
L 2156 4666 
L 531 -594 
L 0 -594 
L 1625 4666 
z
" transform="scale(0.015625)"/>
       <path id="DejaVuSans-6c" d="M 603 4863 
L 1178 4863 
L 1178 0 
L 603 0 
L 603 4863 
z
" transform="scale(0.015625)"/>
       <path id="DejaVuSans-29" d="M 513 4856 
L 1013 4856 
Q 1481 4119 1714 3412 
Q 1947 2706 1947 2009 
Q 1947 1309 1714 600 
Q 1481 -109 1013 -844 
L 513 -844 
Q 928 -128 1133 580 
Q 1338 1288 1338 2009 
Q 1338 2731 1133 3434 
Q 928 4138 513 4856 
z
" transform="scale(0.015625)"/>
      </defs>
      <use xlink:href="#DejaVuSans-73"/>
      <use xlink:href="#DejaVuSans-63" x="52.099609"/>
      <use xlink:href="#DejaVuSans-72" x="107.080078"/>
      <use xlink:href="#DejaVuSans-65" x="145.943359"/>
      <use xlink:href="#DejaVuSans-65" x="207.466797"/>
      <use xlink:href="#DejaVuSans-6e" x="268.990234"/>
      <use xlink:href="#DejaVuSans-65" x="332.369141"/>
      <use xlink:href="#DejaVuSans-64" x="393.892578"/>
      <use xlink:href="#DejaVuSans-20" x="457.369141"/>
      <use xlink:href="#DejaVuSans-69" x="489.15625"/>
      <use xlink:href="#DejaVuSans-6e" x="516.939453"/>
      <use xlink:href="#DejaVuSans-74" x="580.318359"/>
      <use xlink:href="#DejaVuSans-65" x="619.527344"/>
      <use xlink:href="#DejaVuSans-72" x="681.050781"/>
      <use xlink:href="#DejaVuSans-61" x="722.164062"/>
      <use xlink:href="#DejaVuSans-63" x="783.443359"/>
      <use xlink:href="#DejaVuSans-74" x="838.423828"/>
      <use xlink:href="#DejaVuSans-69" x="877.632812"/>
      <use xlink:href="#DejaVuSans-6f" x="905.416016"/>
      <use xlink:href="#DejaVuSans-6e" x="966.597656"/>
      <use xlink:href="#DejaVuSans-20" x="1029.976562"/>
      <use xlink:href="#DejaVuSans-65" x="1061.763672"/>
      <use xlink:href="#DejaVuSans-6e" x="1123.287109"/>
      <use xlink:href="#DejaVuSans-65" x="1186.666016"/>
      <use xlink:href="#DejaVuSans-72" x="1248.189453"/>
      <use xlink:href="#DejaVuSans-67" x="1287.552734"/>
      <use xlink:href="#DejaVuSans-79" x="1351.029297"/>
      <use xlink:href="#DejaVuSans-20" x="1410.208984"/>
      <use xlink:href="#DejaVuSans-28" x="1441.996094"/>
      <use xlink:href="#DejaVuSans-6b" x="1481.009766"/>
      <use xlink:href="#DejaVuSans-4a" x="1538.919922"/>
      <use xlink:href="#DejaVuSans-2f" x="1568.412109"/>
      <use xlink:href="#DejaVuSans-6d" x="1602.103516"/>
      <use xlink:href="#DejaVuSans-6f" x="1699.515625"/>
      <use xlink:href="#DejaVuSans-6c" x="1760.697266"/>
      <use xlink:href="#DejaVuSans-29" x="1788.480469"/>
     </g>
    </g>
   </g>
   <g id="line2d_17">
    <path d="M 63.465045 110.057238 
L 65.577568 94.569869 
L 67.69009 85.364078 
L 69.802613 94.669169 
L 71.915135 137.118187 
L 74.027658 97.701242 
L 76.14018 86.473498 
L 78.252703 96.117578 
L 80.365225 89.481602 
L 82.477748 95.949796 
L 84.59027 93.032432 
L 86.702793 87.635993 
L 88.815315 82.84905 
L 90.927838 120.382721 
L 93.04036 96.521627 
L 95.152883 96.858904 
L 97.265405 97.711514 
L 99.377928 97.942643 
L 101.49045 96.816102 
L 105.715495 95.891585 
L 107.828018 85.227113 
L 109.940541 122.997049 
L 112.053063 117.533839 
L 114.165586 85.720188 
L 116.278108 99.861872 
L 118.390631 97.535171 
L 120.503153 97.281785 
L 122.615676 98.500777 
L 124.728198 96.079913 
L 126.840721 95.210182 
L 128.953243 117.913919 
L 131.065766 96.720226 
L 133.178288 84.175903 
L 135.290811 126.553015 
L 137.403333 91.452193 
L 139.515856 97.65844 
L 141.628378 90.644096 
L 143.740901 98.084745 
L 145.853423 86.67381 
L 147.965946 96.304194 
L 150.078468 97.384509 
L 152.190991 97.050656 
L 154.303514 114.68667 
L 156.416036 83.393488 
L 158.528559 98.671984 
L 160.641081 97.297193 
L 162.753604 97.533459 
L 164.866126 97.579685 
L 166.978649 99.457823 
L 169.091171 96.420615 
L 171.203694 98.675408 
L 173.316216 83.376367 
L 175.428739 86.80564 
L 177.541261 97.213302 
L 179.653784 98.488793 
L 181.766306 88.952573 
L 183.878829 88.810471 
L 185.991351 96.175789 
L 188.103874 97.274937 
L 190.216396 95.603958 
L 192.328919 86.843305 
L 194.441441 95.761468 
L 196.553964 96.915402 
L 198.666486 117.155472 
L 200.779009 98.130971 
L 202.891532 113.953905 
L 205.004054 95.918979 
L 207.116577 98.459688 
L 209.229099 97.61735 
L 211.341622 97.916962 
L 213.454144 97.667 
L 215.566667 85.470226 
L 217.679189 85.843457 
L 219.791712 96.463416 
L 221.904234 97.057504 
L 224.016757 97.01299 
L 226.129279 97.232135 
L 228.241802 96.211742 
L 230.354324 95.586837 
L 232.466847 89.798335 
L 234.579369 91.328924 
L 236.691892 97.601942 
L 238.804414 97.805678 
L 240.916937 96.526763 
L 243.029459 95.877889 
L 245.141982 127.049514 
L 247.254505 96.975325 
L 249.367027 95.94466 
L 251.47955 94.371269 
L 255.704595 94.970493 
L 257.817117 94.799286 
L 259.92964 160.82862 
L 262.042162 99.627318 
L 264.154685 83.242826 
L 266.267207 98.257664 
L 268.37973 97.935795 
L 270.492252 82.306324 
L 272.604775 95.446448 
L 274.717297 98.855175 
L 276.82982 99.47152 
L 278.942342 98.062488 
L 281.054865 86.179023 
L 283.167387 87.504163 
L 285.27991 97.114002 
L 287.392432 97.064352 
L 289.504955 98.42031 
L 291.617477 98.10529 
L 293.73 81.046242 
L 295.842523 99.444127 
L 297.955045 97.057504 
L 300.067568 98.961324 
L 302.18009 97.848479 
L 304.292613 84.900108 
L 306.405135 84.766566 
L 308.517658 86.514588 
L 310.63018 96.297346 
L 312.742703 95.797422 
L 314.855225 94.181229 
L 316.967748 118.982249 
L 319.08027 94.989326 
L 321.192793 96.487385 
L 323.305315 146.234951 
L 325.417838 96.614078 
L 327.53036 115.059901 
L 329.642883 96.884585 
L 331.755405 96.117578 
L 333.867928 98.124122 
L 335.98045 121.798601 
L 338.092973 96.817814 
L 340.205495 111.495375 
L 342.318018 81.715661 
L 344.430541 97.250968 
L 346.543063 97.903266 
L 348.655586 97.908402 
L 350.768108 97.12085 
L 352.880631 87.175446 
L 354.993153 87.887667 
L 357.105676 119.715014 
L 359.218198 115.546128 
L 361.330721 95.758044 
L 363.443243 115.003403 
L 365.555766 96.459992 
L 367.668288 96.420615 
L 369.780811 79.3804 
L 371.893333 96.836647 
L 374.005856 128.735902 
L 376.118378 96.11073 
L 378.230901 118.550808 
L 380.343423 93.570021 
L 382.455946 94.088778 
L 384.568468 96.780149 
L 386.680991 144.618758 
L 388.793514 118.619291 
L 390.906036 98.651439 
L 393.018559 96.718514 
L 395.131081 95.782013 
L 397.243604 97.136259 
L 399.356126 94.91057 
L 401.468649 96.70653 
L 403.581171 97.869024 
L 405.693694 119.697894 
L 407.806216 96.910266 
L 409.918739 97.160228 
L 412.031261 96.632911 
L 414.143784 98.27136 
L 416.256306 96.865752 
L 418.368829 97.055792 
L 420.481351 116.761697 
L 422.593874 97.452992 
L 424.706396 96.513066 
L 426.818919 96.273377 
L 428.931441 116.837028 
L 431.043964 96.035399 
L 433.156486 96.638047 
L 435.269009 96.994157 
L 437.381532 94.528779 
L 439.494054 94.167533 
L 441.606577 106.545786 
L 443.719099 95.29065 
L 445.831622 96.725363 
L 447.944144 96.415478 
L 450.056667 98.762724 
L 452.169189 97.06264 
L 454.281712 97.019838 
L 456.394234 75.048867 
L 458.506757 95.206758 
L 460.619279 100.046775 
L 462.731802 145.815494 
L 464.844324 97.110578 
L 466.956847 95.112594 
L 469.069369 71.198426 
L 471.181892 140.740924 
L 473.294414 98.219998 
L 475.406937 98.384357 
L 477.519459 102.787796 
L 479.631982 103.359627 
L 481.744505 102.024214 
L 483.857027 98.392917 
L 485.96955 99.504049 
L 488.082072 101.164755 
L 490.194595 96.381237 
L 492.307117 94.116171 
L 494.41964 98.41175 
L 496.532162 99.851599 
L 498.644685 99.146227 
L 500.757207 95.102322 
L 502.86973 105.551074 
L 504.982252 96.920538 
L 507.094775 115.657413 
L 509.207297 98.740467 
L 511.31982 98.771284 
L 513.432342 99.687241 
L 515.544865 95.379677 
L 517.657387 96.471977 
L 519.76991 100.298449 
L 521.882432 96.559292 
L 523.994955 97.358828 
L 526.107477 103.049743 
L 528.22 122.978216 
L 530.332523 63.51124 
L 532.445045 97.192757 
L 534.557568 143.671984 
L 536.67009 165.327935 
L 538.782613 95.484113 
L 540.895135 97.891281 
L 543.007658 99.736891 
L 545.12018 95.544036 
L 547.232703 138.821695 
L 549.345225 95.336875 
L 551.457748 95.364268 
L 553.57027 95.520067 
L 555.682793 125.924686 
L 557.795315 98.680545 
L 559.907838 98.377508 
L 562.02036 98.76786 
L 564.132883 97.129411 
L 566.245405 96.596958 
L 568.357928 135.899195 
L 570.47045 98.796965 
L 572.582973 127.023833 
L 574.695495 97.127699 
L 576.808018 98.757588 
L 578.920541 97.136259 
L 581.033063 97.329723 
L 583.145586 97.045519 
L 585.258108 93.575157 
L 587.370631 96.093609 
L 589.483153 96.627775 
L 591.595676 95.61423 
L 593.708198 90.264017 
L 595.820721 95.841935 
L 597.933243 109.041981 
L 600.045766 96.220303 
L 602.158288 95.749484 
L 604.270811 105.521969 
L 606.383333 96.675713 
L 608.495856 106.475591 
L 610.608378 96.079913 
L 614.833423 96.644895 
L 616.945946 96.424039 
L 619.058468 91.506979 
L 621.170991 96.386373 
L 623.283514 95.434463 
L 625.396036 108.108904 
L 627.508559 164.312679 
L 629.621081 96.271665 
L 631.733604 163.035476 
L 633.846126 97.600229 
L 635.958649 102.6748 
L 638.071171 103.895504 
L 640.183694 145.289889 
L 642.296216 100.03479 
L 644.408739 97.367388 
L 646.521261 100.406309 
L 648.633784 99.627318 
L 650.746306 99.909809 
L 652.858829 130.584935 
L 654.971351 156.796699 
L 657.083874 98.125834 
L 659.196396 82.69154 
L 661.308919 97.102018 
L 663.421441 98.606926 
L 665.533964 99.531442 
L 667.646486 97.793693 
L 669.759009 105.477455 
L 671.871532 101.873552 
L 673.984054 179.20596 
L 676.096577 96.047384 
L 678.209099 95.992597 
L 680.321622 98.017974 
L 682.434144 146.71433 
L 684.546667 61.316368 
L 686.659189 98.5607 
L 688.771712 93.347452 
L 690.884234 132.254202 
L 692.996757 112.17849 
L 695.109279 163.412131 
L 697.221802 95.999446 
L 699.334324 96.418902 
L 701.446847 96.264816 
L 703.559369 97.432447 
L 705.671892 99.964596 
L 707.784414 94.636639 
L 709.896937 99.675256 
L 712.009459 97.60879 
L 714.121982 96.60723 
L 716.234505 97.867312 
L 718.347027 154.137857 
L 720.45955 96.906842 
L 722.572072 97.105442 
L 724.684595 83.475667 
L 726.797117 96.526763 
L 728.90964 97.006142 
L 731.022162 117.69991 
L 733.134685 96.877737 
L 735.247207 97.487233 
L 737.35973 97.970036 
L 739.472252 122.586153 
L 741.584775 97.023263 
L 743.697297 96.412054 
L 745.80982 98.435719 
L 747.922342 98.07276 
L 750.034865 95.918979 
L 752.147387 95.99431 
L 754.25991 94.48769 
L 756.372432 116.773681 
L 758.484955 175.215129 
L 760.597477 116.53228 
L 762.71 96.382949 
L 764.822523 97.078049 
L 766.935045 97.370812 
L 769.047568 96.357268 
L 771.16009 95.759756 
L 773.272613 96.437735 
L 775.385135 89.77779 
L 777.497658 96.078201 
L 779.61018 105.48944 
L 781.722703 96.261392 
L 783.835225 90.120204 
L 785.947748 107.490847 
L 788.06027 96.252832 
L 790.172793 86.56595 
L 794.397838 107.295672 
L 796.51036 90.053433 
L 798.622883 116.230956 
L 800.735405 96.624351 
L 802.847928 96.807542 
L 804.96045 96.596958 
L 807.072973 102.950443 
L 809.185495 94.628079 
L 811.298018 95.388237 
L 813.410541 95.915554 
L 815.523063 95.222167 
L 817.635586 116.623019 
L 819.748108 97.959764 
L 821.860631 97.266376 
L 823.973153 96.889721 
L 826.085676 135.840985 
L 828.198198 96.766452 
L 830.310721 95.91213 
L 832.423243 98.754163 
L 834.535766 98.20459 
L 836.648288 98.096729 
L 838.760811 99.682104 
L 840.873333 129.083451 
L 842.985856 124.020866 
L 845.098378 95.60567 
L 847.210901 79.07394 
L 849.323423 99.873856 
L 851.435946 141.816103 
L 853.548468 142.771437 
L 855.660991 98.029959 
L 857.773514 101.645847 
L 859.886036 97.387933 
L 861.998559 128.407184 
L 864.111081 75.401553 
L 866.223604 100.26592 
L 868.336126 98.002566 
L 870.448649 135.151021 
L 872.561171 96.208318 
L 874.673694 132.421984 
L 876.786216 95.872753 
L 878.898739 78.794873 
L 881.011261 153.160266 
L 883.123784 96.369252 
L 885.236306 96.311042 
L 887.348829 87.709612 
L 889.461351 96.709954 
L 891.573874 96.21859 
L 893.686396 94.895162 
L 895.798919 111.738489 
L 897.911441 98.613774 
L 900.023964 96.754468 
L 902.136486 96.023415 
L 904.249009 97.478673 
L 906.361532 99.721482 
L 908.474054 98.606926 
L 910.586577 77.503973 
L 912.699099 98.399765 
L 914.811622 95.816254 
L 916.924144 95.533763 
L 919.036667 121.338055 
L 921.149189 124.325614 
L 923.261712 97.086609 
L 925.374234 98.531595 
L 927.486757 98.605214 
L 929.599279 97.584821 
L 931.711802 98.377508 
L 933.824324 98.699377 
L 935.936847 95.797422 
L 938.049369 95.485825 
L 940.161892 96.008006 
L 942.274414 95.146836 
L 944.386937 125.92811 
L 946.499459 96.644895 
L 948.611982 96.389797 
L 950.724505 90.402695 
L 952.837027 97.105442 
L 954.94955 96.328163 
L 957.062072 95.287225 
L 959.174595 96.903418 
L 961.287117 96.05252 
L 963.39964 96.369252 
L 965.512162 96.139835 
L 967.624685 96.143259 
L 969.737207 90.109931 
L 971.84973 88.118796 
L 973.962252 96.703106 
L 976.074775 98.632607 
L 978.187297 96.216878 
L 980.29982 96.865752 
L 982.412342 96.198046 
L 984.524865 96.54902 
L 986.637387 106.285551 
L 988.74991 96.985597 
L 990.862432 96.059368 
L 992.974955 86.946029 
L 992.974955 86.946029 
" clip-path="url(#p07c366bf53)" style="fill: none; stroke: #111111; stroke-width: 1.1; stroke-linecap: square"/>
   </g>
   <g id="line2d_18">
    <path d="M 59.24 95.554308 
L 997.2 95.554308 
" clip-path="url(#p07c366bf53)" style="fill: none; stroke: #999999; stroke-width: 0.6; stroke-linecap: square"/>
   </g>
   <g id="patch_17">
    <path d="M 59.24 260.44 
L 59.24 26.88 
" style="fill: none; stroke: #000000; stroke-width: 0.8; stroke-linejoin: miter; stroke-linecap: square"/>
   </g>
   <g id="patch_18">
    <path d="M 997.2 260.44 
L 997.2 26.88 
" style="fill: none; stroke: #000000; stroke-width: 0.8; stroke-linejoin: miter; stroke-linecap: square"/>
   </g>
   <g id="patch_19">
    <path d="M 59.24 260.44 
L 997.2 260.44 
" style="fill: none; stroke: #000000; stroke-width: 0.8; stroke-linejoin: miter; stroke-linecap: square"/>
   </g>
   <g id="patch_20">
    <path d="M 59.24 26.88 
L 997.2 26.88 
" style="fill: none; stroke: #000000; stroke-width: 0.8; stroke-linejoin: miter; stroke-linecap: square"/>
   </g>
   <g id="text_19">
    <!-- seg1 -->
    <g style="fill: #4477aa" transform="translate(146.786661 93.719351) scale(0.08 -0.08)">
     <use xlink:href="#DejaVuSans-73"/>
     <use xlink:href="#DejaVuSans-65" x="52.099609"/>
     <use xlink:href="#DejaVuSans-67" x="113.623047"/>
     <use xlink:href="#DejaVuSans-31" x="177.099609"/>
    </g>
   </g>
   <g id="text_20">
    <!-- seg2 -->
    <g style="fill: #66ccee" transform="translate(333.744904 93.719351) scale(0.08 -0.08)">
     <use xlink:href="#DejaVuSans-73"/>
     <use xlink:href="#DejaVuSans-65" x="52.099609"/>
     <use xlink:href="#DejaVuSans-67" x="113.623047"/>
     <use xlink:href="#DejaVuSans-32" x="177.099609"/>
    </g>
   </g>
   <g id="text_21">
    <!-- seg3 -->
    <g style="fill: #228833" transform="translate(519.646886 93.719351) scale(0.08 -0.08)">
     <use xlink:href="#DejaVuSans-73"/>
     <use xlink:href="#DejaVuSans-65" x="52.099609"/>
     <use xlink:href="#DejaVuSans-67" x="113.623047"/>
     <use xlink:href="#DejaVuSans-33" x="177.099609"/>
    </g>
   </g>
   <g id="text_22">
    <!-- seg4 -->
    <g style="fill: #ccbb44" transform="translate(705.548868 93.719351) scale(0.08 -0.08)">
     <use xlink:href="#DejaVuSans-73"/>
     <use xlink:href="#DejaVuSans-65" x="52.099609"/>
     <use xlink:href="#DejaVuSans-67" x="113.623047"/>
     <use xlink:href="#DejaVuSans-34" x="177.099609"/>
    </g>
   </g>
   <g id="text_23">
    <!-- seg5 -->
    <g style="fill: #ee6677" transform="translate(891.45085 93.719351) scale(0.08 -0.08)">
     <use xlink:href="#DejaVuSans-73"/>
     <use xlink:href="#DejaVuSans-65" x="52.099609"/>
     <use xlink:href="#DejaVuSans-67" x="113.623047"/>
     <use xlink:href="#DejaVuSans-35" x="177.099609"/>
    </g>
   </g>
   <g id="text_24">
    <!-- LYS290 -->
    <g style="fill: #7a1f12" transform="translate(679.105388 196.579694) scale(0.08 -0.08)">
     <defs>
      <path id="DejaVuSans-Bold-4c" d="M 588 4666 
L 1791 4666 
L 1791 909 
L 3903 909 
L 3903 0 
L 588 0 
L 588 4666 
z
" transform="scale(0.015625)"/>
      <path id="DejaVuSans-Bold-59" d="M -63 4666 
L 1253 4666 
L 2316 3003 
L 3378 4666 
L 4697 4666 
L 2919 1966 
L 2919 0 
L 1716 0 
L 1716 1966 
L -63 4666 
z
" transform="scale(0.015625)"/>
      <path id="DejaVuSans-Bold-53" d="M 3834 4519 
L 3834 3531 
Q 3450 3703 3084 3790 
Q 2719 3878 2394 3878 
Q 1963 3878 1756 3759 
Q 1550 3641 1550 3391 
Q 1550 3203 1689 3098 
Q 1828 2994 2194 2919 
L 2706 2816 
Q 3484 2659 3812 2340 
Q 4141 2022 4141 1434 
Q 4141 663 3683 286 
Q 3225 -91 2284 -91 
Q 1841 -91 1394 -6 
Q 947 78 500 244 
L 500 1259 
Q 947 1022 1364 901 
Q 1781 781 2169 781 
Q 2563 781 2772 912 
Q 2981 1044 2981 1288 
Q 2981 1506 2839 1625 
Q 2697 1744 2272 1838 
L 1806 1941 
Q 1106 2091 782 2419 
Q 459 2747 459 3303 
Q 459 4000 909 4375 
Q 1359 4750 2203 4750 
Q 2588 4750 2994 4692 
Q 3400 4634 3834 4519 
z
" transform="scale(0.015625)"/>
      <path id="DejaVuSans-Bold-32" d="M 1844 884 
L 3897 884 
L 3897 0 
L 506 0 
L 506 884 
L 2209 2388 
Q 2438 2594 2547 2791 
Q 2656 2988 2656 3200 
Q 2656 3528 2436 3728 
Q 2216 3928 1850 3928 
Q 1569 3928 1234 3808 
Q 900 3688 519 3450 
L 519 4475 
Q 925 4609 1322 4679 
Q 1719 4750 2100 4750 
Q 2938 4750 3402 4381 
Q 3866 4013 3866 3353 
Q 3866 2972 3669 2642 
Q 3472 2313 2841 1759 
L 1844 884 
z
" transform="scale(0.015625)"/>
      <path id="DejaVuSans-Bold-39" d="M 641 103 
L 641 966 
Q 928 831 1190 764 
Q 1453 697 1709 697 
Q 2247 697 2547 995 
Q 2847 1294 2900 1881 
Q 2688 1725 2447 1647 
Q 2206 1569 1925 1569 
Q 1209 1569 770 1986 
Q 331 2403 331 3084 
Q 331 3838 820 4291 
Q 1309 4744 2131 4744 
Q 3044 4744 3544 4128 
Q 4044 3513 4044 2388 
Q 4044 1231 3459 570 
Q 2875 -91 1856 -91 
Q 1528 -91 1228 -42 
Q 928 6 641 103 
z
M 2125 2350 
Q 2441 2350 2600 2554 
Q 2759 2759 2759 3169 
Q 2759 3575 2600 3781 
Q 2441 3988 2125 3988 
Q 1809 3988 1650 3781 
Q 1491 3575 1491 3169 
Q 1491 2759 1650 2554 
Q 1809 2350 2125 2350 
z
" transform="scale(0.015625)"/>
      <path id="DejaVuSans-Bold-30" d="M 2944 2338 
Q 2944 3213 2780 3570 
Q 2616 3928 2228 3928 
Q 1841 3928 1675 3570 
Q 1509 3213 1509 2338 
Q 1509 1453 1675 1090 
Q 1841 728 2228 728 
Q 2613 728 2778 1090 
Q 2944 1453 2944 2338 
z
M 4147 2328 
Q 4147 1169 3647 539 
Q 3147 -91 2228 -91 
Q 1306 -91 806 539 
Q 306 1169 306 2328 
Q 306 3491 806 4120 
Q 1306 4750 2228 4750 
Q 3147 4750 3647 4120 
Q 4147 3491 4147 2328 
z
" transform="scale(0.015625)"/>
     </defs>
     <use xlink:href="#DejaVuSans-Bold-4c"/>
     <use xlink:href="#DejaVuSans-Bold-59" x="48.095703"/>
     <use xlink:href="#DejaVuSans-Bold-53" x="120.507812"/>
     <use xlink:href="#DejaVuSans-Bold-32" x="192.529297"/>
     <use xlink:href="#DejaVuSans-Bold-39" x="262.109375"/>
     <use xlink:href="#DejaVuSans-Bold-30" x="331.689453"/>
    </g>
   </g>
   <g id="text_25">
    <!-- HSP330 -->
    <g style="fill: #7a1f12" transform="translate(784.540735 173.811621) scale(0.08 -0.08)">
     <defs>
      <path id="DejaVuSans-Bold-48" d="M 588 4666 
L 1791 4666 
L 1791 2888 
L 3566 2888 
L 3566 4666 
L 4769 4666 
L 4769 0 
L 3566 0 
L 3566 1978 
L 1791 1978 
L 1791 0 
L 588 0 
L 588 4666 
z
" transform="scale(0.015625)"/>
      <path id="DejaVuSans-Bold-50" d="M 588 4666 
L 2584 4666 
Q 3475 4666 3951 4270 
Q 4428 3875 4428 3144 
Q 4428 2409 3951 2014 
Q 3475 1619 2584 1619 
L 1791 1619 
L 1791 0 
L 588 0 
L 588 4666 
z
M 1791 3794 
L 1791 2491 
L 2456 2491 
Q 2806 2491 2997 2661 
Q 3188 2831 3188 3144 
Q 3188 3456 2997 3625 
Q 2806 3794 2456 3794 
L 1791 3794 
z
" transform="scale(0.015625)"/>
      <path id="DejaVuSans-Bold-33" d="M 2981 2516 
Q 3453 2394 3698 2092 
Q 3944 1791 3944 1325 
Q 3944 631 3412 270 
Q 2881 -91 1863 -91 
Q 1503 -91 1142 -33 
Q 781 25 428 141 
L 428 1069 
Q 766 900 1098 814 
Q 1431 728 1753 728 
Q 2231 728 2486 893 
Q 2741 1059 2741 1369 
Q 2741 1688 2480 1852 
Q 2219 2016 1709 2016 
L 1228 2016 
L 1228 2791 
L 1734 2791 
Q 2188 2791 2409 2933 
Q 2631 3075 2631 3366 
Q 2631 3634 2415 3781 
Q 2200 3928 1806 3928 
Q 1516 3928 1219 3862 
Q 922 3797 628 3669 
L 628 4550 
Q 984 4650 1334 4700 
Q 1684 4750 2022 4750 
Q 2931 4750 3382 4451 
Q 3834 4153 3834 3553 
Q 3834 3144 3618 2883 
Q 3403 2622 2981 2516 
z
" transform="scale(0.015625)"/>
     </defs>
     <use xlink:href="#DejaVuSans-Bold-48"/>
     <use xlink:href="#DejaVuSans-Bold-53" x="83.691406"/>
     <use xlink:href="#DejaVuSans-Bold-50" x="155.712891"/>
     <use xlink:href="#DejaVuSans-Bold-33" x="229.003906"/>
     <use xlink:href="#DejaVuSans-Bold-33" x="298.583984"/>
     <use xlink:href="#DejaVuSans-Bold-30" x="368.164062"/>
    </g>
   </g>
   <g id="text_26">
    <!-- LYS225 -->
    <g style="fill: #7a1f12" transform="translate(551.021248 174.035249) scale(0.08 -0.08)">
     <defs>
      <path id="DejaVuSans-Bold-35" d="M 678 4666 
L 3669 4666 
L 3669 3781 
L 1638 3781 
L 1638 3059 
Q 1775 3097 1914 3117 
Q 2053 3138 2203 3138 
Q 3056 3138 3531 2711 
Q 4006 2284 4006 1522 
Q 4006 766 3489 337 
Q 2972 -91 2053 -91 
Q 1656 -91 1267 -14 
Q 878 63 494 219 
L 494 1166 
Q 875 947 1217 837 
Q 1559 728 1863 728 
Q 2300 728 2551 942 
Q 2803 1156 2803 1522 
Q 2803 1891 2551 2103 
Q 2300 2316 1863 2316 
Q 1603 2316 1309 2248 
Q 1016 2181 678 2041 
L 678 4666 
z
" transform="scale(0.015625)"/>
     </defs>
     <use xlink:href="#DejaVuSans-Bold-4c"/>
     <use xlink:href="#DejaVuSans-Bold-59" x="48.095703"/>
     <use xlink:href="#DejaVuSans-Bold-53" x="120.507812"/>
     <use xlink:href="#DejaVuSans-Bold-32" x="192.529297"/>
     <use xlink:href="#DejaVuSans-Bold-32" x="262.109375"/>
     <use xlink:href="#DejaVuSans-Bold-35" x="331.689453"/>
    </g>
   </g>
   <g id="text_27">
    <!-- HSP268 -->
    <g style="fill: #7a1f12" transform="translate(625.26474 173.019993) scale(0.08 -0.08)">
     <defs>
      <path id="DejaVuSans-Bold-36" d="M 2316 2303 
Q 2000 2303 1842 2098 
Q 1684 1894 1684 1484 
Q 1684 1075 1842 870 
Q 2000 666 2316 666 
Q 2634 666 2792 870 
Q 2950 1075 2950 1484 
Q 2950 1894 2792 2098 
Q 2634 2303 2316 2303 
z
M 3803 4544 
L 3803 3681 
Q 3506 3822 3243 3889 
Q 2981 3956 2731 3956 
Q 2194 3956 1894 3657 
Q 1594 3359 1544 2772 
Q 1750 2925 1990 3001 
Q 2231 3078 2516 3078 
Q 3231 3078 3670 2659 
Q 4109 2241 4109 1563 
Q 4109 813 3618 361 
Q 3128 -91 2303 -91 
Q 1394 -91 895 523 
Q 397 1138 397 2266 
Q 397 3422 980 4083 
Q 1563 4744 2578 4744 
Q 2900 4744 3203 4694 
Q 3506 4644 3803 4544 
z
" transform="scale(0.015625)"/>
      <path id="DejaVuSans-Bold-38" d="M 2228 2088 
Q 1891 2088 1709 1903 
Q 1528 1719 1528 1375 
Q 1528 1031 1709 848 
Q 1891 666 2228 666 
Q 2563 666 2741 848 
Q 2919 1031 2919 1375 
Q 2919 1722 2741 1905 
Q 2563 2088 2228 2088 
z
M 1350 2484 
Q 925 2613 709 2878 
Q 494 3144 494 3541 
Q 494 4131 934 4440 
Q 1375 4750 2228 4750 
Q 3075 4750 3515 4442 
Q 3956 4134 3956 3541 
Q 3956 3144 3739 2878 
Q 3522 2613 3097 2484 
Q 3572 2353 3814 2058 
Q 4056 1763 4056 1313 
Q 4056 619 3595 264 
Q 3134 -91 2228 -91 
Q 1319 -91 855 264 
Q 391 619 391 1313 
Q 391 1763 633 2058 
Q 875 2353 1350 2484 
z
M 1631 3419 
Q 1631 3141 1786 2991 
Q 1941 2841 2228 2841 
Q 2509 2841 2662 2991 
Q 2816 3141 2816 3419 
Q 2816 3697 2662 3845 
Q 2509 3994 2228 3994 
Q 1941 3994 1786 3844 
Q 1631 3694 1631 3419 
z
" transform="scale(0.015625)"/>
     </defs>
     <use xlink:href="#DejaVuSans-Bold-48"/>
     <use xlink:href="#DejaVuSans-Bold-53" x="83.691406"/>
     <use xlink:href="#DejaVuSans-Bold-50" x="155.712891"/>
     <use xlink:href="#DejaVuSans-Bold-32" x="229.003906"/>
     <use xlink:href="#DejaVuSans-Bold-36" x="298.583984"/>
     <use xlink:href="#DejaVuSans-Bold-38" x="368.164062"/>
    </g>
   </g>
   <g id="text_28">
    <!-- VAL300 -->
    <g style="fill: #7a1f12" transform="translate(714.358075 168.508437) scale(0.08 -0.08)">
     <defs>
      <path id="DejaVuSans-Bold-56" d="M 31 4666 
L 1241 4666 
L 2478 1222 
L 3713 4666 
L 4922 4666 
L 3194 0 
L 1759 0 
L 31 4666 
z
" transform="scale(0.015625)"/>
      <path id="DejaVuSans-Bold-41" d="M 3419 850 
L 1538 850 
L 1241 0 
L 31 0 
L 1759 4666 
L 3194 4666 
L 4922 0 
L 3713 0 
L 3419 850 
z
M 1838 1716 
L 3116 1716 
L 2478 3572 
L 1838 1716 
z
" transform="scale(0.015625)"/>
     </defs>
     <use xlink:href="#DejaVuSans-Bold-56"/>
     <use xlink:href="#DejaVuSans-Bold-41" x="70.642578"/>
     <use xlink:href="#DejaVuSans-Bold-4c" x="148.035156"/>
     <use xlink:href="#DejaVuSans-Bold-33" x="211.755859"/>
     <use xlink:href="#DejaVuSans-Bold-30" x="281.335938"/>
     <use xlink:href="#DejaVuSans-Bold-30" x="350.916016"/>
    </g>
   </g>
   <g id="text_29">
    <!-- PRO270 -->
    <g style="fill: #7a1f12" transform="translate(604.113489 152.243347) scale(0.08 -0.08)">
     <defs>
      <path id="DejaVuSans-Bold-52" d="M 2297 2597 
Q 2675 2597 2839 2737 
Q 3003 2878 3003 3200 
Q 3003 3519 2839 3656 
Q 2675 3794 2297 3794 
L 1791 3794 
L 1791 2597 
L 2297 2597 
z
M 1791 1766 
L 1791 0 
L 588 0 
L 588 4666 
L 2425 4666 
Q 3347 4666 3776 4356 
Q 4206 4047 4206 3378 
Q 4206 2916 3982 2619 
Q 3759 2322 3309 2181 
Q 3556 2125 3751 1926 
Q 3947 1728 4147 1325 
L 4800 0 
L 3519 0 
L 2950 1159 
Q 2778 1509 2601 1637 
Q 2425 1766 2131 1766 
L 1791 1766 
z
" transform="scale(0.015625)"/>
      <path id="DejaVuSans-Bold-4f" d="M 2719 3878 
Q 2169 3878 1866 3472 
Q 1563 3066 1563 2328 
Q 1563 1594 1866 1187 
Q 2169 781 2719 781 
Q 3272 781 3575 1187 
Q 3878 1594 3878 2328 
Q 3878 3066 3575 3472 
Q 3272 3878 2719 3878 
z
M 2719 4750 
Q 3844 4750 4481 4106 
Q 5119 3463 5119 2328 
Q 5119 1197 4481 553 
Q 3844 -91 2719 -91 
Q 1597 -91 958 553 
Q 319 1197 319 2328 
Q 319 3463 958 4106 
Q 1597 4750 2719 4750 
z
" transform="scale(0.015625)"/>
      <path id="DejaVuSans-Bold-37" d="M 428 4666 
L 3944 4666 
L 3944 3988 
L 2125 0 
L 953 0 
L 2675 3781 
L 428 3781 
L 428 4666 
z
" transform="scale(0.015625)"/>
     </defs>
     <use xlink:href="#DejaVuSans-Bold-50"/>
     <use xlink:href="#DejaVuSans-Bold-52" x="73.291016"/>
     <use xlink:href="#DejaVuSans-Bold-4f" x="150.292969"/>
     <use xlink:href="#DejaVuSans-Bold-32" x="235.302734"/>
     <use xlink:href="#DejaVuSans-Bold-37" x="304.882812"/>
     <use xlink:href="#DejaVuSans-Bold-30" x="374.462891"/>
    </g>
   </g>
   <g id="text_30">
    <!-- HSP94 -->
    <g style="fill: #7a1f12" transform="translate(274.069732 155.814104) scale(0.08 -0.08)">
     <defs>
      <path id="DejaVuSans-Bold-34" d="M 2356 3675 
L 1038 1722 
L 2356 1722 
L 2356 3675 
z
M 2156 4666 
L 3494 4666 
L 3494 1722 
L 4159 1722 
L 4159 850 
L 3494 850 
L 3494 0 
L 2356 0 
L 2356 850 
L 288 850 
L 288 1881 
L 2156 4666 
z
" transform="scale(0.015625)"/>
     </defs>
     <use xlink:href="#DejaVuSans-Bold-48"/>
     <use xlink:href="#DejaVuSans-Bold-53" x="83.691406"/>
     <use xlink:href="#DejaVuSans-Bold-50" x="155.712891"/>
     <use xlink:href="#DejaVuSans-Bold-39" x="229.003906"/>
     <use xlink:href="#DejaVuSans-Bold-34" x="298.583984"/>
    </g>
   </g>
   <g id="text_31">
    <!-- LYS281 -->
    <g style="fill: #7a1f12" transform="translate(676.937557 130.116135) scale(0.08 -0.08)">
     <defs>
      <path id="DejaVuSans-Bold-31" d="M 750 831 
L 1813 831 
L 1813 3847 
L 722 3622 
L 722 4441 
L 1806 4666 
L 2950 4666 
L 2950 831 
L 4013 831 
L 4013 0 
L 750 0 
L 750 831 
z
" transform="scale(0.015625)"/>
     </defs>
     <use xlink:href="#DejaVuSans-Bold-4c"/>
     <use xlink:href="#DejaVuSans-Bold-59" x="48.095703"/>
     <use xlink:href="#DejaVuSans-Bold-53" x="120.507812"/>
     <use xlink:href="#DejaVuSans-Bold-32" x="192.529297"/>
     <use xlink:href="#DejaVuSans-Bold-38" x="262.109375"/>
     <use xlink:href="#DejaVuSans-Bold-31" x="331.689453"/>
    </g>
   </g>
   <g id="text_32">
    <!-- LYS311 -->
    <g style="fill: #7a1f12" transform="translate(735.886561 149.123341) scale(0.08 -0.08)">
     <use xlink:href="#DejaVuSans-Bold-4c"/>
     <use xlink:href="#DejaVuSans-Bold-59" x="48.095703"/>
     <use xlink:href="#DejaVuSans-Bold-53" x="120.507812"/>
     <use xlink:href="#DejaVuSans-Bold-33" x="192.529297"/>
     <use xlink:href="#DejaVuSans-Bold-31" x="262.109375"/>
     <use xlink:href="#DejaVuSans-Bold-31" x="331.689453"/>
    </g>
   </g>
   <g id="text_33">
    <!-- HS binding along Tau (screened interaction energy) — 3 replicas/segment, mean ± SD -->
    <g transform="translate(268.584063 20.88) scale(0.12 -0.12)">
     <defs>
      <path id="DejaVuSans-48" d="M 628 4666 
L 1259 4666 
L 1259 2753 
L 3553 2753 
L 3553 4666 
L 4184 4666 
L 4184 0 
L 3553 0 
L 3553 2222 
L 1259 2222 
L 1259 0 
L 628 0 
L 628 4666 
z
" transform="scale(0.015625)"/>
      <path id="DejaVuSans-53" d="M 3425 4513 
L 3425 3897 
Q 3066 4069 2747 4153 
Q 2428 4238 2131 4238 
Q 1616 4238 1336 4038 
Q 1056 3838 1056 3469 
Q 1056 3159 1242 3001 
Q 1428 2844 1947 2747 
L 2328 2669 
Q 3034 2534 3370 2195 
Q 3706 1856 3706 1288 
Q 3706 609 3251 259 
Q 2797 -91 1919 -91 
Q 1588 -91 1214 -16 
Q 841 59 441 206 
L 441 856 
Q 825 641 1194 531 
Q 1563 422 1919 422 
Q 2459 422 2753 634 
Q 3047 847 3047 1241 
Q 3047 1584 2836 1778 
Q 2625 1972 2144 2069 
L 1759 2144 
Q 1053 2284 737 2584 
Q 422 2884 422 3419 
Q 422 4038 858 4394 
Q 1294 4750 2059 4750 
Q 2388 4750 2728 4690 
Q 3069 4631 3425 4513 
z
" transform="scale(0.015625)"/>
      <path id="DejaVuSans-2014" d="M 313 1978 
L 6088 1978 
L 6088 1528 
L 313 1528 
L 313 1978 
z
" transform="scale(0.015625)"/>
      <path id="DejaVuSans-70" d="M 1159 525 
L 1159 -1331 
L 581 -1331 
L 581 3500 
L 1159 3500 
L 1159 2969 
Q 1341 3281 1617 3432 
Q 1894 3584 2278 3584 
Q 2916 3584 3314 3078 
Q 3713 2572 3713 1747 
Q 3713 922 3314 415 
Q 2916 -91 2278 -91 
Q 1894 -91 1617 61 
Q 1341 213 1159 525 
z
M 3116 1747 
Q 3116 2381 2855 2742 
Q 2594 3103 2138 3103 
Q 1681 3103 1420 2742 
Q 1159 2381 1159 1747 
Q 1159 1113 1420 752 
Q 1681 391 2138 391 
Q 2594 391 2855 752 
Q 3116 1113 3116 1747 
z
" transform="scale(0.015625)"/>
      <path id="DejaVuSans-2c" d="M 750 794 
L 1409 794 
L 1409 256 
L 897 -744 
L 494 -744 
L 750 256 
L 750 794 
z
" transform="scale(0.015625)"/>
      <path id="DejaVuSans-b1" d="M 2944 4013 
L 2944 2803 
L 4684 2803 
L 4684 2272 
L 2944 2272 
L 2944 1063 
L 2419 1063 
L 2419 2272 
L 678 2272 
L 678 2803 
L 2419 2803 
L 2419 4013 
L 2944 4013 
z
M 678 531 
L 4684 531 
L 4684 0 
L 678 0 
L 678 531 
z
" transform="scale(0.015625)"/>
      <path id="DejaVuSans-44" d="M 1259 4147 
L 1259 519 
L 2022 519 
Q 2988 519 3436 956 
Q 3884 1394 3884 2338 
Q 3884 3275 3436 3711 
Q 2988 4147 2022 4147 
L 1259 4147 
z
M 628 4666 
L 1925 4666 
Q 3281 4666 3915 4102 
Q 4550 3538 4550 2338 
Q 4550 1131 3912 565 
Q 3275 0 1925 0 
L 628 0 
L 628 4666 
z
" transform="scale(0.015625)"/>
     </defs>
     <use xlink:href="#DejaVuSans-48"/>
     <use xlink:href="#DejaVuSans-53" x="75.195312"/>
     <use xlink:href="#DejaVuSans-20" x="138.671875"/>
     <use xlink:href="#DejaVuSans-62" x="170.458984"/>
     <use xlink:href="#DejaVuSans-69" x="233.935547"/>
     <use xlink:href="#DejaVuSans-6e" x="261.71875"/>
     <use xlink:href="#DejaVuSans-64" x="325.097656"/>
     <use xlink:href="#DejaVuSans-69" x="388.574219"/>
     <use xlink:href="#DejaVuSans-6e" x="416.357422"/>
     <use xlink:href="#DejaVuSans-67" x="479.736328"/>
     <use xlink:href="#DejaVuSans-20" x="543.212891"/>
     <use xlink:href="#DejaVuSans-61" x="575"/>
     <use xlink:href="#DejaVuSans-6c" x="636.279297"/>
     <use xlink:href="#DejaVuSans-6f" x="664.0625"/>
     <use xlink:href="#DejaVuSans-6e" x="725.244141"/>
     <use xlink:href="#DejaVuSans-67" x="788.623047"/>
     <use xlink:href="#DejaVuSans-20" x="852.099609"/>
     <use xlink:href="#DejaVuSans-54" x="883.886719"/>
     <use xlink:href="#DejaVuSans-61" x="928.470703"/>
     <use xlink:href="#DejaVuSans-75" x="989.75"/>
     <use xlink:href="#DejaVuSans-20" x="1053.128906"/>
     <use xlink:href="#DejaVuSans-28" x="1084.916016"/>
     <use xlink:href="#DejaVuSans-73" x="1123.929688"/>
     <use xlink:href="#DejaVuSans-63" x="1176.029297"/>
     <use xlink:href="#DejaVuSans-72" x="1231.009766"/>
     <use xlink:href="#DejaVuSans-65" x="1269.873047"/>
     <use xlink:href="#DejaVuSans-65" x="1331.396484"/>
     <use xlink:href="#DejaVuSans-6e" x="1392.919922"/>
     <use xlink:href="#DejaVuSans-65" x="1456.298828"/>
     <use xlink:href="#DejaVuSans-64" x="1517.822266"/>
     <use xlink:href="#DejaVuSans-20" x="1581.298828"/>
     <use xlink:href="#DejaVuSans-69" x="1613.085938"/>
     <use xlink:href="#DejaVuSans-6e" x="1640.869141"/>
     <use xlink:href="#DejaVuSans-74" x="1704.248047"/>
     <use xlink:href="#DejaVuSans-65" x="1743.457031"/>
     <use xlink:href="#DejaVuSans-72" x="1804.980469"/>
     <use xlink:href="#DejaVuSans-61" x="1846.09375"/>
     <use xlink:href="#DejaVuSans-63" x="1907.373047"/>
     <use xlink:href="#DejaVuSans-74" x="1962.353516"/>
     <use xlink:href="#DejaVuSans-69" x="2001.5625"/>
     <use xlink:href="#DejaVuSans-6f" x="2029.345703"/>
     <use xlink:href="#DejaVuSans-6e" x="2090.527344"/>
     <use xlink:href="#DejaVuSans-20" x="2153.90625"/>
     <use xlink:href="#DejaVuSans-65" x="2185.693359"/>
     <use xlink:href="#DejaVuSans-6e" x="2247.216797"/>
     <use xlink:href="#DejaVuSans-65" x="2310.595703"/>
     <use xlink:href="#DejaVuSans-72" x="2372.119141"/>
     <use xlink:href="#DejaVuSans-67" x="2411.482422"/>
     <use xlink:href="#DejaVuSans-79" x="2474.958984"/>
     <use xlink:href="#DejaVuSans-29" x="2534.138672"/>
     <use xlink:href="#DejaVuSans-20" x="2573.152344"/>
     <use xlink:href="#DejaVuSans-2014" x="2604.939453"/>
     <use xlink:href="#DejaVuSans-20" x="2704.939453"/>
     <use xlink:href="#DejaVuSans-33" x="2736.726562"/>
     <use xlink:href="#DejaVuSans-20" x="2800.349609"/>
     <use xlink:href="#DejaVuSans-72" x="2832.136719"/>
     <use xlink:href="#DejaVuSans-65" x="2871"/>
     <use xlink:href="#DejaVuSans-70" x="2932.523438"/>
     <use xlink:href="#DejaVuSans-6c" x="2996"/>
     <use xlink:href="#DejaVuSans-69" x="3023.783203"/>
     <use xlink:href="#DejaVuSans-63" x="3051.566406"/>
     <use xlink:href="#DejaVuSans-61" x="3106.546875"/>
     <use xlink:href="#DejaVuSans-73" x="3167.826172"/>
     <use xlink:href="#DejaVuSans-2f" x="3219.925781"/>
     <use xlink:href="#DejaVuSans-73" x="3253.617188"/>
     <use xlink:href="#DejaVuSans-65" x="3305.716797"/>
     <use xlink:href="#DejaVuSans-67" x="3367.240234"/>
     <use xlink:href="#DejaVuSans-6d" x="3430.716797"/>
     <use xlink:href="#DejaVuSans-65" x="3528.128906"/>
     <use xlink:href="#DejaVuSans-6e" x="3589.652344"/>
     <use xlink:href="#DejaVuSans-74" x="3653.03125"/>
     <use xlink:href="#DejaVuSans-2c" x="3692.240234"/>
     <use xlink:href="#DejaVuSans-20" x="3724.027344"/>
     <use xlink:href="#DejaVuSans-6d" x="3755.814453"/>
     <use xlink:href="#DejaVuSans-65" x="3853.226562"/>
     <use xlink:href="#DejaVuSans-61" x="3914.75"/>
     <use xlink:href="#DejaVuSans-6e" x="3976.029297"/>
     <use xlink:href="#DejaVuSans-20" x="4039.408203"/>
     <use xlink:href="#DejaVuSans-b1" x="4071.195312"/>
     <use xlink:href="#DejaVuSans-20" x="4154.984375"/>
     <use xlink:href="#DejaVuSans-53" x="4186.771484"/>
     <use xlink:href="#DejaVuSans-44" x="4250.248047"/>
    </g>
   </g>
   <g id="PathCollection_1">
    <defs>
     <path id="mdcb80887d2" d="M 0 1.870829 
C 0.49615 1.870829 0.972045 1.673706 1.322876 1.322876 
C 1.673706 0.972045 1.870829 0.49615 1.870829 0 
C 1.870829 -0.49615 1.673706 -0.972045 1.322876 -1.322876 
C 0.972045 -1.673706 0.49615 -1.870829 0 -1.870829 
C -0.49615 -1.870829 -0.972045 -1.673706 -1.322876 -1.322876 
C -1.673706 -0.972045 -1.870829 -0.49615 -1.870829 0 
C -1.870829 0.49615 -1.673706 0.972045 -1.322876 1.322876 
C -0.972045 1.673706 -0.49615 1.870829 0 1.870829 
z
" style="stroke: #c0392b"/>
    </defs>
    <g clip-path="url(#p07c366bf53)">
     <use xlink:href="#mdcb80887d2" x="673.984054" y="179.20596" style="fill: #c0392b; stroke: #c0392b"/>
    </g>
   </g>
   <g id="PathCollection_2">
    <g clip-path="url(#p07c366bf53)">
     <use xlink:href="#mdcb80887d2" x="758.484955" y="175.215129" style="fill: #c0392b; stroke: #c0392b"/>
    </g>
   </g>
   <g id="PathCollection_3">
    <g clip-path="url(#p07c366bf53)">
     <use xlink:href="#mdcb80887d2" x="536.67009" y="165.327935" style="fill: #c0392b; stroke: #c0392b"/>
    </g>
   </g>
   <g id="PathCollection_4">
    <g clip-path="url(#p07c366bf53)">
     <use xlink:href="#mdcb80887d2" x="627.508559" y="164.312679" style="fill: #c0392b; stroke: #c0392b"/>
    </g>
   </g>
   <g id="PathCollection_5">
    <g clip-path="url(#p07c366bf53)">
     <use xlink:href="#mdcb80887d2" x="695.109279" y="163.412131" style="fill: #c0392b; stroke: #c0392b"/>
    </g>
   </g>
   <g id="PathCollection_6">
    <g clip-path="url(#p07c366bf53)">
     <use xlink:href="#mdcb80887d2" x="631.733604" y="163.035476" style="fill: #c0392b; stroke: #c0392b"/>
    </g>
   </g>
   <g id="PathCollection_7">
    <g clip-path="url(#p07c366bf53)">
     <use xlink:href="#mdcb80887d2" x="259.92964" y="160.82862" style="fill: #c0392b; stroke: #c0392b"/>
    </g>
   </g>
   <g id="PathCollection_8">
    <g clip-path="url(#p07c366bf53)">
     <use xlink:href="#mdcb80887d2" x="654.971351" y="156.796699" style="fill: #c0392b; stroke: #c0392b"/>
    </g>
   </g>
   <g id="PathCollection_9">
    <g clip-path="url(#p07c366bf53)">
     <use xlink:href="#mdcb80887d2" x="718.347027" y="154.137857" style="fill: #c0392b; stroke: #c0392b"/>
    </g>
   </g>
   <g id="legend_1">
    <g id="patch_21">
     <path d="M 886.30875 56.765 
L 991.6 56.765 
Q 993.2 56.765 993.2 55.165 
L 993.2 32.48 
Q 993.2 30.88 991.6 30.88 
L 886.30875 30.88 
Q 884.70875 30.88 884.70875 32.48 
L 884.70875 55.165 
Q 884.70875 56.765 886.30875 56.765 
z
" style="fill: #ffffff; opacity: 0.9; stroke: #cccccc; stroke-linejoin: miter"/>
    </g>
    <g id="patch_22">
     <path d="M 887.90875 40.15875 
L 903.90875 40.15875 
L 903.90875 34.55875 
L 887.90875 34.55875 
z
" style="fill: #888888; fill-opacity: 0.25"/>
    </g>
    <g id="text_34">
     <!-- ±SD across replicas -->
     <g transform="translate(910.30875 40.15875) scale(0.08 -0.08)">
      <use xlink:href="#DejaVuSans-b1"/>
      <use xlink:href="#DejaVuSans-53" x="83.789062"/>
      <use xlink:href="#DejaVuSans-44" x="147.265625"/>
      <use xlink:href="#DejaVuSans-20" x="224.267578"/>
      <use xlink:href="#DejaVuSans-61" x="256.054688"/>
      <use xlink:href="#DejaVuSans-63" x="317.333984"/>
      <use xlink:href="#DejaVuSans-72" x="372.314453"/>
      <use xlink:href="#DejaVuSans-6f" x="411.177734"/>
      <use xlink:href="#DejaVuSans-73" x="472.359375"/>
      <use xlink:href="#DejaVuSans-73" x="524.458984"/>
      <use xlink:href="#DejaVuSans-20" x="576.558594"/>
      <use xlink:href="#DejaVuSans-72" x="608.345703"/>
      <use xlink:href="#DejaVuSans-65" x="647.208984"/>
      <use xlink:href="#DejaVuSans-70" x="708.732422"/>
      <use xlink:href="#DejaVuSans-6c" x="772.208984"/>
      <use xlink:href="#DejaVuSans-69" x="799.992188"/>
      <use xlink:href="#DejaVuSans-63" x="827.775391"/>
      <use xlink:href="#DejaVuSans-61" x="882.755859"/>
      <use xlink:href="#DejaVuSans-73" x="944.035156"/>
     </g>
    </g>
    <g id="line2d_19">
     <path d="M 887.90875 49.10125 
L 895.90875 49.10125 
L 903.90875 49.10125 
" style="fill: none; stroke: #111111; stroke-width: 1.1; stroke-linecap: square"/>
    </g>
    <g id="text_35">
     <!-- replica mean -->
     <g transform="translate(910.30875 51.90125) scale(0.08 -0.08)">
      <use xlink:href="#DejaVuSans-72"/>
      <use xlink:href="#DejaVuSans-65" x="38.863281"/>
      <use xlink:href="#DejaVuSans-70" x="100.386719"/>
      <use xlink:href="#DejaVuSans-6c" x="163.863281"/>
      <use xlink:href="#DejaVuSans-69" x="191.646484"/>
      <use xlink:href="#DejaVuSans-63" x="219.429688"/>
      <use xlink:href="#DejaVuSans-61" x="274.410156"/>
      <use xlink:href="#DejaVuSans-20" x="335.689453"/>
      <use xlink:href="#DejaVuSans-6d" x="367.476562"/>
      <use xlink:href="#DejaVuSans-65" x="464.888672"/>
      <use xlink:href="#DejaVuSans-61" x="526.412109"/>
      <use xlink:href="#DejaVuSans-6e" x="587.691406"/>
     </g>
    </g>
   </g>
  </g>
 </g>
 <defs>
  <clipPath id="p07c366bf53">
   <rect x="59.24" y="26.88" width="937.96" height="233.56"/>
  </clipPath>
 </defs>
</svg>
