<?xml version="1.0" encoding="utf-8" standalone="no"?>
<!DOCTYPE svg PUBLIC "-//W3C//DTD SVG 1.1//EN"
  "http://www.w3.org/Graphics/SVG/1.1/DTD/svg11.dtd">
<svg xmlns:xlink="http://www.w3.org/1999/xlink" width="1008pt" height="302.4pt" viewBox="0 0 1008 302.4" xmlns="http://www.w3.org/2000/svg" version="1.1">
 <metadata>
  <rdf:RDF xmlns:dc="http://purl.org/dc/elements/1.1/" xmlns:cc="http://creativecommons.org/ns#" xmlns:rdf="http://www.w3.org/1999/02/22-rdf-syntax-ns#">
   <cc:Work>
    <dc:type rdf:resource="http://purl.org/dc/dcmitype/StillImage"/>
    <dc:date>2026-06-09T12:16:13.357425</dc:date>
    <dc:format>image/svg+xml</dc:format>
    <dc:creator>
     <cc:Agent>
      <dc:title>Matplotlib v3.9.3, https://matplotlib.org/</dc:title>
     </cc:Agent>
    </dc:creator>
   </cc:Work>
  </rdf:RDF>
 </metadata>
 <defs>
  <style type="text/css">*{stroke-linejoin: round; stroke-linecap: butt}</style>
 </defs>
 <g id="figure_1">
  <g id="patch_1">
   <path d="M 0 302.4 
L 1008 302.4 
L 1008 0 
L 0 0 
z
" style="fill: #ffffff"/>
  </g>
  <g id="axes_1">
   <g id="patch_2">
    <path d="M 63.47 260.44 
L 997.2 260.44 
L 997.2 26.88 
L 63.47 26.88 
z
" style="fill: #ffffff"/>
   </g>
   <g id="patch_3">
    <path d="M 66.624493 260.44 
L 253.791092 260.44 
L 253.791092 26.88 
L 66.624493 26.88 
z
" clip-path="url(#p5328367f32)" style="fill: #4477aa; opacity: 0.08; stroke: #4477aa; stroke-linejoin: miter"/>
   </g>
   <g id="patch_4">
    <path d="M 253.791092 260.44 
L 438.854696 260.44 
L 438.854696 26.88 
L 253.791092 26.88 
z
" clip-path="url(#p5328367f32)" style="fill: #66ccee; opacity: 0.08; stroke: #66ccee; stroke-linejoin: miter"/>
   </g>
   <g id="patch_5">
    <path d="M 438.854696 260.44 
L 623.9183 260.44 
L 623.9183 26.88 
L 438.854696 26.88 
z
" clip-path="url(#p5328367f32)" style="fill: #228833; opacity: 0.08; stroke: #228833; stroke-linejoin: miter"/>
   </g>
   <g id="patch_6">
    <path d="M 623.9183 260.44 
L 808.981903 260.44 
L 808.981903 26.88 
L 623.9183 26.88 
z
" clip-path="url(#p5328367f32)" style="fill: #ccbb44; opacity: 0.08; stroke: #ccbb44; stroke-linejoin: miter"/>
   </g>
   <g id="patch_7">
    <path d="M 808.981903 260.44 
L 994.045507 260.44 
L 994.045507 26.88 
L 808.981903 26.88 
z
" clip-path="url(#p5328367f32)" style="fill: #ee6677; opacity: 0.08; stroke: #ee6677; stroke-linejoin: miter"/>
   </g>
   <g id="PolyCollection_1">
    <defs>
     <path id="m1243673e54" d="M 67.675991 -109.983569 
L 67.675991 -76.463374 
L 69.778986 -76.463374 
L 71.881982 -76.463374 
L 73.984977 -95.705703 
L 76.087973 -95.705703 
L 78.190968 -92.171679 
L 80.293964 -92.171679 
L 82.396959 -91.937103 
L 84.499955 -91.937103 
L 86.60295 -103.546244 
L 88.705946 -103.546244 
L 90.808941 -98.408722 
L 92.911937 -98.408722 
L 95.014932 -104.164769 
L 97.117928 -104.164769 
L 99.220923 -90.638183 
L 101.323919 -90.638183 
L 103.426914 -86.522933 
L 105.52991 -86.522933 
L 107.632905 -99.773401 
L 109.735901 -99.773401 
L 111.838896 -100.636225 
L 113.941892 -100.636225 
L 116.044887 -100.636225 
L 118.147883 -97.839693 
L 120.250878 -97.839693 
L 122.353874 -94.64295 
L 124.456869 -94.64295 
L 126.559865 -90.877001 
L 128.66286 -90.877001 
L 130.765856 -100.538823 
L 132.868851 -100.538823 
L 134.971847 -104.664149 
L 137.074842 -104.664149 
L 139.177838 -108.140722 
L 141.280833 -108.140722 
L 143.383829 -107.597679 
L 145.486824 -107.597679 
L 147.58982 -113.888284 
L 149.692815 -113.888284 
L 151.795811 -109.091755 
L 153.898806 -109.091755 
L 156.001802 -131.595525 
L 158.104797 -131.595525 
L 160.207793 -114.683404 
L 162.310788 -114.683404 
L 164.413784 -114.683404 
L 166.516779 -104.266766 
L 168.619775 -104.266766 
L 170.72277 -110.684647 
L 172.825766 -110.684647 
L 174.928761 -112.888108 
L 177.031757 -112.888108 
L 179.134752 -107.616594 
L 181.237748 -107.616594 
L 183.340743 -119.906483 
L 185.443739 -119.906483 
L 187.546734 -111.873791 
L 189.64973 -111.873791 
L 191.752725 -98.173085 
L 193.855721 -98.173085 
L 195.958716 -108.674927 
L 198.061712 -108.674927 
L 200.164707 -110.963416 
L 202.267703 -110.963416 
L 204.370698 -127.227668 
L 206.473694 -127.227668 
L 208.576689 -134.332308 
L 210.679685 -134.332308 
L 212.78268 -98.96025 
L 214.885676 -98.96025 
L 216.988671 -98.96025 
L 219.091667 -118.6811 
L 221.194662 -118.6811 
L 223.297658 -103.599982 
L 225.400653 -103.599982 
L 227.503649 -93.194304 
L 229.606644 -93.194304 
L 231.70964 -92.745834 
L 233.812635 -92.745834 
L 235.915631 -83.771832 
L 238.018626 -83.771832 
L 240.121622 -72.139357 
L 242.224617 -72.139357 
L 244.327613 -74.137586 
L 246.430608 -74.137586 
L 248.533604 -55.289636 
L 250.636599 -55.289636 
L 252.739595 -55.289636 
L 254.84259 -76.490597 
L 256.945586 -76.490597 
L 259.048581 -76.490597 
L 261.151577 -96.064903 
L 263.254572 -96.064903 
L 265.357568 -97.599107 
L 267.460563 -97.599107 
L 269.563559 -98.549963 
L 271.666554 -98.549963 
L 273.76955 -103.600336 
L 275.872545 -103.600336 
L 277.975541 -97.972272 
L 280.078536 -97.972272 
L 282.181532 -106.264996 
L 284.284527 -106.264996 
L 286.387523 -103.75784 
L 288.490518 -103.75784 
L 290.593514 -100.884766 
L 292.696509 -100.884766 
L 294.799505 -96.754137 
L 296.9025 -96.754137 
L 299.005495 -97.64436 
L 301.108491 -97.64436 
L 303.211486 -97.530873 
L 305.314482 -97.530873 
L 307.417477 -97.788076 
L 309.520473 -97.788076 
L 311.623468 -97.788076 
L 313.726464 -93.622446 
L 315.829459 -93.622446 
L 317.932455 -94.574893 
L 320.03545 -94.574893 
L 322.138446 -97.225057 
L 324.241441 -97.225057 
L 326.344437 -94.815479 
L 328.447432 -94.815479 
L 330.550428 -90.404844 
L 332.653423 -90.404844 
L 334.756419 -89.957788 
L 336.859414 -89.957788 
L 338.96241 -100.688549 
L 341.065405 -100.688549 
L 343.168401 -97.660623 
L 345.271396 -97.660623 
L 347.374392 -90.467421 
L 349.477387 -90.467421 
L 351.580383 -94.425344 
L 353.683378 -94.425344 
L 355.786374 -96.193593 
L 357.889369 -96.193593 
L 359.992365 -94.966266 
L 362.09536 -94.966266 
L 364.198356 -89.266433 
L 366.301351 -89.266433 
L 368.404347 -95.881414 
L 370.507342 -95.881414 
L 372.610338 -90.534418 
L 374.713333 -90.534418 
L 376.816329 -90.534418 
L 378.919324 -101.865496 
L 381.02232 -101.865496 
L 383.125315 -94.845354 
L 385.228311 -94.845354 
L 387.331306 -91.959553 
L 389.434302 -91.959553 
L 391.537297 -100.803804 
L 393.640293 -100.803804 
L 395.743288 -99.534052 
L 397.846284 -99.534052 
L 399.949279 -98.849591 
L 402.052275 -98.849591 
L 404.15527 -98.164777 
L 406.258266 -98.164777 
L 408.361261 -98.139852 
L 410.464257 -98.139852 
L 412.567252 -83.665768 
L 414.670248 -83.665768 
L 416.773243 -86.722508 
L 418.876239 -86.722508 
L 420.979234 -103.529981 
L 423.08223 -103.529981 
L 425.185225 -73.284308 
L 427.288221 -73.284308 
L 429.391216 -71.632375 
L 431.494212 -71.632375 
L 433.597207 -71.192036 
L 435.700203 -71.192036 
L 437.803198 -71.192036 
L 439.906194 -52.576364 
L 442.009189 -52.576364 
L 444.112185 -52.576364 
L 446.21518 -77.470444 
L 448.318176 -77.470444 
L 450.421171 -102.674405 
L 452.524167 -102.674405 
L 454.627162 -126.287242 
L 456.730158 -126.287242 
L 458.833153 -124.591115 
L 460.936149 -124.591115 
L 463.039144 -115.267458 
L 465.14214 -115.267458 
L 467.245135 -111.60227 
L 469.348131 -111.60227 
L 471.451126 -98.875576 
L 473.554122 -98.875576 
L 475.657117 -106.909152 
L 477.760113 -106.909152 
L 479.863108 -121.380231 
L 481.966104 -121.380231 
L 484.069099 -126.317647 
L 486.172095 -126.317647 
L 488.27509 -107.044383 
L 490.378086 -107.044383 
L 492.481081 -86.365606 
L 494.584077 -86.365606 
L 496.687072 -95.060132 
L 498.790068 -95.060132 
L 500.893063 -75.397616 
L 502.996059 -75.397616 
L 505.099054 -75.397616 
L 507.20205 -84.678141 
L 509.305045 -84.678141 
L 511.408041 -111.028822 
L 513.511036 -111.028822 
L 515.614032 -115.322258 
L 517.717027 -115.322258 
L 519.820023 -129.722627 
L 521.923018 -129.722627 
L 524.026014 -103.520789 
L 526.129009 -103.520789 
L 528.232005 -104.847638 
L 530.335 -104.847638 
L 532.437995 -107.802558 
L 534.540991 -107.802558 
L 536.643986 -108.710281 
L 538.746982 -108.710281 
L 540.849977 -91.664874 
L 542.952973 -91.664874 
L 545.055968 -94.639768 
L 547.158964 -94.639768 
L 549.261959 -114.746335 
L 551.364955 -114.746335 
L 553.46795 -114.746335 
L 555.570946 -108.559848 
L 557.673941 -108.559848 
L 559.776937 -98.059067 
L 561.879932 -98.059067 
L 563.982928 -114.780805 
L 566.085923 -114.780805 
L 568.188919 -121.587584 
L 570.291914 -121.587584 
L 572.39491 -119.482761 
L 574.497905 -119.482761 
L 576.600901 -96.453801 
L 578.703896 -96.453801 
L 580.806892 -89.069332 
L 582.909887 -89.069332 
L 585.012883 -85.847311 
L 587.115878 -85.847311 
L 589.218874 -83.629353 
L 591.321869 -83.629353 
L 593.424865 -91.957078 
L 595.52786 -91.957078 
L 597.630856 -91.739295 
L 599.733851 -91.739295 
L 601.836847 -70.438281 
L 603.939842 -70.438281 
L 606.042838 -72.892758 
L 608.145833 -72.892758 
L 610.248829 -73.299864 
L 612.351824 -73.299864 
L 614.45482 -71.848036 
L 616.557815 -71.848036 
L 618.660811 -69.932359 
L 620.763806 -69.932359 
L 622.866802 -69.932359 
L 624.969797 -94.059956 
L 627.072793 -94.059956 
L 629.175788 -94.059956 
L 631.278784 -98.265183 
L 633.381779 -98.265183 
L 635.484775 -101.924892 
L 637.58777 -101.924892 
L 639.690766 -100.233892 
L 641.793761 -100.233892 
L 643.896757 -111.275418 
L 645.999752 -111.275418 
L 648.102748 -102.462278 
L 650.205743 -102.462278 
L 652.308739 -111.427089 
L 654.411734 -111.427089 
L 656.51473 -101.415966 
L 658.617725 -101.415966 
L 660.720721 -87.405732 
L 662.823716 -87.405732 
L 664.926712 -96.806638 
L 667.029707 -96.806638 
L 669.132703 -117.649283 
L 671.235698 -117.649283 
L 673.338694 -114.025812 
L 675.441689 -114.025812 
L 677.544685 -108.27065 
L 679.64768 -108.27065 
L 681.750676 -91.838817 
L 683.853671 -91.838817 
L 685.956667 -81.307808 
L 688.059662 -81.307808 
L 690.162658 -81.307808 
L 692.265653 -79.062275 
L 694.368649 -79.062275 
L 696.471644 -60.243491 
L 698.57464 -60.243491 
L 700.677635 -72.142185 
L 702.780631 -72.142185 
L 704.883626 -73.974779 
L 706.986622 -73.974779 
L 709.089617 -74.003593 
L 711.192613 -74.003593 
L 713.295608 -75.086851 
L 715.398604 -75.086851 
L 717.501599 -72.700784 
L 719.604595 -72.700784 
L 721.70759 -73.386836 
L 723.810586 -73.386836 
L 725.913581 -74.816921 
L 728.016577 -74.816921 
L 730.119572 -73.498025 
L 732.222568 -73.498025 
L 734.325563 -74.683988 
L 736.428559 -74.683988 
L 738.531554 -74.612219 
L 740.63455 -74.612219 
L 742.737545 -72.908668 
L 744.840541 -72.908668 
L 746.943536 -72.908668 
L 749.046532 -67.399041 
L 751.149527 -67.399041 
L 753.252523 -66.798017 
L 755.355518 -66.798017 
L 757.458514 -72.068117 
L 759.561509 -72.068117 
L 761.664505 -73.487596 
L 763.7675 -73.487596 
L 765.870495 -75.06175 
L 767.973491 -75.06175 
L 770.076486 -74.323197 
L 772.179482 -74.323197 
L 774.282477 -70.752758 
L 776.385473 -70.752758 
L 778.488468 -71.246305 
L 780.591464 -71.246305 
L 782.694459 -73.857403 
L 784.797455 -73.857403 
L 786.90045 -75.029931 
L 789.003446 -75.029931 
L 791.106441 -74.865003 
L 793.209437 -74.865003 
L 795.312432 -74.064049 
L 797.415428 -74.064049 
L 799.518423 -73.438453 
L 801.621419 -73.438453 
L 803.724414 -70.212012 
L 805.82741 -70.212012 
L 807.930405 -70.212012 
L 810.033401 -77.173644 
L 812.136396 -77.173644 
L 814.239392 -77.173644 
L 816.342387 -79.256547 
L 818.445383 -79.256547 
L 820.548378 -94.468299 
L 822.651374 -94.468299 
L 824.754369 -94.223824 
L 826.857365 -94.223824 
L 828.96036 -101.844284 
L 831.063356 -101.844284 
L 833.166351 -105.483664 
L 835.269347 -105.483664 
L 837.372342 -116.394026 
L 839.475338 -116.394026 
L 841.578333 -106.554548 
L 843.681329 -106.554548 
L 845.784324 -103.564628 
L 847.88732 -103.564628 
L 849.990315 -91.089128 
L 852.093311 -91.089128 
L 854.196306 -96.340491 
L 856.299302 -96.340491 
L 858.402297 -106.098476 
L 860.505293 -106.098476 
L 862.608288 -87.046178 
L 864.711284 -87.046178 
L 866.814279 -75.749039 
L 868.917275 -75.749039 
L 871.02027 -75.749039 
L 873.123266 -112.970131 
L 875.226261 -112.970131 
L 877.329257 -117.786281 
L 879.432252 -117.786281 
L 881.535248 -101.622789 
L 883.638243 -101.622789 
L 885.741239 -89.135621 
L 887.844234 -89.135621 
L 889.94723 -100.756253 
L 892.050225 -100.756253 
L 894.153221 -71.650229 
L 896.256216 -71.650229 
L 898.359212 -69.131052 
L 900.462207 -69.131052 
L 902.565203 -74.975485 
L 904.668198 -74.975485 
L 906.771194 -72.175595 
L 908.874189 -72.175595 
L 910.977185 -73.452418 
L 913.08018 -73.452418 
L 915.183176 -65.463389 
L 917.286171 -65.463389 
L 919.389167 -69.638388 
L 921.492162 -69.638388 
L 923.595158 -71.553888 
L 925.698153 -71.553888 
L 927.801149 -71.553888 
L 929.904144 -74.908488 
L 932.00714 -74.908488 
L 934.110135 -73.472393 
L 936.213131 -73.472393 
L 938.316126 -71.109483 
L 940.419122 -71.109483 
L 942.522117 -70.154738 
L 944.625113 -70.154738 
L 946.728108 -71.803313 
L 948.831104 -71.803313 
L 950.934099 -71.532322 
L 953.037095 -71.532322 
L 955.14009 -72.480526 
L 957.243086 -72.480526 
L 959.346081 -73.274762 
L 961.449077 -73.274762 
L 963.552072 -74.264685 
L 965.655068 -74.264685 
L 967.758063 -74.253372 
L 969.861059 -74.253372 
L 971.964054 -75.237461 
L 974.06705 -75.237461 
L 976.170045 -71.844678 
L 978.273041 -71.844678 
L 980.376036 -72.700607 
L 982.479032 -72.700607 
L 984.582027 -73.515703 
L 986.685023 -73.515703 
L 988.788018 -58.648655 
L 990.891014 -58.648655 
L 992.994009 -58.648655 
L 992.994009 -112.808384 
L 992.994009 -112.808384 
L 990.891014 -112.808384 
L 988.788018 -112.808384 
L 986.685023 -118.583699 
L 984.582027 -118.583699 
L 982.479032 -107.467045 
L 980.376036 -107.467045 
L 978.273041 -103.036787 
L 976.170045 -103.036787 
L 974.06705 -141.878347 
L 971.964054 -141.878347 
L 969.861059 -128.077234 
L 967.758063 -128.077234 
L 965.655068 -128.190368 
L 963.552072 -128.190368 
L 961.449077 -132.063087 
L 959.346081 -132.063087 
L 957.243086 -103.483843 
L 955.14009 -103.483843 
L 953.037095 -116.828001 
L 950.934099 -116.828001 
L 948.831104 -124.435026 
L 946.728108 -124.435026 
L 944.625113 -132.121068 
L 942.522117 -132.121068 
L 940.419122 -126.002816 
L 938.316126 -126.002816 
L 936.213131 -128.530831 
L 934.110135 -128.530831 
L 932.00714 -138.068382 
L 929.904144 -138.068382 
L 927.801149 -126.885968 
L 925.698153 -126.885968 
L 923.595158 -126.885968 
L 921.492162 -148.385321 
L 919.389167 -148.385321 
L 917.286171 -150.15905 
L 915.183176 -150.15905 
L 913.08018 -156.137122 
L 910.977185 -156.137122 
L 908.874189 -146.682123 
L 906.771194 -146.682123 
L 904.668198 -143.794201 
L 902.565203 -143.794201 
L 900.462207 -142.422097 
L 898.359212 -142.422097 
L 896.256216 -147.295522 
L 894.153221 -147.295522 
L 892.050225 -113.26534 
L 889.94723 -113.26534 
L 887.844234 -127.463659 
L 885.741239 -127.463659 
L 883.638243 -146.740988 
L 881.535248 -146.740988 
L 879.432252 -133.472666 
L 877.329257 -133.472666 
L 875.226261 -127.708311 
L 873.123266 -127.708311 
L 871.02027 -182.391285 
L 868.917275 -182.391285 
L 866.814279 -182.391285 
L 864.711284 -152.442589 
L 862.608288 -152.442589 
L 860.505293 -138.599051 
L 858.402297 -138.599051 
L 856.299302 -130.574491 
L 854.196306 -130.574491 
L 852.093311 -123.642734 
L 849.990315 -123.642734 
L 847.88732 -115.362738 
L 845.784324 -115.362738 
L 843.681329 -109.913568 
L 841.578333 -109.913568 
L 839.475338 -124.276992 
L 837.372342 -124.276992 
L 835.269347 -108.469695 
L 833.166351 -108.469695 
L 831.063356 -107.692605 
L 828.96036 -107.692605 
L 826.857365 -111.661311 
L 824.754369 -111.661311 
L 822.651374 -115.7131 
L 820.548378 -115.7131 
L 818.445383 -107.130294 
L 816.342387 -107.130294 
L 814.239392 -96.704818 
L 812.136396 -96.704818 
L 810.033401 -96.704818 
L 807.930405 -97.277205 
L 805.82741 -97.277205 
L 803.724414 -97.277205 
L 801.621419 -116.68782 
L 799.518423 -116.68782 
L 797.415428 -128.234384 
L 795.312432 -128.234384 
L 793.209437 -136.98972 
L 791.106441 -136.98972 
L 789.003446 -138.936509 
L 786.90045 -138.936509 
L 784.797455 -128.032688 
L 782.694459 -128.032688 
L 780.591464 -125.160675 
L 778.488468 -125.160675 
L 776.385473 -131.689922 
L 774.282477 -131.689922 
L 772.179482 -139.25788 
L 770.076486 -139.25788 
L 767.973491 -140.380735 
L 765.870495 -140.380735 
L 763.7675 -117.559306 
L 761.664505 -117.559306 
L 759.561509 -137.25806 
L 757.458514 -137.25806 
L 755.355518 -160.474044 
L 753.252523 -160.474044 
L 751.149527 -138.990955 
L 749.046532 -138.990955 
L 746.943536 -146.741695 
L 744.840541 -146.741695 
L 742.737545 -146.741695 
L 740.63455 -141.82231 
L 738.531554 -141.82231 
L 736.428559 -134.677543 
L 734.325563 -134.677543 
L 732.222568 -137.713954 
L 730.119572 -137.713954 
L 728.016577 -135.880299 
L 725.913581 -135.880299 
L 723.810586 -123.669957 
L 721.70759 -123.669957 
L 719.604595 -139.812944 
L 717.501599 -139.812944 
L 715.398604 -149.63333 
L 713.295608 -149.63333 
L 711.192613 -132.487163 
L 709.089617 -132.487163 
L 706.986622 -124.291487 
L 704.883626 -124.291487 
L 702.780631 -113.161751 
L 700.677635 -113.161751 
L 698.57464 -264.903636 
L 696.471644 -264.903636 
L 694.368649 -248.159802 
L 692.265653 -248.159802 
L 690.162658 -221.080291 
L 688.059662 -221.080291 
L 685.956667 -221.080291 
L 683.853671 -187.915054 
L 681.750676 -187.915054 
L 679.64768 -208.26804 
L 677.544685 -208.26804 
L 675.441689 -181.606418 
L 673.338694 -181.606418 
L 671.235698 -149.367465 
L 669.132703 -149.367465 
L 667.029707 -173.247051 
L 664.926712 -173.247051 
L 662.823716 -176.976055 
L 660.720721 -176.976055 
L 658.617725 -163.847559 
L 656.51473 -163.847559 
L 654.411734 -143.868622 
L 652.308739 -143.868622 
L 650.205743 -144.037969 
L 648.102748 -144.037969 
L 645.999752 -136.056718 
L 643.896757 -136.056718 
L 641.793761 -128.116478 
L 639.690766 -128.116478 
L 637.58777 -111.61482 
L 635.484775 -111.61482 
L 633.381779 -110.990992 
L 631.278784 -110.990992 
L 629.175788 -100.153284 
L 627.072793 -100.153284 
L 624.969797 -100.153284 
L 622.866802 -98.256521 
L 620.763806 -98.256521 
L 618.660811 -98.256521 
L 616.557815 -94.914648 
L 614.45482 -94.914648 
L 612.351824 -117.881738 
L 610.248829 -117.881738 
L 608.145833 -116.596783 
L 606.042838 -116.596783 
L 603.939842 -107.010619 
L 601.836847 -107.010619 
L 599.733851 -111.684822 
L 597.630856 -111.684822 
L 595.52786 -102.909511 
L 593.424865 -102.909511 
L 591.321869 -117.645571 
L 589.218874 -117.645571 
L 587.115878 -121.203105 
L 585.012883 -121.203105 
L 582.909887 -126.321536 
L 580.806892 -126.321536 
L 578.703896 -105.800085 
L 576.600901 -105.800085 
L 574.497905 -139.716427 
L 572.39491 -139.716427 
L 570.291914 -144.029484 
L 568.188919 -144.029484 
L 566.085923 -127.31358 
L 563.982928 -127.31358 
L 561.879932 -118.7085 
L 559.776937 -118.7085 
L 557.673941 -139.443314 
L 555.570946 -139.443314 
L 553.46795 -173.476678 
L 551.364955 -173.476678 
L 549.261959 -173.476678 
L 547.158964 -170.355063 
L 545.055968 -170.355063 
L 542.952973 -144.66003 
L 540.849977 -144.66003 
L 538.746982 -128.945007 
L 536.643986 -128.945007 
L 534.540991 -125.993447 
L 532.437995 -125.993447 
L 530.335 -129.662525 
L 528.232005 -129.662525 
L 526.129009 -128.25542 
L 524.026014 -128.25542 
L 521.923018 -138.757085 
L 519.820023 -138.757085 
L 517.717027 -185.947936 
L 515.614032 -185.947936 
L 513.511036 -202.65182 
L 511.408041 -202.65182 
L 509.305045 -229.354276 
L 507.20205 -229.354276 
L 505.099054 -230.131719 
L 502.996059 -230.131719 
L 500.893063 -230.131719 
L 498.790068 -202.857052 
L 496.687072 -202.857052 
L 494.584077 -202.303226 
L 492.481081 -202.303226 
L 490.378086 -183.197365 
L 488.27509 -183.197365 
L 486.172095 -154.536806 
L 484.069099 -154.536806 
L 481.966104 -158.757235 
L 479.863108 -158.757235 
L 477.760113 -120.456951 
L 475.657117 -120.456951 
L 473.554122 -139.459577 
L 471.451126 -139.459577 
L 469.348131 -184.472597 
L 467.245135 -184.472597 
L 465.14214 -148.395573 
L 463.039144 -148.395573 
L 460.936149 -159.265631 
L 458.833153 -159.265631 
L 456.730158 -165.093624 
L 454.627162 -165.093624 
L 452.524167 -145.527449 
L 450.421171 -145.527449 
L 448.318176 -150.084099 
L 446.21518 -150.084099 
L 444.112185 -166.104229 
L 442.009189 -166.104229 
L 439.906194 -166.104229 
L 437.803198 -100.453442 
L 435.700203 -100.453442 
L 433.597207 -100.453442 
L 431.494212 -97.659209 
L 429.391216 -97.659209 
L 427.288221 -118.751456 
L 425.185225 -118.751456 
L 423.08223 -139.154115 
L 420.979234 -139.154115 
L 418.876239 -133.894797 
L 416.773243 -133.894797 
L 414.670248 -139.418212 
L 412.567252 -139.418212 
L 410.464257 -140.470712 
L 408.361261 -140.470712 
L 406.258266 -113.949447 
L 404.15527 -113.949447 
L 402.052275 -117.943431 
L 399.949279 -117.943431 
L 397.846284 -121.620994 
L 395.743288 -121.620994 
L 393.640293 -122.687459 
L 391.537297 -122.687459 
L 389.434302 -116.162454 
L 387.331306 -116.162454 
L 385.228311 -111.251554 
L 383.125315 -111.251554 
L 381.02232 -122.55488 
L 378.919324 -122.55488 
L 376.816329 -126.282292 
L 374.713333 -126.282292 
L 372.610338 -126.282292 
L 370.507342 -115.092631 
L 368.404347 -115.092631 
L 366.301351 -108.433103 
L 364.198356 -108.433103 
L 362.09536 -110.878565 
L 359.992365 -110.878565 
L 357.889369 -121.059743 
L 355.786374 -121.059743 
L 353.683378 -126.450049 
L 351.580383 -126.450049 
L 349.477387 -110.488607 
L 347.374392 -110.488607 
L 345.271396 -114.221322 
L 343.168401 -114.221322 
L 341.065405 -107.526086 
L 338.96241 -107.526086 
L 336.859414 -109.267997 
L 334.756419 -109.267997 
L 332.653423 -111.266049 
L 330.550428 -111.266049 
L 328.447432 -111.480474 
L 326.344437 -111.480474 
L 324.241441 -109.098119 
L 322.138446 -109.098119 
L 320.03545 -114.546229 
L 317.932455 -114.546229 
L 315.829459 -111.800254 
L 313.726464 -111.800254 
L 311.623468 -111.68058 
L 309.520473 -111.68058 
L 307.417477 -111.68058 
L 305.314482 -119.116136 
L 303.211486 -119.116136 
L 301.108491 -119.974894 
L 299.005495 -119.974894 
L 296.9025 -120.921684 
L 294.799505 -120.921684 
L 292.696509 -119.70461 
L 290.593514 -119.70461 
L 288.490518 -128.988493 
L 286.387523 -128.988493 
L 284.284527 -147.149155 
L 282.181532 -147.149155 
L 280.078536 -123.324191 
L 277.975541 -123.324191 
L 275.872545 -117.541629 
L 273.76955 -117.541629 
L 271.666554 -113.659011 
L 269.563559 -113.659011 
L 267.460563 -105.112266 
L 265.357568 -105.112266 
L 263.254572 -101.896255 
L 261.151577 -101.896255 
L 259.048581 -102.438945 
L 256.945586 -102.438945 
L 254.84259 -102.438945 
L 252.739595 -125.343987 
L 250.636599 -125.343987 
L 248.533604 -125.343987 
L 246.430608 -126.424947 
L 244.327613 -126.424947 
L 242.224617 -123.273458 
L 240.121622 -123.273458 
L 238.018626 -116.360085 
L 235.915631 -116.360085 
L 233.812635 -114.263217 
L 231.70964 -114.263217 
L 229.606644 -120.481876 
L 227.503649 -120.481876 
L 225.400653 -126.839124 
L 223.297658 -126.839124 
L 221.194662 -133.19973 
L 219.091667 -133.19973 
L 216.988671 -142.998727 
L 214.885676 -142.998727 
L 212.78268 -142.998727 
L 210.679685 -155.077905 
L 208.576689 -155.077905 
L 206.473694 -146.415198 
L 204.370698 -146.415198 
L 202.267703 -145.489443 
L 200.164707 -145.489443 
L 198.061712 -132.609489 
L 195.958716 -132.609489 
L 193.855721 -113.793357 
L 191.752725 -113.793357 
L 189.64973 -150.175666 
L 187.546734 -150.175666 
L 185.443739 -135.63989 
L 183.340743 -135.63989 
L 181.237748 -114.16776 
L 179.134752 -114.16776 
L 177.031757 -124.947841 
L 174.928761 -124.947841 
L 172.825766 -135.629283 
L 170.72277 -135.629283 
L 168.619775 -137.805699 
L 166.516779 -137.805699 
L 164.413784 -131.612849 
L 162.310788 -131.612849 
L 160.207793 -131.612849 
L 158.104797 -133.735172 
L 156.001802 -133.735172 
L 153.898806 -136.54125 
L 151.795811 -136.54125 
L 149.692815 -134.992374 
L 147.58982 -134.992374 
L 145.486824 -121.376342 
L 143.383829 -121.376342 
L 141.280833 -130.008467 
L 139.177838 -130.008467 
L 137.074842 -129.893389 
L 134.971847 -129.893389 
L 132.868851 -128.789095 
L 130.765856 -128.789095 
L 128.66286 -110.957229 
L 126.559865 -110.957229 
L 124.456869 -106.191812 
L 122.353874 -106.191812 
L 120.250878 -112.472164 
L 118.147883 -112.472164 
L 116.044887 -125.052667 
L 113.941892 -125.052667 
L 111.838896 -125.052667 
L 109.735901 -117.477107 
L 107.632905 -117.477107 
L 105.52991 -127.91266 
L 103.426914 -127.91266 
L 101.323919 -118.784866 
L 99.220923 -118.784866 
L 97.117928 -116.680573 
L 95.014932 -116.680573 
L 92.911937 -108.810334 
L 90.808941 -108.810334 
L 88.705946 -122.42619 
L 86.60295 -122.42619 
L 84.499955 -108.196229 
L 82.396959 -108.196229 
L 80.293964 -113.588655 
L 78.190968 -113.588655 
L 76.087973 -119.052321 
L 73.984977 -119.052321 
L 71.881982 -109.983569 
L 69.778986 -109.983569 
L 67.675991 -109.983569 
z
"/>
    </defs>
    <g clip-path="url(#p5328367f32)">
     <use xlink:href="#m1243673e54" x="0" y="302.4" style="fill: #888888; fill-opacity: 0.25"/>
    </g>
   </g>
   <g id="patch_8">
    <path d="M 748.264223 111.779067 
Q 722.209542 124.836432 696.154861 137.893797 
" clip-path="url(#p5328367f32)" style="fill: none; stroke: #888888; stroke-width: 0.7; stroke-linecap: round"/>
   </g>
   <g id="patch_9">
    <path d="M 673.060561 112.497754 
Q 682.073497 124.8362 691.086434 137.174646 
" clip-path="url(#p5328367f32)" style="fill: none; stroke: #888888; stroke-width: 0.7; stroke-linecap: round"/>
   </g>
   <g id="patch_10">
    <path d="M 715.547663 134.157837 
Q 706.966715 136.707738 698.385766 139.257639 
" clip-path="url(#p5328367f32)" style="fill: none; stroke: #888888; stroke-width: 0.7; stroke-linecap: round"/>
   </g>
   <g id="patch_11">
    <path d="M 788.355376 136.866749 
Q 744.463698 138.31367 700.57202 139.760591 
" clip-path="url(#p5328367f32)" style="fill: none; stroke: #888888; stroke-width: 0.7; stroke-linecap: round"/>
   </g>
   <g id="patch_12">
    <path d="M 718.749119 156.276221 
Q 700.155411 150.500702 681.561703 144.725183 
" clip-path="url(#p5328367f32)" style="fill: none; stroke: #888888; stroke-width: 0.7; stroke-linecap: round"/>
   </g>
   <g id="patch_13">
    <path d="M 670.334332 147.983373 
Q 673.057578 146.528257 675.780824 145.073141 
" clip-path="url(#p5328367f32)" style="fill: none; stroke: #888888; stroke-width: 0.7; stroke-linecap: round"/>
   </g>
   <g id="patch_14">
    <path d="M 494.7767 136.015517 
Q 500.190039 140.096983 505.603378 144.178449 
" clip-path="url(#p5328367f32)" style="fill: none; stroke: #888888; stroke-width: 0.7; stroke-linecap: round"/>
   </g>
   <g id="patch_15">
    <path d="M 541.635457 135.400661 
Q 526.427297 140.096705 511.219138 144.792749 
" clip-path="url(#p5328367f32)" style="fill: none; stroke: #888888; stroke-width: 0.7; stroke-linecap: round"/>
   </g>
   <g id="patch_16">
    <path d="M 544.107509 146.437203 
Q 529.808364 146.027096 515.509219 145.616988 
" clip-path="url(#p5328367f32)" style="fill: none; stroke: #888888; stroke-width: 0.7; stroke-linecap: round"/>
   </g>
   <g id="matplotlib.axis_1">
    <g id="xtick_1">
     <g id="line2d_1">
      <defs>
       <path id="m55706e9a40" d="M 0 0 
L 0 3.5 
" style="stroke: #000000; stroke-width: 0.8"/>
      </defs>
      <g>
       <use xlink:href="#m55706e9a40" x="65.572995" y="260.44" style="stroke: #000000; stroke-width: 0.8"/>
      </g>
     </g>
     <g id="text_1">
      <!-- 0 -->
      <g transform="translate(62.391745 275.038438) scale(0.1 -0.1)">
       <defs>
        <path id="DejaVuSans-30" d="M 2034 4250 
Q 1547 4250 1301 3770 
Q 1056 3291 1056 2328 
Q 1056 1369 1301 889 
Q 1547 409 2034 409 
Q 2525 409 2770 889 
Q 3016 1369 3016 2328 
Q 3016 3291 2770 3770 
Q 2525 4250 2034 4250 
z
M 2034 4750 
Q 2819 4750 3233 4129 
Q 3647 3509 3647 2328 
Q 3647 1150 3233 529 
Q 2819 -91 2034 -91 
Q 1250 -91 836 529 
Q 422 1150 422 2328 
Q 422 3509 836 4129 
Q 1250 4750 2034 4750 
z
" transform="scale(0.015625)"/>
       </defs>
       <use xlink:href="#DejaVuSans-30"/>
      </g>
     </g>
    </g>
    <g id="xtick_2">
     <g id="line2d_2">
      <g>
       <use xlink:href="#m55706e9a40" x="170.72277" y="260.44" style="stroke: #000000; stroke-width: 0.8"/>
      </g>
     </g>
     <g id="text_2">
      <!-- 50 -->
      <g transform="translate(164.36027 275.038438) scale(0.1 -0.1)">
       <defs>
        <path id="DejaVuSans-35" d="M 691 4666 
L 3169 4666 
L 3169 4134 
L 1269 4134 
L 1269 2991 
Q 1406 3038 1543 3061 
Q 1681 3084 1819 3084 
Q 2600 3084 3056 2656 
Q 3513 2228 3513 1497 
Q 3513 744 3044 326 
Q 2575 -91 1722 -91 
Q 1428 -91 1123 -41 
Q 819 9 494 109 
L 494 744 
Q 775 591 1075 516 
Q 1375 441 1709 441 
Q 2250 441 2565 725 
Q 2881 1009 2881 1497 
Q 2881 1984 2565 2268 
Q 2250 2553 1709 2553 
Q 1456 2553 1204 2497 
Q 953 2441 691 2322 
L 691 4666 
z
" transform="scale(0.015625)"/>
       </defs>
       <use xlink:href="#DejaVuSans-35"/>
       <use xlink:href="#DejaVuSans-30" x="63.623047"/>
      </g>
     </g>
    </g>
    <g id="xtick_3">
     <g id="line2d_3">
      <g>
       <use xlink:href="#m55706e9a40" x="275.872545" y="260.44" style="stroke: #000000; stroke-width: 0.8"/>
      </g>
     </g>
     <g id="text_3">
      <!-- 100 -->
      <g transform="translate(266.328795 275.038438) scale(0.1 -0.1)">
       <defs>
        <path id="DejaVuSans-31" d="M 794 531 
L 1825 531 
L 1825 4091 
L 703 3866 
L 703 4441 
L 1819 4666 
L 2450 4666 
L 2450 531 
L 3481 531 
L 3481 0 
L 794 0 
L 794 531 
z
" transform="scale(0.015625)"/>
       </defs>
       <use xlink:href="#DejaVuSans-31"/>
       <use xlink:href="#DejaVuSans-30" x="63.623047"/>
       <use xlink:href="#DejaVuSans-30" x="127.246094"/>
      </g>
     </g>
    </g>
    <g id="xtick_4">
     <g id="line2d_4">
      <g>
       <use xlink:href="#m55706e9a40" x="381.02232" y="260.44" style="stroke: #000000; stroke-width: 0.8"/>
      </g>
     </g>
     <g id="text_4">
      <!-- 150 -->
      <g transform="translate(371.47857 275.038438) scale(0.1 -0.1)">
       <use xlink:href="#DejaVuSans-31"/>
       <use xlink:href="#DejaVuSans-35" x="63.623047"/>
       <use xlink:href="#DejaVuSans-30" x="127.246094"/>
      </g>
     </g>
    </g>
    <g id="xtick_5">
     <g id="line2d_5">
      <g>
       <use xlink:href="#m55706e9a40" x="486.172095" y="260.44" style="stroke: #000000; stroke-width: 0.8"/>
      </g>
     </g>
     <g id="text_5">
      <!-- 200 -->
      <g transform="translate(476.628345 275.038438) scale(0.1 -0.1)">
       <defs>
        <path id="DejaVuSans-32" d="M 1228 531 
L 3431 531 
L 3431 0 
L 469 0 
L 469 531 
Q 828 903 1448 1529 
Q 2069 2156 2228 2338 
Q 2531 2678 2651 2914 
Q 2772 3150 2772 3378 
Q 2772 3750 2511 3984 
Q 2250 4219 1831 4219 
Q 1534 4219 1204 4116 
Q 875 4013 500 3803 
L 500 4441 
Q 881 4594 1212 4672 
Q 1544 4750 1819 4750 
Q 2544 4750 2975 4387 
Q 3406 4025 3406 3419 
Q 3406 3131 3298 2873 
Q 3191 2616 2906 2266 
Q 2828 2175 2409 1742 
Q 1991 1309 1228 531 
z
" transform="scale(0.015625)"/>
       </defs>
       <use xlink:href="#DejaVuSans-32"/>
       <use xlink:href="#DejaVuSans-30" x="63.623047"/>
       <use xlink:href="#DejaVuSans-30" x="127.246094"/>
      </g>
     </g>
    </g>
    <g id="xtick_6">
     <g id="line2d_6">
      <g>
       <use xlink:href="#m55706e9a40" x="591.321869" y="260.44" style="stroke: #000000; stroke-width: 0.8"/>
      </g>
     </g>
     <g id="text_6">
      <!-- 250 -->
      <g transform="translate(581.778119 275.038438) scale(0.1 -0.1)">
       <use xlink:href="#DejaVuSans-32"/>
       <use xlink:href="#DejaVuSans-35" x="63.623047"/>
       <use xlink:href="#DejaVuSans-30" x="127.246094"/>
      </g>
     </g>
    </g>
    <g id="xtick_7">
     <g id="line2d_7">
      <g>
       <use xlink:href="#m55706e9a40" x="696.471644" y="260.44" style="stroke: #000000; stroke-width: 0.8"/>
      </g>
     </g>
     <g id="text_7">
      <!-- 300 -->
      <g transform="translate(686.927894 275.038438) scale(0.1 -0.1)">
       <defs>
        <path id="DejaVuSans-33" d="M 2597 2516 
Q 3050 2419 3304 2112 
Q 3559 1806 3559 1356 
Q 3559 666 3084 287 
Q 2609 -91 1734 -91 
Q 1441 -91 1130 -33 
Q 819 25 488 141 
L 488 750 
Q 750 597 1062 519 
Q 1375 441 1716 441 
Q 2309 441 2620 675 
Q 2931 909 2931 1356 
Q 2931 1769 2642 2001 
Q 2353 2234 1838 2234 
L 1294 2234 
L 1294 2753 
L 1863 2753 
Q 2328 2753 2575 2939 
Q 2822 3125 2822 3475 
Q 2822 3834 2567 4026 
Q 2313 4219 1838 4219 
Q 1578 4219 1281 4162 
Q 984 4106 628 3988 
L 628 4550 
Q 988 4650 1302 4700 
Q 1616 4750 1894 4750 
Q 2613 4750 3031 4423 
Q 3450 4097 3450 3541 
Q 3450 3153 3228 2886 
Q 3006 2619 2597 2516 
z
" transform="scale(0.015625)"/>
       </defs>
       <use xlink:href="#DejaVuSans-33"/>
       <use xlink:href="#DejaVuSans-30" x="63.623047"/>
       <use xlink:href="#DejaVuSans-30" x="127.246094"/>
      </g>
     </g>
    </g>
    <g id="xtick_8">
     <g id="line2d_8">
      <g>
       <use xlink:href="#m55706e9a40" x="801.621419" y="260.44" style="stroke: #000000; stroke-width: 0.8"/>
      </g>
     </g>
     <g id="text_8">
      <!-- 350 -->
      <g transform="translate(792.077669 275.038438) scale(0.1 -0.1)">
       <use xlink:href="#DejaVuSans-33"/>
       <use xlink:href="#DejaVuSans-35" x="63.623047"/>
       <use xlink:href="#DejaVuSans-30" x="127.246094"/>
      </g>
     </g>
    </g>
    <g id="xtick_9">
     <g id="line2d_9">
      <g>
       <use xlink:href="#m55706e9a40" x="906.771194" y="260.44" style="stroke: #000000; stroke-width: 0.8"/>
      </g>
     </g>
     <g id="text_9">
      <!-- 400 -->
      <g transform="translate(897.227444 275.038438) scale(0.1 -0.1)">
       <defs>
        <path id="DejaVuSans-34" d="M 2419 4116 
L 825 1625 
L 2419 1625 
L 2419 4116 
z
M 2253 4666 
L 3047 4666 
L 3047 1625 
L 3713 1625 
L 3713 1100 
L 3047 1100 
L 3047 0 
L 2419 0 
L 2419 1100 
L 313 1100 
L 313 1709 
L 2253 4666 
z
" transform="scale(0.015625)"/>
       </defs>
       <use xlink:href="#DejaVuSans-34"/>
       <use xlink:href="#DejaVuSans-30" x="63.623047"/>
       <use xlink:href="#DejaVuSans-30" x="127.246094"/>
      </g>
     </g>
    </g>
    <g id="text_10">
     <!-- Tau residue number -->
     <g transform="translate(480.748281 288.716563) scale(0.1 -0.1)">
      <defs>
       <path id="DejaVuSans-54" d="M -19 4666 
L 3928 4666 
L 3928 4134 
L 2272 4134 
L 2272 0 
L 1638 0 
L 1638 4134 
L -19 4134 
L -19 4666 
z
" transform="scale(0.015625)"/>
       <path id="DejaVuSans-61" d="M 2194 1759 
Q 1497 1759 1228 1600 
Q 959 1441 959 1056 
Q 959 750 1161 570 
Q 1363 391 1709 391 
Q 2188 391 2477 730 
Q 2766 1069 2766 1631 
L 2766 1759 
L 2194 1759 
z
M 3341 1997 
L 3341 0 
L 2766 0 
L 2766 531 
Q 2569 213 2275 61 
Q 1981 -91 1556 -91 
Q 1019 -91 701 211 
Q 384 513 384 1019 
Q 384 1609 779 1909 
Q 1175 2209 1959 2209 
L 2766 2209 
L 2766 2266 
Q 2766 2663 2505 2880 
Q 2244 3097 1772 3097 
Q 1472 3097 1187 3025 
Q 903 2953 641 2809 
L 641 3341 
Q 956 3463 1253 3523 
Q 1550 3584 1831 3584 
Q 2591 3584 2966 3190 
Q 3341 2797 3341 1997 
z
" transform="scale(0.015625)"/>
       <path id="DejaVuSans-75" d="M 544 1381 
L 544 3500 
L 1119 3500 
L 1119 1403 
Q 1119 906 1312 657 
Q 1506 409 1894 409 
Q 2359 409 2629 706 
Q 2900 1003 2900 1516 
L 2900 3500 
L 3475 3500 
L 3475 0 
L 2900 0 
L 2900 538 
Q 2691 219 2414 64 
Q 2138 -91 1772 -91 
Q 1169 -91 856 284 
Q 544 659 544 1381 
z
M 1991 3584 
L 1991 3584 
z
" transform="scale(0.015625)"/>
       <path id="DejaVuSans-20" transform="scale(0.015625)"/>
       <path id="DejaVuSans-72" d="M 2631 2963 
Q 2534 3019 2420 3045 
Q 2306 3072 2169 3072 
Q 1681 3072 1420 2755 
Q 1159 2438 1159 1844 
L 1159 0 
L 581 0 
L 581 3500 
L 1159 3500 
L 1159 2956 
Q 1341 3275 1631 3429 
Q 1922 3584 2338 3584 
Q 2397 3584 2469 3576 
Q 2541 3569 2628 3553 
L 2631 2963 
z
" transform="scale(0.015625)"/>
       <path id="DejaVuSans-65" d="M 3597 1894 
L 3597 1613 
L 953 1613 
Q 991 1019 1311 708 
Q 1631 397 2203 397 
Q 2534 397 2845 478 
Q 3156 559 3463 722 
L 3463 178 
Q 3153 47 2828 -22 
Q 2503 -91 2169 -91 
Q 1331 -91 842 396 
Q 353 884 353 1716 
Q 353 2575 817 3079 
Q 1281 3584 2069 3584 
Q 2775 3584 3186 3129 
Q 3597 2675 3597 1894 
z
M 3022 2063 
Q 3016 2534 2758 2815 
Q 2500 3097 2075 3097 
Q 1594 3097 1305 2825 
Q 1016 2553 972 2059 
L 3022 2063 
z
" transform="scale(0.015625)"/>
       <path id="DejaVuSans-73" d="M 2834 3397 
L 2834 2853 
Q 2591 2978 2328 3040 
Q 2066 3103 1784 3103 
Q 1356 3103 1142 2972 
Q 928 2841 928 2578 
Q 928 2378 1081 2264 
Q 1234 2150 1697 2047 
L 1894 2003 
Q 2506 1872 2764 1633 
Q 3022 1394 3022 966 
Q 3022 478 2636 193 
Q 2250 -91 1575 -91 
Q 1294 -91 989 -36 
Q 684 19 347 128 
L 347 722 
Q 666 556 975 473 
Q 1284 391 1588 391 
Q 1994 391 2212 530 
Q 2431 669 2431 922 
Q 2431 1156 2273 1281 
Q 2116 1406 1581 1522 
L 1381 1569 
Q 847 1681 609 1914 
Q 372 2147 372 2553 
Q 372 3047 722 3315 
Q 1072 3584 1716 3584 
Q 2034 3584 2315 3537 
Q 2597 3491 2834 3397 
z
" transform="scale(0.015625)"/>
       <path id="DejaVuSans-69" d="M 603 3500 
L 1178 3500 
L 1178 0 
L 603 0 
L 603 3500 
z
M 603 4863 
L 1178 4863 
L 1178 4134 
L 603 4134 
L 603 4863 
z
" transform="scale(0.015625)"/>
       <path id="DejaVuSans-64" d="M 2906 2969 
L 2906 4863 
L 3481 4863 
L 3481 0 
L 2906 0 
L 2906 525 
Q 2725 213 2448 61 
Q 2172 -91 1784 -91 
Q 1150 -91 751 415 
Q 353 922 353 1747 
Q 353 2572 751 3078 
Q 1150 3584 1784 3584 
Q 2172 3584 2448 3432 
Q 2725 3281 2906 2969 
z
M 947 1747 
Q 947 1113 1208 752 
Q 1469 391 1925 391 
Q 2381 391 2643 752 
Q 2906 1113 2906 1747 
Q 2906 2381 2643 2742 
Q 2381 3103 1925 3103 
Q 1469 3103 1208 2742 
Q 947 2381 947 1747 
z
" transform="scale(0.015625)"/>
       <path id="DejaVuSans-6e" d="M 3513 2113 
L 3513 0 
L 2938 0 
L 2938 2094 
Q 2938 2591 2744 2837 
Q 2550 3084 2163 3084 
Q 1697 3084 1428 2787 
Q 1159 2491 1159 1978 
L 1159 0 
L 581 0 
L 581 3500 
L 1159 3500 
L 1159 2956 
Q 1366 3272 1645 3428 
Q 1925 3584 2291 3584 
Q 2894 3584 3203 3211 
Q 3513 2838 3513 2113 
z
" transform="scale(0.015625)"/>
       <path id="DejaVuSans-6d" d="M 3328 2828 
Q 3544 3216 3844 3400 
Q 4144 3584 4550 3584 
Q 5097 3584 5394 3201 
Q 5691 2819 5691 2113 
L 5691 0 
L 5113 0 
L 5113 2094 
Q 5113 2597 4934 2840 
Q 4756 3084 4391 3084 
Q 3944 3084 3684 2787 
Q 3425 2491 3425 1978 
L 3425 0 
L 2847 0 
L 2847 2094 
Q 2847 2600 2669 2842 
Q 2491 3084 2119 3084 
Q 1678 3084 1418 2786 
Q 1159 2488 1159 1978 
L 1159 0 
L 581 0 
L 581 3500 
L 1159 3500 
L 1159 2956 
Q 1356 3278 1631 3431 
Q 1906 3584 2284 3584 
Q 2666 3584 2933 3390 
Q 3200 3197 3328 2828 
z
" transform="scale(0.015625)"/>
       <path id="DejaVuSans-62" d="M 3116 1747 
Q 3116 2381 2855 2742 
Q 2594 3103 2138 3103 
Q 1681 3103 1420 2742 
Q 1159 2381 1159 1747 
Q 1159 1113 1420 752 
Q 1681 391 2138 391 
Q 2594 391 2855 752 
Q 3116 1113 3116 1747 
z
M 1159 2969 
Q 1341 3281 1617 3432 
Q 1894 3584 2278 3584 
Q 2916 3584 3314 3078 
Q 3713 2572 3713 1747 
Q 3713 922 3314 415 
Q 2916 -91 2278 -91 
Q 1894 -91 1617 61 
Q 1341 213 1159 525 
L 1159 0 
L 581 0 
L 581 4863 
L 1159 4863 
L 1159 2969 
z
" transform="scale(0.015625)"/>
      </defs>
      <use xlink:href="#DejaVuSans-54"/>
      <use xlink:href="#DejaVuSans-61" x="44.583984"/>
      <use xlink:href="#DejaVuSans-75" x="105.863281"/>
      <use xlink:href="#DejaVuSans-20" x="169.242188"/>
      <use xlink:href="#DejaVuSans-72" x="201.029297"/>
      <use xlink:href="#DejaVuSans-65" x="239.892578"/>
      <use xlink:href="#DejaVuSans-73" x="301.416016"/>
      <use xlink:href="#DejaVuSans-69" x="353.515625"/>
      <use xlink:href="#DejaVuSans-64" x="381.298828"/>
      <use xlink:href="#DejaVuSans-75" x="444.775391"/>
      <use xlink:href="#DejaVuSans-65" x="508.154297"/>
      <use xlink:href="#DejaVuSans-20" x="569.677734"/>
      <use xlink:href="#DejaVuSans-6e" x="601.464844"/>
      <use xlink:href="#DejaVuSans-75" x="664.84375"/>
      <use xlink:href="#DejaVuSans-6d" x="728.222656"/>
      <use xlink:href="#DejaVuSans-62" x="825.634766"/>
      <use xlink:href="#DejaVuSans-65" x="889.111328"/>
      <use xlink:href="#DejaVuSans-72" x="950.634766"/>
     </g>
    </g>
   </g>
   <g id="matplotlib.axis_2">
    <g id="ytick_1">
     <g id="line2d_10">
      <defs>
       <path id="m40fd492fcd" d="M 0 0 
L -3.5 0 
" style="stroke: #000000; stroke-width: 0.8"/>
      </defs>
      <g>
       <use xlink:href="#m40fd492fcd" x="63.47" y="232.306071" style="stroke: #000000; stroke-width: 0.8"/>
      </g>
     </g>
     <g id="text_11">
      <!-- 0 -->
      <g transform="translate(50.1075 236.10529) scale(0.1 -0.1)">
       <use xlink:href="#DejaVuSans-30"/>
      </g>
     </g>
    </g>
    <g id="ytick_2">
     <g id="line2d_11">
      <g>
       <use xlink:href="#m40fd492fcd" x="63.47" y="196.951691" style="stroke: #000000; stroke-width: 0.8"/>
      </g>
     </g>
     <g id="text_12">
      <!-- 2000 -->
      <g transform="translate(31.02 200.750909) scale(0.1 -0.1)">
       <use xlink:href="#DejaVuSans-32"/>
       <use xlink:href="#DejaVuSans-30" x="63.623047"/>
       <use xlink:href="#DejaVuSans-30" x="127.246094"/>
       <use xlink:href="#DejaVuSans-30" x="190.869141"/>
      </g>
     </g>
    </g>
    <g id="ytick_3">
     <g id="line2d_12">
      <g>
       <use xlink:href="#m40fd492fcd" x="63.47" y="161.59731" style="stroke: #000000; stroke-width: 0.8"/>
      </g>
     </g>
     <g id="text_13">
      <!-- 4000 -->
      <g transform="translate(31.02 165.396529) scale(0.1 -0.1)">
       <use xlink:href="#DejaVuSans-34"/>
       <use xlink:href="#DejaVuSans-30" x="63.623047"/>
       <use xlink:href="#DejaVuSans-30" x="127.246094"/>
       <use xlink:href="#DejaVuSans-30" x="190.869141"/>
      </g>
     </g>
    </g>
    <g id="ytick_4">
     <g id="line2d_13">
      <g>
       <use xlink:href="#m40fd492fcd" x="63.47" y="126.24293" style="stroke: #000000; stroke-width: 0.8"/>
      </g>
     </g>
     <g id="text_14">
      <!-- 6000 -->
      <g transform="translate(31.02 130.042148) scale(0.1 -0.1)">
       <defs>
        <path id="DejaVuSans-36" d="M 2113 2584 
Q 1688 2584 1439 2293 
Q 1191 2003 1191 1497 
Q 1191 994 1439 701 
Q 1688 409 2113 409 
Q 2538 409 2786 701 
Q 3034 994 3034 1497 
Q 3034 2003 2786 2293 
Q 2538 2584 2113 2584 
z
M 3366 4563 
L 3366 3988 
Q 3128 4100 2886 4159 
Q 2644 4219 2406 4219 
Q 1781 4219 1451 3797 
Q 1122 3375 1075 2522 
Q 1259 2794 1537 2939 
Q 1816 3084 2150 3084 
Q 2853 3084 3261 2657 
Q 3669 2231 3669 1497 
Q 3669 778 3244 343 
Q 2819 -91 2113 -91 
Q 1303 -91 875 529 
Q 447 1150 447 2328 
Q 447 3434 972 4092 
Q 1497 4750 2381 4750 
Q 2619 4750 2861 4703 
Q 3103 4656 3366 4563 
z
" transform="scale(0.015625)"/>
       </defs>
       <use xlink:href="#DejaVuSans-36"/>
       <use xlink:href="#DejaVuSans-30" x="63.623047"/>
       <use xlink:href="#DejaVuSans-30" x="127.246094"/>
       <use xlink:href="#DejaVuSans-30" x="190.869141"/>
      </g>
     </g>
    </g>
    <g id="ytick_5">
     <g id="line2d_14">
      <g>
       <use xlink:href="#m40fd492fcd" x="63.47" y="90.888549" style="stroke: #000000; stroke-width: 0.8"/>
      </g>
     </g>
     <g id="text_15">
      <!-- 8000 -->
      <g transform="translate(31.02 94.687768) scale(0.1 -0.1)">
       <defs>
        <path id="DejaVuSans-38" d="M 2034 2216 
Q 1584 2216 1326 1975 
Q 1069 1734 1069 1313 
Q 1069 891 1326 650 
Q 1584 409 2034 409 
Q 2484 409 2743 651 
Q 3003 894 3003 1313 
Q 3003 1734 2745 1975 
Q 2488 2216 2034 2216 
z
M 1403 2484 
Q 997 2584 770 2862 
Q 544 3141 544 3541 
Q 544 4100 942 4425 
Q 1341 4750 2034 4750 
Q 2731 4750 3128 4425 
Q 3525 4100 3525 3541 
Q 3525 3141 3298 2862 
Q 3072 2584 2669 2484 
Q 3125 2378 3379 2068 
Q 3634 1759 3634 1313 
Q 3634 634 3220 271 
Q 2806 -91 2034 -91 
Q 1263 -91 848 271 
Q 434 634 434 1313 
Q 434 1759 690 2068 
Q 947 2378 1403 2484 
z
M 1172 3481 
Q 1172 3119 1398 2916 
Q 1625 2713 2034 2713 
Q 2441 2713 2670 2916 
Q 2900 3119 2900 3481 
Q 2900 3844 2670 4047 
Q 2441 4250 2034 4250 
Q 1625 4250 1398 4047 
Q 1172 3844 1172 3481 
z
" transform="scale(0.015625)"/>
       </defs>
       <use xlink:href="#DejaVuSans-38"/>
       <use xlink:href="#DejaVuSans-30" x="63.623047"/>
       <use xlink:href="#DejaVuSans-30" x="127.246094"/>
       <use xlink:href="#DejaVuSans-30" x="190.869141"/>
      </g>
     </g>
    </g>
    <g id="ytick_6">
     <g id="line2d_15">
      <g>
       <use xlink:href="#m40fd492fcd" x="63.47" y="55.534169" style="stroke: #000000; stroke-width: 0.8"/>
      </g>
     </g>
     <g id="text_16">
      <!-- 10000 -->
      <g transform="translate(24.6575 59.333387) scale(0.1 -0.1)">
       <use xlink:href="#DejaVuSans-31"/>
       <use xlink:href="#DejaVuSans-30" x="63.623047"/>
       <use xlink:href="#DejaVuSans-30" x="127.246094"/>
       <use xlink:href="#DejaVuSans-30" x="190.869141"/>
       <use xlink:href="#DejaVuSans-30" x="254.492188"/>
      </g>
     </g>
    </g>
    <g id="text_17">
     <!-- stickiness (mean drag force, kJ/mol/nm) -->
     <g transform="translate(18.577813 243.281875) rotate(-90) scale(0.1 -0.1)">
      <defs>
       <path id="DejaVuSans-74" d="M 1172 4494 
L 1172 3500 
L 2356 3500 
L 2356 3053 
L 1172 3053 
L 1172 1153 
Q 1172 725 1289 603 
Q 1406 481 1766 481 
L 2356 481 
L 2356 0 
L 1766 0 
Q 1100 0 847 248 
Q 594 497 594 1153 
L 594 3053 
L 172 3053 
L 172 3500 
L 594 3500 
L 594 4494 
L 1172 4494 
z
" transform="scale(0.015625)"/>
       <path id="DejaVuSans-63" d="M 3122 3366 
L 3122 2828 
Q 2878 2963 2633 3030 
Q 2388 3097 2138 3097 
Q 1578 3097 1268 2742 
Q 959 2388 959 1747 
Q 959 1106 1268 751 
Q 1578 397 2138 397 
Q 2388 397 2633 464 
Q 2878 531 3122 666 
L 3122 134 
Q 2881 22 2623 -34 
Q 2366 -91 2075 -91 
Q 1284 -91 818 406 
Q 353 903 353 1747 
Q 353 2603 823 3093 
Q 1294 3584 2113 3584 
Q 2378 3584 2631 3529 
Q 2884 3475 3122 3366 
z
" transform="scale(0.015625)"/>
       <path id="DejaVuSans-6b" d="M 581 4863 
L 1159 4863 
L 1159 1991 
L 2875 3500 
L 3609 3500 
L 1753 1863 
L 3688 0 
L 2938 0 
L 1159 1709 
L 1159 0 
L 581 0 
L 581 4863 
z
" transform="scale(0.015625)"/>
       <path id="DejaVuSans-28" d="M 1984 4856 
Q 1566 4138 1362 3434 
Q 1159 2731 1159 2009 
Q 1159 1288 1364 580 
Q 1569 -128 1984 -844 
L 1484 -844 
Q 1016 -109 783 600 
Q 550 1309 550 2009 
Q 550 2706 781 3412 
Q 1013 4119 1484 4856 
L 1984 4856 
z
" transform="scale(0.015625)"/>
       <path id="DejaVuSans-67" d="M 2906 1791 
Q 2906 2416 2648 2759 
Q 2391 3103 1925 3103 
Q 1463 3103 1205 2759 
Q 947 2416 947 1791 
Q 947 1169 1205 825 
Q 1463 481 1925 481 
Q 2391 481 2648 825 
Q 2906 1169 2906 1791 
z
M 3481 434 
Q 3481 -459 3084 -895 
Q 2688 -1331 1869 -1331 
Q 1566 -1331 1297 -1286 
Q 1028 -1241 775 -1147 
L 775 -588 
Q 1028 -725 1275 -790 
Q 1522 -856 1778 -856 
Q 2344 -856 2625 -561 
Q 2906 -266 2906 331 
L 2906 616 
Q 2728 306 2450 153 
Q 2172 0 1784 0 
Q 1141 0 747 490 
Q 353 981 353 1791 
Q 353 2603 747 3093 
Q 1141 3584 1784 3584 
Q 2172 3584 2450 3431 
Q 2728 3278 2906 2969 
L 2906 3500 
L 3481 3500 
L 3481 434 
z
" transform="scale(0.015625)"/>
       <path id="DejaVuSans-66" d="M 2375 4863 
L 2375 4384 
L 1825 4384 
Q 1516 4384 1395 4259 
Q 1275 4134 1275 3809 
L 1275 3500 
L 2222 3500 
L 2222 3053 
L 1275 3053 
L 1275 0 
L 697 0 
L 697 3053 
L 147 3053 
L 147 3500 
L 697 3500 
L 697 3744 
Q 697 4328 969 4595 
Q 1241 4863 1831 4863 
L 2375 4863 
z
" transform="scale(0.015625)"/>
       <path id="DejaVuSans-6f" d="M 1959 3097 
Q 1497 3097 1228 2736 
Q 959 2375 959 1747 
Q 959 1119 1226 758 
Q 1494 397 1959 397 
Q 2419 397 2687 759 
Q 2956 1122 2956 1747 
Q 2956 2369 2687 2733 
Q 2419 3097 1959 3097 
z
M 1959 3584 
Q 2709 3584 3137 3096 
Q 3566 2609 3566 1747 
Q 3566 888 3137 398 
Q 2709 -91 1959 -91 
Q 1206 -91 779 398 
Q 353 888 353 1747 
Q 353 2609 779 3096 
Q 1206 3584 1959 3584 
z
" transform="scale(0.015625)"/>
       <path id="DejaVuSans-2c" d="M 750 794 
L 1409 794 
L 1409 256 
L 897 -744 
L 494 -744 
L 750 256 
L 750 794 
z
" transform="scale(0.015625)"/>
       <path id="DejaVuSans-4a" d="M 628 4666 
L 1259 4666 
L 1259 325 
Q 1259 -519 939 -900 
Q 619 -1281 -91 -1281 
L -331 -1281 
L -331 -750 
L -134 -750 
Q 284 -750 456 -515 
Q 628 -281 628 325 
L 628 4666 
z
" transform="scale(0.015625)"/>
       <path id="DejaVuSans-2f" d="M 1625 4666 
L 2156 4666 
L 531 -594 
L 0 -594 
L 1625 4666 
z
" transform="scale(0.015625)"/>
       <path id="DejaVuSans-6c" d="M 603 4863 
L 1178 4863 
L 1178 0 
L 603 0 
L 603 4863 
z
" transform="scale(0.015625)"/>
       <path id="DejaVuSans-29" d="M 513 4856 
L 1013 4856 
Q 1481 4119 1714 3412 
Q 1947 2706 1947 2009 
Q 1947 1309 1714 600 
Q 1481 -109 1013 -844 
L 513 -844 
Q 928 -128 1133 580 
Q 1338 1288 1338 2009 
Q 1338 2731 1133 3434 
Q 928 4138 513 4856 
z
" transform="scale(0.015625)"/>
      </defs>
      <use xlink:href="#DejaVuSans-73"/>
      <use xlink:href="#DejaVuSans-74" x="52.099609"/>
      <use xlink:href="#DejaVuSans-69" x="91.308594"/>
      <use xlink:href="#DejaVuSans-63" x="119.091797"/>
      <use xlink:href="#DejaVuSans-6b" x="174.072266"/>
      <use xlink:href="#DejaVuSans-69" x="231.982422"/>
      <use xlink:href="#DejaVuSans-6e" x="259.765625"/>
      <use xlink:href="#DejaVuSans-65" x="323.144531"/>
      <use xlink:href="#DejaVuSans-73" x="384.667969"/>
      <use xlink:href="#DejaVuSans-73" x="436.767578"/>
      <use xlink:href="#DejaVuSans-20" x="488.867188"/>
      <use xlink:href="#DejaVuSans-28" x="520.654297"/>
      <use xlink:href="#DejaVuSans-6d" x="559.667969"/>
      <use xlink:href="#DejaVuSans-65" x="657.080078"/>
      <use xlink:href="#DejaVuSans-61" x="718.603516"/>
      <use xlink:href="#DejaVuSans-6e" x="779.882812"/>
      <use xlink:href="#DejaVuSans-20" x="843.261719"/>
      <use xlink:href="#DejaVuSans-64" x="875.048828"/>
      <use xlink:href="#DejaVuSans-72" x="938.525391"/>
      <use xlink:href="#DejaVuSans-61" x="979.638672"/>
      <use xlink:href="#DejaVuSans-67" x="1040.917969"/>
      <use xlink:href="#DejaVuSans-20" x="1104.394531"/>
      <use xlink:href="#DejaVuSans-66" x="1136.181641"/>
      <use xlink:href="#DejaVuSans-6f" x="1171.386719"/>
      <use xlink:href="#DejaVuSans-72" x="1232.568359"/>
      <use xlink:href="#DejaVuSans-63" x="1271.431641"/>
      <use xlink:href="#DejaVuSans-65" x="1326.412109"/>
      <use xlink:href="#DejaVuSans-2c" x="1387.935547"/>
      <use xlink:href="#DejaVuSans-20" x="1419.722656"/>
      <use xlink:href="#DejaVuSans-6b" x="1451.509766"/>
      <use xlink:href="#DejaVuSans-4a" x="1509.419922"/>
      <use xlink:href="#DejaVuSans-2f" x="1538.912109"/>
      <use xlink:href="#DejaVuSans-6d" x="1572.603516"/>
      <use xlink:href="#DejaVuSans-6f" x="1670.015625"/>
      <use xlink:href="#DejaVuSans-6c" x="1731.197266"/>
      <use xlink:href="#DejaVuSans-2f" x="1758.980469"/>
      <use xlink:href="#DejaVuSans-6e" x="1792.671875"/>
      <use xlink:href="#DejaVuSans-6d" x="1856.050781"/>
      <use xlink:href="#DejaVuSans-29" x="1953.462891"/>
     </g>
    </g>
   </g>
   <g id="line2d_16">
    <path d="M 67.675991 209.176528 
L 71.881982 209.176528 
L 73.984977 195.020988 
L 76.087973 195.020988 
L 78.190968 199.519833 
L 80.293964 199.519833 
L 82.396959 202.333334 
L 84.499955 202.333334 
L 86.60295 189.413783 
L 88.705946 189.413783 
L 90.808941 198.790472 
L 92.911937 198.790472 
L 95.014932 191.977329 
L 97.117928 191.977329 
L 99.220923 197.688476 
L 101.323919 197.688476 
L 103.426914 195.182204 
L 105.52991 195.182204 
L 107.632905 193.774746 
L 109.735901 193.774746 
L 111.838896 189.555554 
L 116.044887 189.555554 
L 118.147883 197.244071 
L 120.250878 197.244071 
L 122.353874 201.982619 
L 124.456869 201.982619 
L 126.559865 201.482885 
L 128.66286 201.482885 
L 130.765856 187.736041 
L 132.868851 187.736041 
L 134.971847 185.121231 
L 137.074842 185.121231 
L 139.177838 183.325405 
L 141.280833 183.325405 
L 143.383829 187.91299 
L 145.486824 187.91299 
L 147.58982 177.959671 
L 149.692815 177.959671 
L 151.795811 179.583498 
L 153.898806 179.583498 
L 156.001802 169.734651 
L 158.104797 169.734651 
L 160.207793 179.251874 
L 164.413784 179.251874 
L 166.516779 181.363767 
L 168.619775 181.363767 
L 170.72277 179.243035 
L 172.825766 179.243035 
L 174.928761 183.482025 
L 177.031757 183.482025 
L 179.134752 191.507823 
L 181.237748 191.507823 
L 183.340743 174.626814 
L 185.443739 174.626814 
L 187.546734 171.375271 
L 189.64973 171.375271 
L 191.752725 196.416779 
L 193.855721 196.416779 
L 195.958716 181.757792 
L 198.061712 181.757792 
L 200.164707 174.17357 
L 202.267703 174.17357 
L 204.370698 165.578567 
L 206.473694 165.578567 
L 208.576689 157.694894 
L 210.679685 157.694894 
L 212.78268 181.420511 
L 216.988671 181.420511 
L 219.091667 176.459585 
L 221.194662 176.459585 
L 223.297658 187.180447 
L 225.400653 187.180447 
L 227.503649 195.56191 
L 229.606644 195.56191 
L 231.70964 198.895474 
L 233.812635 198.895474 
L 235.915631 202.334042 
L 238.018626 202.334042 
L 240.121622 204.693593 
L 242.224617 204.693593 
L 244.327613 202.118733 
L 246.430608 202.118733 
L 248.533604 212.083189 
L 252.739595 212.083189 
L 254.84259 212.935229 
L 259.048581 212.935229 
L 261.151577 203.419421 
L 263.254572 203.419421 
L 265.357568 201.044314 
L 267.460563 201.044314 
L 269.563559 196.295513 
L 271.666554 196.295513 
L 273.76955 191.829018 
L 280.078536 191.751768 
L 282.181532 175.692925 
L 284.284527 175.692925 
L 286.387523 186.026834 
L 288.490518 186.026834 
L 290.593514 192.105312 
L 292.696509 192.105312 
L 294.799505 193.562089 
L 301.108491 193.590373 
L 303.211486 194.076496 
L 305.314482 194.076496 
L 307.417477 197.665672 
L 311.623468 197.665672 
L 313.726464 199.68865 
L 315.829459 199.68865 
L 317.932455 197.839439 
L 320.03545 197.839439 
L 322.138446 199.238412 
L 328.447432 199.252023 
L 330.550428 201.564553 
L 332.653423 201.564553 
L 334.756419 202.787108 
L 336.859414 202.787108 
L 338.96241 198.292682 
L 341.065405 198.292682 
L 343.168401 196.459027 
L 345.271396 196.459027 
L 347.374392 201.921986 
L 349.477387 201.921986 
L 351.580383 191.962304 
L 353.683378 191.962304 
L 355.786374 193.773332 
L 357.889369 193.773332 
L 359.992365 199.477584 
L 362.09536 199.477584 
L 364.198356 203.550232 
L 366.301351 203.550232 
L 368.404347 196.912978 
L 370.507342 196.912978 
L 372.610338 193.991645 
L 376.816329 193.991645 
L 378.919324 190.189812 
L 381.02232 190.189812 
L 383.125315 199.351546 
L 385.228311 199.351546 
L 387.331306 198.338997 
L 389.434302 198.338997 
L 391.537297 190.654368 
L 393.640293 190.654368 
L 395.743288 191.822477 
L 397.846284 191.822477 
L 399.949279 194.003489 
L 402.052275 194.003489 
L 404.15527 196.342888 
L 406.258266 196.342888 
L 408.361261 183.094718 
L 410.464257 183.094718 
L 412.567252 190.85801 
L 414.670248 190.85801 
L 416.773243 192.091347 
L 418.876239 192.091347 
L 420.979234 181.057952 
L 423.08223 181.057952 
L 425.185225 206.382118 
L 427.288221 206.382118 
L 429.391216 217.754208 
L 431.494212 217.754208 
L 433.597207 216.577261 
L 437.803198 216.577261 
L 439.906194 193.059704 
L 444.112185 193.059704 
L 446.21518 188.622729 
L 448.318176 188.622729 
L 450.421171 178.299073 
L 452.524167 178.299073 
L 454.627162 156.709567 
L 456.730158 156.709567 
L 458.833153 160.471627 
L 460.936149 160.471627 
L 463.039144 170.568484 
L 465.14214 170.568484 
L 467.245135 154.362566 
L 469.348131 154.362566 
L 471.451126 183.232423 
L 473.554122 183.232423 
L 475.657117 188.716948 
L 477.760113 188.716948 
L 479.863108 162.331267 
L 481.966104 162.331267 
L 484.069099 161.972774 
L 486.172095 161.972774 
L 488.27509 157.279126 
L 490.378086 157.279126 
L 492.481081 158.065584 
L 494.584077 158.065584 
L 496.687072 153.441408 
L 498.790068 153.441408 
L 500.893063 149.635332 
L 505.099054 149.635332 
L 507.20205 145.383791 
L 509.305045 145.383791 
L 511.408041 145.559679 
L 513.511036 145.559679 
L 515.614032 151.764903 
L 517.717027 151.764903 
L 519.820023 168.160144 
L 521.923018 168.160144 
L 524.026014 186.511896 
L 526.129009 186.511896 
L 528.232005 185.144918 
L 530.335 185.144918 
L 532.437995 185.501998 
L 534.540991 185.501998 
L 536.643986 183.572356 
L 538.746982 183.572356 
L 540.849977 184.237548 
L 542.952973 184.237548 
L 545.055968 169.902584 
L 547.158964 169.902584 
L 549.261959 158.288494 
L 553.46795 158.288494 
L 555.570946 178.398419 
L 557.673941 178.398419 
L 559.776937 194.016216 
L 561.879932 194.016216 
L 563.982928 181.352808 
L 566.085923 181.352808 
L 568.188919 169.591466 
L 570.291914 169.591466 
L 572.39491 172.800406 
L 574.497905 172.800406 
L 576.600901 201.273057 
L 578.703896 201.273057 
L 580.806892 194.704566 
L 582.909887 194.704566 
L 585.012883 198.874792 
L 587.115878 198.874792 
L 589.218874 201.762538 
L 591.321869 201.762538 
L 593.424865 204.966705 
L 595.52786 204.966705 
L 597.630856 200.687942 
L 599.733851 200.687942 
L 601.836847 213.67555 
L 603.939842 213.67555 
L 606.042838 207.655229 
L 608.145833 207.655229 
L 610.248829 206.809199 
L 612.351824 206.809199 
L 614.45482 219.018658 
L 616.557815 219.018658 
L 618.660811 218.30556 
L 622.866802 218.30556 
L 624.969797 205.29338 
L 629.175788 205.29338 
L 631.278784 197.771912 
L 633.381779 197.771912 
L 635.484775 195.630144 
L 637.58777 195.630144 
L 639.690766 188.224815 
L 641.793761 188.224815 
L 643.896757 178.733932 
L 645.999752 178.733932 
L 648.102748 179.149876 
L 650.205743 179.149876 
L 652.308739 174.752145 
L 654.411734 174.752145 
L 656.51473 169.768238 
L 658.617725 169.768238 
L 660.720721 170.209107 
L 662.823716 170.209107 
L 664.926712 167.373155 
L 667.029707 167.373155 
L 669.132703 168.891626 
L 671.235698 168.891626 
L 673.338694 154.583885 
L 675.441689 154.583885 
L 677.544685 144.130655 
L 679.64768 144.130655 
L 681.750676 162.523065 
L 683.853671 162.523065 
L 685.956667 151.205951 
L 690.162658 151.205951 
L 692.265653 138.788962 
L 694.368649 138.788962 
L 696.471644 139.826436 
L 698.57464 139.826436 
L 700.677635 209.748032 
L 702.780631 209.748032 
L 704.883626 203.266867 
L 706.986622 203.266867 
L 709.089617 199.154622 
L 711.192613 199.154622 
L 713.295608 190.039909 
L 715.398604 190.039909 
L 717.501599 196.143136 
L 719.604595 196.143136 
L 721.70759 203.871604 
L 723.810586 203.871604 
L 725.913581 197.05139 
L 728.016577 197.05139 
L 730.119572 196.79401 
L 732.222568 196.79401 
L 734.325563 197.719234 
L 736.428559 197.719234 
L 738.531554 194.182736 
L 740.63455 194.182736 
L 742.737545 192.574818 
L 746.943536 192.574818 
L 749.046532 199.205002 
L 751.149527 199.205002 
L 753.252523 188.76397 
L 755.355518 188.76397 
L 757.458514 197.736911 
L 759.561509 197.736911 
L 761.664505 206.876549 
L 763.7675 206.876549 
L 765.870495 194.678757 
L 767.973491 194.678757 
L 770.076486 195.609462 
L 772.179482 195.609462 
L 774.282477 201.17866 
L 776.385473 201.17866 
L 778.488468 204.19651 
L 780.591464 204.19651 
L 782.694459 201.454955 
L 784.797455 201.454955 
L 786.90045 195.41678 
L 789.003446 195.41678 
L 791.106441 196.472639 
L 793.209437 196.472639 
L 795.312432 201.250783 
L 797.415428 201.250783 
L 799.518423 207.336863 
L 801.621419 207.336863 
L 803.724414 218.655391 
L 807.930405 218.655391 
L 810.033401 215.460769 
L 814.239392 215.460769 
L 816.342387 209.20658 
L 818.445383 209.20658 
L 820.548378 197.3093 
L 822.651374 197.3093 
L 824.754369 199.457432 
L 826.857365 199.457432 
L 828.96036 197.631555 
L 831.063356 197.631555 
L 833.166351 195.423321 
L 835.269347 195.423321 
L 837.372342 182.064491 
L 839.475338 182.064491 
L 841.578333 194.165942 
L 843.681329 194.165942 
L 845.784324 192.936317 
L 847.88732 192.936317 
L 849.990315 195.034069 
L 852.093311 195.034069 
L 854.196306 188.942509 
L 856.299302 188.942509 
L 858.402297 180.051236 
L 860.505293 180.051236 
L 862.608288 182.655617 
L 864.711284 182.655617 
L 866.814279 173.329838 
L 871.02027 173.329838 
L 873.123266 182.060779 
L 875.226261 182.060779 
L 877.329257 176.770526 
L 879.432252 176.770526 
L 881.535248 178.218111 
L 883.638243 178.218111 
L 885.741239 194.10036 
L 887.844234 194.10036 
L 889.94723 195.389204 
L 892.050225 195.389204 
L 894.153221 192.927125 
L 896.256216 192.927125 
L 898.359212 196.623425 
L 900.462207 196.623425 
L 902.565203 193.015157 
L 908.874189 192.971141 
L 910.977185 187.60523 
L 913.08018 187.60523 
L 915.183176 194.588781 
L 917.286171 194.588781 
L 919.389167 193.388146 
L 921.492162 193.388146 
L 923.595158 203.180072 
L 927.801149 203.180072 
L 929.904144 195.911565 
L 932.00714 195.911565 
L 934.110135 201.398388 
L 936.213131 201.398388 
L 938.316126 203.84385 
L 940.419122 203.84385 
L 942.522117 201.262097 
L 944.625113 201.262097 
L 946.728108 204.28083 
L 948.831104 204.28083 
L 950.934099 208.219839 
L 953.037095 208.219839 
L 955.14009 214.417815 
L 957.243086 214.417815 
L 959.346081 199.731075 
L 961.449077 199.731075 
L 963.552072 201.172473 
L 969.861059 201.234697 
L 971.964054 193.842096 
L 974.06705 193.842096 
L 976.170045 214.959268 
L 978.273041 214.959268 
L 980.376036 212.316174 
L 982.479032 212.316174 
L 984.582027 206.350299 
L 986.685023 206.350299 
L 988.788018 216.67148 
L 992.994009 216.67148 
L 992.994009 216.67148 
" clip-path="url(#p5328367f32)" style="fill: none; stroke: #111111; stroke-width: 1.1; stroke-linecap: square"/>
   </g>
   <g id="line2d_17">
    <path d="M 63.47 232.306071 
L 997.2 232.306071 
" clip-path="url(#p5328367f32)" style="fill: none; stroke: #999999; stroke-width: 0.6; stroke-linecap: square"/>
   </g>
   <g id="patch_17">
    <path d="M 63.47 260.44 
L 63.47 26.88 
" style="fill: none; stroke: #000000; stroke-width: 0.8; stroke-linejoin: miter; stroke-linecap: square"/>
   </g>
   <g id="patch_18">
    <path d="M 997.2 260.44 
L 997.2 26.88 
" style="fill: none; stroke: #000000; stroke-width: 0.8; stroke-linejoin: miter; stroke-linecap: square"/>
   </g>
   <g id="patch_19">
    <path d="M 63.47 260.44 
L 997.2 260.44 
" style="fill: none; stroke: #000000; stroke-width: 0.8; stroke-linejoin: miter; stroke-linecap: square"/>
   </g>
   <g id="patch_20">
    <path d="M 63.47 26.88 
L 997.2 26.88 
" style="fill: none; stroke: #000000; stroke-width: 0.8; stroke-linejoin: miter; stroke-linecap: square"/>
   </g>
   <g id="text_18">
    <!-- seg1 -->
    <g style="fill: #4477aa" transform="translate(150.578418 230.624644) scale(0.08 -0.08)">
     <use xlink:href="#DejaVuSans-73"/>
     <use xlink:href="#DejaVuSans-65" x="52.099609"/>
     <use xlink:href="#DejaVuSans-67" x="113.623047"/>
     <use xlink:href="#DejaVuSans-31" x="177.099609"/>
    </g>
   </g>
   <g id="text_19">
    <!-- seg2 -->
    <g style="fill: #66ccee" transform="translate(336.693519 230.624644) scale(0.08 -0.08)">
     <use xlink:href="#DejaVuSans-73"/>
     <use xlink:href="#DejaVuSans-65" x="52.099609"/>
     <use xlink:href="#DejaVuSans-67" x="113.623047"/>
     <use xlink:href="#DejaVuSans-32" x="177.099609"/>
    </g>
   </g>
   <g id="text_20">
    <!-- seg3 -->
    <g style="fill: #228833" transform="translate(521.757123 230.624644) scale(0.08 -0.08)">
     <use xlink:href="#DejaVuSans-73"/>
     <use xlink:href="#DejaVuSans-65" x="52.099609"/>
     <use xlink:href="#DejaVuSans-67" x="113.623047"/>
     <use xlink:href="#DejaVuSans-33" x="177.099609"/>
    </g>
   </g>
   <g id="text_21">
    <!-- seg4 -->
    <g style="fill: #ccbb44" transform="translate(706.820726 230.624644) scale(0.08 -0.08)">
     <use xlink:href="#DejaVuSans-73"/>
     <use xlink:href="#DejaVuSans-65" x="52.099609"/>
     <use xlink:href="#DejaVuSans-67" x="113.623047"/>
     <use xlink:href="#DejaVuSans-34" x="177.099609"/>
    </g>
   </g>
   <g id="text_22">
    <!-- seg5 -->
    <g style="fill: #ee6677" transform="translate(891.88433 230.624644) scale(0.08 -0.08)">
     <use xlink:href="#DejaVuSans-73"/>
     <use xlink:href="#DejaVuSans-65" x="52.099609"/>
     <use xlink:href="#DejaVuSans-67" x="113.623047"/>
     <use xlink:href="#DejaVuSans-35" x="177.099609"/>
    </g>
   </g>
   <g id="text_23">
    <!-- HSP299 -->
    <g style="fill: #7a1f12" transform="translate(740.266877 109.219591) scale(0.08 -0.08)">
     <defs>
      <path id="DejaVuSans-Bold-48" d="M 588 4666 
L 1791 4666 
L 1791 2888 
L 3566 2888 
L 3566 4666 
L 4769 4666 
L 4769 0 
L 3566 0 
L 3566 1978 
L 1791 1978 
L 1791 0 
L 588 0 
L 588 4666 
z
" transform="scale(0.015625)"/>
      <path id="DejaVuSans-Bold-53" d="M 3834 4519 
L 3834 3531 
Q 3450 3703 3084 3790 
Q 2719 3878 2394 3878 
Q 1963 3878 1756 3759 
Q 1550 3641 1550 3391 
Q 1550 3203 1689 3098 
Q 1828 2994 2194 2919 
L 2706 2816 
Q 3484 2659 3812 2340 
Q 4141 2022 4141 1434 
Q 4141 663 3683 286 
Q 3225 -91 2284 -91 
Q 1841 -91 1394 -6 
Q 947 78 500 244 
L 500 1259 
Q 947 1022 1364 901 
Q 1781 781 2169 781 
Q 2563 781 2772 912 
Q 2981 1044 2981 1288 
Q 2981 1506 2839 1625 
Q 2697 1744 2272 1838 
L 1806 1941 
Q 1106 2091 782 2419 
Q 459 2747 459 3303 
Q 459 4000 909 4375 
Q 1359 4750 2203 4750 
Q 2588 4750 2994 4692 
Q 3400 4634 3834 4519 
z
" transform="scale(0.015625)"/>
      <path id="DejaVuSans-Bold-50" d="M 588 4666 
L 2584 4666 
Q 3475 4666 3951 4270 
Q 4428 3875 4428 3144 
Q 4428 2409 3951 2014 
Q 3475 1619 2584 1619 
L 1791 1619 
L 1791 0 
L 588 0 
L 588 4666 
z
M 1791 3794 
L 1791 2491 
L 2456 2491 
Q 2806 2491 2997 2661 
Q 3188 2831 3188 3144 
Q 3188 3456 2997 3625 
Q 2806 3794 2456 3794 
L 1791 3794 
z
" transform="scale(0.015625)"/>
      <path id="DejaVuSans-Bold-32" d="M 1844 884 
L 3897 884 
L 3897 0 
L 506 0 
L 506 884 
L 2209 2388 
Q 2438 2594 2547 2791 
Q 2656 2988 2656 3200 
Q 2656 3528 2436 3728 
Q 2216 3928 1850 3928 
Q 1569 3928 1234 3808 
Q 900 3688 519 3450 
L 519 4475 
Q 925 4609 1322 4679 
Q 1719 4750 2100 4750 
Q 2938 4750 3402 4381 
Q 3866 4013 3866 3353 
Q 3866 2972 3669 2642 
Q 3472 2313 2841 1759 
L 1844 884 
z
" transform="scale(0.015625)"/>
      <path id="DejaVuSans-Bold-39" d="M 641 103 
L 641 966 
Q 928 831 1190 764 
Q 1453 697 1709 697 
Q 2247 697 2547 995 
Q 2847 1294 2900 1881 
Q 2688 1725 2447 1647 
Q 2206 1569 1925 1569 
Q 1209 1569 770 1986 
Q 331 2403 331 3084 
Q 331 3838 820 4291 
Q 1309 4744 2131 4744 
Q 3044 4744 3544 4128 
Q 4044 3513 4044 2388 
Q 4044 1231 3459 570 
Q 2875 -91 1856 -91 
Q 1528 -91 1228 -42 
Q 928 6 641 103 
z
M 2125 2350 
Q 2441 2350 2600 2554 
Q 2759 2759 2759 3169 
Q 2759 3575 2600 3781 
Q 2441 3988 2125 3988 
Q 1809 3988 1650 3781 
Q 1491 3575 1491 3169 
Q 1491 2759 1650 2554 
Q 1809 2350 2125 2350 
z
" transform="scale(0.015625)"/>
     </defs>
     <use xlink:href="#DejaVuSans-Bold-48"/>
     <use xlink:href="#DejaVuSans-Bold-53" x="83.691406"/>
     <use xlink:href="#DejaVuSans-Bold-50" x="155.712891"/>
     <use xlink:href="#DejaVuSans-Bold-32" x="229.003906"/>
     <use xlink:href="#DejaVuSans-Bold-39" x="298.583984"/>
     <use xlink:href="#DejaVuSans-Bold-39" x="368.164062"/>
    </g>
   </g>
   <g id="text_24">
    <!-- LYS298 -->
    <g style="fill: #7a1f12" transform="translate(653.003416 109.219591) scale(0.08 -0.08)">
     <defs>
      <path id="DejaVuSans-Bold-4c" d="M 588 4666 
L 1791 4666 
L 1791 909 
L 3903 909 
L 3903 0 
L 588 0 
L 588 4666 
z
" transform="scale(0.015625)"/>
      <path id="DejaVuSans-Bold-59" d="M -63 4666 
L 1253 4666 
L 2316 3003 
L 3378 4666 
L 4697 4666 
L 2919 1966 
L 2919 0 
L 1716 0 
L 1716 1966 
L -63 4666 
z
" transform="scale(0.015625)"/>
      <path id="DejaVuSans-Bold-38" d="M 2228 2088 
Q 1891 2088 1709 1903 
Q 1528 1719 1528 1375 
Q 1528 1031 1709 848 
Q 1891 666 2228 666 
Q 2563 666 2741 848 
Q 2919 1031 2919 1375 
Q 2919 1722 2741 1905 
Q 2563 2088 2228 2088 
z
M 1350 2484 
Q 925 2613 709 2878 
Q 494 3144 494 3541 
Q 494 4131 934 4440 
Q 1375 4750 2228 4750 
Q 3075 4750 3515 4442 
Q 3956 4134 3956 3541 
Q 3956 3144 3739 2878 
Q 3522 2613 3097 2484 
Q 3572 2353 3814 2058 
Q 4056 1763 4056 1313 
Q 4056 619 3595 264 
Q 3134 -91 2228 -91 
Q 1319 -91 855 264 
Q 391 619 391 1313 
Q 391 1763 633 2058 
Q 875 2353 1350 2484 
z
M 1631 3419 
Q 1631 3141 1786 2991 
Q 1941 2841 2228 2841 
Q 2509 2841 2662 2991 
Q 2816 3141 2816 3419 
Q 2816 3697 2662 3845 
Q 2509 3994 2228 3994 
Q 1941 3994 1786 3844 
Q 1631 3694 1631 3419 
z
" transform="scale(0.015625)"/>
     </defs>
     <use xlink:href="#DejaVuSans-Bold-4c"/>
     <use xlink:href="#DejaVuSans-Bold-59" x="48.095703"/>
     <use xlink:href="#DejaVuSans-Bold-53" x="120.507812"/>
     <use xlink:href="#DejaVuSans-Bold-32" x="192.529297"/>
     <use xlink:href="#DejaVuSans-Bold-39" x="262.109375"/>
     <use xlink:href="#DejaVuSans-Bold-38" x="331.689453"/>
    </g>
   </g>
   <g id="text_25">
    <!-- VAL300 -->
    <g style="fill: #7a1f12" transform="translate(713.677295 131.923114) scale(0.08 -0.08)">
     <defs>
      <path id="DejaVuSans-Bold-56" d="M 31 4666 
L 1241 4666 
L 2478 1222 
L 3713 4666 
L 4922 4666 
L 3194 0 
L 1759 0 
L 31 4666 
z
" transform="scale(0.015625)"/>
      <path id="DejaVuSans-Bold-41" d="M 3419 850 
L 1538 850 
L 1241 0 
L 31 0 
L 1759 4666 
L 3194 4666 
L 4922 0 
L 3713 0 
L 3419 850 
z
M 1838 1716 
L 3116 1716 
L 2478 3572 
L 1838 1716 
z
" transform="scale(0.015625)"/>
      <path id="DejaVuSans-Bold-33" d="M 2981 2516 
Q 3453 2394 3698 2092 
Q 3944 1791 3944 1325 
Q 3944 631 3412 270 
Q 2881 -91 1863 -91 
Q 1503 -91 1142 -33 
Q 781 25 428 141 
L 428 1069 
Q 766 900 1098 814 
Q 1431 728 1753 728 
Q 2231 728 2486 893 
Q 2741 1059 2741 1369 
Q 2741 1688 2480 1852 
Q 2219 2016 1709 2016 
L 1228 2016 
L 1228 2791 
L 1734 2791 
Q 2188 2791 2409 2933 
Q 2631 3075 2631 3366 
Q 2631 3634 2415 3781 
Q 2200 3928 1806 3928 
Q 1516 3928 1219 3862 
Q 922 3797 628 3669 
L 628 4550 
Q 984 4650 1334 4700 
Q 1684 4750 2022 4750 
Q 2931 4750 3382 4451 
Q 3834 4153 3834 3553 
Q 3834 3144 3618 2883 
Q 3403 2622 2981 2516 
z
" transform="scale(0.015625)"/>
      <path id="DejaVuSans-Bold-30" d="M 2944 2338 
Q 2944 3213 2780 3570 
Q 2616 3928 2228 3928 
Q 1841 3928 1675 3570 
Q 1509 3213 1509 2338 
Q 1509 1453 1675 1090 
Q 1841 728 2228 728 
Q 2613 728 2778 1090 
Q 2944 1453 2944 2338 
z
M 4147 2328 
Q 4147 1169 3647 539 
Q 3147 -91 2228 -91 
Q 1306 -91 806 539 
Q 306 1169 306 2328 
Q 306 3491 806 4120 
Q 1306 4750 2228 4750 
Q 3147 4750 3647 4120 
Q 4147 3491 4147 2328 
z
" transform="scale(0.015625)"/>
     </defs>
     <use xlink:href="#DejaVuSans-Bold-56"/>
     <use xlink:href="#DejaVuSans-Bold-41" x="70.642578"/>
     <use xlink:href="#DejaVuSans-Bold-4c" x="148.035156"/>
     <use xlink:href="#DejaVuSans-Bold-33" x="211.755859"/>
     <use xlink:href="#DejaVuSans-Bold-30" x="281.335938"/>
     <use xlink:href="#DejaVuSans-Bold-30" x="350.916016"/>
    </g>
   </g>
   <g id="text_26">
    <!-- PRO301 -->
    <g style="fill: #7a1f12" transform="translate(790.351016 138.422928) scale(0.08 -0.08)">
     <defs>
      <path id="DejaVuSans-Bold-52" d="M 2297 2597 
Q 2675 2597 2839 2737 
Q 3003 2878 3003 3200 
Q 3003 3519 2839 3656 
Q 2675 3794 2297 3794 
L 1791 3794 
L 1791 2597 
L 2297 2597 
z
M 1791 1766 
L 1791 0 
L 588 0 
L 588 4666 
L 2425 4666 
Q 3347 4666 3776 4356 
Q 4206 4047 4206 3378 
Q 4206 2916 3982 2619 
Q 3759 2322 3309 2181 
Q 3556 2125 3751 1926 
Q 3947 1728 4147 1325 
L 4800 0 
L 3519 0 
L 2950 1159 
Q 2778 1509 2601 1637 
Q 2425 1766 2131 1766 
L 1791 1766 
z
" transform="scale(0.015625)"/>
      <path id="DejaVuSans-Bold-4f" d="M 2719 3878 
Q 2169 3878 1866 3472 
Q 1563 3066 1563 2328 
Q 1563 1594 1866 1187 
Q 2169 781 2719 781 
Q 3272 781 3575 1187 
Q 3878 1594 3878 2328 
Q 3878 3066 3575 3472 
Q 3272 3878 2719 3878 
z
M 2719 4750 
Q 3844 4750 4481 4106 
Q 5119 3463 5119 2328 
Q 5119 1197 4481 553 
Q 3844 -91 2719 -91 
Q 1597 -91 958 553 
Q 319 1197 319 2328 
Q 319 3463 958 4106 
Q 1597 4750 2719 4750 
z
" transform="scale(0.015625)"/>
      <path id="DejaVuSans-Bold-31" d="M 750 831 
L 1813 831 
L 1813 3847 
L 722 3622 
L 722 4441 
L 1806 4666 
L 2950 4666 
L 2950 831 
L 4013 831 
L 4013 0 
L 750 0 
L 750 831 
z
" transform="scale(0.015625)"/>
     </defs>
     <use xlink:href="#DejaVuSans-Bold-50"/>
     <use xlink:href="#DejaVuSans-Bold-52" x="73.291016"/>
     <use xlink:href="#DejaVuSans-Bold-4f" x="150.292969"/>
     <use xlink:href="#DejaVuSans-Bold-33" x="235.302734"/>
     <use xlink:href="#DejaVuSans-Bold-30" x="304.882812"/>
     <use xlink:href="#DejaVuSans-Bold-31" x="374.462891"/>
    </g>
   </g>
   <g id="text_27">
    <!-- GLY292 -->
    <g style="fill: #7a1f12" transform="translate(716.671472 162.948792) scale(0.08 -0.08)">
     <defs>
      <path id="DejaVuSans-Bold-47" d="M 4781 347 
Q 4331 128 3847 18 
Q 3363 -91 2847 -91 
Q 1681 -91 1000 561 
Q 319 1213 319 2328 
Q 319 3456 1012 4103 
Q 1706 4750 2913 4750 
Q 3378 4750 3804 4662 
Q 4231 4575 4609 4403 
L 4609 3438 
Q 4219 3659 3833 3768 
Q 3447 3878 3059 3878 
Q 2341 3878 1952 3476 
Q 1563 3075 1563 2328 
Q 1563 1588 1938 1184 
Q 2313 781 3003 781 
Q 3191 781 3352 804 
Q 3513 828 3641 878 
L 3641 1784 
L 2906 1784 
L 2906 2591 
L 4781 2591 
L 4781 347 
z
" transform="scale(0.015625)"/>
     </defs>
     <use xlink:href="#DejaVuSans-Bold-47"/>
     <use xlink:href="#DejaVuSans-Bold-4c" x="82.080078"/>
     <use xlink:href="#DejaVuSans-Bold-59" x="130.175781"/>
     <use xlink:href="#DejaVuSans-Bold-32" x="202.587891"/>
     <use xlink:href="#DejaVuSans-Bold-39" x="272.167969"/>
     <use xlink:href="#DejaVuSans-Bold-32" x="341.748047"/>
    </g>
   </g>
   <g id="text_28">
    <!-- CYS291 -->
    <g style="fill: #7a1f12" transform="translate(644.263627 155.004574) scale(0.08 -0.08)">
     <defs>
      <path id="DejaVuSans-Bold-43" d="M 4288 256 
Q 3956 84 3597 -3 
Q 3238 -91 2847 -91 
Q 1681 -91 1000 561 
Q 319 1213 319 2328 
Q 319 3447 1000 4098 
Q 1681 4750 2847 4750 
Q 3238 4750 3597 4662 
Q 3956 4575 4288 4403 
L 4288 3438 
Q 3953 3666 3628 3772 
Q 3303 3878 2944 3878 
Q 2300 3878 1931 3465 
Q 1563 3053 1563 2328 
Q 1563 1606 1931 1193 
Q 2300 781 2944 781 
Q 3303 781 3628 887 
Q 3953 994 4288 1222 
L 4288 256 
z
" transform="scale(0.015625)"/>
     </defs>
     <use xlink:href="#DejaVuSans-Bold-43"/>
     <use xlink:href="#DejaVuSans-Bold-59" x="73.388672"/>
     <use xlink:href="#DejaVuSans-Bold-53" x="145.800781"/>
     <use xlink:href="#DejaVuSans-Bold-32" x="217.822266"/>
     <use xlink:href="#DejaVuSans-Bold-39" x="287.402344"/>
     <use xlink:href="#DejaVuSans-Bold-31" x="356.982422"/>
    </g>
   </g>
   <g id="text_29">
    <!-- SER210 -->
    <g style="fill: #7a1f12" transform="translate(471.002109 133.147259) scale(0.08 -0.08)">
     <defs>
      <path id="DejaVuSans-Bold-45" d="M 588 4666 
L 3834 4666 
L 3834 3756 
L 1791 3756 
L 1791 2888 
L 3713 2888 
L 3713 1978 
L 1791 1978 
L 1791 909 
L 3903 909 
L 3903 0 
L 588 0 
L 588 4666 
z
" transform="scale(0.015625)"/>
     </defs>
     <use xlink:href="#DejaVuSans-Bold-53"/>
     <use xlink:href="#DejaVuSans-Bold-45" x="72.021484"/>
     <use xlink:href="#DejaVuSans-Bold-52" x="140.332031"/>
     <use xlink:href="#DejaVuSans-Bold-32" x="217.333984"/>
     <use xlink:href="#DejaVuSans-Bold-31" x="286.914062"/>
     <use xlink:href="#DejaVuSans-Bold-30" x="356.494141"/>
    </g>
   </g>
   <g id="text_30">
    <!-- ARG211 -->
    <g style="fill: #7a1f12" transform="translate(538.273985 133.147259) scale(0.08 -0.08)">
     <use xlink:href="#DejaVuSans-Bold-41"/>
     <use xlink:href="#DejaVuSans-Bold-52" x="77.392578"/>
     <use xlink:href="#DejaVuSans-Bold-47" x="154.394531"/>
     <use xlink:href="#DejaVuSans-Bold-32" x="236.474609"/>
     <use xlink:href="#DejaVuSans-Bold-31" x="306.054688"/>
     <use xlink:href="#DejaVuSans-Bold-31" x="375.634766"/>
    </g>
   </g>
   <g id="text_31">
    <!-- PRO213 -->
    <g style="fill: #7a1f12" transform="translate(546.1109 149.211582) scale(0.08 -0.08)">
     <use xlink:href="#DejaVuSans-Bold-50"/>
     <use xlink:href="#DejaVuSans-Bold-52" x="73.291016"/>
     <use xlink:href="#DejaVuSans-Bold-4f" x="150.292969"/>
     <use xlink:href="#DejaVuSans-Bold-32" x="235.302734"/>
     <use xlink:href="#DejaVuSans-Bold-31" x="304.882812"/>
     <use xlink:href="#DejaVuSans-Bold-33" x="374.462891"/>
    </g>
   </g>
   <g id="text_32">
    <!-- HS binding along Tau (stickiness) — 3 replicas/segment, mean ± SD -->
    <g transform="translate(325.9825 20.88) scale(0.12 -0.12)">
     <defs>
      <path id="DejaVuSans-48" d="M 628 4666 
L 1259 4666 
L 1259 2753 
L 3553 2753 
L 3553 4666 
L 4184 4666 
L 4184 0 
L 3553 0 
L 3553 2222 
L 1259 2222 
L 1259 0 
L 628 0 
L 628 4666 
z
" transform="scale(0.015625)"/>
      <path id="DejaVuSans-53" d="M 3425 4513 
L 3425 3897 
Q 3066 4069 2747 4153 
Q 2428 4238 2131 4238 
Q 1616 4238 1336 4038 
Q 1056 3838 1056 3469 
Q 1056 3159 1242 3001 
Q 1428 2844 1947 2747 
L 2328 2669 
Q 3034 2534 3370 2195 
Q 3706 1856 3706 1288 
Q 3706 609 3251 259 
Q 2797 -91 1919 -91 
Q 1588 -91 1214 -16 
Q 841 59 441 206 
L 441 856 
Q 825 641 1194 531 
Q 1563 422 1919 422 
Q 2459 422 2753 634 
Q 3047 847 3047 1241 
Q 3047 1584 2836 1778 
Q 2625 1972 2144 2069 
L 1759 2144 
Q 1053 2284 737 2584 
Q 422 2884 422 3419 
Q 422 4038 858 4394 
Q 1294 4750 2059 4750 
Q 2388 4750 2728 4690 
Q 3069 4631 3425 4513 
z
" transform="scale(0.015625)"/>
      <path id="DejaVuSans-2014" d="M 313 1978 
L 6088 1978 
L 6088 1528 
L 313 1528 
L 313 1978 
z
" transform="scale(0.015625)"/>
      <path id="DejaVuSans-70" d="M 1159 525 
L 1159 -1331 
L 581 -1331 
L 581 3500 
L 1159 3500 
L 1159 2969 
Q 1341 3281 1617 3432 
Q 1894 3584 2278 3584 
Q 2916 3584 3314 3078 
Q 3713 2572 3713 1747 
Q 3713 922 3314 415 
Q 2916 -91 2278 -91 
Q 1894 -91 1617 61 
Q 1341 213 1159 525 
z
M 3116 1747 
Q 3116 2381 2855 2742 
Q 2594 3103 2138 3103 
Q 1681 3103 1420 2742 
Q 1159 2381 1159 1747 
Q 1159 1113 1420 752 
Q 1681 391 2138 391 
Q 2594 391 2855 752 
Q 3116 1113 3116 1747 
z
" transform="scale(0.015625)"/>
      <path id="DejaVuSans-b1" d="M 2944 4013 
L 2944 2803 
L 4684 2803 
L 4684 2272 
L 2944 2272 
L 2944 1063 
L 2419 1063 
L 2419 2272 
L 678 2272 
L 678 2803 
L 2419 2803 
L 2419 4013 
L 2944 4013 
z
M 678 531 
L 4684 531 
L 4684 0 
L 678 0 
L 678 531 
z
" transform="scale(0.015625)"/>
      <path id="DejaVuSans-44" d="M 1259 4147 
L 1259 519 
L 2022 519 
Q 2988 519 3436 956 
Q 3884 1394 3884 2338 
Q 3884 3275 3436 3711 
Q 2988 4147 2022 4147 
L 1259 4147 
z
M 628 4666 
L 1925 4666 
Q 3281 4666 3915 4102 
Q 4550 3538 4550 2338 
Q 4550 1131 3912 565 
Q 3275 0 1925 0 
L 628 0 
L 628 4666 
z
" transform="scale(0.015625)"/>
     </defs>
     <use xlink:href="#DejaVuSans-48"/>
     <use xlink:href="#DejaVuSans-53" x="75.195312"/>
     <use xlink:href="#DejaVuSans-20" x="138.671875"/>
     <use xlink:href="#DejaVuSans-62" x="170.458984"/>
     <use xlink:href="#DejaVuSans-69" x="233.935547"/>
     <use xlink:href="#DejaVuSans-6e" x="261.71875"/>
     <use xlink:href="#DejaVuSans-64" x="325.097656"/>
     <use xlink:href="#DejaVuSans-69" x="388.574219"/>
     <use xlink:href="#DejaVuSans-6e" x="416.357422"/>
     <use xlink:href="#DejaVuSans-67" x="479.736328"/>
     <use xlink:href="#DejaVuSans-20" x="543.212891"/>
     <use xlink:href="#DejaVuSans-61" x="575"/>
     <use xlink:href="#DejaVuSans-6c" x="636.279297"/>
     <use xlink:href="#DejaVuSans-6f" x="664.0625"/>
     <use xlink:href="#DejaVuSans-6e" x="725.244141"/>
     <use xlink:href="#DejaVuSans-67" x="788.623047"/>
     <use xlink:href="#DejaVuSans-20" x="852.099609"/>
     <use xlink:href="#DejaVuSans-54" x="883.886719"/>
     <use xlink:href="#DejaVuSans-61" x="928.470703"/>
     <use xlink:href="#DejaVuSans-75" x="989.75"/>
     <use xlink:href="#DejaVuSans-20" x="1053.128906"/>
     <use xlink:href="#DejaVuSans-28" x="1084.916016"/>
     <use xlink:href="#DejaVuSans-73" x="1123.929688"/>
     <use xlink:href="#DejaVuSans-74" x="1176.029297"/>
     <use xlink:href="#DejaVuSans-69" x="1215.238281"/>
     <use xlink:href="#DejaVuSans-63" x="1243.021484"/>
     <use xlink:href="#DejaVuSans-6b" x="1298.001953"/>
     <use xlink:href="#DejaVuSans-69" x="1355.912109"/>
     <use xlink:href="#DejaVuSans-6e" x="1383.695312"/>
     <use xlink:href="#DejaVuSans-65" x="1447.074219"/>
     <use xlink:href="#DejaVuSans-73" x="1508.597656"/>
     <use xlink:href="#DejaVuSans-73" x="1560.697266"/>
     <use xlink:href="#DejaVuSans-29" x="1612.796875"/>
     <use xlink:href="#DejaVuSans-20" x="1651.810547"/>
     <use xlink:href="#DejaVuSans-2014" x="1683.597656"/>
     <use xlink:href="#DejaVuSans-20" x="1783.597656"/>
     <use xlink:href="#DejaVuSans-33" x="1815.384766"/>
     <use xlink:href="#DejaVuSans-20" x="1879.007812"/>
     <use xlink:href="#DejaVuSans-72" x="1910.794922"/>
     <use xlink:href="#DejaVuSans-65" x="1949.658203"/>
     <use xlink:href="#DejaVuSans-70" x="2011.181641"/>
     <use xlink:href="#DejaVuSans-6c" x="2074.658203"/>
     <use xlink:href="#DejaVuSans-69" x="2102.441406"/>
     <use xlink:href="#DejaVuSans-63" x="2130.224609"/>
     <use xlink:href="#DejaVuSans-61" x="2185.205078"/>
     <use xlink:href="#DejaVuSans-73" x="2246.484375"/>
     <use xlink:href="#DejaVuSans-2f" x="2298.583984"/>
     <use xlink:href="#DejaVuSans-73" x="2332.275391"/>
     <use xlink:href="#DejaVuSans-65" x="2384.375"/>
     <use xlink:href="#DejaVuSans-67" x="2445.898438"/>
     <use xlink:href="#DejaVuSans-6d" x="2509.375"/>
     <use xlink:href="#DejaVuSans-65" x="2606.787109"/>
     <use xlink:href="#DejaVuSans-6e" x="2668.310547"/>
     <use xlink:href="#DejaVuSans-74" x="2731.689453"/>
     <use xlink:href="#DejaVuSans-2c" x="2770.898438"/>
     <use xlink:href="#DejaVuSans-20" x="2802.685547"/>
     <use xlink:href="#DejaVuSans-6d" x="2834.472656"/>
     <use xlink:href="#DejaVuSans-65" x="2931.884766"/>
     <use xlink:href="#DejaVuSans-61" x="2993.408203"/>
     <use xlink:href="#DejaVuSans-6e" x="3054.6875"/>
     <use xlink:href="#DejaVuSans-20" x="3118.066406"/>
     <use xlink:href="#DejaVuSans-b1" x="3149.853516"/>
     <use xlink:href="#DejaVuSans-20" x="3233.642578"/>
     <use xlink:href="#DejaVuSans-53" x="3265.429688"/>
     <use xlink:href="#DejaVuSans-44" x="3328.90625"/>
    </g>
   </g>
   <g id="PathCollection_1">
    <defs>
     <path id="m1012fd9f01" d="M 0 1.870829 
C 0.49615 1.870829 0.972045 1.673706 1.322876 1.322876 
C 1.673706 0.972045 1.870829 0.49615 1.870829 0 
C 1.870829 -0.49615 1.673706 -0.972045 1.322876 -1.322876 
C 0.972045 -1.673706 0.49615 -1.870829 0 -1.870829 
C -0.49615 -1.870829 -0.972045 -1.673706 -1.322876 -1.322876 
C -1.673706 -0.972045 -1.870829 -0.49615 -1.870829 0 
C -1.870829 0.49615 -1.673706 0.972045 -1.322876 1.322876 
C -0.972045 1.673706 -0.49615 1.870829 0 1.870829 
z
" style="stroke: #c0392b"/>
    </defs>
    <g clip-path="url(#p5328367f32)">
     <use xlink:href="#m1012fd9f01" x="694.368649" y="138.788962" style="fill: #c0392b; stroke: #c0392b"/>
    </g>
   </g>
   <g id="PathCollection_2">
    <g clip-path="url(#p5328367f32)">
     <use xlink:href="#m1012fd9f01" x="692.265653" y="138.788962" style="fill: #c0392b; stroke: #c0392b"/>
    </g>
   </g>
   <g id="PathCollection_3">
    <g clip-path="url(#p5328367f32)">
     <use xlink:href="#m1012fd9f01" x="696.471644" y="139.826436" style="fill: #c0392b; stroke: #c0392b"/>
    </g>
   </g>
   <g id="PathCollection_4">
    <g clip-path="url(#p5328367f32)">
     <use xlink:href="#m1012fd9f01" x="698.57464" y="139.826436" style="fill: #c0392b; stroke: #c0392b"/>
    </g>
   </g>
   <g id="PathCollection_5">
    <g clip-path="url(#p5328367f32)">
     <use xlink:href="#m1012fd9f01" x="679.64768" y="144.130655" style="fill: #c0392b; stroke: #c0392b"/>
    </g>
   </g>
   <g id="PathCollection_6">
    <g clip-path="url(#p5328367f32)">
     <use xlink:href="#m1012fd9f01" x="677.544685" y="144.130655" style="fill: #c0392b; stroke: #c0392b"/>
    </g>
   </g>
   <g id="PathCollection_7">
    <g clip-path="url(#p5328367f32)">
     <use xlink:href="#m1012fd9f01" x="507.20205" y="145.383791" style="fill: #c0392b; stroke: #c0392b"/>
    </g>
   </g>
   <g id="PathCollection_8">
    <g clip-path="url(#p5328367f32)">
     <use xlink:href="#m1012fd9f01" x="509.305045" y="145.383791" style="fill: #c0392b; stroke: #c0392b"/>
    </g>
   </g>
   <g id="PathCollection_9">
    <g clip-path="url(#p5328367f32)">
     <use xlink:href="#m1012fd9f01" x="513.511036" y="145.559679" style="fill: #c0392b; stroke: #c0392b"/>
    </g>
   </g>
   <g id="legend_1">
    <g id="patch_21">
     <path d="M 886.30875 56.765 
L 991.6 56.765 
Q 993.2 56.765 993.2 55.165 
L 993.2 32.48 
Q 993.2 30.88 991.6 30.88 
L 886.30875 30.88 
Q 884.70875 30.88 884.70875 32.48 
L 884.70875 55.165 
Q 884.70875 56.765 886.30875 56.765 
z
" style="fill: #ffffff; opacity: 0.9; stroke: #cccccc; stroke-linejoin: miter"/>
    </g>
    <g id="patch_22">
     <path d="M 887.90875 40.15875 
L 903.90875 40.15875 
L 903.90875 34.55875 
L 887.90875 34.55875 
z
" style="fill: #888888; fill-opacity: 0.25"/>
    </g>
    <g id="text_33">
     <!-- ±SD across replicas -->
     <g transform="translate(910.30875 40.15875) scale(0.08 -0.08)">
      <use xlink:href="#DejaVuSans-b1"/>
      <use xlink:href="#DejaVuSans-53" x="83.789062"/>
      <use xlink:href="#DejaVuSans-44" x="147.265625"/>
      <use xlink:href="#DejaVuSans-20" x="224.267578"/>
      <use xlink:href="#DejaVuSans-61" x="256.054688"/>
      <use xlink:href="#DejaVuSans-63" x="317.333984"/>
      <use xlink:href="#DejaVuSans-72" x="372.314453"/>
      <use xlink:href="#DejaVuSans-6f" x="411.177734"/>
      <use xlink:href="#DejaVuSans-73" x="472.359375"/>
      <use xlink:href="#DejaVuSans-73" x="524.458984"/>
      <use xlink:href="#DejaVuSans-20" x="576.558594"/>
      <use xlink:href="#DejaVuSans-72" x="608.345703"/>
      <use xlink:href="#DejaVuSans-65" x="647.208984"/>
      <use xlink:href="#DejaVuSans-70" x="708.732422"/>
      <use xlink:href="#DejaVuSans-6c" x="772.208984"/>
      <use xlink:href="#DejaVuSans-69" x="799.992188"/>
      <use xlink:href="#DejaVuSans-63" x="827.775391"/>
      <use xlink:href="#DejaVuSans-61" x="882.755859"/>
      <use xlink:href="#DejaVuSans-73" x="944.035156"/>
     </g>
    </g>
    <g id="line2d_18">
     <path d="M 887.90875 49.10125 
L 895.90875 49.10125 
L 903.90875 49.10125 
" style="fill: none; stroke: #111111; stroke-width: 1.1; stroke-linecap: square"/>
    </g>
    <g id="text_34">
     <!-- replica mean -->
     <g transform="translate(910.30875 51.90125) scale(0.08 -0.08)">
      <use xlink:href="#DejaVuSans-72"/>
      <use xlink:href="#DejaVuSans-65" x="38.863281"/>
      <use xlink:href="#DejaVuSans-70" x="100.386719"/>
      <use xlink:href="#DejaVuSans-6c" x="163.863281"/>
      <use xlink:href="#DejaVuSans-69" x="191.646484"/>
      <use xlink:href="#DejaVuSans-63" x="219.429688"/>
      <use xlink:href="#DejaVuSans-61" x="274.410156"/>
      <use xlink:href="#DejaVuSans-20" x="335.689453"/>
      <use xlink:href="#DejaVuSans-6d" x="367.476562"/>
      <use xlink:href="#DejaVuSans-65" x="464.888672"/>
      <use xlink:href="#DejaVuSans-61" x="526.412109"/>
      <use xlink:href="#DejaVuSans-6e" x="587.691406"/>
     </g>
    </g>
   </g>
  </g>
 </g>
 <defs>
  <clipPath id="p5328367f32">
   <rect x="63.47" y="26.88" width="933.73" height="233.56"/>
  </clipPath>
 </defs>
</svg>
